<svg width="34" height="49" viewBox="0 0 34 49" fill="none" xmlns="http://www.w3.org/2000/svg">
<path d="M20.0077 15.4867C19.8892 15.4664 19.7678 15.4708 19.651 15.4995C19.5342 15.5282 19.4247 15.5808 19.3291 15.6538V12.9458H22.5902C22.6964 12.9452 22.8014 12.9235 22.8992 12.8821C22.997 12.8407 23.0857 12.7803 23.16 12.7044C23.2344 12.6286 23.293 12.5388 23.3325 12.4402C23.372 12.3416 23.3916 12.2362 23.3902 12.1299V5.9184C23.8286 5.7785 24.2287 5.53936 24.5596 5.21958C24.9484 4.82919 25.2128 4.33235 25.3195 3.7918C25.4261 3.25124 25.3702 2.6912 25.1589 2.18238C24.9475 1.67356 24.5901 1.23877 24.1318 0.932901C23.6736 0.627029 23.1349 0.46379 22.584 0.46379C22.033 0.46379 21.4944 0.627029 21.0361 0.932901C20.5778 1.23877 20.2204 1.67356 20.0091 2.18238C19.7977 2.6912 19.7418 3.25124 19.8485 3.7918C19.9551 4.33235 20.2195 4.82919 20.6083 5.21958C20.9348 5.53904 21.331 5.77827 21.7658 5.9184V11.3214H18.5538C18.3349 11.3192 18.1238 11.4025 17.9653 11.5534C17.8067 11.7044 17.7132 11.9112 17.7047 12.1299V21.2858C17.7047 21.5012 17.7902 21.7078 17.9426 21.8601C18.0949 22.0124 18.3015 22.098 18.5169 22.098C18.7323 22.098 18.9389 22.0124 19.0912 21.8601C19.2435 21.7078 19.3291 21.5012 19.3291 21.2858V16.917C19.4405 17.0017 19.5704 17.0588 19.7082 17.0834C21.0823 17.34 22.4146 17.7841 23.6678 18.4032L20.9652 21.1303C20.5848 21.5168 20.3202 22.002 20.2014 22.531C20.0825 23.0601 20.1142 23.6118 20.2928 24.1238L22.2023 29.5483C22.299 29.8242 22.2973 30.1251 22.1973 30.3999C22.0974 30.6747 21.9054 30.9064 21.6541 31.0558L19.6616 32.2335C19.198 32.5053 18.82 32.9017 18.5706 33.3776C18.3211 33.8535 18.2102 34.3899 18.2504 34.9258C18.2514 34.9395 18.2527 34.9533 18.2543 34.9669L18.685 38.4708C18.7738 39.2037 19.141 39.8743 19.7104 40.344L25.2177 44.9012C23.5185 46.0082 21.6157 46.7655 19.6204 47.1287C17.6252 47.4919 15.5776 47.4537 13.5973 47.0165L16.2688 44.621C16.595 44.3302 16.8506 43.9688 17.016 43.5642C17.1814 43.1596 17.2522 42.7226 17.2231 42.2865L16.7112 34.2713C16.7093 34.2407 16.7056 34.2102 16.7002 34.18C16.6347 33.8086 16.4967 33.4539 16.2941 33.1359C16.0914 32.8179 15.8282 32.5429 15.5193 32.3267L14.1765 31.3818C13.8432 31.1475 13.4641 30.9862 13.0642 30.9087C12.6642 30.8311 12.2524 30.839 11.8557 30.9317L10.2905 31.2984C10.0802 31.3476 9.86087 31.3421 9.65333 31.2824C9.44579 31.2227 9.25701 31.1108 9.10499 30.9574C8.95296 30.804 8.84277 30.6143 8.78492 30.4062C8.72707 30.1982 8.72349 29.9787 8.77452 29.7689L9.04519 28.6563C9.18051 28.0903 9.14273 27.4967 8.93674 26.9524C8.73075 26.4082 8.36606 25.9383 7.88991 25.6037C6.12333 24.3746 5.04714 23.7304 4.34904 23.3921C5.90692 21.1104 8.07113 19.3093 10.5977 18.1916V21.2858C10.5977 21.5012 10.6833 21.7078 10.8356 21.8601C10.988 22.0124 11.1946 22.098 11.41 22.098C11.6254 22.098 11.832 22.0124 11.9843 21.8601C12.1366 21.7078 12.2222 21.5012 12.2222 21.2858V12.1299C12.2136 11.9112 12.1201 11.7044 11.9616 11.5534C11.803 11.4025 11.5919 11.3192 11.373 11.3214H8.16109V5.9184C8.59584 5.77831 8.99207 5.53908 9.3185 5.21958C9.70988 4.8288 9.97655 4.33071 10.0848 3.78833C10.193 3.24594 10.1379 2.68365 9.92641 2.1726C9.71496 1.66154 9.35666 1.2247 8.89686 0.917341C8.43705 0.609982 7.89641 0.445923 7.34334 0.445923C6.79026 0.445923 6.24962 0.609982 5.78982 0.917341C5.33001 1.2247 4.97172 1.66154 4.76026 2.1726C4.54881 2.68365 4.4937 3.24594 4.60191 3.78833C4.71012 4.33071 4.97679 4.8288 5.36817 5.21958C5.69872 5.5393 6.09859 5.77844 6.53665 5.9184V12.1299C6.53521 12.2362 6.55481 12.3416 6.59431 12.4402C6.63381 12.5388 6.69244 12.6286 6.76681 12.7044C6.84118 12.7803 6.92982 12.8407 7.02762 12.8821C7.12543 12.9235 7.23047 12.9452 7.33669 12.9458H10.5977V16.4446C10.5305 16.4492 10.4647 16.4664 10.4038 16.4953C7.32078 17.7753 4.68666 19.941 2.83473 22.7184C0.982806 25.4958 -0.00370576 28.7601 1.04608e-05 32.0983C1.04608e-05 39.5098 4.7915 45.8226 11.4429 48.0965C11.5781 48.1943 11.7405 48.2476 11.9074 48.2488C14.4028 49.0192 17.0428 49.2001 19.6199 48.7774C22.197 48.3547 24.641 47.34 26.7595 45.8129C26.8894 45.7924 27.0122 45.7402 27.1171 45.6609C27.2221 45.5816 27.3058 45.4777 27.361 45.3583C29.9059 43.3478 31.8186 40.6475 32.8708 37.5797C33.923 34.5119 34.0703 31.2061 33.295 28.0568C32.5198 24.9076 30.8548 22.0479 28.4987 19.8191C26.1427 17.5902 23.1951 16.0864 20.0077 15.4869V15.4867Z" fill="#FF4F00"/>
<path d="M14.9637 22.098C15.1791 22.098 15.3857 22.0124 15.5381 21.8601C15.6904 21.7078 15.776 21.5012 15.776 21.2858V5.47094C16.4174 5.27619 16.9675 4.85746 17.326 4.29105C17.6845 3.72465 17.8276 3.04827 17.7292 2.3852C17.6307 1.72212 17.2973 1.11649 16.7897 0.678674C16.2821 0.240856 15.6341 0 14.9637 0C14.2934 0 13.6454 0.240856 13.1377 0.678674C12.6301 1.11649 12.2967 1.72212 12.1983 2.3852C12.0998 3.04827 12.2429 3.72465 12.6015 4.29105C12.96 4.85746 13.5101 5.27619 14.1515 5.47094V21.2858C14.1515 21.5012 14.2371 21.7078 14.3894 21.8601C14.5417 22.0124 14.7483 22.098 14.9637 22.098Z" fill="#FF4F00"/>
</svg>
