<svg width="86" height="100" viewBox="0 0 86 100" fill="none" xmlns="http://www.w3.org/2000/svg">
<path d="M0 73.5V26.5L43 0L86 26.5V73.5L43 100L0 73.5Z" fill="#FF5000"/>
<path d="M38.7598 35H51.2695C52.3047 35 53.1836 35.3711 53.9062 36.1133C54.6484 36.8359 55.0195 37.7148 55.0195 38.75V56.2695C55.0195 57.3047 54.6484 58.1836 53.9062 58.9062C53.1836 59.6484 52.3047 60.0195 51.2695 60.0195H38.7598C37.7246 60.0195 36.8359 59.6484 36.0938 58.9062C35.3711 58.1836 35.0098 57.3047 35.0098 56.2695V38.75C35.0098 37.7148 35.3711 36.8359 36.0938 36.1133C36.8359 35.3711 37.7246 35 38.7598 35ZM32.5195 40.2148V61.25C32.5195 61.6016 32.6367 61.9043 32.8711 62.1582C33.125 62.3926 33.418 62.5098 33.75 62.5098H49.8047C49.5312 63.252 49.0723 63.8574 48.4277 64.3262C47.7832 64.7754 47.0605 65 46.2598 65H33.75C32.7148 65 31.8359 64.6387 31.1133 63.916C30.3711 63.1738 30 62.2852 30 61.25V43.7598C30 42.959 30.2344 42.2363 30.7031 41.5918C31.1719 40.9473 31.7773 40.4883 32.5195 40.2148ZM51.2695 37.5195H38.7598C38.4082 37.5195 38.1152 37.6367 37.8809 37.8711C37.627 38.125 37.5 38.418 37.5 38.75V56.2695C37.5 56.6016 37.627 56.8945 37.8809 57.1484C38.1152 57.3828 38.4082 57.5 38.7598 57.5H51.2695C51.6016 57.5 51.8945 57.3828 52.1484 57.1484C52.3828 56.8945 52.5 56.6016 52.5 56.2695V38.75C52.5 38.418 52.3828 38.125 52.1484 37.8711C51.8945 37.6367 51.6016 37.5195 51.2695 37.5195Z" fill="white"/>
</svg>
