<svg width="86" height="100" viewBox="0 0 86 100" fill="none" xmlns="http://www.w3.org/2000/svg">
<path d="M0 73.5V26.5L43 0L86 26.5V73.5L43 100L0 73.5Z" fill="#FF5000"/>
<path d="M43 35C44.0352 35 44.9141 35.3711 45.6367 36.1133C46.3789 36.8359 46.75 37.7148 46.75 38.75V39.3945C47.0625 39.5117 47.4336 39.668 47.8633 39.8633L48.3027 39.3945C49.0449 38.6719 49.9336 38.3105 50.9688 38.3105C51.9844 38.3105 52.8633 38.6719 53.6055 39.3945C54.3477 40.1367 54.7188 41.0254 54.7188 42.0605C54.7188 43.0957 54.3477 43.9746 53.6055 44.6973L53.166 45.166C53.3613 45.5957 53.5078 45.957 53.6055 46.25H54.25C55.2852 46.25 56.1641 46.6211 56.8867 47.3633C57.6289 48.0859 58 48.9648 58 50C58 51.0352 57.6387 51.9238 56.916 52.666C56.1738 53.3887 55.2852 53.75 54.25 53.75H53.6055C53.5078 54.0625 53.3613 54.4336 53.166 54.8633L53.6055 55.3027C54.3477 56.0449 54.7188 56.9336 54.7188 57.9688C54.7188 59.0039 54.3477 59.8828 53.6055 60.6055C52.8633 61.3477 51.9844 61.7188 50.9688 61.7188C49.9336 61.7188 49.0449 61.3477 48.3027 60.6055L47.8633 60.166C47.4336 60.3613 47.0625 60.5078 46.75 60.6055V61.25C46.75 62.2852 46.3887 63.1738 45.666 63.916C44.9238 64.6387 44.0352 65 43 65C41.9648 65 41.0859 64.6387 40.3633 63.916C39.6211 63.1738 39.25 62.2852 39.25 61.25V60.6055C38.9375 60.5078 38.5664 60.3613 38.1367 60.166L37.6973 60.6055C36.9551 61.3477 36.0762 61.7188 35.0605 61.7188C34.0254 61.7188 33.1367 61.3477 32.3945 60.6055C31.6719 59.8828 31.3105 59.0039 31.3105 57.9688C31.3105 56.9336 31.6719 56.0449 32.3945 55.3027L32.834 54.8633C32.6387 54.4336 32.4922 54.0625 32.3945 53.75H31.75C30.7148 53.75 29.8262 53.3887 29.084 52.666C28.3613 51.9238 28 51.0352 28 50C28 48.9648 28.3613 48.0859 29.084 47.3633C29.8262 46.6211 30.7148 46.25 31.75 46.25H32.3945C32.4922 45.957 32.6387 45.5957 32.834 45.166L32.3945 44.6973C31.6719 43.9746 31.3105 43.0957 31.3105 42.0605C31.3105 41.0254 31.6719 40.1367 32.3945 39.3945C33.1367 38.6719 34.0254 38.3105 35.0605 38.3105C36.0762 38.3105 36.9551 38.6719 37.6973 39.3945L38.1367 39.8633C38.5664 39.668 38.9375 39.5117 39.25 39.3945V38.75C39.25 37.7148 39.6113 36.8359 40.334 36.1133C41.0762 35.3711 41.9648 35 43 35ZM43 37.5195C42.6484 37.5195 42.3555 37.6367 42.1211 37.8711C41.8672 38.125 41.7402 38.418 41.7402 38.75V41.3574C40.2949 41.5527 38.9668 42.0996 37.7559 42.998L35.9395 41.1816C35.6855 40.9277 35.3926 40.8008 35.0605 40.8008C34.709 40.8008 34.416 40.918 34.1816 41.1523C33.9277 41.4062 33.8008 41.709 33.8008 42.0605C33.8008 42.4121 33.918 42.7051 34.1523 42.9395L35.998 44.7559C35.0996 45.9668 34.543 47.3047 34.3281 48.7695H31.75C31.3984 48.7695 31.1055 48.8867 30.8711 49.1211C30.6172 49.375 30.4902 49.668 30.4902 50C30.4902 50.3516 30.6172 50.6445 30.8711 50.8789C31.1055 51.1328 31.3984 51.2598 31.75 51.2598H34.3281C34.543 52.7246 35.0996 54.0527 35.998 55.2441L34.1523 57.0898C33.918 57.3242 33.8008 57.6172 33.8008 57.9688C33.8008 58.3203 33.9277 58.6133 34.1816 58.8477C34.416 59.1016 34.709 59.2285 35.0605 59.2285C35.3926 59.2285 35.6855 59.1016 35.9395 58.8477L37.7559 57.0312C38.9668 57.9102 40.2949 58.457 41.7402 58.6719V61.25C41.7402 61.6016 41.8672 61.8945 42.1211 62.1289C42.3555 62.3828 42.6484 62.5098 43 62.5098C43.3516 62.5098 43.6445 62.3828 43.8789 62.1289C44.1328 61.8945 44.2598 61.6016 44.2598 61.25V58.6719C45.7051 58.457 47.0332 57.9102 48.2441 57.0312L50.0605 58.8477C50.3145 59.1016 50.6172 59.2285 50.9688 59.2285C51.3008 59.2285 51.5938 59.1016 51.8477 58.8477C52.082 58.6133 52.1992 58.3203 52.1992 57.9688C52.1992 57.6172 52.082 57.3242 51.8477 57.0898L50.002 55.2441C50.9004 54.0527 51.457 52.7246 51.6719 51.2598H54.25C54.6016 51.2598 54.8945 51.1328 55.1289 50.8789C55.3828 50.6445 55.5098 50.3516 55.5098 50C55.5098 49.668 55.3828 49.375 55.1289 49.1211C54.8945 48.8867 54.6016 48.7695 54.25 48.7695H51.6719C51.457 47.3047 50.9004 45.9668 50.002 44.7559L51.8477 42.9395C52.082 42.6855 52.1992 42.3926 52.1992 42.0605C52.1992 41.709 52.082 41.4062 51.8477 41.1523C51.5938 40.918 51.3008 40.8008 50.9688 40.8008C50.6172 40.8008 50.3145 40.9277 50.0605 41.1816L48.2441 42.998C47.0332 42.0996 45.7051 41.5527 44.2598 41.3574V38.75C44.2598 38.418 44.1328 38.125 43.8789 37.8711C43.6445 37.6367 43.3516 37.5195 43 37.5195ZM43 45.0195C44.3867 45.0195 45.5684 45.5078 46.5449 46.4844C47.5215 47.4609 48.0098 48.6328 48.0098 50C48.0098 51.3867 47.5215 52.5684 46.5449 53.5449C45.5684 54.5215 44.3867 55.0098 43 55.0098C41.6133 55.0098 40.4316 54.5215 39.4551 53.5449C38.4785 52.5684 37.9902 51.3867 37.9902 50C37.9902 48.6328 38.4785 47.4609 39.4551 46.4844C40.4316 45.5078 41.6133 45.0195 43 45.0195ZM43 47.5098C42.3164 47.5098 41.7305 47.7539 41.2422 48.2422C40.7539 48.7305 40.5098 49.3164 40.5098 50C40.5098 50.7031 40.7539 51.2988 41.2422 51.7871C41.7305 52.2754 42.3164 52.5195 43 52.5195C43.6836 52.5195 44.2695 52.2754 44.7578 51.7871C45.2461 51.2988 45.4902 50.7031 45.4902 50C45.4902 49.3164 45.2461 48.7305 44.7578 48.2422C44.2695 47.7539 43.6836 47.5098 43 47.5098Z" fill="white"/>
</svg>
