<svg width="52" height="52" viewBox="0 0 52 52" fill="none" xmlns="http://www.w3.org/2000/svg">
<g clip-path="url(#clip0_308_464)">
<path d="M51.6373 8.91186L35.8947 0.165395C35.7411 0.0802852 35.5547 0.0802852 35.4013 0.165395C34.9903 0.393809 19.7438 8.86422 19.6533 8.91572C19.4921 9.00885 19.3976 9.18008 19.3976 9.35619V15.6781C13.2988 17.0672 8.73333 22.5339 8.73333 29.0474C8.73333 32.0427 9.6994 34.8161 11.3354 37.074L9.32849 39.081L8.96916 38.7217C8.77101 38.5233 8.44926 38.5233 8.25112 38.7217L0.825272 46.1475C-0.139674 47.1124 -0.139674 48.6825 0.825272 49.6474L2.35247 51.1745C3.31721 52.1395 4.88737 52.1396 5.85231 51.1745L13.2782 43.7487C13.4765 43.5505 13.4765 43.2289 13.2782 43.0307L12.9188 42.6713L15.0205 40.5698C17.1615 41.9541 19.7108 42.7588 22.4446 42.7588C27.1087 42.7588 31.2356 40.4173 33.7136 36.8485L35.4013 37.7862C35.5503 37.8689 35.7374 37.8737 35.8946 37.7864L51.6372 29.0407C51.7985 28.9512 51.8984 28.7811 51.8984 28.5968V9.35579C51.8984 9.17754 51.7982 9.00001 51.6373 8.91186ZM35.648 1.19026L50.3448 9.35579L45.4874 12.0547L30.79 3.88939L35.648 1.19026ZM5.13426 50.4565C4.56531 51.0255 3.63957 51.0255 3.07062 50.4565L1.54342 48.9293C0.974467 48.3604 0.974467 47.4346 1.54342 46.8657L5.0194 43.3898L8.61024 46.9806L5.13426 50.4565ZM11.1236 44.4671L7.53287 40.8762L8.61014 39.7989L12.2009 43.3897L11.1236 44.4671ZM12.2007 41.9532L10.0466 39.7992L11.966 37.8798C12.6228 38.6578 13.3642 39.3619 14.1763 39.9778L12.2007 41.9532ZM35.1402 36.4792L34.2628 35.9917C34.5958 35.427 34.8895 34.8366 35.1402 34.2242V36.4792ZM22.4446 41.7431C15.4443 41.7431 9.74896 36.0477 9.74896 29.0474C9.74896 22.0471 15.4443 16.3518 22.4446 16.3518C29.4449 16.3518 35.1402 22.0471 35.1402 29.0474C35.1402 36.0477 29.445 41.7431 22.4446 41.7431ZM35.1402 23.8708C33.0933 18.8692 28.1742 15.3362 22.4446 15.3362C21.7545 15.3362 21.0763 15.388 20.4133 15.4869V10.2191L35.1402 18.4007V23.8708ZM35.6477 17.5207L20.9509 9.35589L25.8088 6.65686L40.5058 14.8219L35.6477 17.5207ZM50.8828 24.3357L36.1559 32.5174V18.4003L41.0437 15.685V25.7543C41.0437 26.2208 41.6347 26.4461 41.9409 26.0802L43.9065 23.7319C44.2026 23.7986 45.3066 24.0479 45.3797 24.0637C45.6978 24.1323 45.995 23.8831 45.995 23.5677V12.9346L50.8828 10.2189V24.3357Z" fill="#FF4F00"/>
<path d="M22.4446 18.3832C18.4744 18.3832 14.8924 20.5414 13.0327 24.0322C12.0246 24.2727 11.2725 25.1805 11.2725 26.2612V31.8337C11.2725 32.9144 12.0245 33.8222 13.0327 34.0627C14.8924 37.5535 18.4744 39.7117 22.4446 39.7117C26.4149 39.7117 29.9969 37.5535 31.8565 34.0627C32.8646 33.8222 33.6168 32.9144 33.6168 31.8337V26.2612C33.6168 25.1805 32.8648 24.2727 31.8565 24.0322C29.9969 20.5414 26.4149 18.3832 22.4446 18.3832ZM32.6012 26.2612V31.8337C32.6012 32.4922 32.0997 33.0358 31.4586 33.1029C11.7486 33.1018 13.5483 33.1023 13.4307 33.1029C12.7897 33.0358 12.2883 32.4922 12.2883 31.8338V26.2613C12.2883 25.6029 12.7896 25.0594 13.4306 24.9922C13.4414 24.9922 31.2527 24.9761 31.4561 24.9916C32.0983 25.0575 32.6012 25.6017 32.6012 26.2612Z" fill="#FF4F00"/>
<path d="M25.999 26.5084V28.5397H24.9834V26.5084C24.9834 26.2279 24.7561 26.0006 24.4756 26.0006C24.1951 26.0006 23.9678 26.2279 23.9678 26.5084V28.5397H22.9521V26.5084C22.9521 26.2279 22.7249 26.0006 22.4443 26.0006H20.4131C20.1326 26.0006 19.9053 26.2279 19.9053 26.5084V28.5397H18.8896V26.5084C18.8896 26.2279 18.6624 26.0006 18.3818 26.0006C18.1013 26.0006 17.874 26.2279 17.874 26.5084V28.5397H16.8584V26.5084C16.8584 26.2279 16.6311 26.0006 16.3506 26.0006H14.3193C14.0388 26.0006 13.8115 26.2279 13.8115 26.5084V28.5397C13.531 28.5397 13.3037 28.767 13.3037 29.0475C13.3037 29.328 13.531 29.5553 13.8115 29.5553V31.5865C13.8115 31.8671 14.0388 32.0944 14.3193 32.0944H16.3506C16.6311 32.0944 16.8584 31.8671 16.8584 31.5865V29.5553H17.874V31.5865C17.874 31.8671 18.1013 32.0944 18.3818 32.0944C18.6624 32.0944 18.8896 31.8671 18.8896 31.5865V29.5553H19.9053V31.5865C19.9053 31.8671 20.1326 32.0944 20.4131 32.0944H22.4443C22.7249 32.0944 22.9521 31.8671 22.9521 31.5865V29.5553H23.9678V31.5865C23.9678 31.8671 24.1951 32.0944 24.4756 32.0944C24.7561 32.0944 24.9834 31.8671 24.9834 31.5865V29.5553H25.999V31.5865C25.999 31.8671 26.2263 32.0944 26.5068 32.0944H28.5381C28.8186 32.0944 29.0459 31.8671 29.0459 31.5865V29.5553H30.0615V31.5865C30.0615 31.8671 30.2888 32.0944 30.5693 32.0944C30.8498 32.0944 31.0771 31.8671 31.0771 31.5865V29.5553C31.3577 29.5553 31.585 29.328 31.585 29.0475C31.585 28.767 31.3577 28.5397 31.0771 28.5397V26.5084C31.0771 26.2279 30.8498 26.0006 30.5693 26.0006C30.2888 26.0006 30.0615 26.2279 30.0615 26.5084V28.5397H29.0459V26.5084C29.0459 26.2279 28.8186 26.0006 28.5381 26.0006H26.5068C26.2263 26.0006 25.999 26.2279 25.999 26.5084ZM15.8426 31.0788H14.8269V29.5554H15.8426V31.0788ZM15.8426 28.5397H14.8269V27.0162H15.8426V28.5397ZM21.9364 31.0788H20.9208V29.5554H21.9364V31.0788ZM21.9364 28.5397H20.9208V27.0162H21.9364V28.5397ZM27.0146 27.0162H28.0303V28.5397H27.0146V27.0162ZM27.0146 29.5553H28.0303V31.0787H27.0146V29.5553Z" fill="#FF4F00"/>
</g>
<defs>
<clipPath id="clip0_308_464">
<rect width="52" height="52" fill="white"/>
</clipPath>
</defs>
</svg>
