<svg width="52" height="52" viewBox="0 0 52 52" fill="none" xmlns="http://www.w3.org/2000/svg">
<path fill-rule="evenodd" clip-rule="evenodd" d="M23.7549 52C25.0775 52 26.1512 50.926 26.1512 49.6037V44.9885C26.1512 43.6662 25.0775 42.5923 23.7549 42.5923H20.0232C19.7302 42.5923 19.4926 42.83 19.4926 43.1229V51.4694C19.4926 51.7623 19.7302 52 20.0232 52H23.7549ZM23.7549 50.9388H20.5538V43.6535H23.7549C24.4918 43.6535 25.09 44.252 25.09 44.9885V49.6037C25.09 50.3402 24.4918 50.9388 23.7549 50.9388ZM32.5074 47.2966C32.5074 45.6804 31.1959 44.3698 29.5805 44.3698C27.9651 44.3698 26.6536 45.6804 26.6536 47.2966C26.6536 48.9118 27.9651 50.2235 29.5805 50.2235C31.1959 50.2235 32.5074 48.9118 32.5074 47.2966ZM31.4462 47.2966C31.4462 48.326 30.6102 49.1623 29.5805 49.1623C28.5508 49.1623 27.7148 48.326 27.7148 47.2966C27.7148 46.2662 28.5508 45.431 29.5805 45.431C30.6102 45.431 31.4462 46.2662 31.4462 47.2966ZM42.7972 45.9722C43.7324 45.0373 43.7324 43.5187 42.7972 42.5838L39.5341 39.3205C38.599 38.3845 37.0803 38.3845 36.1451 39.3205L33.5065 41.9587C33.2992 42.1656 33.2992 42.502 33.5065 42.709L39.4081 48.6115C39.6154 48.8185 39.9514 48.8185 40.1585 48.6115L42.7972 45.9722ZM42.0468 45.2219L39.7834 47.4855L34.6321 42.3344L36.8955 40.0708C37.4165 39.5497 38.2627 39.5497 38.7837 40.0708L42.0468 43.334C42.5678 43.8551 42.5678 44.7009 42.0468 45.2219ZM15.5427 45.6602C16.6849 44.5173 16.6849 42.6633 15.5427 41.5215C14.4004 40.3785 12.5457 40.3785 11.4035 41.5215C10.2612 42.6633 10.2612 44.5173 11.4035 45.6602C12.5457 46.8021 14.4004 46.8021 15.5427 45.6602ZM14.7923 44.91C14.0642 45.638 12.882 45.638 12.1539 44.91C11.4258 44.182 11.4258 42.9998 12.1539 42.2718C12.882 41.5438 14.0642 41.5438 14.7923 42.2718C15.5204 42.9998 15.5204 44.182 14.7923 44.91ZM6.02765 42.7971C6.96291 43.732 8.48141 43.732 9.41667 42.7971L12.6797 39.5338C13.615 38.5989 13.615 37.0803 12.6797 36.1453L10.0411 33.506C9.83394 33.2991 9.49796 33.2991 9.2907 33.506L3.38902 39.4086C3.18176 39.6155 3.18176 39.9519 3.38902 40.1588L6.02765 42.7971ZM6.77804 42.0468L4.51455 39.7832L9.66595 34.632L11.9293 36.8956C12.4504 37.4166 12.4504 38.2624 11.9293 38.7835L8.66628 42.0468C8.14522 42.5678 7.2991 42.5678 6.77804 42.0468ZM45.6601 36.4573C44.5178 35.3154 42.6631 35.3154 41.5209 36.4573C40.3786 37.5992 40.3786 39.4542 41.5209 40.5961C42.6631 41.739 44.5178 41.739 45.6601 40.5961C46.8024 39.4542 46.8024 37.5992 45.6601 36.4573ZM44.9097 37.2076C45.6379 37.9356 45.6379 39.1178 44.9097 39.8458C44.1816 40.5738 42.9994 40.5738 42.2713 39.8458C41.5432 39.1178 41.5432 37.9356 42.2713 37.2076C42.9994 36.4796 44.1816 36.4796 44.9097 37.2076ZM25.118 14.3828C25.1158 14.3838 25.1135 14.3849 25.1112 14.386L25.1105 14.387C25.1087 14.3881 25.107 14.3892 25.1052 14.3902L25.1017 14.3913L25.0988 14.3934L25.0974 14.3944C25.0236 14.4358 24.9635 14.4931 24.919 14.56L24.918 14.5621L24.9163 14.5642L24.9144 14.5674C24.9025 14.5855 24.8916 14.6056 24.8819 14.6258C23.1543 18.2276 20.7861 21.2595 17.8243 23.764L14.2916 25.5883C13.322 26.0892 12.8456 27.1705 13.0674 28.1883C12.1372 28.9078 11.8228 30.211 12.3813 31.2923C12.9399 32.3748 14.1849 32.8725 15.3096 32.5297C15.7675 33.0327 16.4191 33.3087 17.086 33.3002L21.9043 38.5935C22.402 39.1401 23.2502 39.1804 23.7969 38.6827L24.9936 37.5928C25.5405 37.0951 25.5803 36.2472 25.0825 35.7006L21.213 31.4494L21.6713 31.2127C25.4282 30.2481 29.2713 30.0719 33.2083 30.749C33.2303 30.7522 33.2525 30.7554 33.2745 30.7564H33.278H33.2812H33.283C33.3631 30.7585 33.4447 30.7426 33.5217 30.7076L33.5232 30.7065L33.5262 30.7055L33.5298 30.7034C33.5316 30.7023 33.5334 30.7012 33.5352 30.7002H33.536C33.5383 30.6991 33.5405 30.698 33.5429 30.697L34.7258 30.0857C35.4686 29.7026 35.7598 28.7889 35.3761 28.046L33.3327 24.0898C34.5893 23.1549 35.0221 21.4198 34.2803 19.9839C33.5385 18.547 31.8732 17.8954 30.3839 18.3793L28.3405 14.422C27.9569 13.6792 27.0438 13.3884 26.301 13.7715L25.118 14.3828ZM20.2369 31.9535L18.2358 32.9871L22.689 37.8793C22.7926 37.9929 22.9688 38.0014 23.0825 37.8974L24.2792 36.8086C24.393 36.7046 24.4013 36.5284 24.2977 36.4148L20.2369 31.9535ZM52 28.2455C52 26.9222 50.9263 25.8493 49.6035 25.8493H44.9889C43.6663 25.8493 42.5926 26.9222 42.5926 28.2455V31.9768C42.5926 32.2697 42.8301 32.5074 43.1232 32.5074H51.4694C51.7624 32.5074 52 32.2697 52 31.9768V28.2455ZM4.70377 32.5074C6.31917 32.5074 7.63063 31.1958 7.63063 29.5806C7.63063 27.9654 6.31917 26.6537 4.70377 26.6537C3.08838 26.6537 1.77681 27.9654 1.77681 29.5806C1.77681 31.1958 3.08838 32.5074 4.70377 32.5074ZM20.1206 30.819L20.7659 30.4858L17.893 24.9229L14.7786 26.5317C14.1411 26.8607 13.8908 27.6449 14.22 28.2827L15.9 31.5353C16.2292 32.1731 17.0141 32.4236 17.6516 32.0946L20.103 30.8286C20.1088 30.8254 20.1147 30.8222 20.1206 30.819ZM13.5112 29.223C13.1432 29.6496 13.05 30.2746 13.3242 30.8052C13.5985 31.3369 14.1618 31.6224 14.723 31.5693L13.5112 29.223ZM50.9388 28.2455V31.4462H43.6538V28.2455C43.6538 27.508 44.252 26.9105 44.9889 26.9105H49.6035C50.3405 26.9105 50.9388 27.508 50.9388 28.2455ZM4.70377 31.4462C3.67407 31.4462 2.83803 30.61 2.83803 29.5806C2.83803 28.5512 3.67407 27.7149 4.70377 27.7149C5.73348 27.7149 6.5694 28.5512 6.5694 29.5806C6.5694 30.61 5.73348 31.4462 4.70377 31.4462ZM21.7593 30.0974L18.7854 24.3381C21.4743 22.0077 23.6797 19.2464 25.3672 16.0245C27.014 19.2135 32.3484 29.5434 32.3484 29.5434H32.3482C28.7445 29.0542 25.2166 29.2537 21.7593 30.0974ZM33.5261 29.5105L34.2388 29.1434C34.4609 29.0277 34.548 28.755 34.4332 28.5332C33.0367 25.8292 28.7942 17.6131 27.3976 14.9091C27.2829 14.6873 27.01 14.6003 26.788 14.7149L26.0752 15.0832L33.5261 29.5105ZM0 23.7545C0 25.0778 1.07375 26.1517 2.39646 26.1517H7.01109C8.33369 26.1517 9.40744 25.0778 9.40744 23.7545V20.0232C9.40744 19.7303 9.16994 19.4926 8.87682 19.4926H0.530612C0.237608 19.4926 0 19.7303 0 20.0232V23.7545ZM47.2962 19.4926C45.6808 19.4926 44.3694 20.8042 44.3694 22.4194C44.3694 24.0346 45.6808 25.3463 47.2962 25.3463C48.9116 25.3463 50.2232 24.0346 50.2232 22.4194C50.2232 20.8042 48.9116 19.4926 47.2962 19.4926ZM1.06122 23.7545V20.5538H8.34621V23.7545C8.34621 24.492 7.748 25.0905 7.01109 25.0905H2.39646C1.65954 25.0905 1.06122 24.492 1.06122 23.7545ZM36.0427 23.5189L39.204 24.527C39.483 24.6162 39.7817 24.4623 39.8706 24.1832C39.9597 23.9041 39.8054 23.6059 39.5264 23.5167L36.3652 22.5086C36.0862 22.4194 35.7874 22.5733 35.6984 22.8524C35.6094 23.1315 35.7637 23.4308 36.0427 23.5189ZM47.2962 20.5538C48.3259 20.5538 49.162 21.39 49.162 22.4194C49.162 23.4488 48.3259 24.2851 47.2962 24.2851C46.2665 24.2851 45.4306 23.4488 45.4306 22.4194C45.4306 21.39 46.2665 20.5538 47.2962 20.5538ZM32.836 23.1273C33.576 22.4778 33.8093 21.3847 33.3374 20.4699C32.8654 19.5562 31.8389 19.1137 30.8808 19.3408L32.836 23.1273ZM36.1227 19.6295L39.0709 18.1066C39.3311 17.9729 39.4333 17.6524 39.2988 17.3924C39.1645 17.1313 38.8441 17.0295 38.5839 17.1642L35.6358 18.686C35.3756 18.8208 35.2734 19.1413 35.4079 19.4013C35.5422 19.6613 35.8626 19.7632 36.1227 19.6295ZM45.9724 9.20294C45.0371 8.268 43.5186 8.268 42.5833 9.20294L39.3203 12.4662C38.385 13.4011 38.385 14.9197 39.3203 15.8547L41.9589 18.494C42.1661 18.7009 42.502 18.7009 42.7093 18.494L48.611 12.5914C48.8182 12.3845 48.8182 12.0481 48.611 11.8412L45.9724 9.20294ZM45.222 9.95323L47.4854 12.2168L42.334 17.368L40.0707 15.1044C39.5496 14.5834 39.5496 13.7376 40.0707 13.2165L43.3337 9.95323C43.8548 9.43217 44.7009 9.43217 45.222 9.95323ZM33.4286 16.8215L34.4366 13.6611C34.5257 13.382 34.3714 13.0828 34.0924 12.9936C33.8134 12.9055 33.5145 13.0594 33.4256 13.3385L32.4175 16.4999C32.3285 16.779 32.4828 17.0772 32.7618 17.1664C33.0408 17.2555 33.3396 17.1006 33.4286 16.8215ZM6.33986 15.5427C7.48216 16.6846 9.33687 16.6846 10.4791 15.5427C11.6214 14.4008 11.6214 12.5458 10.4791 11.4039C9.33687 10.261 7.48216 10.261 6.33986 11.4039C5.19756 12.5458 5.19756 14.4008 6.33986 15.5427ZM7.09025 14.7924C6.36215 14.0644 6.36215 12.8822 7.09025 12.1542C7.81836 11.4262 9.00056 11.4262 9.72867 12.1542C10.4568 12.8822 10.4568 14.0644 9.72867 14.7924C9.00056 15.5204 7.81836 15.5204 7.09025 14.7924ZM9.20283 6.02776C8.26758 6.9627 8.26758 8.4813 9.20283 9.41624L12.4659 12.6795C13.401 13.6155 14.9196 13.6155 15.8549 12.6795L18.4935 10.0413C18.7008 9.83438 18.7008 9.49796 18.4935 9.29103L12.5919 3.38848C12.3846 3.18154 12.0486 3.18154 11.8415 3.38848L9.20283 6.02776ZM9.95322 6.77805L12.2166 4.51445L17.3679 9.66564L15.1045 11.9292C14.5835 12.4503 13.7373 12.4503 13.2163 11.9292L9.95322 8.66595C9.43216 8.14489 9.43216 7.29911 9.95322 6.77805ZM36.4573 6.33975C35.3151 7.48269 35.3151 9.33665 36.4573 10.4785C37.5996 11.6215 39.4543 11.6215 40.5965 10.4785C41.7388 9.33665 41.7388 7.48269 40.5965 6.33975C39.4543 5.19788 37.5996 5.19788 36.4573 6.33975ZM37.2077 7.09005C37.9358 6.36205 39.118 6.36205 39.8461 7.09005C40.5742 7.81805 40.5742 9.00024 39.8461 9.72824C39.118 10.4562 37.9358 10.4562 37.2077 9.72824C36.4796 9.00024 36.4796 7.81805 37.2077 7.09005ZM28.2451 0C26.9225 0 25.8488 1.07397 25.8488 2.39625V7.01152C25.8488 8.3338 26.9225 9.40774 28.2451 9.40774H31.9768C32.2698 9.40774 32.5074 9.17003 32.5074 8.87713V0.530612C32.5074 0.237714 32.2698 0 31.9768 0H28.2451ZM28.2451 1.06122H31.4462V8.34652H28.2451C27.5082 8.34652 26.91 7.74801 26.91 7.01152V2.39625C26.91 1.65976 27.5082 1.06122 28.2451 1.06122ZM19.4926 4.70335C19.4926 6.3196 20.8041 7.63019 22.4195 7.63019C24.0349 7.63019 25.3464 6.3196 25.3464 4.70335C25.3464 3.08817 24.0349 1.77649 22.4195 1.77649C20.8041 1.77649 19.4926 3.08817 19.4926 4.70335ZM20.5538 4.70335C20.5538 3.67397 21.3898 2.83771 22.4195 2.83771C23.4492 2.83771 24.2852 3.67397 24.2852 4.70335C24.2852 5.7338 23.4492 6.56897 22.4195 6.56897C21.3898 6.56897 20.5538 5.7338 20.5538 4.70335Z" fill="#EC7834"/>
</svg>
