<svg width="86" height="100" viewBox="0 0 86 100" fill="none" xmlns="http://www.w3.org/2000/svg">
<path d="M0 73.5V26.5L43 0L86 26.5V73.5L43 100L0 73.5Z" fill="#FF5000"/>
<path d="M32.75 36.4902H52.7305C53.7656 36.4902 54.6543 36.8613 55.3965 37.6035C56.1191 38.3262 56.4805 39.2051 56.4805 40.2402V60.25C56.4805 61.2852 56.1191 62.1641 55.3965 62.8867C54.6543 63.6289 53.7656 64 52.7305 64H32.75C31.7148 64 30.8262 63.6289 30.084 62.8867C29.3613 62.1641 29 61.2852 29 60.25V40.2402C29 39.2051 29.3613 38.3262 30.084 37.6035C30.8262 36.8613 31.7148 36.4902 32.75 36.4902ZM52.7305 38.9805H32.75C32.3984 38.9805 32.0957 39.1074 31.8418 39.3613C31.6074 39.5957 31.4902 39.8887 31.4902 40.2402V60.25C31.4902 60.582 31.6074 60.875 31.8418 61.1289C32.0957 61.3633 32.3984 61.4805 32.75 61.4805H52.7305C53.082 61.4805 53.375 61.3633 53.6094 61.1289C53.8633 60.875 53.9902 60.582 53.9902 60.25V40.2402C53.9902 39.8887 53.873 39.5957 53.6387 39.3613C53.3848 39.1074 53.082 38.9805 52.7305 38.9805ZM47.75 45.8945C48.082 45.8945 48.375 46.0215 48.6289 46.2754C48.8633 46.5098 48.9805 46.8027 48.9805 47.1543C48.9805 47.4863 48.8633 47.7793 48.6289 48.0332L42.4473 54.2148C42.1934 54.4492 41.9004 54.5664 41.5684 54.5664C41.2168 54.5664 40.9141 54.4492 40.6602 54.2148L37.1445 50.6699C36.8906 50.4355 36.7637 50.1426 36.7637 49.791C36.7637 49.4395 36.8906 49.1465 37.1445 48.9121C37.3789 48.6582 37.6719 48.5312 38.0234 48.5312C38.3555 48.5312 38.6484 48.6582 38.9023 48.9121L41.5391 51.5781L46.8418 46.2754C47.0957 46.0215 47.3984 45.8945 47.75 45.8945Z" fill="white"/>
</svg>
