<svg width="32" height="32" viewBox="0 0 32 32" fill="none" xmlns="http://www.w3.org/2000/svg">
<g clip-path="url(#clip0_0_58)">
<g clip-path="url(#clip1_0_58)">
<path d="M32 16C32 7.16344 24.8366 0 16 0C7.16344 0 0 7.16344 0 16C0 24.8366 7.16344 32 16 32C24.8366 32 32 24.8366 32 16Z" fill="#FF5000"/>
<path d="M12.3996 12.9369L12.2378 14.4316C12.2173 14.6336 12.2378 14.8357 12.2986 15.0172L7.77263 15.018C7.53036 15.018 7.34804 14.7954 7.36857 14.5737L7.50983 13.1799C7.59033 12.4523 8.0552 11.8265 8.70152 11.5234C9.14584 11.8873 9.73216 12.109 10.358 12.109C10.9846 12.109 11.5497 11.8865 12.0146 11.5234C12.2568 11.645 12.4991 11.806 12.6814 12.008C12.5204 12.2905 12.4398 12.6133 12.3996 12.9369Z" fill="white"/>
<path d="M10.3622 11.2599C11.3518 11.2599 12.1403 10.4723 12.1403 9.48178C12.1403 8.49218 11.3322 7.70374 10.3622 7.70374C9.39232 7.70374 8.58416 8.51186 8.58416 9.48178C8.58416 10.4517 9.37256 11.2599 10.3622 11.2599Z" fill="white"/>
<path d="M25.1878 14.5531C25.2083 14.7954 25.026 14.9974 24.7837 14.9974H20.2578C20.3186 14.8159 20.3382 14.6336 20.3186 14.4315L20.1773 12.9566C20.137 12.6132 20.036 12.2897 19.9145 12.0071C20.096 11.8051 20.3185 11.6433 20.5608 11.5226C21.0051 11.8864 21.5915 12.1082 22.2173 12.1082C22.8439 12.1082 23.4295 11.8856 23.8738 11.5226C24.5202 11.8256 24.985 12.4318 25.0655 13.1791L25.1878 14.5531Z" fill="white"/>
<path d="M22.2003 11.2599C23.1899 11.2599 23.9784 10.4723 23.9784 9.48178C23.9784 8.49218 23.1702 7.70374 22.2003 7.70374C21.2304 7.70374 20.4222 8.51186 20.4222 9.48178C20.4222 10.4517 21.2304 11.2599 22.2003 11.2599Z" fill="white"/>
<path d="M19.4699 14.5136C19.4905 14.7764 19.2884 14.9982 19.0256 14.9982H13.5298C13.267 14.9982 13.0649 14.7756 13.0854 14.5136L13.2267 13.0386C13.3072 12.2305 13.8533 11.5439 14.5802 11.2408C15.045 11.6244 15.6306 11.8264 16.2769 11.8264C16.9233 11.8264 17.5294 11.6039 17.9737 11.2408C18.7013 11.5644 19.2261 12.2305 19.3271 13.0386L19.4699 14.5136Z" fill="white"/>
<path d="M16.2808 10.9972C17.3312 10.9972 18.1796 10.1488 18.1796 9.09838C18.1796 8.04798 17.3312 7.19958 16.2808 7.19958C15.2304 7.19958 14.382 8.04798 14.382 9.09838C14.382 10.1291 15.2304 10.9972 16.2808 10.9972Z" fill="white"/>
<path d="M20.2196 20.6145C19.0682 20.5135 17.8962 20.4527 16.7242 20.433V25.1601C18.1787 24.8571 19.4722 23.0997 20.2196 20.6145Z" fill="white"/>
<path d="M15.8386 19.5433V15.9879H11.6362C11.6764 17.3216 11.8382 18.5937 12.101 19.7461C13.3329 19.6246 14.5862 19.5433 15.8386 19.5433Z" fill="white"/>
<path d="M15.8352 25.1601V20.433C14.6633 20.433 13.4912 20.4929 12.3398 20.6145C13.0872 23.0997 14.3808 24.8571 15.8352 25.1601Z" fill="white"/>
<path d="M10.7456 15.988H7.29039C6.92657 15.988 6.64405 16.2911 6.6843 16.6549C6.84608 18.0084 7.26987 19.2813 7.93674 20.3925C8.98712 20.1502 10.0787 19.9884 11.2094 19.8472C10.927 18.6547 10.7653 17.3612 10.7456 15.988Z" fill="white"/>
<path d="M21.8158 15.9879C21.7953 17.3618 21.6343 18.6546 21.351 19.8471C22.4827 19.9884 23.5734 20.1707 24.6237 20.3925C25.2906 19.2607 25.7144 18.0082 25.8762 16.6549C25.9164 16.291 25.6134 15.988 25.2701 15.988L21.8158 15.9879Z" fill="white"/>
<path d="M24.0971 21.1993C23.1478 20.9973 22.1573 20.8356 21.1274 20.7148C20.6224 22.4526 19.875 23.8865 18.9453 24.8359C21.0469 24.21 22.8651 22.9167 24.0971 21.1993Z" fill="white"/>
<path d="M16.7242 15.9879V19.5441C17.9766 19.5646 19.229 19.6246 20.4618 19.7461C20.7443 18.5947 20.9062 17.3217 20.9266 15.9879H16.7242Z" fill="white"/>
<path d="M13.5919 24.8166C12.6622 23.8672 11.9149 22.4324 11.4098 20.6956C10.379 20.8171 9.38936 20.978 8.44 21.1801C9.69248 22.9172 11.5107 24.2105 13.5919 24.8166Z" fill="white"/>
</g>
</g>
<defs>
<clipPath id="clip0_0_58">
<rect width="32" height="32" fill="white"/>
</clipPath>
<clipPath id="clip1_0_58">
<rect width="32" height="32" fill="white"/>
</clipPath>
</defs>
</svg>
