<svg width="86" height="100" viewBox="0 0 86 100" fill="none" xmlns="http://www.w3.org/2000/svg">
<path d="M0 73.5V26.5L43 0L86 26.5V73.5L43 100L0 73.5Z" fill="#FF5000"/>
<path d="M43 39C44.3672 39 45.6855 39.2148 46.9551 39.6445C48.2441 40.0547 49.377 40.5918 50.3535 41.2559C51.3301 41.9004 52.2383 42.623 53.0781 43.4238C53.9375 44.2246 54.6602 45.0254 55.2461 45.8262C55.832 46.627 56.3398 47.3594 56.7695 48.0234C57.1992 48.6875 57.5117 49.2246 57.707 49.6348L58 50.25C57.9609 50.3477 57.9023 50.4844 57.8242 50.6602C57.7461 50.8164 57.5605 51.1484 57.2676 51.6562C56.9746 52.1836 56.6621 52.6914 56.3301 53.1797C55.998 53.6875 55.5684 54.2734 55.041 54.9375C54.4941 55.6211 53.9375 56.2461 53.3711 56.8125C52.8047 57.3984 52.1309 57.9941 51.3496 58.5996C50.5488 59.1855 49.7383 59.6836 48.918 60.0938C48.0977 60.5039 47.1699 60.8457 46.1348 61.1191C45.1191 61.373 44.0742 61.5 43 61.5C41.6328 61.5 40.3145 61.2949 39.0449 60.8848C37.7559 60.4746 36.623 59.9375 35.6465 59.2734C34.6699 58.6289 33.7617 57.9062 32.9219 57.1055C32.0625 56.3047 31.3398 55.5137 30.7539 54.7324C30.168 53.9316 29.6602 53.1992 29.2305 52.5352C28.8008 51.8711 28.4883 51.334 28.293 50.9238L28 50.3086C28.0391 50.2109 28.0977 50.084 28.1758 49.9277C28.2539 49.752 28.4395 49.4102 28.7324 48.9023C29.0254 48.375 29.3379 47.8672 29.6699 47.3789C30.002 46.8711 30.4316 46.2852 30.959 45.6211C31.5059 44.9375 32.0625 44.3027 32.6289 43.7168C33.1953 43.1309 33.8789 42.5449 34.6797 41.959C35.4609 41.3535 36.2617 40.8457 37.082 40.4355C37.9023 40.0059 38.8301 39.6641 39.8652 39.4102C40.8809 39.1367 41.9258 39 43 39ZM43 41.5195C42.082 41.5195 41.1836 41.6367 40.3047 41.8711C39.4258 42.1055 38.6348 42.418 37.9316 42.8086C37.2285 43.1797 36.5352 43.6387 35.8516 44.1855C35.1875 44.7324 34.6113 45.2598 34.123 45.7676C33.6348 46.2949 33.1562 46.8613 32.6875 47.4668C32.2188 48.0723 31.8477 48.5898 31.5742 49.0195C31.3008 49.4492 31.0469 49.8789 30.8125 50.3086C31.0469 50.7383 31.3008 51.1582 31.5742 51.5684C31.8477 51.998 32.2188 52.5156 32.6875 53.1211C33.1562 53.707 33.6348 54.2637 34.123 54.791C34.6113 55.2988 35.1875 55.8262 35.8516 56.373C36.5352 56.9004 37.2285 57.3496 37.9316 57.7207C38.6348 58.1113 39.4258 58.4238 40.3047 58.6582C41.1836 58.8926 42.082 59.0098 43 59.0098C43.918 59.0098 44.8164 58.8926 45.6953 58.6582C46.5742 58.4043 47.3652 58.0918 48.0684 57.7207C48.7715 57.3496 49.4648 56.8906 50.1484 56.3438C50.8125 55.8164 51.3887 55.2891 51.877 54.7617C52.3652 54.2344 52.8438 53.6777 53.3125 53.0918C53.7812 52.4863 54.1523 51.9688 54.4258 51.5391C54.6992 51.1094 54.9531 50.6797 55.1875 50.25C54.9531 49.8398 54.6992 49.4199 54.4258 48.9902C54.1523 48.5605 53.7812 48.043 53.3125 47.4375C52.8438 46.832 52.3652 46.2754 51.877 45.7676C51.3887 45.2402 50.8125 44.7031 50.1484 44.1562C49.4648 43.6289 48.7715 43.1797 48.0684 42.8086C47.3652 42.418 46.5742 42.1055 45.6953 41.8711C44.8164 41.6367 43.918 41.5195 43 41.5195ZM43 45.2695C44.3867 45.2695 45.5684 45.7578 46.5449 46.7344C47.5215 47.7109 48.0098 48.8828 48.0098 50.25C48.0098 51.6367 47.5215 52.8184 46.5449 53.7949C45.5684 54.7715 44.3867 55.2598 43 55.2598C41.6133 55.2598 40.4316 54.7715 39.4551 53.7949C38.4785 52.8184 37.9902 51.6367 37.9902 50.25C37.9902 48.8828 38.4785 47.7109 39.4551 46.7344C40.4316 45.7578 41.6133 45.2695 43 45.2695ZM43 47.7598C42.3164 47.7598 41.7305 48.0039 41.2422 48.4922C40.7539 48.9805 40.5098 49.5664 40.5098 50.25C40.5098 50.9531 40.7539 51.5488 41.2422 52.0371C41.7305 52.5254 42.3164 52.7695 43 52.7695C43.6836 52.7695 44.2695 52.5254 44.7578 52.0371C45.2461 51.5488 45.4902 50.9531 45.4902 50.25C45.4902 49.5664 45.2461 48.9805 44.7578 48.4922C44.2695 48.0039 43.6836 47.7598 43 47.7598Z" fill="white"/>
</svg>
