<svg width="21" height="21" viewBox="0 0 21 21" fill="none" xmlns="http://www.w3.org/2000/svg">
<path d="M1 10.5C1 6.02166 1 3.78249 2.39124 2.39124C3.78249 1 6.02166 1 10.5 1C14.9783 1 17.2175 1 18.6088 2.39124C20 3.78249 20 6.02166 20 10.5C20 14.9783 20 17.2175 18.6088 18.6088C17.2175 20 14.9783 20 10.5 20C6.02166 20 3.78249 20 2.39124 18.6088C1 17.2175 1 14.9783 1 10.5Z" stroke="#C0C4CC" stroke-width="1.5" stroke-linejoin="round"/>
<path d="M6 11C6 8.64298 6 7.46447 6.73223 6.73223C7.46447 6 8.64298 6 11 6C13.357 6 14.5355 6 15.2678 6.73223C16 7.46447 16 8.64298 16 11C16 13.357 16 14.5355 15.2678 15.2678C14.5355 16 13.357 16 11 16C8.64298 16 7.46447 16 6.73223 15.2678C6 14.5355 6 13.357 6 11Z" stroke="#C0C4CC" stroke-width="0.789474" stroke-linejoin="round"/>
<path d="M13.3684 10.9998C13.3684 12.3078 12.3081 13.3682 11 13.3682C9.69196 13.3682 8.63158 12.3078 8.63158 10.9998C8.63158 9.69173 9.69196 8.63135 11 8.63135C12.3081 8.63135 13.3684 9.69173 13.3684 10.9998Z" stroke="#C0C4CC" stroke-width="0.789474"/>
<path d="M13.8996 8.10547H13.8941" stroke="#C0C4CC" stroke-width="1.05263" stroke-linecap="round" stroke-linejoin="round"/>
</svg>
