<svg width="48" height="52" viewBox="0 0 48 52" fill="none" xmlns="http://www.w3.org/2000/svg">
<path d="M18.8009 5.20013H10.1342C9.65584 5.20013 9.26758 4.81186 9.26758 4.33346C9.26758 3.85506 9.65584 3.4668 10.1342 3.4668H18.8009C19.2793 3.4668 19.6676 3.85506 19.6676 4.33346C19.6676 4.81186 19.2793 5.20013 18.8009 5.20013ZM15.3342 48.5335H13.6009C13.1225 48.5335 12.7342 48.1452 12.7342 47.6668C12.7342 47.1884 13.1225 46.8001 13.6009 46.8001H15.3342C15.8126 46.8001 16.2009 47.1884 16.2009 47.6668C16.2009 48.1452 15.8126 48.5335 15.3342 48.5335Z" fill="#FF4F00"/>
<path d="M24.0011 52H4.93441C2.54414 52 0.601074 50.0569 0.601074 47.6667V4.33333C0.601074 1.94307 2.54414 0 4.93441 0H24.0011C26.3913 0 28.3344 1.94307 28.3344 4.33333V11.2667C28.3344 11.7451 27.9461 12.1333 27.4677 12.1333C26.9893 12.1333 26.6011 11.7451 26.6011 11.2667V4.33333C26.6011 2.89987 25.4345 1.73333 24.0011 1.73333H4.93441C3.50094 1.73333 2.33441 2.89987 2.33441 4.33333V47.6667C2.33441 49.1001 3.50094 50.2667 4.93441 50.2667H24.0011C25.4345 50.2667 26.6011 49.1001 26.6011 47.6667C26.6011 47.1883 26.9893 46.8 27.4677 46.8C27.9461 46.8 28.3344 47.1883 28.3344 47.6667C28.3344 50.0569 26.3913 52 24.0011 52Z" fill="#FF4F00"/>
<path d="M18.8007 45.0667H17.0639C16.5855 45.0667 16.1973 44.6784 16.1973 44.2C16.1973 43.7216 16.5855 43.3333 17.0639 43.3333H18.8007C24.2729 43.3333 37.0007 40.8841 37.0007 18.2V12.1333H34.4007C34.0905 12.1333 33.8045 11.9669 33.6485 11.6983C33.4925 11.4296 33.4959 11.0968 33.6502 10.8299L39.7169 0.429862C40.0289 -0.102272 40.9042 -0.102272 41.2145 0.429862L47.2811 10.8299C47.4371 11.0968 47.4389 11.4296 47.2829 11.6983C47.1269 11.9669 46.8443 12.1333 46.5341 12.1333H43.9341V18.2C43.9341 18.6784 43.5458 19.0667 43.0674 19.0667C42.589 19.0667 42.2007 18.6784 42.2007 18.2V11.2667C42.2007 10.7883 42.589 10.4 43.0674 10.4H45.0243L40.4674 2.58613L35.9105 10.4H37.8674C38.3458 10.4 38.7341 10.7883 38.7341 11.2667V18.2C38.7341 42.4476 24.7946 45.0667 18.8007 45.0667Z" fill="#FF4F00"/>
<path d="M43.0644 22.5334C43.5431 22.5334 43.9311 22.1454 43.9311 21.6667C43.9311 21.1881 43.5431 20.8 43.0644 20.8C42.5858 20.8 42.1978 21.1881 42.1978 21.6667C42.1978 22.1454 42.5858 22.5334 43.0644 22.5334Z" fill="#FF4F00"/>
<path d="M18.8008 41.6C11.6317 41.6 5.80078 35.769 5.80078 28.6C5.80078 21.4309 11.6317 15.6 18.8008 15.6C25.9698 15.6 31.8008 21.4309 31.8008 28.6C31.8008 35.769 25.9698 41.6 18.8008 41.6ZM18.8008 17.3333C12.5885 17.3333 7.53411 22.3877 7.53411 28.6C7.53411 34.8122 12.5885 39.8666 18.8008 39.8666C25.013 39.8666 30.0674 34.8122 30.0674 28.6C30.0674 22.3877 25.013 17.3333 18.8008 17.3333Z" fill="#FF4F00"/>
<path d="M25.932 19.6508C25.7552 19.6508 25.5766 19.597 25.4241 19.4844C25.0358 19.2036 24.9509 18.661 25.2334 18.2745L26.7622 16.172C27.0413 15.7837 27.5838 15.7005 27.9721 15.9813C28.3604 16.2621 28.4453 16.8046 28.1628 17.1912L26.634 19.2937C26.4641 19.5277 26.2006 19.6508 25.932 19.6508ZM11.6701 19.6508C11.4014 19.6508 11.138 19.5277 10.9681 19.2937L9.44103 17.1894C9.1585 16.8012 9.24516 16.2604 9.6317 15.9796C10.02 15.6988 10.5608 15.7854 10.8416 16.1702L12.3704 18.2745C12.6529 18.6628 12.5662 19.2036 12.1797 19.4844C12.0254 19.597 11.8469 19.6508 11.6701 19.6508ZM20.5344 13.8666H17.0677C16.5893 13.8666 16.201 13.4784 16.201 13C16.201 12.5216 16.5893 12.1333 17.0677 12.1333H20.5344C21.0128 12.1333 21.401 12.5216 21.401 13C21.401 13.4784 21.0128 13.8666 20.5344 13.8666ZM23.5642 20.3562C23.7618 20.4689 23.9126 20.6561 23.9612 20.8849C24.034 21.1068 23.9958 21.3442 23.8832 21.5384C23.7705 21.7342 23.5833 21.885 23.3545 21.9353C22.9212 22.0636 22.4254 21.7776 22.3024 21.3286C22.2313 21.105 22.2694 20.8676 22.3804 20.6734C22.4948 20.4793 22.682 20.325 22.9108 20.2765C23.1344 20.2037 23.3684 20.2436 23.5642 20.3562ZM14.8993 35.3669C15.0952 35.4796 15.246 35.6668 15.2928 35.8956C15.3586 36.133 15.3292 36.3549 15.2148 36.549C15.1021 36.7449 14.9166 36.8974 14.7034 36.9546C14.2389 37.0638 13.7414 36.7796 13.6357 36.3393C13.5646 36.1157 13.6028 35.8782 13.712 35.6841C13.8264 35.49 14.0049 35.3513 14.225 35.282C14.466 35.2161 14.7017 35.2542 14.8993 35.3669ZM27.0517 23.8437C27.1661 24.0396 27.2025 24.277 27.1297 24.4989C27.0812 24.7277 26.9304 24.9132 26.7345 25.0258C26.5386 25.1385 26.3012 25.1766 26.0793 25.1056C25.639 24.9998 25.353 24.5041 25.4709 24.0552C25.5212 23.8264 25.672 23.6409 25.8661 23.5265C26.062 23.4156 26.3012 23.3757 26.523 23.4485C26.7536 23.497 26.939 23.6478 27.0517 23.8437ZM12.041 32.5104C12.1537 32.7062 12.1918 32.9437 12.1173 33.1656C12.0549 33.403 11.9197 33.5798 11.7221 33.6925C11.5262 33.8052 11.2905 33.845 11.0756 33.7896C10.618 33.6526 10.3302 33.1569 10.4602 32.7218C10.5105 32.493 10.6613 32.3076 10.8554 32.1932C11.053 32.0822 11.2766 32.051 11.502 32.0996C11.7412 32.1637 11.9266 32.3145 12.041 32.5104ZM28.3274 28.6069C28.3274 28.834 28.2425 29.0576 28.0674 29.2136C27.9114 29.3886 27.6878 29.4736 27.4608 29.4718C27.2354 29.4718 27.0118 29.3852 26.8541 29.2136C26.5265 28.9016 26.5265 28.3296 26.8541 28.0002C27.0118 27.8269 27.2372 27.742 27.4608 27.7402C27.6861 27.742 27.9132 27.8286 28.0692 28.002C28.2425 28.1562 28.3292 28.3798 28.3274 28.6069ZM10.9958 28.6069C10.9958 28.834 10.9092 29.0576 10.7358 29.2136C10.5625 29.3886 10.3562 29.4736 10.1292 29.4718C9.90383 29.4718 9.6785 29.3869 9.52076 29.2309C9.19316 28.8842 9.19143 28.3105 9.52076 27.9985C9.6785 27.8252 9.90383 27.7402 10.1274 27.7385C10.3528 27.7402 10.5608 27.8269 10.7341 27.9829C10.9092 28.1562 10.9941 28.3798 10.9958 28.6069Z" fill="#FF4F00"/>
<path d="M27.0518 33.3702C26.9392 33.566 26.752 33.7168 26.5232 33.7653C26.3013 33.8381 26.0638 33.8017 25.868 33.6873C25.6738 33.5747 25.5213 33.3875 25.471 33.1587C25.3428 32.7253 25.6288 32.2296 26.0777 32.1083C26.2996 32.0372 26.5388 32.0736 26.7329 32.1863C26.9288 32.299 27.0813 32.4879 27.1298 32.7167C27.2026 32.9368 27.1645 33.1743 27.0518 33.3702ZM12.0412 24.7035C11.9285 24.8993 11.7413 25.0501 11.5125 25.0987C11.275 25.1628 11.0532 25.1333 10.8573 25.0207C10.6614 24.908 10.5106 24.7208 10.4517 24.5076C10.3408 24.0431 10.6268 23.5456 11.067 23.4416C11.2906 23.3705 11.5281 23.4069 11.7222 23.5196C11.9181 23.6323 12.055 23.8125 12.1261 24.0327C12.192 24.2701 12.1538 24.5076 12.0412 24.7035Z" fill="#FF4F00"/>
<path d="M23.5643 36.8576C23.3684 36.9702 23.131 37.0084 22.9091 36.9356C22.6803 36.887 22.4931 36.7362 22.3804 36.5386C22.2678 36.3445 22.2296 36.107 22.3024 35.8834C22.4082 35.4432 22.9039 35.1572 23.3528 35.2768C23.5816 35.3253 23.7688 35.4761 23.8815 35.672C23.9942 35.8678 24.0306 36.107 23.9595 36.3289C23.911 36.5577 23.7602 36.7432 23.5643 36.8576ZM14.8976 21.8469C14.7018 21.9596 14.4643 21.9977 14.2424 21.9249C14.005 21.8625 13.8264 21.7256 13.7138 21.528C13.6011 21.3338 13.563 21.0964 13.6184 20.8814C13.7554 20.4238 14.2511 20.1361 14.6844 20.2661C14.9132 20.3164 15.1004 20.4672 15.2131 20.663C15.3258 20.8589 15.3552 21.0825 15.3067 21.3096C15.2443 21.547 15.0935 21.7325 14.8976 21.8469Z" fill="#FF4F00"/>
<path d="M18.8012 38.1333C18.5759 38.1333 18.3506 38.0467 18.1946 37.8733C18.0212 37.7173 17.9346 37.492 17.9346 37.2667C17.9346 37.0413 18.0212 36.816 18.1946 36.6583C18.5066 36.3307 19.0786 36.3307 19.4079 36.6583C19.5812 36.816 19.6679 37.0413 19.6679 37.2667C19.6679 37.492 19.5812 37.7173 19.4079 37.8733C19.2519 38.0467 19.0266 38.1333 18.8012 38.1333ZM18.8012 20.8C18.5759 20.8 18.3506 20.7133 18.1946 20.54C18.0212 20.3667 17.9346 20.1587 17.9346 19.9333C17.9346 19.708 18.0212 19.4827 18.1772 19.3249C18.5239 18.9973 19.0959 18.9973 19.4079 19.3249C19.5812 19.4827 19.6679 19.708 19.6679 19.9333C19.6679 20.1587 19.5812 20.3667 19.4252 20.54C19.2519 20.7133 19.0266 20.8 18.8012 20.8Z" fill="#FF4F00"/>
<path d="M18.8012 26.8667C19.1236 26.8667 19.4096 26.9776 19.6679 27.1319V19.9333C19.6679 19.4549 19.2796 19.0667 18.8012 19.0667C18.3228 19.0667 17.9346 19.4549 17.9346 19.9333V27.1319C18.1928 26.9776 18.4788 26.8667 18.8012 26.8667Z" fill="#FF4F00"/>
<path d="M18.8007 31.2C17.3672 31.2 16.2007 30.0335 16.2007 28.6C16.2007 27.1665 17.3672 26 18.8007 26C20.2341 26 21.4007 27.1665 21.4007 28.6C21.4007 30.0335 20.2341 31.2 18.8007 31.2ZM18.8007 27.7333C18.3223 27.7333 17.934 28.1233 17.934 28.6C17.934 29.0767 18.3223 29.4667 18.8007 29.4667C19.2791 29.4667 19.6674 29.0767 19.6674 28.6C19.6674 28.1233 19.2791 27.7333 18.8007 27.7333Z" fill="#FF4F00"/>
<path d="M43.0644 29.4666C43.5431 29.4666 43.9311 29.0786 43.9311 28.5999C43.9311 28.1213 43.5431 27.7333 43.0644 27.7333C42.5858 27.7333 42.1978 28.1213 42.1978 28.5999C42.1978 29.0786 42.5858 29.4666 43.0644 29.4666Z" fill="#FF4F00"/>
<path d="M43.0644 32.9333C43.5431 32.9333 43.9311 32.5453 43.9311 32.0666C43.9311 31.588 43.5431 31.2 43.0644 31.2C42.5858 31.2 42.1978 31.588 42.1978 32.0666C42.1978 32.5453 42.5858 32.9333 43.0644 32.9333Z" fill="#FF4F00"/>
<path d="M43.0675 38.1333C42.5891 38.1333 42.2008 37.745 42.2008 37.2666V35.5333C42.2008 35.0549 42.5891 34.6666 43.0675 34.6666C43.5459 34.6666 43.9342 35.0549 43.9342 35.5333V37.2666C43.9342 37.745 43.5459 38.1333 43.0675 38.1333ZM43.0675 48.5333H34.4008C33.9224 48.5333 33.5342 48.145 33.5342 47.6666C33.5342 47.1882 33.9224 46.8 34.4008 46.8H42.2008V40.7333C42.2008 40.2549 42.5891 39.8666 43.0675 39.8666C43.5459 39.8666 43.9342 40.2549 43.9342 40.7333V47.6666C43.9342 48.145 43.5459 48.5333 43.0675 48.5333Z" fill="#FF4F00"/>
</svg>
