<svg width="71" height="46" viewBox="0 0 71 46" fill="none" xmlns="http://www.w3.org/2000/svg">
<path d="M58.2398 0H12.0947C5.42671 0 0 5.42685 0 12.1016V33.9053C0 40.5733 5.42685 46 12.0947 46H58.2396C64.9077 46 70.3344 40.5731 70.3344 33.9053V12.1016C70.3345 5.42685 64.9077 0 58.2398 0ZM68.9553 33.9054C68.9553 39.8149 64.1491 44.6211 58.2396 44.6211H12.0947C6.18523 44.6211 1.37904 39.8149 1.37904 33.9054V12.1016C1.37904 6.19213 6.18523 1.37904 12.0947 1.37904H58.2396C64.1491 1.37904 68.9553 6.19213 68.9553 12.1016V33.9054Z" fill="#FF4F00"/>
<path d="M35.1601 5.63367C28.568 5.63367 23.1963 10.9985 23.1963 17.5974C23.1963 24.224 28.5611 29.5612 35.1601 29.5612C41.7659 29.5612 47.1307 24.2241 47.1307 17.5974C47.1307 10.9985 41.7592 5.63367 35.1601 5.63367ZM35.1601 28.182C33.0432 28.182 30.8503 27.52 29.0162 26.2099C30.3952 24.2033 32.6984 22.9759 35.1601 22.9759C37.7183 22.9759 39.9662 24.2515 41.3108 26.2099C39.4905 27.5133 37.2563 28.182 35.1601 28.182ZM42.3659 25.3411C40.6283 22.8794 37.9596 21.5969 35.1601 21.5969C32.2846 21.5969 29.5953 23.0104 27.9542 25.3342C25.8029 23.3276 24.5753 20.5556 24.5753 17.5974C24.5753 11.7638 29.3264 7.01271 35.1601 7.01271C41.0005 7.01271 45.7515 11.7638 45.7515 17.5974C45.7515 20.5625 44.5173 23.3345 42.3659 25.3411Z" fill="#FF4F00"/>
<path d="M35.167 10.1777C32.3537 10.1777 30.0643 12.4671 30.0643 15.2805C30.0643 18.0938 32.3537 20.3763 35.167 20.3763C37.9804 20.3763 40.2698 18.0938 40.2698 15.2805C40.2698 12.4671 37.9804 10.1777 35.167 10.1777ZM35.167 18.9971C33.1122 18.9971 31.4435 17.3284 31.4435 15.2805C31.4435 13.2256 33.1122 11.5569 35.167 11.5569C37.2219 11.5569 38.8906 13.2256 38.8906 15.2805C38.8906 17.3284 37.2219 18.9971 35.167 18.9971ZM54.2608 31.6091H16.0664C13.7701 31.6091 11.9014 33.4848 11.9014 35.7809C11.9014 38.077 13.7701 39.9526 16.0664 39.9526H54.2607C56.5569 39.9526 58.4324 38.077 58.4324 35.7809C58.4324 33.4848 56.5569 31.6091 54.2608 31.6091ZM22.0999 36.4705C22.3689 36.7394 22.3689 37.1738 22.0999 37.4427C21.831 37.7115 21.3966 37.7116 21.1276 37.4427L20.438 36.7531L19.7553 37.4427C19.4863 37.7116 19.045 37.7116 18.7762 37.4427C18.5074 37.1737 18.5072 36.7393 18.7762 36.4705L19.4658 35.7809L18.7762 35.0913C18.7122 35.0275 18.6615 34.9517 18.6268 34.8683C18.5922 34.7849 18.5744 34.6954 18.5744 34.6051C18.5744 34.5148 18.5922 34.4253 18.6268 34.3419C18.6615 34.2585 18.7122 34.1827 18.7762 34.1189C19.0452 33.8501 19.4865 33.8501 19.7553 34.1189L20.438 34.8085L21.1276 34.1189C21.1914 34.055 21.2672 34.0043 21.3506 33.9697C21.434 33.9351 21.5234 33.9173 21.6138 33.9173C21.7041 33.9173 21.7935 33.9351 21.8769 33.9697C21.9604 34.0043 22.0361 34.055 22.0999 34.1189C22.1639 34.1827 22.2147 34.2585 22.2493 34.3419C22.2839 34.4253 22.3018 34.5148 22.3018 34.6051C22.3018 34.6954 22.2839 34.7849 22.2493 34.8683C22.2147 34.9517 22.1639 35.0275 22.0999 35.0913L21.4172 35.7809L22.0999 36.4705ZM29.4645 36.4705C29.7334 36.7394 29.7334 37.1738 29.4645 37.4427C29.1955 37.7115 28.7611 37.7116 28.4921 37.4427L27.8025 36.7531L27.1129 37.4427C26.8441 37.7116 26.4095 37.7116 26.1407 37.4427C25.8719 37.1737 25.8717 36.7393 26.1407 36.4705L26.8303 35.7809L26.1407 35.0913C26.0767 35.0275 26.026 34.9517 25.9914 34.8683C25.9567 34.7849 25.9389 34.6954 25.9389 34.6051C25.9389 34.5148 25.9567 34.4253 25.9914 34.3419C26.026 34.2585 26.0767 34.1827 26.1407 34.1189C26.2045 34.055 26.2802 34.0042 26.3637 33.9696C26.4471 33.935 26.5365 33.9172 26.6268 33.9172C26.7171 33.9172 26.8066 33.935 26.89 33.9696C26.9734 34.0042 27.0491 34.055 27.1129 34.1189L27.8025 34.8085L28.4921 34.1189C28.5559 34.055 28.6317 34.0043 28.7151 33.9697C28.7985 33.9351 28.888 33.9173 28.9783 33.9173C29.0686 33.9173 29.158 33.9351 29.2414 33.9697C29.3249 34.0043 29.4007 34.055 29.4645 34.1189C29.5284 34.1827 29.5792 34.2585 29.6138 34.3419C29.6485 34.4253 29.6663 34.5148 29.6663 34.6051C29.6663 34.6954 29.6485 34.7849 29.6138 34.8683C29.5792 34.9517 29.5284 35.0275 29.4645 35.0913L28.7749 35.7809L29.4645 36.4705ZM36.8288 36.4705C37.0978 36.7394 37.0978 37.1738 36.8288 37.4427C36.5599 37.7115 36.1186 37.7116 35.8497 37.4427L35.167 36.7532L34.4774 37.4428C34.2085 37.7118 33.7741 37.7118 33.5051 37.4428C33.2361 37.1738 33.2361 36.7394 33.5051 36.4706L34.1878 35.781L33.5051 35.0914C33.4411 35.0276 33.3904 34.9519 33.3557 34.8684C33.3211 34.785 33.3033 34.6956 33.3033 34.6052C33.3033 34.5149 33.3211 34.4255 33.3557 34.342C33.3904 34.2586 33.4411 34.1828 33.5051 34.1191C33.5689 34.0551 33.6447 34.0044 33.7281 33.9698C33.8115 33.9352 33.9009 33.9174 33.9913 33.9174C34.0816 33.9174 34.171 33.9352 34.2544 33.9698C34.3379 34.0044 34.4136 34.0551 34.4774 34.1191L35.167 34.8087L35.8497 34.1191C36.1187 33.8502 36.56 33.8502 36.8288 34.1191C36.8928 34.1828 36.9436 34.2586 36.9782 34.342C37.0128 34.4255 37.0307 34.5149 37.0307 34.6052C37.0307 34.6956 37.0128 34.785 36.9782 34.8684C36.9436 34.9519 36.8928 35.0276 36.8288 35.0914L36.1392 35.781L36.8288 36.4705ZM44.1934 36.4705C44.2573 36.5342 44.308 36.61 44.3427 36.6934C44.3773 36.7768 44.3951 36.8663 44.3951 36.9566C44.3951 37.0469 44.3773 37.1363 44.3427 37.2197C44.308 37.3031 44.2573 37.3789 44.1934 37.4427C43.9175 37.7116 43.4831 37.7116 43.2143 37.4427L42.5247 36.7531L41.842 37.4427C41.573 37.7116 41.1386 37.7116 40.8627 37.4427C40.7988 37.3789 40.748 37.3031 40.7134 37.2197C40.6788 37.1363 40.661 37.0469 40.661 36.9566C40.661 36.8663 40.6788 36.7768 40.7134 36.6934C40.748 36.61 40.7988 36.5342 40.8627 36.4705L41.5523 35.7809L40.8627 35.0913C40.7988 35.0275 40.7481 34.9517 40.7135 34.8683C40.6789 34.7848 40.6611 34.6954 40.6611 34.6051C40.6611 34.5148 40.6789 34.4254 40.7135 34.3419C40.7481 34.2585 40.7988 34.1827 40.8627 34.1189C41.1386 33.8501 41.573 33.8501 41.842 34.1189L42.5247 34.8085L43.2143 34.1189C43.4832 33.8501 43.9176 33.8501 44.1934 34.1189C44.2573 34.1827 44.3081 34.2585 44.3427 34.3419C44.3773 34.4253 44.3952 34.5148 44.3952 34.6051C44.3952 34.6954 44.3773 34.7849 44.3427 34.8683C44.3081 34.9517 44.2573 35.0275 44.1934 35.0913L43.5038 35.7809L44.1934 36.4705ZM51.5508 36.4705C51.6148 36.5342 51.6655 36.61 51.7001 36.6934C51.7348 36.7768 51.7526 36.8663 51.7526 36.9566C51.7526 37.0469 51.7348 37.1363 51.7001 37.2197C51.6655 37.3031 51.6148 37.3789 51.5508 37.4427C51.4871 37.5066 51.4113 37.5574 51.3279 37.592C51.2445 37.6266 51.155 37.6444 51.0647 37.6444C50.9744 37.6444 50.885 37.6266 50.8016 37.592C50.7182 37.5574 50.6424 37.5066 50.5786 37.4427L49.889 36.7531L49.2063 37.4427C48.9374 37.7116 48.4961 37.7116 48.2272 37.4427C48.1633 37.3789 48.1125 37.3031 48.0779 37.2197C48.0433 37.1363 48.0255 37.0469 48.0255 36.9566C48.0255 36.8663 48.0433 36.7768 48.0779 36.6934C48.1125 36.61 48.1633 36.5342 48.2272 36.4705L48.9168 35.7809L48.2272 35.0913C48.1633 35.0275 48.1125 34.9517 48.0779 34.8683C48.0432 34.7849 48.0254 34.6954 48.0254 34.6051C48.0254 34.5148 48.0432 34.4253 48.0779 34.3419C48.1125 34.2585 48.1633 34.1827 48.2272 34.1189C48.4961 33.8501 48.9375 33.8501 49.2063 34.1189L49.889 34.8085L50.5786 34.1189C50.6424 34.055 50.7182 34.0042 50.8016 33.9696C50.885 33.935 50.9744 33.9172 51.0647 33.9172C51.155 33.9172 51.2445 33.935 51.3279 33.9696C51.4113 34.0042 51.4871 34.055 51.5508 34.1189C51.6148 34.1827 51.6656 34.2585 51.7002 34.3419C51.7348 34.4253 51.7527 34.5148 51.7527 34.6051C51.7527 34.6954 51.7348 34.7849 51.7002 34.8683C51.6656 34.9517 51.6148 35.0275 51.5508 35.0913L50.8681 35.7809L51.5508 36.4705Z" fill="#FF4F00"/>
</svg>
