<svg width="47" height="43" viewBox="0 0 47 43" fill="none" xmlns="http://www.w3.org/2000/svg">
<path d="M44.5263 14.8421C44.5263 13.476 43.4188 12.3685 42.0526 12.3685H4.94737C3.5812 12.3685 2.47368 13.476 2.47368 14.8421V37.1053C2.47368 38.4715 3.5812 39.579 4.94737 39.579H42.0526C43.4188 39.579 44.5263 38.4715 44.5263 37.1053V14.8421ZM47 37.1053C47 39.8377 44.7851 42.0527 42.0526 42.0527H4.94737C2.21501 42.0527 0 39.8377 0 37.1053V14.8421C0 12.1098 2.21501 9.89478 4.94737 9.89478H42.0526C44.7851 9.89478 47 12.1098 47 14.8421V37.1053Z" fill="#FF4F00"/>
<path d="M22.2628 29.0658V27.0849C22.2631 25.7879 22.9411 24.5855 24.0506 23.9131L25.3767 23.1087C25.7465 22.8845 25.9734 22.4831 25.9734 22.0507V19.1711C25.9734 18.4881 25.4195 17.9342 24.7365 17.9342H22.2628C21.5799 17.9342 21.026 18.4881 21.026 19.1711V21.1955L21.0018 21.4441C20.8865 22.0079 20.3871 22.4324 19.7892 22.4324C19.1913 22.4324 18.6918 22.0079 18.5766 21.4441L18.5523 21.1955V19.1711C18.5523 17.1219 20.2136 15.4605 22.2628 15.4605H24.7365C26.7857 15.4605 28.4471 17.1219 28.4471 19.1711V22.0507C28.4471 23.3481 27.769 24.5523 26.6593 25.2249L25.3332 26.0293C24.9636 26.2532 24.7368 26.6527 24.7365 27.0849V29.0658C24.7365 29.7488 24.1827 30.3026 23.4997 30.3026C22.8167 30.3026 22.2628 29.7488 22.2628 29.0658ZM29.6839 6.18421C29.6839 4.13494 28.0226 2.47368 25.9734 2.47368H21.026C18.9768 2.47368 17.3155 4.13494 17.3155 6.18421V9.89474H29.6839V6.18421ZM32.1576 11.1316C32.1576 11.8147 31.6037 12.3684 30.9207 12.3684H16.0786C15.3956 12.3684 14.8418 11.8147 14.8418 11.1316V6.18421C14.8418 2.76877 17.6106 0 21.026 0H25.9734C29.3888 0 32.1576 2.76877 32.1576 6.18421V11.1316ZM22.2628 35.25V34.0132C22.2628 33.3302 22.8167 32.7763 23.4997 32.7763C24.1827 32.7763 24.7365 33.3302 24.7365 34.0132V35.25C24.7365 35.933 24.1827 36.4868 23.4997 36.4868C22.8167 36.4868 22.2628 35.933 22.2628 35.25Z" fill="#FF4F00"/>
</svg>
