<svg width="52" height="52" viewBox="0 0 52 52" fill="none" xmlns="http://www.w3.org/2000/svg">
<path d="M19.9593 44.226L14.7333 41.9034V39.6414C16.1027 38.6794 17.0647 37.1627 17.2813 35.4294C18.798 35.0567 19.9333 33.696 19.9333 32.0667V29.4667C19.9333 24.6914 16.042 20.8 11.2667 20.8C6.49133 20.8 2.6 24.6914 2.6 29.4667V32.0667C2.6 33.696 3.73533 35.0567 5.252 35.4294C5.46867 37.1627 6.43067 38.6794 7.8 39.6414V41.9034L2.574 44.226C1.014 44.928 0 46.4794 0 48.1867V51.1334C0 51.61 0.39 52 0.866667 52H21.6667C22.1433 52 22.5333 51.61 22.5333 51.1334V48.1867C22.5333 46.4794 21.5193 44.928 19.9593 44.226ZM13 41.9987L11.2667 43.16L9.53333 41.9987V40.482C10.0793 40.638 10.66 40.7334 11.2667 40.7334C11.8733 40.7334 12.454 40.638 13 40.482V41.9987ZM11.2667 39C8.87467 39 6.93333 37.0587 6.93333 34.6667V31.2H10.4C10.634 31.2 10.8507 31.1047 11.0153 30.9487L12.1333 29.822L13.2513 30.9487C13.416 31.1047 13.6327 31.2 13.8667 31.2H15.6V34.6667C15.6 37.0587 13.6587 39 11.2667 39Z" fill="#EC7834"/>
<path d="M48.5333 0H15.6C13.6846 0 12.1333 1.55133 12.1333 3.46667V18.33C12.1333 18.8067 12.5233 19.1967 13 19.1967C13.4766 19.1967 13.8666 18.8067 13.8666 18.33V3.46667C13.8666 2.51333 14.6466 1.73333 15.6 1.73333H48.5333C49.4866 1.73333 50.2666 2.51333 50.2666 3.46667V48.5333C50.2666 49.4867 49.4866 50.2667 48.5333 50.2667H25.1333C24.6566 50.2667 24.2666 50.6567 24.2666 51.1333C24.2666 51.61 24.6566 52 25.1333 52H48.5333C50.4486 52 52 50.4487 52 48.5333V3.46667C52 1.55133 50.4486 0 48.5333 0Z" fill="#EC7834"/>
<path d="M31.6072 25.0034C31.7458 25.09 31.9105 25.1334 32.0665 25.1334C32.2225 25.1334 32.3872 25.09 32.5258 25.0034L35.5678 23.1054C38.2198 21.45 39.8665 18.4254 39.8665 15.21V9.82805C39.8665 9.48138 39.6585 9.16071 39.3292 9.03071L32.3958 6.14471C32.1792 6.05805 31.9452 6.05805 31.7285 6.14471L24.7952 9.03071C24.4745 9.16938 24.2578 9.48138 24.2578 9.82805V15.21C24.2578 18.4254 25.9045 21.45 28.5565 23.1054L31.5985 25.0034H31.6072ZM27.9845 14.1267C28.3225 13.7887 28.8685 13.7887 29.2065 14.1267L31.1392 16.0594L34.8658 11.5874C35.1692 11.2234 35.7152 11.1714 36.0878 11.4747C36.4518 11.778 36.5038 12.324 36.2005 12.6967L31.8672 17.8967C31.7112 18.0874 31.4858 18.2 31.2432 18.2087C31.2345 18.2087 31.2172 18.2087 31.2085 18.2087C30.9832 18.2087 30.7578 18.122 30.5932 17.9574L27.9932 15.3574C27.6552 15.0194 27.6552 14.4734 27.9932 14.1354L27.9845 14.1267ZM21.6665 29.4667C21.6665 29.9434 22.0565 30.3334 22.5332 30.3334H41.5998C42.0765 30.3334 42.4665 29.9434 42.4665 29.4667C42.4665 28.99 42.0765 28.6 41.5998 28.6H22.5332C22.0565 28.6 21.6665 28.99 21.6665 29.4667ZM22.5332 35.5334H41.5998C42.0765 35.5334 42.4665 35.1434 42.4665 34.6667C42.4665 34.19 42.0765 33.8 41.5998 33.8H22.5332C22.0565 33.8 21.6665 34.19 21.6665 34.6667C21.6665 35.1434 22.0565 35.5334 22.5332 35.5334ZM42.4665 39.8667C42.4665 39.39 42.0765 39 41.5998 39H22.5332C22.0565 39 21.6665 39.39 21.6665 39.8667C21.6665 40.3434 22.0565 40.7334 22.5332 40.7334H41.5998C42.0765 40.7334 42.4665 40.3434 42.4665 39.8667ZM28.5998 44.2C28.1232 44.2 27.7332 44.59 27.7332 45.0667C27.7332 45.5434 28.1232 45.9334 28.5998 45.9334H35.5332C36.0098 45.9334 36.3998 45.5434 36.3998 45.0667C36.3998 44.59 36.0098 44.2 35.5332 44.2H28.5998Z" fill="#EC7834"/>
</svg>
