<svg width="49" height="49" viewBox="0 0 49 49" fill="none" xmlns="http://www.w3.org/2000/svg">
<path d="M14.0538 28.5879C12.7961 28.5673 13.1592 30.1513 13.0688 31.033C13.0388 31.6671 13.0712 32.5269 13.9015 32.5355C14.7761 32.483 14.7479 31.6885 14.7022 31.033C14.5946 30.1682 15.2353 28.8066 14.0538 28.5879ZM31.6997 14.7159C32.7827 14.7732 32.817 13.1185 31.7594 13.0834C30.8138 13.1713 28.5188 12.6624 28.5902 14.0514C28.6357 14.5013 29.0478 14.8266 29.4886 14.7769C30.1684 14.7051 30.9532 14.6891 31.6997 14.7159ZM19.1133 42.1871C18.3795 41.4105 17.195 42.5053 17.9186 43.3005C29.9249 56.0163 51.1952 45.8487 48.8164 28.5031C48.2643 24.6577 46.4686 21.0535 43.6936 18.2933C43.6059 18.128 43.4362 18.0491 43.3127 17.9175C42.6288 17.2666 41.5541 18.1613 42.0794 18.9457C41.0891 21.4365 37.67 21.517 36.5605 19.0997C35.334 16.1022 30.5208 15.9422 28.5479 18.2382C26.387 20.5872 26.6243 24.1242 27.8174 26.5861C29.0866 29.2147 31.3695 31.1902 33.2022 32.7756C34.0328 33.499 34.4296 34.6961 34.2633 35.9785C33.7177 40.5487 27.6729 39.7333 27.1626 35.7695C27.0366 33.7016 24.9838 32.3402 23.116 32.1089C21.4084 31.8982 19.8364 32.3317 18.185 32.4814C17.3201 32.5555 16.5225 32.4901 15.8805 32.2939C15.4507 32.1608 14.9929 32.404 14.8605 32.8355C14.4624 35.3689 21.4828 33.3436 22.9154 33.7295C24.1472 33.8818 25.4627 34.724 25.5325 35.8716C25.6142 38.4668 28.4316 40.8094 31.0557 40.7444C35.6369 40.8678 37.5781 34.3567 34.2728 31.5426C32.5522 30.0537 30.4105 28.2003 29.2876 25.8747C27.7043 22.9135 28.6423 17.6921 33.0312 18.3298C33.9965 18.4917 34.7378 19.0117 35.064 19.7546C36.5423 23.1579 41.4108 23.4586 43.2648 20.2201C45.1195 22.3221 46.4018 24.8694 46.993 27.5926C44.9765 27.5827 43.055 29.0476 42.2185 30.7516C41.2247 32.7532 41.2808 34.9469 40.8225 37.028C40.4417 38.7267 39.379 40.6535 37.5387 40.9669C34.8675 41.3285 32.8334 44.5785 33.8465 47.1067C28.4998 48.1053 22.7961 46.171 19.1133 42.1871ZM37.8119 42.5772C40.4496 42.1281 41.9198 39.6008 42.4159 37.3861C42.8672 35.4314 42.8153 33.2312 43.6832 31.4741C44.31 30.1982 45.8535 29.0925 47.265 29.253C48.2155 37.2268 42.8966 44.7043 35.4699 46.7381C34.638 45.113 36.0428 42.8046 37.8119 42.5772ZM19.6021 9.79987C19.6021 6.64779 17.0377 4.08337 13.8855 4.08337C10.7334 4.08337 8.16895 6.64779 8.16895 9.79997C8.45625 17.3734 19.316 17.3713 19.6021 9.79987ZM17.9688 9.80002C17.7767 15.2046 9.99322 15.2023 9.80226 9.79987C9.99417 4.39575 17.7777 4.39715 17.9688 9.80002Z" fill="#FF4F00"/>
<path d="M8.58938 26.7131C8.26295 28.3738 8.11421 30.1313 8.18519 31.8695C0.674382 32.1607 -2.81117 41.6189 2.74548 46.7163C5.89104 49.7413 11.2592 49.7373 14.4078 46.7153C19.684 41.853 16.8498 32.9408 9.82573 31.9514C9.74568 30.3683 9.86755 28.7699 10.1462 27.2526C20.4672 30.2025 30.234 20.4616 27.2419 10.1461C28.7608 9.86683 30.3667 9.74452 31.9543 9.82487C32.8539 16.5738 41.3179 19.5499 46.2575 14.8657C51.9367 9.64773 48.1517 -0.038464 40.4256 0.000114895C35.8294 0.000114895 32.0769 3.63804 31.8705 8.18423C30.1312 8.1133 28.3709 8.26169 26.7124 8.58717C20.8017 -5.25573 0.253787 -1.36385 0.00107251 13.8835C-0.0706545 19.4143 3.462 24.6609 8.58938 26.7131ZM44.7225 14.0257C42.2616 16.0212 38.4664 15.9976 36.0422 13.9527C36.3643 12.6345 37.2661 11.5335 38.5004 10.9552C39.6556 11.6582 41.1968 11.6566 42.3536 10.9584C43.5828 11.5328 44.4834 12.633 44.8083 13.9535C44.7793 13.977 44.7518 14.0026 44.7225 14.0257ZM40.4257 1.63346C45.9914 1.55605 49.3693 8.15655 46.0735 12.6156C45.4148 11.0757 44.1492 9.85077 42.5306 9.26644C42.2631 9.16915 41.9624 9.21979 41.7411 9.39843C40.9894 10.0045 39.8673 10.0073 39.1185 9.39684C38.8955 9.215 38.5937 9.16357 38.3241 9.26206C36.7009 9.85062 35.4336 11.076 34.7763 12.6136C31.4833 8.15326 34.8604 1.55615 40.4257 1.63346ZM12.869 45.8786C10.4079 47.8708 6.61538 47.8463 4.19257 45.8023C4.51467 44.4841 5.41651 43.3832 6.65077 42.8052C7.80478 43.5078 9.34637 43.5062 10.5044 42.8084C11.7331 43.3824 12.6337 44.4825 12.9586 45.8032C12.9284 45.8278 12.8996 45.8546 12.869 45.8786ZM15.5176 40.4246C15.5176 41.9019 15.0641 43.2964 14.2239 44.4651C13.5652 42.9252 12.2996 41.7004 10.681 41.1161C10.4134 41.0188 10.1136 41.069 9.89107 41.2485C9.14021 41.8546 8.0181 41.857 7.26923 41.2469C7.04672 41.0642 6.74406 41.014 6.47451 41.1113C4.85126 41.7005 3.58426 42.9258 2.92685 44.4633C-0.366693 40.0025 3.01114 33.4062 8.57611 33.4831C12.4036 33.483 15.5176 36.5973 15.5176 40.4246ZM21.5891 23.399C17.167 27.1085 10.1839 27.0009 5.8831 23.1492C6.40866 20.512 8.20428 18.3104 10.6902 17.2588C12.5679 18.5364 15.2037 18.5324 17.0847 17.2651C19.5598 18.3088 21.3527 20.508 21.8845 23.1501C21.7869 23.2344 21.6891 23.3181 21.5891 23.399ZM13.8844 1.63352C24.2154 1.54838 29.9783 14.0427 23.2137 21.8191C22.3076 18.9417 20.1287 16.6158 17.2402 15.5732C16.9726 15.4759 16.6728 15.5266 16.4506 15.7056C15.7157 16.2978 14.8285 16.6108 13.8842 16.6108C12.9571 16.6108 12.0499 16.2874 11.3298 15.7004C11.1069 15.5182 10.805 15.4672 10.5355 15.5656C7.63699 16.6167 5.45557 18.9442 4.55344 21.817C-2.2085 14.0383 3.55386 1.54853 13.8844 1.63352Z" fill="#FF4F00"/>
<path d="M40.4266 8.98331C44.1702 8.86423 44.1693 3.43623 40.4265 3.31775C36.6829 3.43678 36.6838 8.86478 40.4266 8.98331ZM40.4266 4.95106C42.0029 4.97903 42.0027 7.32223 40.4265 7.34999C38.8502 7.32203 38.8504 4.97878 40.4266 4.95106ZM5.74414 38.0001C5.86292 41.7438 11.2915 41.7429 11.4097 38C11.2909 34.2565 5.86238 34.2573 5.74414 38.0001ZM9.77638 38.0001C9.74823 39.5764 7.40542 39.5761 7.37745 38.0001C7.40567 36.4239 9.74842 36.4241 9.77638 38.0001Z" fill="#FF4F00"/>
</svg>
