<svg width="45" height="49" viewBox="0 0 45 49" fill="none" xmlns="http://www.w3.org/2000/svg">
<path d="M40.4659 8.16667H37.1992V6.53333C37.1755 6.32345 37.1176 6.1103 36.9599 5.95595L31.2433 0.239283C31.0881 0.0824833 30.8758 0.0236833 30.6659 0H6.16589C3.49294 0.0245 1.80815 2.3275 2.08255 4.9H1.26589C1.04929 4.9 0.84157 4.98604 0.688415 5.1392C0.53526 5.29235 0.449219 5.50007 0.449219 5.71667C0.449219 5.93326 0.53526 6.14098 0.688415 6.29414C0.84157 6.44729 1.04929 6.53333 1.26589 6.53333H2.08255V9.8H1.26589C1.04929 9.8 0.84157 9.88604 0.688415 10.0392C0.53526 10.1924 0.449219 10.4001 0.449219 10.6167C0.449219 10.8333 0.53526 11.041 0.688415 11.1941C0.84157 11.3473 1.04929 11.4333 1.26589 11.4333H2.08255V14.7H1.26589C1.04929 14.7 0.84157 14.786 0.688415 14.9392C0.53526 15.0924 0.449219 15.3001 0.449219 15.5167C0.449219 15.7333 0.53526 15.941 0.688415 16.0941C0.84157 16.2473 1.04929 16.3333 1.26589 16.3333H2.08255V19.6H1.26589C1.04929 19.6 0.84157 19.686 0.688415 19.8392C0.53526 19.9923 0.449219 20.2001 0.449219 20.4167C0.449219 20.6333 0.53526 20.841 0.688415 20.9941C0.84157 21.1473 1.04929 21.2333 1.26589 21.2333H2.08255V24.5H1.26589C1.04929 24.5 0.84157 24.586 0.688415 24.7392C0.53526 24.8923 0.449219 25.1001 0.449219 25.3167C0.449219 25.5333 0.53526 25.741 0.688415 25.8941C0.84157 26.0473 1.04929 26.1333 1.26589 26.1333H2.08255V29.4H1.26589C1.04929 29.4 0.84157 29.486 0.688415 29.6392C0.53526 29.7924 0.449219 30.0001 0.449219 30.2167C0.449219 30.4333 0.53526 30.641 0.688415 30.7941C0.84157 30.9473 1.04929 31.0333 1.26589 31.0333H2.08255V34.3H1.26589C1.04929 34.3 0.84157 34.386 0.688415 34.5392C0.53526 34.6923 0.449219 34.9001 0.449219 35.1167C0.449219 35.3333 0.53526 35.541 0.688415 35.6941C0.84157 35.8473 1.04929 35.9333 1.26589 35.9333H2.08255C1.81305 38.5075 3.48395 40.8064 6.16589 40.8333H9.43255V41.65H8.61589C8.39929 41.65 8.19157 41.736 8.03841 41.8892C7.88526 42.0424 7.79922 42.2501 7.79922 42.4667C7.79922 42.6833 7.88526 42.891 8.03841 43.0441C8.19157 43.1973 8.39929 43.2833 8.61589 43.2833H9.43255V44.9167C9.43255 47.1682 11.2643 49 13.5159 49H40.4659C42.7174 49 44.5492 47.1682 44.5492 44.9167V12.25C44.5492 9.99845 42.7174 8.16667 40.4659 8.16667ZM31.4826 2.7881L34.4111 5.71667H33.1159C32.2151 5.71667 31.4826 4.98412 31.4826 4.08333V2.7881ZM9.43255 12.25H8.61589C8.39929 12.25 8.19157 12.336 8.03841 12.4892C7.88526 12.6424 7.79922 12.8501 7.79922 13.0667C7.79922 13.2833 7.88526 13.491 8.03841 13.6441C8.19157 13.7973 8.39929 13.8833 8.61589 13.8833H9.43255V17.15H8.61589C8.39929 17.15 8.19157 17.236 8.03841 17.3892C7.88526 17.5424 7.79922 17.7501 7.79922 17.9667C7.79922 18.1833 7.88526 18.391 8.03841 18.5441C8.19157 18.6973 8.39929 18.7833 8.61589 18.7833H9.43255V22.05H8.61589C8.39929 22.05 8.19157 22.136 8.03841 22.2892C7.88526 22.4424 7.79922 22.6501 7.79922 22.8667C7.79922 23.0833 7.88526 23.291 8.03841 23.4441C8.19157 23.5973 8.39929 23.6833 8.61589 23.6833H9.43255V26.95H8.61589C8.39929 26.95 8.19157 27.036 8.03841 27.1892C7.88526 27.3424 7.79922 27.5501 7.79922 27.7667C7.79922 27.9833 7.88526 28.191 8.03841 28.3441C8.19157 28.4973 8.39929 28.5833 8.61589 28.5833H9.43255V31.85H8.61589C8.39929 31.85 8.19157 31.936 8.03841 32.0892C7.88526 32.2424 7.79922 32.4501 7.79922 32.6667C7.79922 32.8833 7.88526 33.091 8.03841 33.2441C8.19157 33.3973 8.39929 33.4833 8.61589 33.4833H9.43255V36.75H8.61589C8.39929 36.75 8.19157 36.836 8.03841 36.9892C7.88526 37.1423 7.79922 37.3501 7.79922 37.5667C7.79922 37.7833 7.88526 37.991 8.03841 38.1441C8.19157 38.2973 8.39929 38.3833 8.61589 38.3833H9.43255V39.2H6.16589C4.81512 39.2 3.71589 38.1008 3.71589 36.75V35.9333H4.53255C4.74915 35.9333 4.95687 35.8473 5.11002 35.6941C5.26318 35.541 5.34922 35.3333 5.34922 35.1167C5.34922 34.9001 5.26318 34.6923 5.11002 34.5392C4.95687 34.386 4.74915 34.3 4.53255 34.3H3.71589V31.0333H4.53255C4.74915 31.0333 4.95687 30.9473 5.11002 30.7941C5.26318 30.641 5.34922 30.4333 5.34922 30.2167C5.34922 30.0001 5.26318 29.7924 5.11002 29.6392C4.95687 29.486 4.74915 29.4 4.53255 29.4H3.71589V26.1333H4.53255C4.74915 26.1333 4.95687 26.0473 5.11002 25.8941C5.26318 25.741 5.34922 25.5333 5.34922 25.3167C5.34922 25.1001 5.26318 24.8923 5.11002 24.7392C4.95687 24.586 4.74915 24.5 4.53255 24.5H3.71589V21.2333H4.53255C4.74915 21.2333 4.95687 21.1473 5.11002 20.9941C5.26318 20.841 5.34922 20.6333 5.34922 20.4167C5.34922 20.2001 5.26318 19.9923 5.11002 19.8392C4.95687 19.686 4.74915 19.6 4.53255 19.6H3.71589V16.3333H4.53255C4.74915 16.3333 4.95687 16.2473 5.11002 16.0941C5.26318 15.941 5.34922 15.7333 5.34922 15.5167C5.34922 15.3001 5.26318 15.0924 5.11002 14.9392C4.95687 14.786 4.74915 14.7 4.53255 14.7H3.71589V11.4333H4.53255C4.74915 11.4333 4.95687 11.3473 5.11002 11.1941C5.26318 11.041 5.34922 10.8333 5.34922 10.6167C5.34922 10.4001 5.26318 10.1924 5.11002 10.0392C4.95687 9.88604 4.74915 9.8 4.53255 9.8H3.71589V6.53333H4.53255C4.74915 6.53333 4.95687 6.44729 5.11002 6.29414C5.26318 6.14098 5.34922 5.93326 5.34922 5.71667C5.34922 5.50007 5.26318 5.29235 5.11002 5.1392C4.95687 4.98604 4.74915 4.9 4.53255 4.9H3.71589V4.08333C3.71589 2.73257 4.81512 1.63333 6.16589 1.63333H29.8492V4.08333C29.8492 5.8849 31.3143 7.35 33.1159 7.35H35.5659V8.16667H13.5159C11.2643 8.16667 9.43255 9.99845 9.43255 12.25ZM42.9159 44.9167C42.9159 46.2674 41.8167 47.3667 40.4659 47.3667H13.5159C12.1651 47.3667 11.0659 46.2674 11.0659 44.9167V43.2833H11.8826C12.0991 43.2833 12.3069 43.1973 12.46 43.0441C12.6132 42.891 12.6992 42.6833 12.6992 42.4667C12.6992 42.2501 12.6132 42.0424 12.46 41.8892C12.3069 41.736 12.0991 41.65 11.8826 41.65H11.0659V38.3833H11.8826C12.0991 38.3833 12.3069 38.2973 12.46 38.1441C12.6132 37.991 12.6992 37.7833 12.6992 37.5667C12.6992 37.3501 12.6132 37.1423 12.46 36.9892C12.3069 36.836 12.0991 36.75 11.8826 36.75H11.0659V33.4833H11.8826C12.0991 33.4833 12.3069 33.3973 12.46 33.2441C12.6132 33.091 12.6992 32.8833 12.6992 32.6667C12.6992 32.4501 12.6132 32.2424 12.46 32.0892C12.3069 31.936 12.0991 31.85 11.8826 31.85H11.0659V28.5833H11.8826C12.0991 28.5833 12.3069 28.4973 12.46 28.3441C12.6132 28.191 12.6992 27.9833 12.6992 27.7667C12.6992 27.5501 12.6132 27.3424 12.46 27.1892C12.3069 27.036 12.0991 26.95 11.8826 26.95H11.0659V23.6833H11.8826C12.0991 23.6833 12.3069 23.5973 12.46 23.4441C12.6132 23.291 12.6992 23.0833 12.6992 22.8667C12.6992 22.6501 12.6132 22.4424 12.46 22.2892C12.3069 22.136 12.0991 22.05 11.8826 22.05H11.0659V18.7833H11.8826C12.0991 18.7833 12.3069 18.6973 12.46 18.5441C12.6132 18.391 12.6992 18.1833 12.6992 17.9667C12.6992 17.7501 12.6132 17.5424 12.46 17.3892C12.3069 17.236 12.0991 17.15 11.8826 17.15H11.0659V13.8833H11.8826C12.0991 13.8833 12.3069 13.7973 12.46 13.6441C12.6132 13.491 12.6992 13.2833 12.6992 13.0667C12.6992 12.8501 12.6132 12.6424 12.46 12.4892C12.3069 12.336 12.0991 12.25 11.8826 12.25H11.0659C11.0659 10.8992 12.1651 9.8 13.5159 9.8H40.4659C41.8167 9.8 42.9159 10.8992 42.9159 12.25V44.9167Z" fill="#FF4F00"/>
<path d="M36.3818 13.8833H17.5984C16.2477 13.8833 15.1484 14.9825 15.1484 16.3333V40.8333C15.1484 42.1841 16.2477 43.2833 17.5984 43.2833H36.3818C37.7325 43.2833 38.8318 42.1841 38.8318 40.8333V16.3333C38.8318 14.9825 37.7325 13.8833 36.3818 13.8833ZM37.1984 40.8333C37.1984 41.0499 37.1124 41.2576 36.9592 41.4108C36.8061 41.5639 36.5984 41.65 36.3818 41.65H17.5984C17.3818 41.65 17.1741 41.5639 17.021 41.4108C16.8678 41.2576 16.7818 41.0499 16.7818 40.8333V16.3333C16.7818 15.8833 17.1476 15.5166 17.5984 15.5166H36.3818C36.8326 15.5166 37.1984 15.8833 37.1984 16.3333V40.8333Z" fill="#FF4F00"/>
<path d="M35.4692 22.5008C35.4014 22.3674 35.2985 22.2549 35.1716 22.1755C35.0447 22.0961 34.8986 22.0527 34.7489 22.05H30.6656C29.5941 22.0672 29.5909 23.6654 30.6656 23.6834H32.9155L27.4561 29.7487L25.6023 27.2767C25.4746 27.1057 25.2849 26.9916 25.0739 26.9591C24.863 26.9265 24.6477 26.9781 24.4745 27.1027L18.7578 31.1861C17.8946 31.8231 18.8248 33.1248 19.7068 32.514L24.7742 28.8953L26.7456 31.5234C26.818 31.6198 26.9108 31.6991 27.0174 31.7554C27.124 31.8117 27.2417 31.8438 27.3622 31.8492C27.4831 31.8577 27.6042 31.8377 27.716 31.7909C27.8277 31.7441 27.9269 31.6718 28.0057 31.5797L33.9323 24.9949V26.95C33.9494 28.0223 35.5476 28.0239 35.5656 26.95C35.5289 26.7728 35.6628 22.5237 35.4692 22.5008ZM21.6823 18.7834H33.1156C34.1854 18.767 34.192 17.168 33.1156 17.15H21.6823C20.6124 17.1664 20.6059 18.7654 21.6823 18.7834ZM34.7489 37.5667H29.0323C27.96 37.5838 27.9575 39.1821 29.0323 39.2H34.7489C35.8212 39.1829 35.8237 37.5847 34.7489 37.5667ZM34.7489 34.3H31.4823C30.41 34.3172 30.4084 35.9154 31.4823 35.9334H34.7489C35.8212 35.9162 35.8229 34.318 34.7489 34.3Z" fill="#FF4F00"/>
</svg>
