<svg width="46" height="51" viewBox="0 0 46 51" fill="none" xmlns="http://www.w3.org/2000/svg">
<path d="M44.2753 28.9255C43.4253 28.7045 42.4223 28.1775 41.3513 27.625C39.4303 26.6305 37.2543 25.5 34.8488 25.5C32.4433 25.5 30.2673 26.6305 28.3463 27.625C27.2753 28.1775 26.2723 28.7045 25.4223 28.9255C24.4618 29.172 23.7988 30.0305 23.7988 31.025V36.5075C23.7988 47.345 32.5028 50.4135 34.2453 50.915C34.4408 50.9745 34.6448 51 34.8488 51C35.0528 51 35.2568 50.9745 35.4523 50.915C37.1948 50.4135 45.8988 47.345 45.8988 36.5075V31.025C45.8988 30.0305 45.2358 29.172 44.2753 28.9255ZM34.8488 32.3C38.1298 32.3 40.7988 34.969 40.7988 38.25C40.7988 41.531 38.1298 44.2 34.8488 44.2C31.5678 44.2 28.8988 41.531 28.8988 38.25C28.8988 34.969 31.5678 32.3 34.8488 32.3Z" fill="#FF4F00"/>
<path d="M33.2945 40.443C33.4645 40.613 33.677 40.6895 33.898 40.6895C34.119 40.6895 34.3315 40.6045 34.5015 40.443L37.689 37.2555C38.0205 36.924 38.0205 36.3885 37.689 36.057C37.3575 35.7255 36.822 35.7255 36.4905 36.057L33.9065 38.641L33.235 37.9695C32.9035 37.638 32.368 37.638 32.0365 37.9695C31.705 38.301 31.705 38.8365 32.0365 39.168L33.3115 40.443H33.2945ZM24.242 45.9H3.4C2.465 45.9 1.7 45.135 1.7 44.2V3.4C1.7 2.465 2.465 1.7 3.4 1.7H32.3C33.235 1.7 34 2.465 34 3.4V22.95C34 23.4175 34.3825 23.8 34.85 23.8C35.3175 23.8 35.7 23.4175 35.7 22.95V3.4C35.7 1.5215 34.1785 0 32.3 0H3.4C1.5215 0 0 1.5215 0 3.4V44.2C0 46.0785 1.5215 47.6 3.4 47.6H24.242C24.7095 47.6 25.092 47.2175 25.092 46.75C25.092 46.2825 24.7095 45.9 24.242 45.9Z" fill="#FF4F00"/>
<path d="M28.8996 5.09998H6.79961C5.86073 5.09998 5.09961 5.86109 5.09961 6.79998V10.2C5.09961 11.1389 5.86073 11.9 6.79961 11.9H28.8996C29.8385 11.9 30.5996 11.1389 30.5996 10.2V6.79998C30.5996 5.86109 29.8385 5.09998 28.8996 5.09998Z" fill="#FF4F00"/>
<path d="M29.7496 15.3H5.94961C5.48211 15.3 5.09961 15.6825 5.09961 16.15C5.09961 16.6175 5.48211 17 5.94961 17H29.7496C30.2171 17 30.5996 16.6175 30.5996 16.15C30.5996 15.6825 30.2171 15.3 29.7496 15.3ZM30.5996 21.25C30.5996 20.7825 30.2171 20.4 29.7496 20.4H5.94961C5.48211 20.4 5.09961 20.7825 5.09961 21.25C5.09961 21.7175 5.48211 22.1 5.94961 22.1H29.7496C30.2171 22.1 30.5996 21.7175 30.5996 21.25ZM26.3496 26.35C26.3496 25.8825 25.9671 25.5 25.4996 25.5H5.94961C5.48211 25.5 5.09961 25.8825 5.09961 26.35C5.09961 26.8175 5.48211 27.2 5.94961 27.2H25.4996C25.9671 27.2 26.3496 26.8175 26.3496 26.35ZM21.2496 30.6H5.94961C5.48211 30.6 5.09961 30.9825 5.09961 31.45C5.09961 31.9175 5.48211 32.3 5.94961 32.3H21.2496C21.7171 32.3 22.0996 31.9175 22.0996 31.45C22.0996 30.9825 21.7171 30.6 21.2496 30.6ZM21.2496 35.7001H5.94961C5.48211 35.7001 5.09961 36.0826 5.09961 36.55C5.09961 37.0175 5.48211 37.4 5.94961 37.4H21.2496C21.7171 37.4 22.0996 37.0175 22.0996 36.55C22.0996 36.0826 21.7171 35.7001 21.2496 35.7001ZM21.2496 40.8H5.94961C5.48211 40.8 5.09961 41.1826 5.09961 41.65C5.09961 42.1175 5.48211 42.5 5.94961 42.5H21.2496C21.7171 42.5 22.0996 42.1175 22.0996 41.65C22.0996 41.1826 21.7171 40.8 21.2496 40.8Z" fill="#FF4F00"/>
</svg>
