<svg width="53" height="53" viewBox="0 0 53 53" fill="none" xmlns="http://www.w3.org/2000/svg">
<path d="M22.5985 1.33095L12.2837 18.1896C11.1468 20.0197 12.4778 22.4043 14.6405 22.4043H35.2425C37.4053 22.4043 38.7363 20.0197 37.5994 18.1896L27.3123 1.33095C26.2309 -0.443649 23.6799 -0.443649 22.5985 1.33095Z" fill="#FF4F00"/>
<path d="M40.2057 52.9052C47.0969 52.9052 52.6833 47.3188 52.6833 40.4276C52.6833 33.5364 47.0969 27.95 40.2057 27.95C33.3145 27.95 27.728 33.5364 27.728 40.4276C27.728 47.3188 33.3145 52.9052 40.2057 52.9052Z" fill="#FF4F00"/>
<path d="M2.77281 51.5188H19.4097C20.9347 51.5188 22.1825 50.271 22.1825 48.746V32.1091C22.1825 30.5841 20.9347 29.3363 19.4097 29.3363H2.77281C1.24776 29.3363 0 30.5841 0 32.1091V48.746C0 50.271 1.24776 51.5188 2.77281 51.5188Z" fill="#FF4F00"/>
</svg>
