<svg width="40" height="41" viewBox="0 0 40 41" fill="none" xmlns="http://www.w3.org/2000/svg">
<path fill-rule="evenodd" clip-rule="evenodd" d="M34.5934 4.48438C34.5934 3.89542 34.4774 3.31224 34.252 2.76813C34.0266 2.22402 33.6962 1.72964 33.2798 1.31321C32.8633 0.896794 32.3688 0.566496 31.8247 0.341173C31.2806 0.115849 30.6973 -8.409e-05 30.1084 4.57616e-08H10.8896C9.70032 4.57616e-08 8.55971 0.472456 7.71872 1.31344C6.87774 2.15442 6.40527 3.29504 6.40527 4.48438V5.76562C6.40527 5.93553 6.47278 6.09848 6.59292 6.21862C6.71306 6.33876 6.87599 6.40625 7.0459 6.40625H33.9521C34.1221 6.40625 34.285 6.33876 34.4051 6.21862C34.5253 6.09848 34.5928 5.93553 34.5928 5.76562V4.48438H34.5934ZM33.3115 4.48438V5.125H7.68652V4.48438C7.68652 3.63485 8.024 2.82012 8.6247 2.21942C9.22541 1.61872 10.0401 1.28125 10.8896 1.28125H30.1084C30.9579 1.28125 31.7727 1.61872 32.3734 2.21942C32.9741 2.82012 33.3115 3.63485 33.3115 4.48438Z" fill="#FF4F00"/>
<path fill-rule="evenodd" clip-rule="evenodd" d="M28.1686 0.796294C28.1923 0.701835 28.1941 0.603224 28.1739 0.507957C28.1538 0.412689 28.1121 0.32327 28.0522 0.2465C27.9923 0.169731 27.9157 0.107631 27.8282 0.0649168C27.7407 0.0222028 27.6446 2.55991e-06 27.5472 0H13.4535C13.3561 2.55991e-06 13.26 0.0222028 13.1725 0.0649168C13.085 0.107631 13.0083 0.169731 12.9484 0.2465C12.8885 0.32327 12.8469 0.412689 12.8267 0.507957C12.8066 0.603224 12.8084 0.701835 12.832 0.796294L13.2292 2.38825C13.3334 2.80412 13.5735 3.17325 13.9115 3.43698C14.2496 3.7007 14.666 3.84388 15.0947 3.84375H25.9059C26.3344 3.84359 26.7506 3.70028 27.0883 3.43659C27.4261 3.17289 27.666 2.80391 27.7701 2.38825L28.1686 0.796294ZM26.7266 1.28125L26.5273 2.07754C26.4928 2.21619 26.4129 2.33928 26.3002 2.42718C26.1876 2.51508 26.0488 2.56272 25.9059 2.5625H15.0947C14.9519 2.56272 14.813 2.51508 14.7004 2.42718C14.5878 2.33928 14.5078 2.21619 14.4733 2.07754L14.2735 1.28125H26.7259H26.7266ZM14.0928 23.7031C14.0928 23.5333 14.0254 23.3705 13.9054 23.2504C13.7854 23.1302 13.6226 23.0627 13.4528 23.0625H5.76531C5.59541 23.0625 5.43247 23.13 5.31233 23.2501C5.19219 23.3703 5.12469 23.5332 5.12469 23.7031V28.8281C5.12469 29.3378 5.32718 29.8267 5.6876 30.1871C6.04802 30.5475 6.53685 30.75 7.04656 30.75H12.1716C12.6813 30.75 13.1701 30.5475 13.5305 30.1871C13.891 29.8267 14.0934 29.3378 14.0934 28.8281L14.0928 23.7031ZM12.8128 24.3438V28.8281C12.8128 28.998 12.7453 29.161 12.6252 29.2811C12.5051 29.4013 12.3421 29.4688 12.1722 29.4688H7.04721C6.8773 29.4688 6.71436 29.4013 6.59422 29.2811C6.47408 29.161 6.40658 28.998 6.40658 28.8281V24.3438H12.8128ZM25.305 29.4688H16.6566C16.4867 29.4688 16.3237 29.5363 16.2036 29.6564C16.0835 29.7765 16.016 29.9395 16.016 30.1094C16.016 30.2793 16.0835 30.4422 16.2036 30.5624C16.3237 30.6825 16.4867 30.75 16.6566 30.75H25.305C25.4749 30.75 25.6379 30.6825 25.758 30.5624C25.8781 30.4422 25.9456 30.2793 25.9456 30.1094C25.9456 29.9395 25.8781 29.7765 25.758 29.6564C25.6379 29.5363 25.4749 29.4688 25.305 29.4688ZM6.08627 34.5938C4.31878 34.5938 2.88379 36.0288 2.88379 37.7969C2.88379 39.565 4.31879 41 6.08691 41C7.8544 41 9.29004 39.565 9.29004 37.7969C9.29004 36.0288 7.8544 34.5938 6.08691 34.5938H6.08627ZM6.08627 35.875C7.14714 35.875 8.00879 36.7366 8.00879 37.7969C8.00879 38.8571 7.14715 39.7188 6.08691 39.7188C5.5772 39.7188 5.08836 39.5163 4.72794 39.1558C4.36752 38.7954 4.16504 38.3066 4.16504 37.7969C4.16504 37.2872 4.36752 36.7983 4.72794 36.4379C5.08836 36.0775 5.5772 35.875 6.08691 35.875H6.08627ZM21.7816 34.5938C20.0141 34.5938 18.5791 36.0288 18.5791 37.7969C18.5791 39.565 20.0141 41 21.7822 41C23.5497 41 24.9847 39.565 24.9847 37.7969C24.9847 36.0288 23.5497 34.5938 21.7816 34.5938ZM21.7816 35.875C22.2913 35.875 22.7801 36.0775 23.1405 36.4379C23.501 36.7983 23.7035 37.2872 23.7035 37.7969C23.7035 38.3066 23.501 38.7954 23.1405 39.1558C22.7801 39.5163 22.2913 39.7188 21.7816 39.7188C21.2719 39.7188 20.783 39.5163 20.4226 39.1558C20.0622 38.7954 19.8597 38.3066 19.8597 37.7969C19.8597 37.2872 20.0622 36.7983 20.4226 36.4379C20.783 36.0775 21.2719 35.875 21.7816 35.875Z" fill="#FF4F00"/>
<path fill-rule="evenodd" clip-rule="evenodd" d="M5.125 24.3438H14.0938C14.2637 24.3438 14.4266 24.2763 14.5467 24.1561C14.6669 24.036 14.7344 23.873 14.7344 23.7031C14.7344 23.5332 14.6669 23.3703 14.5467 23.2501C14.4266 23.13 14.2637 23.0625 14.0938 23.0625H5.125C4.9551 23.0625 4.79215 23.13 4.67201 23.2501C4.55187 23.3703 4.48438 23.5332 4.48438 23.7031C4.48438 23.873 4.55187 24.036 4.67201 24.1561C4.79215 24.2763 4.9551 24.3438 5.125 24.3438Z" fill="#FF4F00"/>
<path fill-rule="evenodd" clip-rule="evenodd" d="M11.5312 23.7031C11.5312 23.5332 11.4638 23.3702 11.3436 23.2501C11.2235 23.1299 11.0605 23.0624 10.8906 23.0624H8.32812C8.15822 23.0624 7.99527 23.1299 7.87513 23.2501C7.75499 23.3702 7.6875 23.5332 7.6875 23.7031V25.9452C7.6875 26.37 7.85624 26.7774 8.15659 27.0777C8.45694 27.3781 8.8643 27.5468 9.28906 27.5468H9.92969C10.3544 27.5468 10.7618 27.3781 11.0622 27.0777C11.3625 26.7774 11.5312 26.37 11.5312 25.9452V23.7031ZM10.25 24.3437V25.9452C10.2498 26.0301 10.216 26.1115 10.156 26.1716C10.096 26.2316 10.0146 26.2654 9.92969 26.2656H9.28906C9.20421 26.2652 9.12294 26.2314 9.06294 26.1714C9.00295 26.1114 8.96909 26.0301 8.96875 25.9452V24.3437H10.25ZM33.8455 40.9865C34.002 41.0184 34.1647 40.9906 34.3019 40.9088C34.439 40.8269 34.5406 40.6967 34.5867 40.5438C35.4939 37.5351 36.8765 34.6909 38.6822 32.1189L38.6829 32.1177C39.3588 31.1516 39.7205 30.0007 39.7188 28.8217C39.7188 25.6397 37.1351 23.056 33.9531 23.056C30.7711 23.056 28.1875 25.6397 28.1875 28.8217C28.1875 30.0491 28.5719 31.1875 29.2439 32.1113C31.0497 34.6836 32.4324 37.5282 33.3394 40.5374C33.4419 40.8763 33.6982 40.9641 33.8455 40.9865ZM33.9647 38.374C33.0464 35.8911 31.8113 33.5372 30.29 31.3707L30.283 31.3611C29.7485 30.6227 29.4633 29.7332 29.4688 28.8217C29.4688 26.3469 31.4784 24.3373 33.9531 24.3373C36.4279 24.3373 38.4375 26.3469 38.4375 28.8217C38.4387 29.7382 38.1577 30.6328 37.6329 31.3841C36.1145 33.5466 34.8815 35.8959 33.9647 38.374Z" fill="#FF4F00"/>
<path fill-rule="evenodd" clip-rule="evenodd" d="M33.9525 26.2656C32.538 26.2656 31.39 27.413 31.39 28.8281C31.39 30.242 32.538 31.3906 33.9525 31.3906C35.367 31.3906 36.515 30.242 36.515 28.8281C36.515 27.413 35.367 26.2656 33.9525 26.2656ZM33.9525 27.5469C34.2923 27.547 34.6181 27.682 34.8584 27.9224C35.0986 28.1627 35.2335 28.4886 35.2334 28.8284C35.2333 29.1683 35.0983 29.4941 34.8579 29.7343C34.6176 29.9746 34.2916 30.1095 33.9518 30.1094C33.612 30.1094 33.2862 29.9744 33.0459 29.7341C32.8056 29.4938 32.6706 29.1679 32.6706 28.8281C32.6706 28.4883 32.8056 28.1624 33.0459 27.9221C33.2862 27.6819 33.612 27.5469 33.9518 27.5469H33.9525ZM24.9844 8.32812C21.4481 8.32812 18.5781 11.1981 18.5781 14.7344C18.5781 18.2693 21.4481 21.1406 24.9844 21.1406C28.5193 21.1406 31.3906 18.2693 31.3906 14.7344C31.3906 11.1981 28.5193 8.32812 24.9844 8.32812ZM24.9844 9.60938C27.8127 9.60938 30.1094 11.9054 30.1094 14.7344C30.1094 17.5627 27.8127 19.8587 24.9844 19.8587C22.1554 19.8587 19.8594 17.5627 19.8594 14.7337C19.8594 11.9054 22.1554 9.60873 24.9844 9.60873V9.60938Z" fill="#FF4F00"/>
<path fill-rule="evenodd" clip-rule="evenodd" d="M24.3438 8.96875V10.25C24.3438 10.4199 24.4113 10.5829 24.5314 10.703C24.6515 10.8231 24.8145 10.8906 24.9844 10.8906C25.1543 10.8906 25.3172 10.8231 25.4374 10.703C25.5575 10.5829 25.625 10.4199 25.625 10.25V8.96875C25.625 8.79885 25.5575 8.6359 25.4374 8.51576C25.3172 8.39562 25.1543 8.32812 24.9844 8.32812C24.8145 8.32812 24.6515 8.39562 24.5314 8.51576C24.4113 8.6359 24.3438 8.79885 24.3438 8.96875ZM28.6078 10.2045L27.7019 11.1104C27.5852 11.2312 27.5206 11.393 27.5221 11.561C27.5236 11.7289 27.5909 11.8896 27.7097 12.0084C27.8285 12.1272 27.9892 12.1946 28.1571 12.196C28.3251 12.1975 28.4869 12.1329 28.6078 12.0162L29.5136 11.1104C29.6303 10.9895 29.6949 10.8277 29.6934 10.6597C29.6919 10.4918 29.6246 10.3311 29.5058 10.2123C29.387 10.0935 29.2263 10.0262 29.0584 10.0247C28.8904 10.0233 28.7286 10.0878 28.6078 10.2045ZM30.75 14.0938H29.4688C29.2988 14.0938 29.1359 14.1612 29.0158 14.2814C28.8956 14.4015 28.8281 14.5645 28.8281 14.7344C28.8281 14.9043 28.8956 15.0672 29.0158 15.1874C29.1359 15.3075 29.2988 15.375 29.4688 15.375H30.75C30.9199 15.375 31.0828 15.3075 31.203 15.1874C31.3231 15.0672 31.3906 14.9043 31.3906 14.7344C31.3906 14.5645 31.3231 14.4015 31.203 14.2814C31.0828 14.1612 30.9199 14.0938 30.75 14.0938ZM29.5136 18.3584L28.6078 17.4525C28.4869 17.3358 28.3251 17.2713 28.1571 17.2727C27.9892 17.2742 27.8285 17.3416 27.7097 17.4604C27.5909 17.5791 27.5236 17.7398 27.5221 17.9078C27.5206 18.0757 27.5852 18.2376 27.7019 18.3584L28.6078 19.2642C28.7279 19.3844 28.8908 19.452 29.0608 19.4521C29.2307 19.4521 29.3937 19.3847 29.5139 19.2646C29.6341 19.1444 29.7017 18.9815 29.7018 18.8115C29.7018 18.6416 29.6344 18.4786 29.5142 18.3584H29.5136ZM24.3438 19.2188V20.5C24.3438 20.6699 24.4113 20.8329 24.5314 20.953C24.6515 21.0731 24.8145 21.1406 24.9844 21.1406C25.1543 21.1406 25.3172 21.0731 25.4374 20.953C25.5575 20.8329 25.625 20.6699 25.625 20.5V19.2188C25.625 19.0488 25.5575 18.8859 25.4374 18.7658C25.3172 18.6456 25.1543 18.5781 24.9844 18.5781C24.8145 18.5781 24.6515 18.6456 24.5314 18.7658C24.4113 18.8859 24.3438 19.0488 24.3438 19.2188ZM21.3604 17.4525L20.4545 18.3584C20.3343 18.4785 20.2667 18.6415 20.2667 18.8114C20.2666 18.9813 20.3341 19.1443 20.4542 19.2646C20.5743 19.3848 20.7373 19.4523 20.9072 19.4524C21.0772 19.4524 21.2402 19.385 21.3604 19.2649L22.2662 18.3584C22.3829 18.2376 22.4475 18.0757 22.446 17.9078C22.4446 17.7398 22.3772 17.5791 22.2584 17.4604C22.1396 17.3416 21.9789 17.2742 21.811 17.2727C21.643 17.2713 21.4812 17.3358 21.3604 17.4525ZM20.5 14.0938H19.2188C19.0488 14.0938 18.8859 14.1612 18.7658 14.2814C18.6456 14.4015 18.5781 14.5645 18.5781 14.7344C18.5781 14.9043 18.6456 15.0672 18.7658 15.1874C18.8859 15.3075 19.0488 15.375 19.2188 15.375H20.5C20.6699 15.375 20.8329 15.3075 20.953 15.1874C21.0731 15.0672 21.1406 14.9043 21.1406 14.7344C21.1406 14.5645 21.0731 14.4015 20.953 14.2814C20.8329 14.1612 20.6699 14.0938 20.5 14.0938ZM22.2656 11.111L21.3597 10.2052C21.2389 10.0885 21.0771 10.0239 20.9091 10.0253C20.7411 10.0268 20.5805 10.0942 20.4617 10.213C20.3429 10.3317 20.2755 10.4924 20.2741 10.6604C20.2726 10.8284 20.3372 10.9902 20.4539 11.111L21.3597 12.0168C21.4805 12.1335 21.6424 12.1981 21.8103 12.1967C21.9783 12.1952 22.139 12.1278 22.2578 12.009C22.3765 11.8903 22.4439 11.7296 22.4454 11.5616C22.4468 11.3936 22.3823 11.2318 22.2656 11.111Z" fill="#FF4F00"/>
<path d="M24.9844 15.3754C25.3382 15.3754 25.625 15.0886 25.625 14.7347C25.625 14.3809 25.3382 14.0941 24.9844 14.0941C24.6306 14.0941 24.3438 14.3809 24.3438 14.7347C24.3438 15.0886 24.6306 15.3754 24.9844 15.3754Z" fill="#FF4F00"/>
<path fill-rule="evenodd" clip-rule="evenodd" d="M6.40625 5.76562V18.5781C6.40625 18.748 6.47374 18.911 6.59388 19.0311C6.71402 19.1513 6.87697 19.2188 7.04688 19.2188C7.21678 19.2188 7.37973 19.1513 7.49987 19.0311C7.62001 18.911 7.6875 18.748 7.6875 18.5781V5.76562C7.6875 5.59572 7.62001 5.43277 7.49987 5.31263C7.37973 5.19249 7.21678 5.125 7.04688 5.125C6.87697 5.125 6.71402 5.19249 6.59388 5.31263C6.47374 5.43277 6.40625 5.59572 6.40625 5.76562ZM33.3125 5.76562V23.7031C33.3125 23.873 33.38 24.036 33.5001 24.1561C33.6203 24.2763 33.7832 24.3438 33.9531 24.3438C34.123 24.3438 34.286 24.2763 34.4061 24.1561C34.5262 24.036 34.5938 23.873 34.5938 23.7031V5.76562C34.5938 5.59572 34.5262 5.43277 34.4061 5.31263C34.286 5.19249 34.123 5.125 33.9531 5.125C33.7832 5.125 33.6203 5.19249 33.5001 5.31263C33.38 5.43277 33.3125 5.59572 33.3125 5.76562Z" fill="#FF4F00"/>
<path fill-rule="evenodd" clip-rule="evenodd" d="M4.39148 36.5156C4.54779 36.5156 4.69834 36.4586 4.81558 36.3555C5.166 36.0453 5.61797 35.8744 6.08594 35.875C6.57281 35.875 7.01741 36.0563 7.3563 36.3555C7.47353 36.4586 7.62408 36.5156 7.78039 36.5156H16.6562C16.8262 36.5156 16.9891 36.4481 17.1092 36.328C17.2294 36.2078 17.2969 36.0449 17.2969 35.875V19.8594C17.2969 19.3494 17.0944 18.8606 16.7338 18.5006C16.5554 18.322 16.3436 18.1804 16.1105 18.0837C15.8773 17.9871 15.6274 17.9374 15.375 17.9375H3.84375C3.33381 17.9375 2.84501 18.1399 2.48498 18.5006C2.30639 18.6789 2.16474 18.8908 2.06811 19.1239C1.97149 19.3571 1.92179 19.607 1.92188 19.8594V35.875C1.92188 36.0449 1.98937 36.2078 2.10951 36.328C2.22965 36.4481 2.3926 36.5156 2.5625 36.5156H4.39148ZM4.16471 35.2344H3.20313V19.8594C3.20287 19.7752 3.21927 19.6918 3.25138 19.6139C3.28348 19.5361 3.33065 19.4654 3.39019 19.4058C3.44973 19.3463 3.52046 19.2991 3.5983 19.267C3.67613 19.2349 3.75955 19.2185 3.84375 19.2188H15.375C15.4592 19.2185 15.5426 19.2349 15.6205 19.267C15.6983 19.2991 15.769 19.3463 15.8286 19.4058C15.8881 19.4654 15.9353 19.5361 15.9674 19.6139C15.9995 19.6918 16.0159 19.7752 16.0156 19.8594V35.2344H8.00717C7.45348 34.8175 6.77898 34.5926 6.08594 34.5938C5.39289 34.5926 4.71839 34.8175 4.16471 35.2344Z" fill="#FF4F00"/>
<path fill-rule="evenodd" clip-rule="evenodd" d="M20.0871 36.5156C20.2434 36.5156 20.394 36.4586 20.5112 36.3555C20.8616 36.0453 21.3136 35.8744 21.7816 35.875C22.2685 35.875 22.7131 36.0563 23.0519 36.3555C23.1692 36.4586 23.3197 36.5156 23.476 36.5156H25.6253C25.7952 36.5156 25.9582 36.4481 26.0783 36.328C26.1985 36.2078 26.266 36.0449 26.266 35.875V30.4412C26.266 30.1145 26.1827 29.7936 26.0238 29.5078L23.3486 24.6916C23.1821 24.392 22.9385 24.1423 22.643 23.9685C22.3475 23.7947 22.011 23.7031 21.6682 23.7031H16.6566C16.4867 23.7031 16.3237 23.7706 16.2036 23.8908C16.0835 24.0109 16.016 24.1738 16.016 24.3438V35.875C16.016 36.0449 16.0835 36.2078 16.2036 36.328C16.3237 36.4481 16.4867 36.5156 16.6566 36.5156H20.0871ZM19.8604 35.2344H17.2972V24.9844H21.6682C21.7824 24.9844 21.8945 25.0149 21.993 25.0728C22.0914 25.1307 22.1726 25.2138 22.2281 25.3137L24.904 30.1305C24.9571 30.2254 24.9849 30.3324 24.9847 30.4412V35.2344H23.7028C23.1491 34.8175 22.4746 34.5926 21.7816 34.5938C21.0885 34.5926 20.414 34.8175 19.8604 35.2344ZM6.08627 34.5938C4.31878 34.5938 2.88379 36.0288 2.88379 37.7969C2.88379 39.565 4.31879 41 6.08691 41C7.8544 41 9.29004 39.565 9.29004 37.7969C9.29004 36.0288 7.8544 34.5938 6.08691 34.5938H6.08627ZM6.08627 35.875C7.14714 35.875 8.00879 36.7366 8.00879 37.7969C8.00879 38.8571 7.14715 39.7188 6.08691 39.7188C5.5772 39.7188 5.08836 39.5163 4.72794 39.1558C4.36752 38.7954 4.16504 38.3066 4.16504 37.7969C4.16504 37.2872 4.36752 36.7983 4.72794 36.4379C5.08836 36.0775 5.5772 35.875 6.08691 35.875H6.08627Z" fill="#FF4F00"/>
<path fill-rule="evenodd" clip-rule="evenodd" d="M23.4757 35.2344C23.3455 35.2343 23.2185 35.2739 23.1114 35.3478C23.0043 35.4218 22.9222 35.5266 22.8762 35.6483C22.8301 35.7701 22.8222 35.9029 22.8536 36.0293C22.8849 36.1556 22.954 36.2694 23.0516 36.3555C23.3183 36.5898 23.5147 36.8935 23.6189 37.2328C23.7232 37.5721 23.7313 37.9337 23.6423 38.2773C23.6181 38.372 23.6158 38.471 23.6357 38.5667C23.6556 38.6624 23.697 38.7523 23.7569 38.8295C23.8167 38.9067 23.8935 38.9693 23.9812 39.0124C24.0689 39.0555 24.1653 39.0779 24.263 39.0781H26.2874C26.7913 39.078 27.2745 38.8777 27.6308 38.5214C27.9871 38.1651 28.1873 37.6819 28.1875 37.178V37.1768C28.1876 36.9217 28.1374 36.669 28.0398 36.4333C27.9422 36.1976 27.7992 35.9835 27.6188 35.8031C27.4384 35.6227 27.2242 35.4796 26.9885 35.3821C26.7528 35.2845 26.5002 35.2343 26.2451 35.2344H23.4757ZM7.78039 35.2344C7.65024 35.2343 7.52315 35.2739 7.41604 35.3478C7.30894 35.4218 7.22689 35.5266 7.18084 35.6483C7.13479 35.7701 7.12692 35.9029 7.15826 36.0293C7.18961 36.1556 7.25868 36.2694 7.3563 36.3555C7.62284 36.5896 7.81922 36.8931 7.92361 37.2321C8.028 37.5712 8.0363 37.9326 7.9476 38.2761C7.92341 38.3707 7.92113 38.4695 7.94096 38.5651C7.96079 38.6608 8.00219 38.7506 8.06201 38.8278C8.12182 38.9049 8.19847 38.9674 8.28611 39.0105C8.37375 39.0536 8.47007 39.076 8.56771 39.0762L19.2995 39.0775C19.3972 39.0774 19.4935 39.055 19.5812 39.012C19.6689 38.969 19.7457 38.9065 19.8055 38.8293C19.8653 38.7521 19.9067 38.6622 19.9265 38.5665C19.9463 38.4709 19.9439 38.372 19.9196 38.2773C19.8306 37.9337 19.8388 37.572 19.9432 37.2327C20.0476 36.8934 20.2441 36.5897 20.5109 36.3555C20.6085 36.2694 20.6776 36.1556 20.7089 36.0293C20.7403 35.9029 20.7324 35.7701 20.6863 35.6483C20.6403 35.5266 20.5582 35.4218 20.4511 35.3478C20.344 35.2739 20.2169 35.2343 20.0868 35.2344H7.78039ZM4.81558 36.3555C4.91319 36.2694 4.98227 36.1556 5.01361 36.0293C5.04496 35.9029 5.03708 35.7701 4.99103 35.6483C4.94498 35.5266 4.86294 35.4218 4.75583 35.3478C4.64873 35.2739 4.52164 35.2343 4.39148 35.2344H1.92444C1.6717 35.2343 1.42143 35.284 1.18795 35.3807C0.95446 35.4775 0.742351 35.6193 0.563753 35.7981C0.384934 35.9767 0.24309 36.1888 0.146354 36.4223C0.0496178 36.6558 -0.00011436 36.9061 1.9746e-07 37.1588V37.1601C-8.39486e-05 37.4117 0.0493971 37.6608 0.145621 37.8933C0.241844 38.1258 0.382925 38.337 0.560801 38.515C0.738677 38.6929 0.949869 38.834 1.18231 38.9303C1.41474 39.0266 1.66388 39.0762 1.91547 39.0762H3.60352C3.70117 39.076 3.7975 39.0535 3.88516 39.0105C3.97282 38.9674 4.04949 38.9049 4.10935 38.8278C4.16921 38.7506 4.21069 38.6608 4.2306 38.5652C4.25052 38.4696 4.24835 38.3707 4.22428 38.2761C4.13557 37.9326 4.14388 37.5712 4.24827 37.2321C4.35265 36.8931 4.54904 36.5896 4.81558 36.3555ZM24.9844 37.7969C24.9844 37.3414 24.8889 36.9083 24.7179 36.5156H24.7172H26.2451C26.4203 36.5161 26.5882 36.5859 26.7121 36.7098C26.8359 36.8337 26.9057 37.0016 26.9062 37.1768V37.178C26.9061 37.3421 26.8408 37.4994 26.7248 37.6154C26.6088 37.7314 26.4515 37.7967 26.2874 37.7969H24.9844ZM18.5781 37.7962L9.28906 37.7956C9.28906 37.3407 9.19361 36.9077 9.02256 36.5156H9.02192H18.8453C18.6685 36.9194 18.5776 37.3555 18.5781 37.7962ZM2.88281 37.795H1.91547C1.74732 37.7948 1.5861 37.7279 1.46719 37.609C1.34829 37.4901 1.28142 37.3289 1.28125 37.1607V37.1588C1.28142 36.9883 1.34924 36.8248 1.46982 36.7042C1.59041 36.5836 1.7539 36.5158 1.92444 36.5156H3.14931C2.97318 36.9191 2.88244 37.3547 2.88281 37.795Z" fill="#FF4F00"/>
</svg>
