<svg width="56" height="44" viewBox="0 0 56 44" fill="none" xmlns="http://www.w3.org/2000/svg">
<path d="M4.35089 42.8767H2.30859V44H4.35089V42.8767Z" fill="#FF4F00"/>
<path d="M13.7346 16.8237H12.6113V18.3592H13.7346V16.8237Z" fill="#FF4F00"/>
<path d="M12.6114 42.8768H5.83398V44H12.6114H29.8255H40.286V42.8768H29.8255H13.7346V19.7582H12.6114V42.8768Z" fill="#FF4F00"/>
<path d="M47.2787 10.4825H19.653L17.4264 3.97565C16.6127 1.59772 14.3772 0 11.8639 0H5.83396C2.61707 0 0 2.61707 0 5.83396C0 9.05085 2.61707 11.6679 5.83396 11.6679C8.43553 11.6679 10.6441 9.95608 11.3942 7.59971L12.6112 11.138V15.4154H13.7345V12.3671L45.3269 42.8766H41.8271V43.9999H46.4901H47.2787H55.4137V42.8766H47.2787V10.4825ZM18.9806 11.6058L46.1554 38.0464V42.1154L14.563 11.6058H18.9806ZM46.1554 36.4792L20.5915 11.6058H46.1554V36.4792ZM11.8638 1.12337C13.897 1.12337 15.7053 2.41578 16.3637 4.33936L18.4658 10.4825H13.5737L11.5055 4.4701C11.1774 3.10602 10.3694 1.92739 9.2701 1.12337H11.8638ZM5.83396 10.5448C3.23643 10.5448 1.12325 8.43159 1.12325 5.83407C1.12325 3.23654 3.23643 1.12337 5.83396 1.12337C8.43148 1.12337 10.5448 3.23654 10.5448 5.83407C10.5448 8.43159 8.43148 10.5448 5.83396 10.5448Z" fill="#FF4F00"/>
<path d="M5.8343 3.73376C4.67634 3.73376 3.73438 4.67584 3.73438 5.83369C3.73438 6.99154 4.67634 7.93361 5.8343 7.93361C6.99226 7.93361 7.93422 6.99154 7.93422 5.83369C7.93422 4.67584 6.99226 3.73376 5.8343 3.73376ZM5.8343 6.81047C5.29581 6.81047 4.85763 6.3724 4.85763 5.8338C4.85763 5.2952 5.2957 4.85713 5.8343 4.85713C6.3729 4.85713 6.81097 5.2952 6.81097 5.8338C6.81097 6.3724 6.3729 6.81047 5.8343 6.81047ZM45.0346 22.2992V12.8029H35.5382V22.2992H45.0346ZM36.6614 13.9262H43.9114V21.176H36.6614V13.9262Z" fill="#FF4F00"/>
<path d="M42.5839 15.1345H37.9873V16.2578H42.5839V15.1345Z" fill="#FF4F00"/>
<path d="M42.5839 16.9895H37.9873V18.1128H42.5839V16.9895Z" fill="#FF4F00"/>
<path d="M44.4727 23.5328H40.2861V24.6561H44.4727V23.5328Z" fill="#FF4F00"/>
<path d="M44.4727 25.6163H40.2861V26.7396H44.4727V25.6163Z" fill="#FF4F00"/>
<path d="M31.1364 33.0571L28.2755 31.1328L26.3463 34.001L27.2784 34.628L28.1021 33.4035C28.6218 35.151 28.1541 37.0844 26.8401 38.3984C25.86 39.3786 24.5728 39.8686 23.2853 39.8685C21.9981 39.8684 20.7105 39.3783 19.7306 38.3984L18.9363 39.1926C20.1355 40.3918 21.7102 40.9914 23.2853 40.9912C24.8601 40.9909 26.4355 40.3916 27.6344 39.1926C29.2381 37.5888 29.8116 35.2308 29.1825 33.0966L30.5094 33.9891L31.1364 33.0571ZM14.8789 35.8371L17.7397 37.7615L19.6689 34.8931L18.7368 34.2664L17.9133 35.4907C17.3934 33.7433 17.8611 31.8098 19.1752 30.4958C21.1354 28.5358 24.3247 28.5357 26.2847 30.4958L27.0789 29.7016C24.6808 27.3035 20.7789 27.3036 18.3809 29.7016C16.7771 31.3055 16.2037 33.6636 16.8327 35.7977L15.5057 34.9051L14.8789 35.8371Z" fill="#FF4F00"/>
</svg>
