<svg width="65" height="52" viewBox="0 0 65 52" fill="none" xmlns="http://www.w3.org/2000/svg">
<path d="M38.9023 0C28.6656 0 19.5503 5.90766 15.3489 15.1545C11.0122 15.6957 7.58631 19.212 7.18427 23.5897C2.78663 26.3554 0 31.357 0 36.6378C0 45.1082 6.83844 52 15.2431 52H39.0605C39.2358 52 39.494 51.9743 39.7769 51.8609C53.6129 51.395 64.7833 39.8512 64.7833 25.8809C64.7833 11.6105 53.1728 0 38.9023 0ZM39.2205 48.0625C39.0519 48.0625 38.8071 48.0863 38.5365 48.1892H15.2431C8.93914 48.1892 3.81078 43.0075 3.81078 36.6378C3.81078 32.3697 6.21919 28.3465 9.94899 26.3935C10.2661 26.2269 10.5299 25.9744 10.7102 25.6649C10.8905 25.3554 10.9799 25.0014 10.9684 24.6434L10.956 24.4528C10.956 21.388 13.4492 18.8948 16.4349 18.8929C16.4826 18.8948 16.5883 18.9015 16.635 18.9005C17.0159 18.9005 17.3881 18.7863 17.7034 18.5726C18.0188 18.359 18.2628 18.0557 18.4042 17.702C21.7748 9.26401 29.8213 3.81078 38.9023 3.81078C51.0711 3.81078 60.9725 13.7121 60.9725 25.8809C60.9725 37.9554 51.2035 47.9063 39.2205 48.0625Z" fill="#FF4F00"/>
<path d="M56.915 22.5855C56.8872 22.3353 56.7614 22.1064 56.5652 21.9487C56.369 21.791 56.1183 21.7175 55.868 21.7443C55.6152 21.7733 55.3841 21.901 55.2251 22.0996C55.0661 22.2982 54.9921 22.5516 55.0191 22.8046C55.0715 23.2905 55.0963 23.8173 55.0973 24.3175C55.0982 24.8443 55.5241 25.3245 56.05 25.3245H56.0528C56.5787 25.3245 57.0046 24.8443 57.0036 24.3175C57.0036 23.7526 56.9741 23.1343 56.915 22.5855Z" fill="#FF4F00"/>
<path d="M55.0498 16.615C53.6777 14.1129 51.6583 12.0254 49.203 10.5712C46.7476 9.11689 43.9465 8.34924 41.0928 8.34851C40.8402 8.34851 40.5978 8.44888 40.4192 8.62755C40.2405 8.80621 40.1401 9.04854 40.1401 9.30121C40.1401 9.55388 40.2405 9.7962 40.4192 9.97486C40.5978 10.1535 40.8402 10.2539 41.0928 10.2539C43.6051 10.2543 46.0711 10.9302 48.2326 12.2107C50.3941 13.4912 52.1715 15.3293 53.3788 17.5325C53.5004 17.7541 53.7052 17.9183 53.9479 17.9889C54.1906 18.0596 54.4514 18.0309 54.673 17.9093C54.8946 17.7876 55.0588 17.5829 55.1295 17.3402C55.2001 17.0975 55.1715 16.8366 55.0498 16.615Z" fill="#FF4F00"/>
<path d="M36.9077 19.4359C36.0437 18.3336 34.8252 17.701 33.5676 17.701C32.3329 17.701 31.1925 18.2879 30.3475 19.3645L23.1318 28.8485C22.2086 30.0261 21.9676 31.297 22.4716 32.3335C22.9565 33.3291 24.0397 33.9007 25.4478 33.9007H29.0575C29.3102 33.9007 29.5525 33.8003 29.7312 33.6216C29.9099 33.443 30.0102 33.2007 30.0102 32.948C30.0102 32.6953 29.9099 32.453 29.7312 32.2743C29.5525 32.0957 29.3102 31.9953 29.0575 31.9953H25.4468C24.8066 31.9953 24.3341 31.8114 24.1845 31.4999C24.0168 31.155 24.1874 30.5882 24.6399 30.0118L31.8556 20.5277C32.3224 19.9323 32.9293 19.6045 33.5676 19.6045C34.245 19.6045 34.8995 19.9618 35.4034 20.6039L42.6325 29.9832C43.0803 30.5529 43.2489 31.1293 43.0755 31.4865C42.9193 31.8086 42.4601 31.9924 41.817 31.9924H37.6318C37.105 31.9924 37.3508 32.4183 37.3508 32.9451V36.7797C37.3508 38.8633 35.5797 40.4943 33.7181 40.4943C32.2615 40.4943 30.8572 39.7531 30.3294 38.4041C30.1379 37.9125 29.6282 37.6705 29.1366 37.8629C28.6479 38.0544 28.4888 38.607 28.6803 39.0986C29.5015 41.1974 31.4364 42.4016 33.6981 42.4016C36.6257 42.4016 39.2552 39.9322 39.2552 36.7807V33.8997H41.816C43.2174 33.8997 44.3007 33.3252 44.7894 32.323C45.2915 31.2874 45.0457 29.9718 44.1349 28.8142L36.9077 19.4359Z" fill="#FF4F00"/>
<path d="M29.5333 36.5187C29.781 36.5187 30.0287 36.413 30.2097 36.2415C30.3812 36.0614 30.486 35.8137 30.486 35.566C30.486 35.3183 30.3812 35.0697 30.2097 34.8887C29.8476 34.5371 29.2093 34.5371 28.8568 34.8887C28.6844 35.0697 28.5806 35.3183 28.5806 35.566C28.5806 35.8137 28.6844 36.0614 28.8568 36.2415C29.0369 36.413 29.2856 36.5187 29.5333 36.5187Z" fill="#FF4F00"/>
</svg>
