<svg width="48" height="49" viewBox="0 0 48 49" fill="none" xmlns="http://www.w3.org/2000/svg">
<path d="M21.0853 45.6772H1.09484C0.49 45.6772 0 45.1872 0 44.5823V1.09484C0 0.49 0.49 0 1.09484 0H45.08C45.6849 0 46.1749 0.49 46.1749 1.09484V33.0827C46.1749 33.6875 45.6849 34.1775 45.08 34.1775C44.4752 34.1775 43.9852 33.6875 43.9852 33.0827V2.19734H2.18969V43.4875H21.0853C21.6902 43.4875 22.1802 43.9775 22.1802 44.5823C22.1878 45.1872 21.6902 45.6772 21.0853 45.6772Z" fill="#FF4F00"/>
<path d="M8.03234 45.6772C7.4275 45.6772 6.9375 45.1872 6.9375 44.5823V1.09484C6.9375 0.49 7.4275 0 8.03234 0C8.63719 0 9.12719 0.49 9.12719 1.09484V44.5747C9.12719 45.1872 8.63719 45.6772 8.03234 45.6772ZM38.1444 31.5591C37.5395 31.5591 37.0495 31.0691 37.0495 30.4642V1.09484C37.0495 0.49 37.5395 0 38.1444 0C38.7492 0 39.2392 0.49 39.2392 1.09484V30.4566C39.2392 31.0691 38.7492 31.5591 38.1444 31.5591Z" fill="#FF4F00"/>
<path d="M32.0489 44.0541C31.4441 44.0541 30.9541 43.5641 30.9541 42.9592C30.9541 42.3544 31.4441 41.8644 32.0489 41.8644C34.4759 41.8644 36.4513 39.8891 36.4513 37.462C36.4513 35.035 34.4759 33.0597 32.0489 33.0597H26.2991C23.872 33.0597 21.8967 35.035 21.8967 37.462C21.8967 39.8891 23.872 41.8644 26.2991 41.8644C26.9039 41.8644 27.3939 42.3544 27.3939 42.9592C27.3939 43.5641 26.9039 44.0541 26.2991 44.0541C22.6623 44.0541 19.707 41.0987 19.707 37.462C19.707 33.8253 22.6623 30.87 26.2991 30.87H32.0489C35.6856 30.87 38.6409 33.8253 38.6409 37.462C38.6486 41.0911 35.6856 44.0541 32.0489 44.0541Z" fill="#FF4F00"/>
<path d="M40.5723 49H34.8225C31.1858 49 28.2305 46.0447 28.2305 42.408C28.2305 38.7712 31.1858 35.8159 34.8225 35.8159C35.4273 35.8159 35.9173 36.3059 35.9173 36.9108C35.9173 37.5156 35.4273 38.0056 34.8225 38.0056C32.3955 38.0056 30.4202 39.9809 30.4202 42.408C30.4202 44.835 32.3955 46.8103 34.8225 46.8103H40.5723C42.9994 46.8103 44.9747 44.835 44.9747 42.408C44.9747 39.9809 42.9994 38.0056 40.5723 38.0056C39.9675 38.0056 39.4775 37.5156 39.4775 36.9108C39.4775 36.3059 39.9675 35.8159 40.5723 35.8159C44.2091 35.8159 47.1644 38.7712 47.1644 42.408C47.1644 46.0447 44.2091 49 40.5723 49Z" fill="#FF4F00"/>
</svg>
