<svg width="51" height="52" viewBox="0 0 51 52" fill="none" xmlns="http://www.w3.org/2000/svg">
<path d="M16.4671 27.7333H12.1337C11.1804 27.7333 10.4004 28.5133 10.4004 29.4667C10.4004 30.42 11.1804 31.2 12.1337 31.2H16.4671C17.4204 31.2 18.2004 30.42 18.2004 29.4667C18.2004 28.5133 17.4204 27.7333 16.4671 27.7333ZM12.1337 26H13.8671C14.8204 26 15.6004 25.22 15.6004 24.2667C15.6004 23.3133 14.8204 22.5333 13.8671 22.5333H12.1337C11.1804 22.5333 10.4004 23.3133 10.4004 24.2667C10.4004 25.22 11.1804 26 12.1337 26Z" fill="#FF4F00"/>
<path d="M5.2 5.98V30.42C5.2 33.7133 7.88667 36.4 11.18 36.4H38.22C41.5133 36.4 44.2 33.7133 44.2 30.42V5.98C44.2 2.68667 41.5133 0 38.22 0H11.18C7.88667 0 5.2 2.68667 5.2 5.98ZM40.7333 5.98V30.42C40.7333 31.8067 39.6067 32.9333 38.22 32.9333H11.18C9.79333 32.9333 8.66667 31.8067 8.66667 30.42V5.98C8.66667 4.59333 9.79333 3.46667 11.18 3.46667H16.4667V10.4C16.4667 11.0067 16.8133 11.5267 17.2467 11.8733C17.7667 12.22 18.3733 12.22 18.8933 11.96L25.0467 8.84L31.2 11.96C31.46 12.0467 31.72 12.1333 31.98 12.1333C32.3267 12.1333 32.5867 12.0467 32.9333 11.8733C33.4533 11.5267 33.7133 11.0067 33.7133 10.4V3.46667H38.1333C39.6067 3.46667 40.7333 4.59333 40.7333 5.98ZM19.9333 3.46667H30.3333V7.62667L25.9133 5.37333C25.3933 5.11333 24.8733 5.11333 24.3533 5.37333L19.9333 7.62667V3.46667ZM0 45.0667C0 48.88 3.12 52 6.93333 52H43.3333C47.1467 52 50.2667 48.88 50.2667 45.0667C50.2667 41.2533 47.1467 38.1333 43.3333 38.1333H6.93333C3.12 38.1333 0 41.2533 0 45.0667ZM6.93333 41.6H43.3333C45.24 41.6 46.8 43.16 46.8 45.0667C46.8 46.9733 45.24 48.5333 43.3333 48.5333H6.93333C5.02667 48.5333 3.46667 46.9733 3.46667 45.0667C3.46667 43.16 5.02667 41.6 6.93333 41.6Z" fill="#FF4F00"/>
<path d="M6.93353 46.8C7.89082 46.8 8.66686 46.024 8.66686 45.0667C8.66686 44.1094 7.89082 43.3334 6.93353 43.3334C5.97624 43.3334 5.2002 44.1094 5.2002 45.0667C5.2002 46.024 5.97624 46.8 6.93353 46.8Z" fill="#FF4F00"/>
<path d="M12.1337 46.8C13.091 46.8 13.8671 46.024 13.8671 45.0667C13.8671 44.1094 13.091 43.3334 12.1337 43.3334C11.1764 43.3334 10.4004 44.1094 10.4004 45.0667C10.4004 46.024 11.1764 46.8 12.1337 46.8Z" fill="#FF4F00"/>
<path d="M17.3339 46.8C18.2912 46.8 19.0673 46.024 19.0673 45.0667C19.0673 44.1094 18.2912 43.3334 17.3339 43.3334C16.3766 43.3334 15.6006 44.1094 15.6006 45.0667C15.6006 46.024 16.3766 46.8 17.3339 46.8Z" fill="#FF4F00"/>
<path d="M22.5341 46.8C23.4914 46.8 24.2674 46.024 24.2674 45.0667C24.2674 44.1094 23.4914 43.3334 22.5341 43.3334C21.5768 43.3334 20.8008 44.1094 20.8008 45.0667C20.8008 46.024 21.5768 46.8 22.5341 46.8Z" fill="#FF4F00"/>
<path d="M27.7333 46.8C28.6906 46.8 29.4667 46.024 29.4667 45.0667C29.4667 44.1094 28.6906 43.3334 27.7333 43.3334C26.776 43.3334 26 44.1094 26 45.0667C26 46.024 26.776 46.8 27.7333 46.8Z" fill="#FF4F00"/>
<path d="M32.9335 46.8C33.8908 46.8 34.6669 46.024 34.6669 45.0667C34.6669 44.1094 33.8908 43.3334 32.9335 43.3334C31.9762 43.3334 31.2002 44.1094 31.2002 45.0667C31.2002 46.024 31.9762 46.8 32.9335 46.8Z" fill="#FF4F00"/>
<path d="M38.1337 46.8C39.091 46.8 39.8671 46.024 39.8671 45.0667C39.8671 44.1094 39.091 43.3334 38.1337 43.3334C37.1764 43.3334 36.4004 44.1094 36.4004 45.0667C36.4004 46.024 37.1764 46.8 38.1337 46.8Z" fill="#FF4F00"/>
<path d="M43.3339 46.8C44.2912 46.8 45.0673 46.024 45.0673 45.0667C45.0673 44.1094 44.2912 43.3334 43.3339 43.3334C42.3766 43.3334 41.6006 44.1094 41.6006 45.0667C41.6006 46.024 42.3766 46.8 43.3339 46.8Z" fill="#FF4F00"/>
</svg>
