<svg width="56" height="48" viewBox="0 0 56 48" fill="none" xmlns="http://www.w3.org/2000/svg">
<path d="M43.839 2.92461L43.8401 1.15784C43.8401 0.637025 43.4971 0.196101 43.0226 0.0542102C42.9144 0.0179969 42.801 0 42.682 0H2.42432C1.08607 0 0 1.08585 0 2.4241V41.9396C0 42.8189 0.711976 43.5308 1.59119 43.5308H2.92428V5.62975C2.92428 5.54722 2.92702 5.4647 2.9346 5.38218C2.96565 5.05977 3.05081 4.75294 3.18491 4.47191C3.61804 3.55911 4.55169 2.92461 5.62953 2.92461H43.839ZM51.0874 14.425C51.9433 14.83 52.4176 15.3042 52.8227 16.1602C52.991 16.5165 53.5064 16.5165 53.6749 16.1602C54.0798 15.3042 54.5542 14.8301 55.4102 14.425C55.7662 14.2565 55.7662 13.7413 55.4102 13.5728C54.5542 13.1679 54.0799 12.6933 53.6749 11.8374C53.5065 11.4814 52.9911 11.4814 52.8227 11.8374C52.4177 12.6934 51.9433 13.1679 51.0874 13.5728C50.7315 13.7413 50.7315 14.2565 51.0874 14.425Z" fill="#FF4F00"/>
<path d="M31.9818 37.6311H11.2188V39.1784H31.9818V37.6311Z" fill="#FF4F00"/>
<path d="M41.002 40.8973H19.999V42.4446H41.002V40.8973Z" fill="#FF4F00"/>
<path d="M55.6906 40.1006L48.3086 32.2299V31.9382C48.3752 31.8647 48.439 31.7886 48.5036 31.7131C48.5085 31.7075 48.5134 31.7019 48.5182 31.6964C48.6219 31.575 48.7226 31.4508 48.8215 31.325C48.83 31.3138 48.8386 31.3031 48.8471 31.292C48.9412 31.1707 49.0329 31.047 49.1222 30.9216C49.1343 30.9045 49.1466 30.8875 49.1586 30.8703C49.2434 30.7494 49.3259 30.6271 49.4064 30.5027C49.4214 30.4793 49.4363 30.456 49.4516 30.4326C49.5274 30.313 49.6012 30.1919 49.6726 30.069C49.6904 30.0393 49.7073 30.0092 49.7245 29.9793C49.792 29.8612 49.8576 29.742 49.9204 29.6213C49.9399 29.5847 49.9588 29.5473 49.9774 29.5103C50.0364 29.3945 50.0939 29.2779 50.1487 29.1596C50.1694 29.1157 50.189 29.0711 50.2092 29.0268C50.26 28.9134 50.3097 28.7998 50.3569 28.6847C50.3779 28.6332 50.3981 28.581 50.4183 28.5289C50.4616 28.4191 50.504 28.3087 50.5437 28.1974C50.5649 28.1376 50.5846 28.0771 50.6048 28.0168C50.6406 27.9109 50.6757 27.8048 50.7085 27.6973C50.7291 27.6294 50.7474 27.5606 50.7668 27.4922C50.7955 27.3903 50.8242 27.2886 50.85 27.1859C50.8697 27.109 50.886 27.0316 50.904 26.9543C50.926 26.8571 50.9487 26.7607 50.9683 26.6632C50.9854 26.5771 50.9995 26.4896 51.015 26.403C51.0309 26.3122 51.048 26.2215 51.0618 26.1298C51.0766 26.0318 51.0872 25.9326 51.0993 25.8338C51.1094 25.7515 51.1216 25.6699 51.1295 25.5871C51.1412 25.4705 51.1488 25.3524 51.1565 25.2346C51.161 25.1677 51.1679 25.1021 51.1711 25.0351C51.1805 24.8495 51.1854 24.6629 51.1854 24.475C51.1854 21.6074 50.096 18.9898 48.31 17.0133L48.3106 5.62976C48.3106 5.10895 47.9675 4.66528 47.4955 4.52361C47.3847 4.4897 47.2711 4.47192 47.1526 4.47192H5.63071C4.99138 4.47192 4.47266 4.99021 4.47266 5.62976V46.4113C4.47266 47.2881 5.18727 48 6.06385 48H46.7166C47.5934 48 48.3078 47.2883 48.3078 46.4113L48.3082 36.7508L53.4316 42.2152L55.6906 40.1006ZM48.084 24.4739C48.084 26.6949 47.1836 28.7054 45.7279 30.1604V30.166C44.2709 31.6216 42.2599 32.5229 40.0429 32.5229C35.605 32.5229 31.9946 28.9127 31.9946 24.475C31.9946 20.0372 35.6049 16.4273 40.0429 16.4273C42.2599 16.4273 44.2708 17.3288 45.7279 18.7841V18.7877C47.1836 20.2428 48.084 22.2532 48.084 24.4739ZM30.1058 6.42722H44.9698V7.97452H30.1058V6.42722ZM14.1795 6.48988C14.6036 6.48988 14.9476 6.83369 14.9476 7.25783C14.9476 7.68196 14.6036 8.02555 14.1795 8.02555C13.7556 8.02555 13.412 7.68196 13.412 7.25783C13.412 6.83369 13.7556 6.48988 14.1795 6.48988ZM11.1651 6.48988C11.589 6.48988 11.933 6.83369 11.933 7.25783C11.933 7.68196 11.589 8.02555 11.1651 8.02555C10.741 8.02555 10.3974 7.68196 10.3974 7.25783C10.3974 6.83369 10.741 6.48988 11.1651 6.48988ZM8.1505 6.48988C8.57464 6.48988 8.91845 6.83369 8.91845 7.25783C8.91845 7.68196 8.57464 8.02555 8.1505 8.02555C7.72637 8.02555 7.383 7.68196 7.383 7.25783C7.383 6.83369 7.72637 6.48988 8.1505 6.48988ZM45.3815 45.422H7.3965C7.20556 45.422 7.05061 45.267 7.05061 45.0758V11.9461C7.05061 11.755 7.20556 11.5998 7.3965 11.5998H45.3815C45.5727 11.5998 45.7279 11.755 45.7279 11.9461V14.8975C44.0623 13.9049 42.1185 13.3327 40.0429 13.3327C33.8985 13.3327 28.9001 18.3313 28.9001 24.4751C28.9001 30.619 33.8985 35.6177 40.0429 35.6177C40.2776 35.6177 40.51 35.6078 40.741 35.5934C40.807 35.5894 40.8721 35.5838 40.9375 35.5786C41.1156 35.5642 41.2922 35.5458 41.4677 35.5233C41.5251 35.5161 41.5826 35.5098 41.6394 35.5015C41.8679 35.4684 42.0942 35.4299 42.318 35.3834C42.3369 35.3793 42.3557 35.3744 42.3748 35.3703C42.5808 35.3262 42.784 35.2756 42.9854 35.2203C43.0378 35.206 43.0896 35.1909 43.1415 35.176C43.3308 35.1211 43.5183 35.0615 43.7034 34.9968C43.7326 34.9867 43.7619 34.9777 43.7911 34.9672C44.0119 34.888 44.2292 34.8023 44.4428 34.7099C44.4589 34.703 44.4748 34.6953 44.491 34.6883C44.6854 34.6035 44.8766 34.5123 45.0648 34.4167C45.1002 34.3987 45.1357 34.3807 45.1707 34.3625C45.3596 34.2642 45.5454 34.1617 45.7278 34.0533V45.0758C45.7279 45.267 45.5727 45.422 45.3815 45.422Z" fill="#FF4F00"/>
<path d="M12.2067 26.8714H27.5791C27.4293 26.0953 27.3522 25.2959 27.3522 24.4756C27.3522 23.1064 27.5689 21.7885 27.9737 20.5533H12.2067C11.5181 20.5533 10.9609 21.1104 10.9609 21.7989V25.626C10.961 26.3143 11.5181 26.8714 12.2067 26.8714Z" fill="#FF4F00"/>
<path d="M41.08 37.5736H34.3701V39.1209H41.08V37.5736Z" fill="#FF4F00"/>
<path d="M17.9541 40.9261H11.2441V42.4734H17.9541V40.9261Z" fill="#FF4F00"/>
</svg>
