<svg width="39" height="39" viewBox="0 0 39 39" fill="none" xmlns="http://www.w3.org/2000/svg">
<path fill-rule="evenodd" clip-rule="evenodd" d="M35.1382 0C34.8212 0 8.61778 0 8.61778 0C6.78721 0 5.30273 1.48448 5.30273 3.31505C5.30273 5.82918 5.30273 9.66402 5.30273 13.9232C5.30273 14.2892 5.59976 14.5862 5.96574 14.5862C6.33172 14.5862 6.62875 14.2892 6.62875 13.9232V3.31505C6.62875 2.21644 7.51917 1.32602 8.61778 1.32602H32.4861C32.0585 1.89621 31.8231 2.59369 31.8231 3.31505V15.2631C31.8231 15.6291 32.1201 15.9261 32.4861 15.9261C32.8521 15.9261 33.1491 15.6291 33.1491 15.2631V6.63009H36.4642C37.5628 6.63009 38.4532 5.73967 38.4532 4.64107V3.31505C38.4532 2.4359 38.1038 1.59254 37.4826 0.970638C36.8607 0.349399 36.0173 0 35.1382 0ZM35.1382 1.32602C34.6104 1.32602 34.1045 1.53555 33.7319 1.90882C33.3586 2.28143 33.1491 2.78729 33.1491 3.31505V5.30407H36.4642C36.8302 5.30407 37.1272 5.00705 37.1272 4.64107V3.31505C37.1272 2.78729 36.9177 2.28143 36.5444 1.90882C36.1718 1.53555 35.6659 1.32602 35.1382 1.32602Z" fill="#FF4F00"/>
<path fill-rule="evenodd" clip-rule="evenodd" d="M17.2382 19.2274C17.2382 18.3482 16.8888 17.5049 16.2676 16.883C15.6457 16.2618 14.8023 15.9124 13.9232 15.9124C10.9801 15.9124 6.25815 15.9124 3.31505 15.9124C2.4359 15.9124 1.59255 16.2618 0.970644 16.883C0.349404 17.5049 0 18.3482 0 19.2274C0 23.3036 0 31.0634 0 35.1396C0 36.0188 0.349404 36.8621 0.970644 37.484C1.59255 38.1053 2.4359 38.4547 3.31505 38.4547C6.25815 38.4547 10.9801 38.4547 13.9232 38.4547C14.8023 38.4547 15.6457 38.1053 16.2676 37.484C16.8888 36.8621 17.2382 36.0188 17.2382 35.1396C17.2382 31.0634 17.2382 23.3036 17.2382 19.2274ZM15.9122 19.2274V35.1396C15.9122 35.6674 15.7027 36.1732 15.3294 36.5458C14.9568 36.9191 14.451 37.1287 13.9232 37.1287H3.31505C2.78729 37.1287 2.28141 36.9191 1.9088 36.5458C1.53553 36.1732 1.32602 35.6674 1.32602 35.1396C1.32602 31.0634 1.32602 23.3036 1.32602 19.2274C1.32602 18.6996 1.53553 18.1938 1.9088 17.8212C2.28141 17.4479 2.78729 17.2384 3.31505 17.2384H13.9232C14.451 17.2384 14.9568 17.4479 15.3294 17.8212C15.7027 18.1938 15.9122 18.6996 15.9122 19.2274Z" fill="#FF4F00"/>
<path fill-rule="evenodd" clip-rule="evenodd" d="M14.5865 20.5532C14.5865 19.4546 13.6961 18.5642 12.5975 18.5642H4.64137C3.54277 18.5642 2.65234 19.4546 2.65234 20.5532V23.2053C2.65234 24.3039 3.54277 25.1943 4.64137 25.1943H12.5975C13.6961 25.1943 14.5865 24.3039 14.5865 23.2053V20.5532ZM13.2605 20.5532V23.2053C13.2605 23.5713 12.9635 23.8683 12.5975 23.8683H4.64137C4.27539 23.8683 3.97836 23.5713 3.97836 23.2053V20.5532C3.97836 20.1873 4.27539 19.8902 4.64137 19.8902H12.5975C12.9635 19.8902 13.2605 20.1873 13.2605 20.5532Z" fill="#FF4F00"/>
<path fill-rule="evenodd" clip-rule="evenodd" d="M14.5865 33.8136V28.5095C14.5865 27.4109 13.6961 26.5205 12.5975 26.5205H4.64137C3.54277 26.5205 2.65234 27.4109 2.65234 28.5095V33.8136C2.65234 34.9122 3.54277 35.8026 4.64137 35.8026H12.5975C13.6961 35.8026 14.5865 34.9122 14.5865 33.8136ZM5.30438 34.4766H4.64137C4.27539 34.4766 3.97836 34.1796 3.97836 33.8136V33.1506H5.30438V34.4766ZM6.6304 33.1506V34.4766H7.95642V33.1506H6.6304ZM9.28244 33.1506V34.4766H10.6085V33.1506H9.28244ZM13.2605 33.1506V33.8136C13.2605 34.1796 12.9635 34.4766 12.5975 34.4766H11.9345V33.1506H13.2605ZM3.97836 30.4986V31.8246H5.30438V30.4986H3.97836ZM6.6304 30.4986V31.8246H7.95642V30.4986H6.6304ZM9.28244 30.4986V31.8246H10.6085V30.4986H9.28244ZM11.9345 30.4986V31.8246H13.2605V30.4986H11.9345ZM5.30438 27.8465V29.1725H3.97836V28.5095C3.97836 28.1435 4.27539 27.8465 4.64137 27.8465H5.30438ZM6.6304 27.8465V29.1725H7.95642V27.8465H6.6304ZM9.28244 27.8465V29.1725H10.6085V27.8465H9.28244ZM11.9345 27.8465H12.5975C12.9635 27.8465 13.2605 28.1435 13.2605 28.5095V29.1725H11.9345V27.8465ZM22.591 31.8246H19.2594C18.8941 31.8246 18.5964 32.1216 18.5964 32.4876C18.5964 32.8536 18.8941 33.1506 19.2594 33.1506H25.8577C26.2237 33.1506 26.5207 33.4476 26.5207 33.8136V35.1396C26.5207 35.861 26.756 36.5585 27.1837 37.1287H19.2276C18.8616 37.1287 18.5646 37.4257 18.5646 37.7917C18.5646 38.1576 18.8616 38.4547 19.2276 38.4547C19.2276 38.4547 29.5937 38.4547 29.8357 38.4547C30.7149 38.4547 31.5582 38.1053 32.1801 37.484C32.8014 36.8621 33.1508 36.0188 33.1508 35.1396V33.7851C33.1508 33.4191 32.8537 33.1221 32.4878 33.1221C32.1218 33.1221 31.8248 33.4191 31.8248 33.7851V35.1396C31.8248 35.6674 31.6152 36.1732 31.242 36.5458C30.8694 36.9191 30.3635 37.1287 29.8357 37.1287C29.308 37.1287 28.8021 36.9191 28.4295 36.5458C28.0562 36.1732 27.8467 35.6674 27.8467 35.1396V33.8136C27.8467 33.5749 27.8043 33.3455 27.7274 33.1334C32.2312 32.8522 35.8028 29.1056 35.8028 24.5315C35.8028 19.7744 31.9408 15.9124 27.1837 15.9124C22.4266 15.9124 18.5646 19.7744 18.5646 24.5315C18.5646 27.6005 20.1724 30.297 22.591 31.8246ZM27.1837 17.2384C31.2088 17.2384 34.4768 20.5063 34.4768 24.5315C34.4768 28.5566 31.2088 31.8246 27.1837 31.8246C23.1586 31.8246 19.8906 28.5566 19.8906 24.5315C19.8906 20.5063 23.1586 17.2384 27.1837 17.2384Z" fill="#FF4F00"/>
<path fill-rule="evenodd" clip-rule="evenodd" d="M26.5212 19.8902C25.0559 19.8902 23.8691 21.0777 23.8691 22.5423C23.8691 24.0069 25.0559 25.1943 26.5212 25.1943V27.8463C25.7886 27.8463 25.1952 27.2529 25.1952 26.5203C25.1952 26.1543 24.8981 25.8573 24.5321 25.8573C24.1662 25.8573 23.8691 26.1543 23.8691 26.5203C23.8691 27.9849 25.0559 29.1724 26.5212 29.1724V29.8354C26.5212 30.2013 26.8182 30.4984 27.1842 30.4984C27.5502 30.4984 27.8472 30.2013 27.8472 29.8354V29.1724C29.3118 29.1724 30.4992 27.9849 30.4992 26.5203C30.4992 25.0557 29.3118 23.8683 27.8472 23.8683V21.2162C28.5792 21.2162 29.1732 21.8096 29.1732 22.5423C29.1732 22.9082 29.4702 23.2053 29.8362 23.2053C30.2022 23.2053 30.4992 22.9082 30.4992 22.5423C30.4992 21.0777 29.3118 19.8902 27.8472 19.8902V19.2272C27.8472 18.8612 27.5502 18.5642 27.1842 18.5642C26.8182 18.5642 26.5212 18.8612 26.5212 19.2272V19.8902ZM27.8472 25.1943V27.8463C28.5792 27.8463 29.1732 27.2529 29.1732 26.5203C29.1732 25.7877 28.5792 25.1943 27.8472 25.1943ZM26.5212 21.2162C25.7886 21.2162 25.1952 21.8096 25.1952 22.5423C25.1952 23.2749 25.7886 23.8683 26.5212 23.8683V21.2162Z" fill="#FF4F00"/>
<path fill-rule="evenodd" clip-rule="evenodd" d="M12.5974 5.3042C11.4995 5.3042 10.6084 6.19528 10.6084 7.29323C10.6084 8.39117 11.4995 9.28225 12.5974 9.28225C13.6954 9.28225 14.5865 8.39117 14.5865 7.29323C14.5865 6.19528 13.6954 5.3042 12.5974 5.3042ZM12.5974 6.63022C12.9634 6.63022 13.2604 6.92725 13.2604 7.29323C13.2604 7.65921 12.9634 7.95624 12.5974 7.95624C12.2314 7.95624 11.9344 7.65921 11.9344 7.29323C11.9344 6.92725 12.2314 6.63022 12.5974 6.63022Z" fill="#FF4F00"/>
<path fill-rule="evenodd" clip-rule="evenodd" d="M17.9011 10.6082C16.8032 10.6082 15.9121 11.4992 15.9121 12.5972C15.9121 13.6951 16.8032 14.5862 17.9011 14.5862C18.9991 14.5862 19.8902 13.6951 19.8902 12.5972C19.8902 11.4992 18.9991 10.6082 17.9011 10.6082ZM17.9011 11.9342C18.2671 11.9342 18.5641 12.2312 18.5641 12.5972C18.5641 12.9632 18.2671 13.2602 17.9011 13.2602C17.5352 13.2602 17.2381 12.9632 17.2381 12.5972C17.2381 12.2312 17.5352 11.9342 17.9011 11.9342Z" fill="#FF4F00"/>
<path fill-rule="evenodd" clip-rule="evenodd" d="M11.7398 14.3919L19.6959 6.43583C19.9545 6.17726 19.9545 5.75695 19.6959 5.49837C19.4374 5.2398 19.017 5.2398 18.7584 5.49837L10.8023 13.4545C10.5438 13.7131 10.5438 14.1334 10.8023 14.3919C11.0609 14.6505 11.4813 14.6505 11.7398 14.3919Z" fill="#FF4F00"/>
<path fill-rule="evenodd" clip-rule="evenodd" d="M21.8798 6.63022H27.1839C27.5499 6.63022 27.8469 6.33319 27.8469 5.96721C27.8469 5.60123 27.5499 5.3042 27.1839 5.3042H21.8798C21.5138 5.3042 21.2168 5.60123 21.2168 5.96721C21.2168 6.33319 21.5138 6.63022 21.8798 6.63022Z" fill="#FF4F00"/>
<path fill-rule="evenodd" clip-rule="evenodd" d="M21.8798 9.28207H27.1839C27.5499 9.28207 27.8469 8.98505 27.8469 8.61906C27.8469 8.25308 27.5499 7.95605 27.1839 7.95605H21.8798C21.5138 7.95605 21.2168 8.25308 21.2168 8.61906C21.2168 8.98505 21.5138 9.28207 21.8798 9.28207Z" fill="#FF4F00"/>
<path fill-rule="evenodd" clip-rule="evenodd" d="M21.8798 11.9342H27.1839C27.5499 11.9342 27.8469 11.6371 27.8469 11.2712C27.8469 10.9052 27.5499 10.6082 27.1839 10.6082H21.8798C21.5138 10.6082 21.2168 10.9052 21.2168 11.2712C21.2168 11.6371 21.5138 11.9342 21.8798 11.9342Z" fill="#FF4F00"/>
<path fill-rule="evenodd" clip-rule="evenodd" d="M21.8798 14.5863H27.1839C27.5499 14.5863 27.8469 14.2892 27.8469 13.9233C27.8469 13.5573 27.5499 13.2603 27.1839 13.2603H21.8798C21.5138 13.2603 21.2168 13.5573 21.2168 13.9233C21.2168 14.2892 21.5138 14.5863 21.8798 14.5863Z" fill="#FF4F00"/>
</svg>
