<svg width="86" height="100" viewBox="0 0 86 100" fill="none" xmlns="http://www.w3.org/2000/svg">
<path d="M0 73.5V26.5L43 0L86 26.5V73.5L43 100L0 73.5Z" fill="#FF5000"/>
<path d="M53.75 38H31.25C30.008 38 29 39.008 29 40.25V59.15C29 60.392 30.008 61.4 31.25 61.4H53.75C54.992 61.4 56 60.392 56 59.15V40.25C56 39.008 54.992 38 53.75 38ZM29.9 40.25C29.9 39.5075 30.5075 38.9 31.25 38.9H53.75C54.4925 38.9 55.1 39.5075 55.1 40.25V41.6H29.9V40.25ZM55.1 59.15C55.1 59.8925 54.4925 60.5 53.75 60.5H31.25C30.5075 60.5 29.9 59.8925 29.9 59.15V42.5H55.1V59.15Z" fill="white"/>
<path d="M31.7 40.6996C31.9485 40.6996 32.15 40.4981 32.15 40.2496C32.15 40.001 31.9485 39.7996 31.7 39.7996C31.4515 39.7996 31.25 40.001 31.25 40.2496C31.25 40.4981 31.4515 40.6996 31.7 40.6996Z" fill="white"/>
<path d="M33.5003 40.6996C33.7488 40.6996 33.9503 40.4981 33.9503 40.2496C33.9503 40.001 33.7488 39.7996 33.5003 39.7996C33.2518 39.7996 33.0503 40.001 33.0503 40.2496C33.0503 40.4981 33.2518 40.6996 33.5003 40.6996Z" fill="white"/>
<path d="M35.3001 40.6996C35.5486 40.6996 35.7501 40.4981 35.7501 40.2496C35.7501 40.001 35.5486 39.7996 35.3001 39.7996C35.0516 39.7996 34.8501 40.001 34.8501 40.2496C34.8501 40.4981 35.0516 40.6996 35.3001 40.6996Z" fill="white"/>
<path d="M49.7317 56.1573C49.7317 56.1573 49.7407 56.1843 49.7497 56.1933C49.7542 56.2068 49.7587 56.2203 49.7677 56.2293L51.1177 58.4793C51.1987 58.6143 51.3472 58.6998 51.5047 58.6998C51.6622 58.6998 51.8107 58.6188 51.8917 58.4793L53.2417 56.2293C53.2417 56.2293 53.2507 56.2023 53.2597 56.1888C53.2642 56.1753 53.2732 56.1663 53.2777 56.1528C53.2957 56.1033 53.3092 56.0493 53.3092 55.9998V45.6498C53.3092 44.9073 52.7017 44.2998 51.9592 44.2998H51.0592C50.3167 44.2998 49.7092 44.9073 49.7092 45.6498V55.9998C49.7092 56.0538 49.7227 56.1033 49.7407 56.1528L49.7317 56.1573ZM52.4002 55.5498H50.6002V47.8998H52.4002V55.5498ZM51.5002 57.3768L50.9467 56.4498H52.0582L51.5047 57.3768H51.5002ZM50.6002 45.6498C50.6002 45.4023 50.8027 45.1998 51.0502 45.1998H51.9502C52.1977 45.1998 52.4002 45.4023 52.4002 45.6498V46.9998H50.6002V45.6498ZM33.0502 48.7998H34.8502C35.5927 48.7998 36.2002 48.1923 36.2002 47.4498V45.6498C36.2002 44.9073 35.5927 44.2998 34.8502 44.2998H33.0502C32.3077 44.2998 31.7002 44.9073 31.7002 45.6498V47.4498C31.7002 48.1923 32.3077 48.7998 33.0502 48.7998ZM32.6002 45.6498C32.6002 45.4023 32.8027 45.1998 33.0502 45.1998H34.8502C35.0977 45.1998 35.3002 45.4023 35.3002 45.6498V47.4498C35.3002 47.6973 35.0977 47.8998 34.8502 47.8998H33.0502C32.8027 47.8998 32.6002 47.6973 32.6002 47.4498V45.6498ZM33.0502 58.6998H34.8502C35.5927 58.6998 36.2002 58.0923 36.2002 57.3498V53.7498C36.2002 53.0073 35.5927 52.3998 34.8502 52.3998H33.0502C32.3077 52.3998 31.7002 53.0073 31.7002 53.7498V57.3498C31.7002 58.0923 32.3077 58.6998 33.0502 58.6998ZM32.6002 53.7498C32.6002 53.5023 32.8027 53.2998 33.0502 53.2998H34.8502C35.0977 53.2998 35.3002 53.5023 35.3002 53.7498V57.3498C35.3002 57.5973 35.0977 57.7998 34.8502 57.7998H33.0502C32.8027 57.7998 32.6002 57.5973 32.6002 57.3498V53.7498ZM38.9002 50.5998H47.0002C47.7427 50.5998 48.3502 49.9923 48.3502 49.2498V45.6498C48.3502 44.9073 47.7427 44.2998 47.0002 44.2998H38.9002C38.1577 44.2998 37.5502 44.9073 37.5502 45.6498V49.2498C37.5502 49.9923 38.1577 50.5998 38.9002 50.5998ZM38.4502 45.6498C38.4502 45.4023 38.6527 45.1998 38.9002 45.1998H47.0002C47.2477 45.1998 47.4502 45.4023 47.4502 45.6498V49.2498C47.4502 49.4973 47.2477 49.6998 47.0002 49.6998H38.9002C38.6527 49.6998 38.4502 49.4973 38.4502 49.2498V45.6498ZM32.1502 51.0498H35.7502C35.9977 51.0498 36.2002 50.8473 36.2002 50.5998C36.2002 50.3523 35.9977 50.1498 35.7502 50.1498H32.1502C31.9027 50.1498 31.7002 50.3523 31.7002 50.5998C31.7002 50.8473 31.9027 51.0498 32.1502 51.0498ZM38.0002 53.2998H47.9002C48.1477 53.2998 48.3502 53.0973 48.3502 52.8498C48.3502 52.6023 48.1477 52.3998 47.9002 52.3998H38.0002C37.7527 52.3998 37.5502 52.6023 37.5502 52.8498C37.5502 53.0973 37.7527 53.2998 38.0002 53.2998ZM38.0002 55.0998H47.9002C48.1477 55.0998 48.3502 54.8973 48.3502 54.6498C48.3502 54.4023 48.1477 54.1998 47.9002 54.1998H38.0002C37.7527 54.1998 37.5502 54.4023 37.5502 54.6498C37.5502 54.8973 37.7527 55.0998 38.0002 55.0998ZM38.0002 56.8998H47.9002C48.1477 56.8998 48.3502 56.6973 48.3502 56.4498C48.3502 56.2023 48.1477 55.9998 47.9002 55.9998H38.0002C37.7527 55.9998 37.5502 56.2023 37.5502 56.4498C37.5502 56.6973 37.7527 56.8998 38.0002 56.8998ZM38.0002 58.6998H45.2002C45.4477 58.6998 45.6502 58.4973 45.6502 58.2498C45.6502 58.0023 45.4477 57.7998 45.2002 57.7998H38.0002C37.7527 57.7998 37.5502 58.0023 37.5502 58.2498C37.5502 58.4973 37.7527 58.6998 38.0002 58.6998Z" fill="white"/>
</svg>
