<svg width="51" height="58" viewBox="0 0 51 58" fill="none" xmlns="http://www.w3.org/2000/svg">
<path d="M46.2778 10.1111H42.5V8.22218C42.4726 7.97946 42.4056 7.73296 42.2233 7.55446L35.6122 0.943348C35.4327 0.762015 35.1872 0.694015 34.9444 0.666626H6.61111C3.51994 0.694959 1.57156 3.35829 1.88889 6.33329H0.944444C0.693962 6.33329 0.453739 6.4328 0.276622 6.60991C0.0995039 6.78703 0 7.02726 0 7.27774C0 7.52822 0.0995039 7.76844 0.276622 7.94556C0.453739 8.12268 0.693962 8.22218 0.944444 8.22218H1.88889V12H0.944444C0.693962 12 0.453739 12.0995 0.276622 12.2766C0.0995039 12.4537 0 12.6939 0 12.9444C0 13.1949 0.0995039 13.4351 0.276622 13.6122C0.453739 13.7893 0.693962 13.8888 0.944444 13.8888H1.88889V17.6666H0.944444C0.693962 17.6666 0.453739 17.7661 0.276622 17.9432C0.0995039 18.1204 0 18.3606 0 18.6111C0 18.8616 0.0995039 19.1018 0.276622 19.2789C0.453739 19.456 0.693962 19.5555 0.944444 19.5555H1.88889V23.3333H0.944444C0.693962 23.3333 0.453739 23.4328 0.276622 23.6099C0.0995039 23.787 0 24.0273 0 24.2777C0 24.5282 0.0995039 24.7684 0.276622 24.9456C0.453739 25.1227 0.693962 25.2222 0.944444 25.2222H1.88889V29H0.944444C0.693962 29 0.453739 29.0995 0.276622 29.2766C0.0995039 29.4537 0 29.6939 0 29.9444C0 30.1949 0.0995039 30.4351 0.276622 30.6122C0.453739 30.7893 0.693962 30.8888 0.944444 30.8888H1.88889V34.6666H0.944444C0.693962 34.6666 0.453739 34.7661 0.276622 34.9432C0.0995039 35.1204 0 35.3606 0 35.6111C0 35.8616 0.0995039 36.1018 0.276622 36.2789C0.453739 36.456 0.693962 36.5555 0.944444 36.5555H1.88889V40.3333H0.944444C0.693962 40.3333 0.453739 40.4328 0.276622 40.6099C0.0995039 40.787 0 41.0273 0 41.2777C0 41.5282 0.0995039 41.7684 0.276622 41.9456C0.453739 42.1227 0.693962 42.2222 0.944444 42.2222H1.88889C1.57722 45.1991 3.50956 47.8577 6.61111 47.8889H10.3889V48.8333H9.44444C9.19396 48.8333 8.95374 48.9328 8.77662 49.1099C8.5995 49.287 8.5 49.5273 8.5 49.7777C8.5 50.0282 8.5995 50.2684 8.77662 50.4456C8.95374 50.6227 9.19396 50.7222 9.44444 50.7222H10.3889V52.6111C10.3889 55.2149 12.5073 57.3333 15.1111 57.3333H46.2778C48.8816 57.3333 51 55.2149 51 52.6111V14.8333C51 12.2295 48.8816 10.1111 46.2778 10.1111ZM35.8889 3.89096L39.2757 7.27774H37.7778C36.7361 7.27774 35.8889 6.43057 35.8889 5.38885V3.89096ZM10.3889 14.8333H9.44444C9.19396 14.8333 8.95374 14.9328 8.77662 15.1099C8.5995 15.287 8.5 15.5273 8.5 15.7777C8.5 16.0282 8.5995 16.2684 8.77662 16.4456C8.95374 16.6227 9.19396 16.7222 9.44444 16.7222H10.3889V20.5H9.44444C9.19396 20.5 8.95374 20.5995 8.77662 20.7766C8.5995 20.9537 8.5 21.1939 8.5 21.4444C8.5 21.6949 8.5995 21.9351 8.77662 22.1122C8.95374 22.2893 9.19396 22.3888 9.44444 22.3888H10.3889V26.1666H9.44444C9.19396 26.1666 8.95374 26.2661 8.77662 26.4432C8.5995 26.6204 8.5 26.8606 8.5 27.1111C8.5 27.3616 8.5995 27.6018 8.77662 27.7789C8.95374 27.956 9.19396 28.0555 9.44444 28.0555H10.3889V31.8333H9.44444C9.19396 31.8333 8.95374 31.9328 8.77662 32.1099C8.5995 32.287 8.5 32.5273 8.5 32.7777C8.5 33.0282 8.5995 33.2684 8.77662 33.4456C8.95374 33.6227 9.19396 33.7222 9.44444 33.7222H10.3889V37.5H9.44444C9.19396 37.5 8.95374 37.5995 8.77662 37.7766C8.5995 37.9537 8.5 38.1939 8.5 38.4444C8.5 38.6949 8.5995 38.9351 8.77662 39.1122C8.95374 39.2893 9.19396 39.3889 9.44444 39.3889H10.3889V43.1666H9.44444C9.19396 43.1666 8.95374 43.2661 8.77662 43.4432C8.5995 43.6204 8.5 43.8606 8.5 44.1111C8.5 44.3616 8.5995 44.6018 8.77662 44.7789C8.95374 44.956 9.19396 45.0555 9.44444 45.0555H10.3889V46H6.61111C5.049 46 3.77778 44.7287 3.77778 43.1666V42.2222H4.72222C4.9727 42.2222 5.21293 42.1227 5.39005 41.9456C5.56716 41.7684 5.66667 41.5282 5.66667 41.2777C5.66667 41.0273 5.56716 40.787 5.39005 40.6099C5.21293 40.4328 4.9727 40.3333 4.72222 40.3333H3.77778V36.5555H4.72222C4.9727 36.5555 5.21293 36.456 5.39005 36.2789C5.56716 36.1018 5.66667 35.8616 5.66667 35.6111C5.66667 35.3606 5.56716 35.1204 5.39005 34.9432C5.21293 34.7661 4.9727 34.6666 4.72222 34.6666H3.77778V30.8888H4.72222C4.9727 30.8888 5.21293 30.7893 5.39005 30.6122C5.56716 30.4351 5.66667 30.1949 5.66667 29.9444C5.66667 29.6939 5.56716 29.4537 5.39005 29.2766C5.21293 29.0995 4.9727 29 4.72222 29H3.77778V25.2222H4.72222C4.9727 25.2222 5.21293 25.1227 5.39005 24.9456C5.56716 24.7684 5.66667 24.5282 5.66667 24.2777C5.66667 24.0273 5.56716 23.787 5.39005 23.6099C5.21293 23.4328 4.9727 23.3333 4.72222 23.3333H3.77778V19.5555H4.72222C4.9727 19.5555 5.21293 19.456 5.39005 19.2789C5.56716 19.1018 5.66667 18.8616 5.66667 18.6111C5.66667 18.3606 5.56716 18.1204 5.39005 17.9432C5.21293 17.7661 4.9727 17.6666 4.72222 17.6666H3.77778V13.8888H4.72222C4.9727 13.8888 5.21293 13.7893 5.39005 13.6122C5.56716 13.4351 5.66667 13.1949 5.66667 12.9444C5.66667 12.6939 5.56716 12.4537 5.39005 12.2766C5.21293 12.0995 4.9727 12 4.72222 12H3.77778V8.22218H4.72222C4.9727 8.22218 5.21293 8.12268 5.39005 7.94556C5.56716 7.76844 5.66667 7.52822 5.66667 7.27774C5.66667 7.02726 5.56716 6.78703 5.39005 6.60991C5.21293 6.4328 4.9727 6.33329 4.72222 6.33329H3.77778V5.38885C3.77778 3.82674 5.049 2.55551 6.61111 2.55551H34V5.38885C34 7.47229 35.6943 9.16663 37.7778 9.16663H40.6111V10.1111H15.1111C12.5073 10.1111 10.3889 12.2295 10.3889 14.8333ZM49.1111 52.6111C49.1111 54.1732 47.8399 55.4444 46.2778 55.4444H15.1111C13.549 55.4444 12.2778 54.1732 12.2778 52.6111V50.7222H13.2222C13.4727 50.7222 13.7129 50.6227 13.89 50.4456C14.0672 50.2684 14.1667 50.0282 14.1667 49.7777C14.1667 49.5273 14.0672 49.287 13.89 49.1099C13.7129 48.9328 13.4727 48.8333 13.2222 48.8333H12.2778V45.0555H13.2222C13.4727 45.0555 13.7129 44.956 13.89 44.7789C14.0672 44.6018 14.1667 44.3616 14.1667 44.1111C14.1667 43.8606 14.0672 43.6204 13.89 43.4432C13.7129 43.2661 13.4727 43.1666 13.2222 43.1666H12.2778V39.3889H13.2222C13.4727 39.3889 13.7129 39.2893 13.89 39.1122C14.0672 38.9351 14.1667 38.6949 14.1667 38.4444C14.1667 38.1939 14.0672 37.9537 13.89 37.7766C13.7129 37.5995 13.4727 37.5 13.2222 37.5H12.2778V33.7222H13.2222C13.4727 33.7222 13.7129 33.6227 13.89 33.4456C14.0672 33.2684 14.1667 33.0282 14.1667 32.7777C14.1667 32.5273 14.0672 32.287 13.89 32.1099C13.7129 31.9328 13.4727 31.8333 13.2222 31.8333H12.2778V28.0555H13.2222C13.4727 28.0555 13.7129 27.956 13.89 27.7789C14.0672 27.6018 14.1667 27.3616 14.1667 27.1111C14.1667 26.8606 14.0672 26.6204 13.89 26.4432C13.7129 26.2661 13.4727 26.1666 13.2222 26.1666H12.2778V22.3888H13.2222C13.4727 22.3888 13.7129 22.2893 13.89 22.1122C14.0672 21.9351 14.1667 21.6949 14.1667 21.4444C14.1667 21.1939 14.0672 20.9537 13.89 20.7766C13.7129 20.5995 13.4727 20.5 13.2222 20.5H12.2778V16.7222H13.2222C13.4727 16.7222 13.7129 16.6227 13.89 16.4456C14.0672 16.2684 14.1667 16.0282 14.1667 15.7777C14.1667 15.5273 14.0672 15.287 13.89 15.1099C13.7129 14.9328 13.4727 14.8333 13.2222 14.8333H12.2778C12.2778 13.2712 13.549 12 15.1111 12H46.2778C47.8399 12 49.1111 13.2712 49.1111 14.8333V52.6111Z" fill="#FF4F00"/>
<path d="M41.5556 16.7222H19.8333C18.2712 16.7222 17 17.9934 17 19.5555V47.8888C17 49.4509 18.2712 50.7222 19.8333 50.7222H41.5556C43.1177 50.7222 44.3889 49.4509 44.3889 47.8888V19.5555C44.3889 17.9934 43.1177 16.7222 41.5556 16.7222ZM42.5 47.8888C42.5 48.1393 42.4005 48.3795 42.2234 48.5567C42.0463 48.7338 41.806 48.8333 41.5556 48.8333H19.8333C19.5829 48.8333 19.3426 48.7338 19.1655 48.5567C18.9884 48.3795 18.8889 48.1393 18.8889 47.8888V19.5555C18.8889 19.0351 19.312 18.6111 19.8333 18.6111H41.5556C42.0769 18.6111 42.5 19.0351 42.5 19.5555V47.8888Z" fill="#FF4F00"/>
<path d="M40.4991 26.688C40.4206 26.5337 40.3016 26.4037 40.1549 26.3118C40.0081 26.22 39.8391 26.1698 39.6661 26.1667H34.9438C33.7047 26.1865 33.701 28.0348 34.9438 28.0556H37.5458L31.2322 35.0699L29.0883 32.2111C28.9406 32.0133 28.7212 31.8814 28.4773 31.8438C28.2334 31.8062 27.9844 31.8658 27.784 32.0099L21.1729 36.7322C20.1746 37.4688 21.2503 38.9743 22.2703 38.2678L28.1306 34.083L30.4105 37.1222C30.4942 37.2338 30.6015 37.3254 30.7248 37.3906C30.8481 37.4557 30.9843 37.4928 31.1236 37.4991C31.2633 37.5088 31.4035 37.4857 31.5327 37.4316C31.6619 37.3775 31.7767 37.2938 31.8678 37.1874L38.7216 29.5723V31.8333C38.7415 33.0734 40.5897 33.0753 40.6105 31.8333C40.568 31.6284 40.7229 26.7144 40.4991 26.688ZM24.555 22.3889H37.7772C39.0144 22.37 39.022 20.5208 37.7772 20.5H24.555C23.3177 20.5189 23.3102 22.3681 24.555 22.3889ZM39.6661 44.1111H33.055C31.8149 44.1309 31.8121 45.9792 33.055 46H39.6661C40.9061 45.9802 40.909 44.1319 39.6661 44.1111ZM39.6661 40.3333H35.8883C34.6482 40.3532 34.6463 42.2014 35.8883 42.2222H39.6661C40.9061 42.2024 40.908 40.3541 39.6661 40.3333Z" fill="#FF4F00"/>
</svg>
