<svg width="67" height="60" viewBox="0 0 67 60" fill="none" xmlns="http://www.w3.org/2000/svg">
<path d="M63.8594 15.314H55.4844V17.4263H63.8594C64.1298 17.4198 64.3919 17.5207 64.5881 17.7069C64.7843 17.8932 64.8987 18.1496 64.9062 18.42V52.3413C64.8987 52.6117 64.7843 52.8681 64.5881 53.0544C64.3919 53.2406 64.1298 53.3416 63.8594 53.335H3.14881C2.8762 53.3416 2.6121 53.2399 2.41435 53.0521C2.2166 52.8643 2.10132 52.6059 2.09375 52.3333V18.42C2.10131 18.1496 2.21573 17.8932 2.41194 17.7069C2.60815 17.5207 2.87017 17.4198 3.14062 17.4263H11.5156V15.314H3.14062C2.31256 15.3104 1.51686 15.6353 0.928083 16.2176C0.33931 16.7999 0.00554218 17.592 0 18.42L0 52.3333C0.00555878 53.1635 0.3402 53.9576 0.93051 54.5414C1.52082 55.1252 2.31859 55.451 3.14881 55.4473H28.2656V57.5596H23.5547C23.276 57.5617 23.0094 57.6739 22.8131 57.8718C22.6168 58.0696 22.5067 58.337 22.5067 58.6157C22.5067 58.8944 22.6168 59.1618 22.8131 59.3597C23.0094 59.5575 23.276 59.6697 23.5547 59.6719H43.4453C43.7238 59.6694 43.99 59.557 44.1861 59.3592C44.3821 59.1614 44.4921 58.8942 44.4921 58.6157C44.4921 58.3372 44.3821 58.07 44.1861 57.8722C43.99 57.6744 43.7238 57.5621 43.4453 57.5596H38.7344V55.4473H63.8594C64.6874 55.4509 65.4831 55.126 66.0719 54.5437C66.6607 53.9614 66.9945 53.1693 67 52.3413V18.42C66.9945 17.592 66.6607 16.7999 66.0719 16.2176C65.4831 15.6353 64.6874 15.3104 63.8594 15.314ZM36.6406 57.5596H30.3594V55.4473H36.6406V57.5596Z" fill="#FF5000"/>
<path d="M15.7031 45.2291V3.16842C15.7022 2.88964 15.8119 2.62189 16.0082 2.42389C16.2045 2.2259 16.4712 2.11383 16.75 2.11228H46.0625C46.3413 2.11383 46.6081 2.2259 46.8043 2.42389C47.0006 2.62189 47.1103 2.88964 47.1094 3.16842V6.00059L49.2031 8.01507V3.16842C49.2059 2.33207 48.8768 1.52878 48.288 0.934786C47.6992 0.340794 46.8989 0.00461299 46.0625 0H16.75C15.9137 0.00461299 15.1133 0.340794 14.5245 0.934786C13.9358 1.52878 13.6066 2.33207 13.6094 3.16842V42.2456C13.6089 42.8979 13.8097 43.5345 14.1844 44.0685C14.5591 44.6024 15.0895 45.0078 15.7031 45.2291ZM51.8224 24.2891C51.5586 24.2758 51.3002 24.3674 51.1037 24.5439C50.9071 24.7204 50.7884 24.9675 50.7735 25.2313V26.5754C49.9266 26.7635 49.1204 27.1018 48.3929 27.5742L47.4507 26.6194C47.369 26.5382 47.2719 26.4741 47.1651 26.4309C47.0583 26.3878 46.944 26.3664 46.8288 26.3682C46.5353 26.3715 46.2552 26.4912 46.05 26.701L45.3088 27.4485C45.113 27.6266 44.9949 27.8743 44.9796 28.1385C44.9643 28.4027 45.0532 28.6624 45.2271 28.8618L46.1756 29.8103C45.7059 30.5446 45.3719 31.3573 45.1894 32.2097H43.8515C43.5879 32.2284 43.3424 32.3504 43.1683 32.5492C42.9942 32.748 42.9056 33.0075 42.9219 33.2713V34.3265C42.9058 34.5896 42.9946 34.8483 43.1688 35.0461C43.343 35.2439 43.5885 35.3646 43.8515 35.3818H45.1894C45.3719 36.2342 45.7059 37.0469 46.1756 37.7812L45.2271 38.7359C45.0533 38.9342 44.9644 39.1929 44.9797 39.4562C44.9949 39.7194 45.1131 39.9661 45.3088 40.1429L46.05 40.8904C46.2552 41.1002 46.5353 41.22 46.8288 41.2233C46.944 41.225 47.0584 41.2037 47.1651 41.1605C47.2719 41.1174 47.369 41.0533 47.4507 40.9721L48.3929 40.0236C49.1221 40.4915 49.9279 40.8274 50.7735 41.016V42.3602C50.7884 42.624 50.9071 42.8711 51.1037 43.0476C51.3002 43.2241 51.5586 43.3157 51.8224 43.3024H52.8651C52.9959 43.3095 53.1268 43.2908 53.2503 43.2473C53.3738 43.2038 53.4875 43.1363 53.585 43.0488C53.6824 42.9613 53.7616 42.8554 53.8181 42.7373C53.8745 42.6191 53.9072 42.491 53.9141 42.3602V41.016C54.76 40.8285 55.566 40.4925 56.2947 40.0236L57.2369 40.972C57.3185 41.0533 57.4156 41.1174 57.5224 41.1605C57.6292 41.2037 57.7435 41.225 57.8587 41.2233C58.1522 41.2199 58.4323 41.1002 58.6376 40.8904L59.3788 40.1429C59.5744 39.9661 59.6926 39.7194 59.7079 39.4561C59.7232 39.1929 59.6343 38.9342 59.4604 38.7359L58.5182 37.7812C58.9853 37.0455 59.3191 36.2332 59.5044 35.3817H60.836C61.099 35.3645 61.3445 35.2439 61.5187 35.0461C61.693 34.8483 61.7817 34.5896 61.7656 34.3265V33.2713C61.7819 33.0075 61.6933 32.748 61.5192 32.5492C61.3452 32.3504 61.0996 32.2284 60.836 32.2097H59.5044C59.3192 31.3582 58.9853 30.546 58.5183 29.8103L59.4604 28.8618C59.6344 28.6624 59.7232 28.4027 59.708 28.1385C59.6927 27.8743 59.5745 27.6266 59.3788 27.4485L58.6376 26.7011C58.4324 26.4913 58.1522 26.3715 57.8587 26.3682C57.7436 26.3665 57.6292 26.3878 57.5224 26.431C57.4156 26.4741 57.3185 26.5382 57.2369 26.6194L56.2947 27.5742C55.5677 27.1007 54.7613 26.7624 53.9141 26.5754V25.2313C53.9072 25.1005 53.8745 24.9723 53.8181 24.8542C53.7616 24.736 53.6824 24.6302 53.5849 24.5427C53.4875 24.4552 53.3738 24.3877 53.2503 24.3442C53.1268 24.3007 52.9959 24.282 52.8651 24.2891H51.8224ZM56.0078 33.7952C56.0079 34.5199 55.7931 35.2284 55.3906 35.831C54.988 36.4336 54.4158 36.9033 53.7463 37.1807C53.0768 37.4581 52.3401 37.5308 51.6293 37.3895C50.9185 37.2481 50.2655 36.8992 49.7531 36.3868C49.2406 35.8744 48.8916 35.2215 48.7501 34.5108C48.6087 33.8 48.6813 33.0632 48.9586 32.3937C49.2359 31.7241 49.7055 31.1519 50.3081 30.7492C50.9106 30.3466 51.6191 30.1317 52.3438 30.1317C53.3151 30.1329 54.2463 30.5192 54.9331 31.206C55.62 31.8928 56.0065 32.8239 56.0078 33.7952Z" fill="#FF5000"/>
<path d="M42.6131 4.53295C42.4377 4.35613 42.2023 4.25153 41.9535 4.23982C41.9071 4.22943 41.8597 4.22417 41.8122 4.22412H20.9375C20.1015 4.22894 19.3015 4.56496 18.7128 5.15856C18.1241 5.75215 17.7948 6.55491 17.7969 7.39092V46.4708C17.7939 47.307 18.123 48.1103 18.7119 48.7041C19.3007 49.2979 20.1012 49.6336 20.9375 49.6376H50.25C51.0863 49.6336 51.8868 49.2979 52.4757 48.7041C53.0646 48.1103 53.3937 47.307 53.3906 46.4708V45.348C53.2171 45.3783 53.0413 45.3944 52.8652 45.3962H51.8224C51.2012 45.3956 50.5936 45.2138 50.0743 44.8729C50.0606 44.8641 50.0487 44.8532 50.0352 44.8443C49.9043 44.7581 49.7801 44.6622 49.6635 44.5575C49.6518 44.5468 49.6418 44.5346 49.6309 44.5232C49.5122 44.413 49.4023 44.2937 49.3023 44.1663C49.27 44.1247 49.2461 44.0774 49.216 44.0342L49.2155 44.0333C49.0373 43.7823 48.8994 43.5051 48.8066 43.2116C48.7521 43.0331 48.7149 42.8497 48.6956 42.664C48.1667 43.0895 47.5075 43.3201 46.8288 43.317C46.4087 43.3165 45.9929 43.2327 45.6054 43.0706C45.2179 42.9085 44.8663 42.6713 44.5709 42.3726L44.0773 41.875H26.1876C26.0488 41.877 25.911 41.8515 25.7822 41.7998C25.6534 41.7481 25.5361 41.6713 25.4372 41.5739C25.3384 41.4765 25.2599 41.3604 25.2063 41.2324C25.1527 41.1043 25.1251 40.9669 25.1251 40.8281C25.1251 40.6893 25.1527 40.5519 25.2063 40.4239C25.2599 40.2958 25.3384 40.1797 25.4372 40.0823C25.5361 39.9849 25.6534 39.9081 25.7822 39.8564C25.911 39.8047 26.0488 39.7792 26.1876 39.7812H42.929C42.8793 39.4183 42.8946 39.0494 42.9742 38.6919C43.0541 38.3328 43.2011 37.992 43.4074 37.6875H26.1667C25.889 37.6875 25.6227 37.5772 25.4264 37.3809C25.2301 37.1845 25.1198 36.9183 25.1198 36.6406C25.1198 36.363 25.2301 36.0967 25.4264 35.9004C25.6227 35.704 25.889 35.5937 26.1667 35.5937H41.0932C41.0591 35.5135 41.0295 35.4318 41.0017 35.3482C40.9596 35.2263 40.9248 35.102 40.8973 34.976C40.8526 34.7624 40.8294 34.5448 40.8281 34.3265V33.5H26.1876C26.0488 33.502 25.911 33.4765 25.7822 33.4248C25.6534 33.3731 25.5361 33.2963 25.4372 33.1989C25.3384 33.1015 25.2599 32.9854 25.2063 32.8574C25.1527 32.7293 25.1251 32.5919 25.1251 32.4531C25.1251 32.3143 25.1527 32.1769 25.2063 32.0489C25.2599 31.9208 25.3384 31.8047 25.4372 31.7073C25.5361 31.6099 25.6534 31.5331 25.7822 31.4814C25.911 31.4297 26.0488 31.4042 26.1876 31.4062H41.4292C41.5435 31.245 41.673 31.0948 41.8156 30.958L41.8297 30.9445C41.9815 30.8001 42.1477 30.6718 42.3259 30.5617C42.3506 30.5461 42.374 30.5284 42.3992 30.5136C42.4543 30.4818 42.5095 30.4515 42.5665 30.4233C42.6165 30.3982 42.6706 30.3813 42.7219 30.3589C42.8328 30.3091 42.9466 30.2662 43.0629 30.2307C43.2245 30.1827 43.3902 30.1493 43.5578 30.1309C43.3624 29.8844 43.208 29.608 43.1004 29.3125H26.1457C25.8727 29.3056 25.6131 29.1922 25.4224 28.9967C25.2317 28.8011 25.125 28.5388 25.125 28.2656C25.125 27.9925 25.2317 27.7301 25.4224 27.5345C25.6131 27.339 25.8727 27.2256 26.1457 27.2187H43.0688C43.2199 26.7541 43.4755 26.3303 43.8159 25.9799L44.5627 25.2267C44.5988 25.1907 44.6376 25.159 44.6748 25.125H26.1719C25.8942 25.125 25.628 25.0147 25.4316 24.8183C25.2353 24.622 25.125 24.3557 25.125 24.0781C25.125 23.8004 25.2353 23.5342 25.4316 23.3378C25.628 23.1415 25.8942 23.0312 26.1719 23.0312H46.0625C46.2186 23.0309 46.3727 23.0655 46.5136 23.1326C46.6545 23.1997 46.7786 23.2974 46.8767 23.4187C46.9749 23.54 47.0447 23.6818 47.0809 23.8335C47.1171 23.9853 47.1188 24.1433 47.086 24.2958C47.6737 24.3401 48.2344 24.56 48.6956 24.9269C48.7883 24.1662 49.1588 23.4665 49.7359 22.9623C50.3131 22.4581 51.0561 22.1849 51.8224 22.1952H52.8652C53.0414 22.1969 53.2171 22.213 53.3907 22.2433V15.4152C53.3912 15.2725 53.3627 15.1311 53.3069 14.9998C53.2511 14.8684 53.1692 14.7497 53.0661 14.651L43.9374 5.86771L42.6131 4.53295ZM26.1719 43.9687H44.8691C45.2021 44.1962 45.5604 44.3842 45.9369 44.5288C46.0187 44.6781 46.0619 44.8454 46.0625 45.0156C46.0617 45.293 45.9511 45.5588 45.755 45.755C45.5588 45.9511 45.293 46.0617 45.0156 46.0625H26.1719C25.8942 46.0625 25.628 45.9522 25.4316 45.7559C25.2353 45.5595 25.125 45.2933 25.125 45.0156C25.125 44.738 25.2353 44.4717 25.4316 44.2754C25.628 44.079 25.8942 43.9687 26.1719 43.9687ZM45.0156 20.9375H26.1719C25.8942 20.9375 25.628 20.8272 25.4316 20.6309C25.2353 20.4345 25.125 20.1683 25.125 19.8906C25.125 19.613 25.2353 19.3467 25.4316 19.1504C25.628 18.954 25.8942 18.8437 26.1719 18.8437H45.0156C45.2933 18.8437 45.5596 18.954 45.7559 19.1504C45.9522 19.3467 46.0625 19.613 46.0625 19.8906C46.0625 20.1683 45.9522 20.4345 45.7559 20.6309C45.5596 20.8272 45.2933 20.9375 45.0156 20.9375ZM43.956 14.7859C43.6674 14.7701 43.3968 14.6409 43.2031 14.4264C43.0094 14.2119 42.9083 13.9295 42.9219 13.6408V7.83052L49.8165 14.786L43.956 14.7859Z" fill="#FF5000"/>
</svg>
