<svg width="45" height="45" viewBox="0 0 45 45" fill="none" xmlns="http://www.w3.org/2000/svg">
<path d="M39.9373 39.5155H38.6717V17.0859C38.1795 17.4375 37.7577 17.789 37.2655 18.0703V39.5155H3.37499V14.8359C3.37499 14.3437 3.79686 13.9219 4.28904 13.9219H17.5077C17.789 13.2891 17.9296 13.3594 18.7734 12.5156H4.28904C3.02342 12.5156 1.96874 13.5703 1.96874 14.8359V39.5155H0.703122C0.281249 39.5155 0 39.8671 0 40.2186C0 42.8905 2.10937 44.9999 4.78123 44.9999H35.8592C38.5311 44.9999 40.6405 42.8905 40.6405 40.2186C40.6405 39.8671 40.2889 39.5155 39.9373 39.5155Z" fill="#FF4F00"/>
<path d="M10.7588 30.0935H8.36816C7.94629 30.0935 7.66504 29.8123 7.66504 29.3904C7.66504 28.9685 7.94629 28.6873 8.36816 28.6873H10.7588C11.1806 28.6873 11.4619 28.9685 11.4619 29.3904C11.4619 29.8123 11.1103 30.0935 10.7588 30.0935ZM20.8837 30.0935H13.7822C13.3603 30.0935 13.0791 29.8123 13.0791 29.3904C13.0791 28.9685 13.3603 28.6873 13.7822 28.6873H20.8837C21.3056 28.6873 21.5869 28.9685 21.5869 29.3904C21.5869 29.8123 21.3056 30.0935 20.8837 30.0935ZM32.2743 30.0935H23.9775C23.5556 30.0935 23.2743 29.8123 23.2743 29.3904C23.2743 28.9685 23.5556 28.6873 23.9775 28.6873H32.2743C32.6962 28.6873 32.9774 28.9685 32.9774 29.3904C32.9774 29.8123 32.6259 30.0935 32.2743 30.0935ZM18.7041 19.5467H13.6416C13.2197 19.5467 12.9385 19.2655 12.9385 18.8436C12.9385 18.4217 13.2197 18.1405 13.6416 18.1405H18.7041C19.1259 18.1405 19.4072 18.4217 19.4072 18.8436C19.4072 19.2655 19.0556 19.5467 18.7041 19.5467ZM10.5478 19.5467H8.36816C7.94629 19.5467 7.66504 19.2655 7.66504 18.8436C7.66504 18.4217 7.94629 18.1405 8.36816 18.1405H10.5478C10.9697 18.1405 11.251 18.4217 11.251 18.8436C11.251 19.2655 10.9697 19.5467 10.5478 19.5467ZM16.4541 35.2966H8.36816C7.94629 35.2966 7.66504 35.0154 7.66504 34.5935C7.66504 34.1716 7.94629 33.8904 8.36816 33.8904H16.4541C16.8759 33.8904 17.1572 34.1716 17.1572 34.5935C17.1572 35.0154 16.8759 35.2966 16.4541 35.2966ZM26.6493 35.2966H19.4775C19.0556 35.2966 18.7744 35.0154 18.7744 34.5935C18.7744 34.1716 19.0556 33.8904 19.4775 33.8904H26.579C27.0009 33.8904 27.2821 34.1716 27.2821 34.5935C27.2821 35.0154 27.0009 35.2966 26.6493 35.2966ZM32.2743 35.2966H29.7431C29.3212 35.2966 29.0399 35.0154 29.0399 34.5935C29.0399 34.1716 29.3212 33.8904 29.7431 33.8904H32.2743C32.6962 33.8904 32.9774 34.1716 32.9774 34.5935C32.9774 35.0154 32.6259 35.2966 32.2743 35.2966ZM16.0322 24.8201H8.36816C7.94629 24.8201 7.66504 24.5389 7.66504 24.117C7.66504 23.6951 7.94629 23.4139 8.36816 23.4139H16.0322C16.4541 23.4139 16.7353 23.6951 16.7353 24.117C16.7353 24.5389 16.4541 24.8201 16.0322 24.8201ZM25.8759 9.63269C24.9618 11.5311 24.3993 13.4295 24.0478 14.9764L22.079 16.9452C20.8837 16.7342 19.7587 16.1717 18.915 15.328C18.7744 15.1873 18.7041 15.0467 18.7041 14.8358C18.7041 14.6249 18.7744 14.4842 18.915 14.3436C21.0947 12.5155 22.5009 9.703 25.8759 9.63269ZM35.368 19.0545C35.2977 22.5701 31.6415 24.6092 30.5868 26.0857C30.4462 26.2264 30.3056 26.2967 30.0946 26.2967C29.8837 26.2967 29.7431 26.2264 29.6024 26.0857C28.6181 25.1014 28.0556 23.8358 27.915 22.5701L29.8134 20.953C31.5009 20.6014 33.4696 20.0389 35.368 19.0545ZM36.0009 8.99988C36.493 9.49206 36.493 10.2655 36.0009 10.6874C35.5087 11.1092 34.7352 11.1092 34.3134 10.6874C33.8212 10.1952 33.8212 9.49206 34.3134 8.99988C34.7352 8.50769 35.5087 8.50769 36.0009 8.99988Z" fill="#FF4F00"/>
<path d="M36.9847 1.47656C34.7347 2.3203 32.4144 3.58592 30.4457 5.55466C27.3519 8.6484 26.016 12.7265 25.3832 15.6796L19.266 21.7968C19.0551 22.0077 18.9848 22.4296 19.1957 22.7108C19.4067 22.9921 19.7582 23.0624 20.0395 22.9921L22.852 21.7265L21.516 24.3983C21.3754 24.6796 21.4457 25.0311 21.727 25.2421C21.8676 25.3124 22.0082 25.3827 22.1488 25.3827C22.2895 25.3827 22.5004 25.3124 22.5707 25.2421L29.2504 19.6171C32.2035 18.9843 36.3519 17.6484 39.4456 14.5546C41.2738 12.7265 42.5394 10.5468 43.3128 8.50778C40.43 7.03122 38.1097 4.57029 36.9847 1.47656ZM36.9847 11.6718C35.93 12.7265 34.3128 12.6562 33.3285 11.6718C32.3441 10.6171 32.3441 8.99996 33.3285 8.01559C34.3128 7.03122 36.0003 7.03122 36.9847 8.01559C37.9691 8.99996 37.9691 10.6875 36.9847 11.6718ZM45.0003 0.703122C45.0003 0.914059 44.93 3.72655 43.805 7.17184C41.2738 5.90622 39.305 3.72655 38.3206 1.05468C41.4847 0.0703122 44.0862 0 44.2972 0C44.5081 0 44.6487 0.0703122 44.7894 0.210937C44.93 0.351561 45.0003 0.562498 45.0003 0.703122Z" fill="#FF4F00"/>
<path d="M18.4218 7.80465C18.4218 9.63277 16.9453 11.1093 15.1171 11.1093H7.45311C5.62499 11.039 4.21875 9.56246 4.21875 7.80465C4.21875 6.25779 5.27343 4.99217 6.74999 4.64061C6.67968 2.10937 8.71873 0 11.25 0C13.8515 0 15.8203 2.10937 15.8203 4.57029C17.3671 4.92185 18.4218 6.25779 18.4218 7.80465Z" fill="#FF4F00"/>
</svg>
