<svg width="620" height="640" viewBox="0 0 620 640" fill="none" xmlns="http://www.w3.org/2000/svg">
<rect x="0.727273" y="0.727273" width="308.545" height="318.545" stroke="#FF5000" stroke-width="1.45455" stroke-dasharray="4.36 2.91"/>
<rect x="310" y="320" width="310" height="320" fill="#FF5000"/>
<path d="M115.211 157V146.323L105.97 130.859H109.725L116.794 143.083L123.863 130.859H127.619L118.378 146.323V157H115.211ZM139.516 157.589C137.037 157.589 134.902 157.049 133.11 155.969C131.342 154.865 129.98 153.294 129.023 151.256C128.066 149.219 127.587 146.789 127.587 143.966C127.587 141.144 128.066 138.714 129.023 136.676C129.98 134.615 131.342 133.031 133.11 131.927C134.902 130.822 137.037 130.27 139.516 130.27C142.02 130.27 144.155 130.822 145.922 131.927C147.714 133.031 149.089 134.615 150.046 136.676C151.003 138.714 151.482 141.144 151.482 143.966C151.482 146.789 151.003 149.219 150.046 151.256C149.089 153.294 147.714 154.865 145.922 155.969C144.155 157.049 142.02 157.589 139.516 157.589ZM139.516 154.496C141.332 154.496 142.879 154.079 144.155 153.245C145.456 152.41 146.45 151.207 147.137 149.636C147.825 148.065 148.168 146.175 148.168 143.966C148.168 141.757 147.825 139.867 147.137 138.296C146.45 136.701 145.456 135.486 144.155 134.651C142.879 133.792 141.332 133.363 139.516 133.363C137.724 133.363 136.178 133.792 134.877 134.651C133.601 135.486 132.619 136.701 131.932 138.296C131.244 139.867 130.901 141.757 130.901 143.966C130.901 146.175 131.244 148.065 131.932 149.636C132.619 151.207 133.601 152.41 134.877 153.245C136.178 154.079 137.724 154.496 139.516 154.496ZM165.851 157.589C163.838 157.589 162.083 157.196 160.586 156.411C159.113 155.625 157.971 154.509 157.161 153.06C156.376 151.588 155.983 149.857 155.983 147.869V130.822H159.15V147.869C159.15 149.98 159.726 151.612 160.88 152.766C162.058 153.92 163.715 154.496 165.851 154.496C167.961 154.496 169.594 153.92 170.747 152.766C171.926 151.612 172.515 149.98 172.515 147.869V130.822H175.681V147.869C175.681 149.857 175.276 151.588 174.466 153.06C173.681 154.509 172.551 155.625 171.079 156.411C169.606 157.196 167.863 157.589 165.851 157.589ZM182.459 157V130.859H192.363C194.204 130.859 195.787 131.178 197.113 131.816C198.438 132.455 199.457 133.375 200.169 134.578C200.905 135.756 201.273 137.155 201.273 138.775C201.273 139.953 200.991 141.009 200.427 141.941C199.887 142.85 199.187 143.574 198.328 144.114C197.469 144.654 196.573 144.948 195.64 144.997L195.419 144.666C197.015 144.666 198.267 145.034 199.175 145.77C200.107 146.507 200.647 147.685 200.795 149.305L201.531 157H198.328L197.665 149.636C197.567 148.556 197.174 147.759 196.487 147.243C195.824 146.728 194.732 146.47 193.21 146.47H185.626V157H182.459ZM185.626 143.377H192.768C194.364 143.377 195.628 142.972 196.561 142.162C197.493 141.352 197.96 140.199 197.96 138.701C197.96 137.18 197.481 136.014 196.524 135.204C195.567 134.369 194.18 133.952 192.363 133.952H185.626V143.377ZM69.0924 188V161.859H78.076C81.1688 161.859 83.4883 162.424 85.0347 163.553C86.581 164.682 87.3542 166.461 87.3542 168.891C87.3542 170.02 87.1088 171.015 86.6179 171.874C86.1269 172.733 85.4274 173.408 84.5192 173.899C83.611 174.365 82.531 174.598 81.2792 174.598L81.2424 174.377C83.476 174.377 85.231 174.979 86.5074 176.181C87.8083 177.36 88.4588 178.906 88.4588 180.82C88.4588 183.201 87.6856 184.993 86.1392 186.196C84.5929 187.399 82.396 188 79.5488 188H69.0924ZM72.2588 184.907H79.5488C81.3406 184.907 82.7151 184.539 83.6724 183.803C84.6542 183.066 85.1451 182.011 85.1451 180.636C85.1451 179.262 84.6542 178.194 83.6724 177.433C82.7151 176.648 81.3406 176.255 79.5488 176.255H72.2588V184.907ZM72.2588 173.162H78.076C79.9906 173.162 81.4633 172.806 82.4942 172.095C83.5251 171.358 84.0406 170.34 84.0406 169.039C84.0406 167.664 83.5374 166.645 82.531 165.983C81.5492 165.295 80.0642 164.952 78.076 164.952H72.2588V173.162ZM103.432 188.589C101.42 188.589 99.6645 188.196 98.1673 187.411C96.6945 186.625 95.5532 185.509 94.7432 184.06C93.9577 182.588 93.565 180.857 93.565 178.869V161.822H96.7313V178.869C96.7313 180.98 97.3082 182.612 98.4618 183.766C99.64 184.92 101.297 185.496 103.432 185.496C105.543 185.496 107.175 184.92 108.329 183.766C109.507 182.612 110.096 180.98 110.096 178.869V161.822H113.263V178.869C113.263 180.857 112.858 182.588 112.048 184.06C111.262 185.509 110.133 186.625 108.66 187.411C107.188 188.196 105.445 188.589 103.432 188.589ZM128.485 188.589C126.473 188.589 124.718 188.209 123.22 187.448C121.723 186.687 120.533 185.644 119.649 184.318C118.79 182.968 118.287 181.41 118.139 179.642L121.453 179.421C121.625 180.722 122.005 181.827 122.594 182.735C123.183 183.643 123.969 184.33 124.951 184.797C125.957 185.263 127.16 185.496 128.559 185.496C129.786 185.496 130.829 185.337 131.688 185.018C132.548 184.699 133.198 184.232 133.64 183.619C134.106 183.005 134.339 182.256 134.339 181.373C134.339 180.563 134.143 179.851 133.75 179.237C133.382 178.599 132.658 178.022 131.578 177.507C130.523 176.967 128.952 176.439 126.865 175.924C124.853 175.408 123.245 174.844 122.042 174.23C120.864 173.616 120.005 172.868 119.465 171.984C118.949 171.1 118.692 170.008 118.692 168.707C118.692 167.235 119.035 165.946 119.723 164.841C120.434 163.712 121.441 162.841 122.742 162.227C124.043 161.589 125.589 161.27 127.381 161.27C129.295 161.27 130.94 161.638 132.314 162.375C133.689 163.086 134.781 164.068 135.591 165.32C136.401 166.572 136.904 167.995 137.101 169.591L133.787 169.812C133.64 168.756 133.296 167.824 132.756 167.014C132.241 166.179 131.529 165.529 130.621 165.062C129.713 164.596 128.608 164.363 127.307 164.363C125.687 164.363 124.398 164.755 123.441 165.541C122.484 166.302 122.005 167.308 122.005 168.56C122.005 169.37 122.189 170.045 122.558 170.585C122.95 171.1 123.638 171.567 124.619 171.984C125.601 172.377 127.013 172.806 128.853 173.273C131.038 173.813 132.768 174.463 134.045 175.224C135.346 175.96 136.266 176.82 136.806 177.801C137.371 178.783 137.653 179.9 137.653 181.152C137.653 182.674 137.26 183.999 136.475 185.128C135.689 186.233 134.609 187.092 133.235 187.705C131.86 188.295 130.277 188.589 128.485 188.589ZM142.549 188V161.859H145.715V188H142.549ZM151.754 188V161.859H156.245L169.169 184.834V161.859H172.335V188H167.622L154.92 165.467V188H151.754ZM178.396 188V161.859H194.817V164.952H181.563V173.383H194.375V176.402H181.563V184.907H195.112V188H178.396ZM209.564 188.589C207.552 188.589 205.797 188.209 204.299 187.448C202.802 186.687 201.612 185.644 200.728 184.318C199.869 182.968 199.366 181.41 199.218 179.642L202.532 179.421C202.704 180.722 203.084 181.827 203.673 182.735C204.263 183.643 205.048 184.33 206.03 184.797C207.036 185.263 208.239 185.496 209.638 185.496C210.865 185.496 211.908 185.337 212.768 185.018C213.627 184.699 214.277 184.232 214.719 183.619C215.185 183.005 215.418 182.256 215.418 181.373C215.418 180.563 215.222 179.851 214.829 179.237C214.461 178.599 213.737 178.022 212.657 177.507C211.602 176.967 210.031 176.439 207.944 175.924C205.932 175.408 204.324 174.844 203.121 174.23C201.943 173.616 201.084 172.868 200.544 171.984C200.028 171.1 199.771 170.008 199.771 168.707C199.771 167.235 200.114 165.946 200.802 164.841C201.513 163.712 202.52 162.841 203.821 162.227C205.122 161.589 206.668 161.27 208.46 161.27C210.374 161.27 212.019 161.638 213.393 162.375C214.768 163.086 215.86 164.068 216.67 165.32C217.48 166.572 217.983 167.995 218.18 169.591L214.866 169.812C214.719 168.756 214.375 167.824 213.835 167.014C213.32 166.179 212.608 165.529 211.7 165.062C210.792 164.596 209.687 164.363 208.386 164.363C206.766 164.363 205.478 164.755 204.52 165.541C203.563 166.302 203.084 167.308 203.084 168.56C203.084 169.37 203.268 170.045 203.637 170.585C204.029 171.1 204.717 171.567 205.698 171.984C206.68 172.377 208.092 172.806 209.933 173.273C212.117 173.813 213.848 174.463 215.124 175.224C216.425 175.96 217.345 176.82 217.885 177.801C218.45 178.783 218.732 179.9 218.732 181.152C218.732 182.674 218.339 183.999 217.554 185.128C216.768 186.233 215.688 187.092 214.314 187.705C212.939 188.295 211.356 188.589 209.564 188.589ZM233.115 188.589C231.102 188.589 229.347 188.209 227.85 187.448C226.353 186.687 225.162 185.644 224.279 184.318C223.42 182.968 222.916 181.41 222.769 179.642L226.083 179.421C226.255 180.722 226.635 181.827 227.224 182.735C227.813 183.643 228.599 184.33 229.581 184.797C230.587 185.263 231.79 185.496 233.189 185.496C234.416 185.496 235.459 185.337 236.318 185.018C237.177 184.699 237.828 184.232 238.27 183.619C238.736 183.005 238.969 182.256 238.969 181.373C238.969 180.563 238.773 179.851 238.38 179.237C238.012 178.599 237.288 178.022 236.208 177.507C235.152 176.967 233.581 176.439 231.495 175.924C229.482 175.408 227.875 174.844 226.672 174.23C225.494 173.616 224.635 172.868 224.095 171.984C223.579 171.1 223.321 170.008 223.321 168.707C223.321 167.235 223.665 165.946 224.352 164.841C225.064 163.712 226.071 162.841 227.371 162.227C228.672 161.589 230.219 161.27 232.011 161.27C233.925 161.27 235.57 161.638 236.944 162.375C238.319 163.086 239.411 164.068 240.221 165.32C241.031 166.572 241.534 167.995 241.731 169.591L238.417 169.812C238.27 168.756 237.926 167.824 237.386 167.014C236.871 166.179 236.159 165.529 235.251 165.062C234.342 164.596 233.238 164.363 231.937 164.363C230.317 164.363 229.028 164.755 228.071 165.541C227.114 166.302 226.635 167.308 226.635 168.56C226.635 169.37 226.819 170.045 227.187 170.585C227.58 171.1 228.267 171.567 229.249 171.984C230.231 172.377 231.642 172.806 233.483 173.273C235.668 173.813 237.398 174.463 238.675 175.224C239.976 175.96 240.896 176.82 241.436 177.801C242.001 178.783 242.283 179.9 242.283 181.152C242.283 182.674 241.89 183.999 241.105 185.128C240.319 186.233 239.239 187.092 237.865 187.705C236.49 188.295 234.907 188.589 233.115 188.589Z" fill="#FF5000"/>
<path d="M466.359 486.485C464.217 484.007 462.37 481.551 460.627 479.263C460.354 478.906 460.081 478.549 459.808 478.192C459.85 478.696 459.871 479.2 459.871 479.725C459.871 488.647 451.558 495.533 442.762 495.89C438.794 496.079 434.133 495.575 430.711 494.189C422.544 490.914 416.582 483.944 416.456 472.65C416.435 470.256 416.813 467.947 417.485 465.764C415.26 469.92 414 474.665 414 479.704C414 496.1 427.289 509.389 443.685 509.389C456.051 509.389 466.652 501.831 471.124 491.061C469.382 489.676 467.786 488.122 466.338 486.464L466.359 486.485Z" fill="black"/>
<path d="M516.387 451.194C516.387 451.194 504.462 465.931 489.662 465.659C477.485 465.428 471.061 460.263 461.131 454.784C447.968 447.499 436.149 449.577 428.759 454.112C428.36 454.364 427.961 454.637 427.583 454.91C425.589 456.379 423.972 458.206 422.629 460.095C418.64 465.721 418.115 472.167 418.976 477.079C419.815 481.005 421.747 484.553 424.413 487.366C428.213 491.124 432.769 492.762 435.246 493.496L435.162 493.454C435.162 493.454 428.024 488.878 427.625 480.795C427.142 471.075 434.007 465.659 442.615 466.162C447.779 466.456 452.125 469.416 455.778 473.321C457.163 474.791 458.465 476.449 459.83 478.213C460.103 478.57 460.375 478.927 460.648 479.283C462.391 481.572 464.238 484.028 466.38 486.505C471.313 492.195 478.094 496.687 486.24 497.107C503.35 497.989 512.776 484.7 515.652 473.489C518.171 463.727 516.387 451.215 516.387 451.215V451.194Z" fill="white"/>
<path d="M513.826 458.29C513.826 458.29 516.408 492.594 486.093 493.476C486.093 493.476 489.284 490.495 491.194 485.561C491.194 485.561 479.858 486.548 474.147 476.975C474.147 476.975 484.581 478.591 490.019 475.988C485.211 472.65 483.783 468.493 483.783 468.493C483.783 468.493 501.607 472.272 513.846 458.29H513.826Z" fill="#FF5000"/>
</svg>
