<svg width="60" height="52" viewBox="0 0 60 52" fill="none" xmlns="http://www.w3.org/2000/svg">
<path d="M43.3718 51.2878C43.0799 51.7315 42.6013 52 42.0759 52H17.6987C17.1733 52 16.683 51.7315 16.4028 51.2878C16.1226 50.8559 16.0876 50.3188 16.286 49.8518C16.8815 48.5209 18.2124 47.6686 19.6718 47.6686H22.5905V45.1001H37.1958V47.6686H40.1145C41.5739 47.6686 42.8931 48.5326 43.5002 49.8518C43.6987 50.3188 43.652 50.8675 43.3718 51.2878ZM19.4616 14.4885C18.6561 17.489 15.9008 19.7072 12.6552 19.7072C8.76741 19.6956 5.60352 16.5433 5.60352 12.6556C5.60352 9.39829 7.82175 6.65469 10.8222 5.84912C10.7405 6.16434 10.7872 5.95419 10.7755 12.6556C10.7755 13.683 11.6161 14.5236 12.6435 14.5236C19.3098 14.5119 19.1347 14.5469 19.4616 14.4885Z" fill="#FF4F00"/>
<path d="M19.6951 12.6556C19.6951 12.9941 19.4149 13.2743 19.0763 13.2743H12.6552C12.3166 13.2743 12.0364 12.9941 12.0364 12.6556V6.23437C12.0364 5.88412 12.3166 5.6156 12.6552 5.6156C16.5429 5.6156 19.6951 8.76782 19.6951 12.6556ZM19.0763 23.4782H6.22229C5.88371 23.4782 5.60352 23.198 5.60352 22.8594C5.60352 22.5209 5.88371 22.2407 6.22229 22.2407H19.0763C19.4149 22.2407 19.6951 22.5209 19.6951 22.8594C19.6951 23.198 19.4149 23.4782 19.0763 23.4782ZM19.0763 27.1441H6.22229C5.88371 27.1441 5.60352 26.8639 5.60352 26.5253C5.60352 26.1868 5.88371 25.9066 6.22229 25.9066H19.0763C19.4149 25.9066 19.6951 26.1868 19.6951 26.5253C19.6951 26.8756 19.4149 27.1441 19.0763 27.1441ZM19.0763 30.8217H6.22229C5.88371 30.8217 5.60352 30.5415 5.60352 30.2029C5.60352 29.8644 5.88371 29.5842 6.22229 29.5842H19.0763C19.4149 29.5842 19.6951 29.8644 19.6951 30.2029C19.6951 30.5415 19.4149 30.8217 19.0763 30.8217ZM31.1015 20.4544V29.5725C31.1015 30.2613 30.5411 30.8217 29.8523 30.8217H27.2605C26.5716 30.8217 26.0112 30.2613 26.0112 29.5725V20.4544C26.0112 19.7656 26.56 19.2052 27.2605 19.2052H29.8523C30.5411 19.2052 31.1015 19.7656 31.1015 20.4544ZM38.7952 14.0332V29.5725C38.7952 30.2613 38.2349 30.8217 37.546 30.8217H34.9542C34.2654 30.8217 33.705 30.2613 33.705 29.5725V14.0332C33.705 13.3444 34.2537 12.784 34.9542 12.784H37.546C38.2349 12.784 38.7952 13.3444 38.7952 14.0332ZM46.4773 20.4544V29.5725C46.4773 30.2613 45.9169 30.8217 45.2281 30.8217H42.6246C41.9358 30.8217 41.3754 30.2613 41.3754 29.5725V20.4544C41.3754 19.7656 41.9358 19.2052 42.6246 19.2052H45.2281C45.9169 19.2052 46.4773 19.7656 46.4773 20.4544ZM54.1711 16.6484V29.5725C54.1711 30.2613 53.6107 30.8217 52.9219 30.8217H50.3184C49.6296 30.8217 49.0692 30.2613 49.0692 29.5725V16.6484C49.0692 15.9596 49.6296 15.3992 50.3184 15.3992H52.9219C53.6107 15.3992 54.1711 15.9596 54.1711 16.6484Z" fill="#FF4F00"/>
<path d="M43.9326 15.9946C43.7575 15.9946 43.5824 15.9129 43.454 15.7728L36.1922 7.13334L28.9888 14.0916C28.7436 14.3251 28.3466 14.3251 28.1131 14.0799C27.8796 13.8347 27.8796 13.4378 28.1248 13.2043L35.8186 5.77905C35.947 5.6623 36.1104 5.59225 36.2856 5.60393C36.4607 5.6156 36.6241 5.69732 36.7292 5.82575L44.0494 14.5352L51.2761 9.43329C51.5563 9.23482 51.9416 9.30487 52.1401 9.58507C52.3386 9.86526 52.2685 10.2505 51.9883 10.449L44.2946 15.8895C44.1895 15.9596 44.0611 15.9946 43.9326 15.9946Z" fill="#FF4F00"/>
<path d="M29.8874 38.0485C29.4204 38.0485 29.0352 38.4337 29.0352 38.9007C29.0352 39.3677 29.4204 39.753 29.8874 39.753C30.3544 39.753 30.7397 39.3677 30.7397 38.9007C30.7397 38.4337 30.3544 38.0485 29.8874 38.0485Z" fill="#FF4F00"/>
<path d="M56.6583 0H3.1172C1.38931 0 0 1.38931 0 3.10552C0 4.09789 0 43.1271 0 40.7454C0 42.4616 1.38931 43.8626 3.1172 43.8626H56.67C58.3862 43.8626 59.7872 42.4616 59.7872 40.7454C59.7872 35.9937 59.7872 7.83386 59.7872 3.10552C59.7755 1.38931 58.3745 0 56.6583 0ZM29.8877 41.0023C28.7319 41.0023 27.7863 40.0566 27.7863 38.9008C27.7863 37.745 28.7319 36.7993 29.8877 36.7993C31.0436 36.7993 31.9892 37.745 31.9892 38.9008C31.9892 40.0566 31.0436 41.0023 29.8877 41.0023ZM57.2887 33.9273H2.48675V3.10552C2.48675 2.76695 2.76695 2.48675 3.10552 2.48675H56.6583C56.9969 2.48675 57.2771 2.76695 57.2771 3.10552V33.9273H57.2887Z" fill="#FF4F00"/>
</svg>
