<svg width="48" height="62" viewBox="0 0 48 62" fill="none" xmlns="http://www.w3.org/2000/svg">
<path d="M35.1853 6.5783C34.5162 6.71916 33.8035 6.2811 34.0421 5.50915C34.2316 4.89607 37.0416 0.363011 37.7036 0.0161322C38.3163 -0.0819471 39.107 0.268988 38.8995 1.01991C38.7743 1.47278 35.7058 6.28076 35.1853 6.5783ZM13.8778 20.4908C11.4509 21.2692 11.6478 20.9762 11.1002 18.8517L9.68249 13.6424C9.51083 13.0304 8.98156 11.8337 9.32252 11.2135C9.57512 10.7541 14.6647 9.48315 15.365 9.29113C17.6988 8.65112 17.2194 8.73258 19.0648 7.15216L24.4587 2.55965C25.1384 1.9842 26.3021 0.699793 27.1094 0.433609C28.3097 0.447038 28.2888 1.69519 28.5358 2.60972C28.9224 4.0403 29.4954 6.50745 30.0935 7.78393C33.9509 5.93694 36.7822 12.6997 31.7468 13.8722C32.3306 15.6156 33.256 18.714 33.5862 20.5115C33.6882 21.0667 33.478 21.3388 32.9686 21.578C32.3028 21.5246 31.6558 21.3486 31.0075 21.1958L28.499 20.6014C26.563 20.1448 24.6073 19.7519 22.6629 19.3315C20.9584 18.9628 20.728 18.5955 19.0328 19.0785C19.4729 21.014 20.4611 22.6258 21.8699 24.0042C22.5138 24.6343 23.2517 24.9416 23.2621 25.9375C22.8932 26.4806 19.6628 27.6251 18.8025 27.9234C16.7189 27.2002 14.4486 22.4051 13.8778 20.4908ZM26.786 3.02519C23.9999 5.11148 21.3563 7.67218 18.5933 9.86837C19.4081 12.2227 19.7843 14.7291 20.6404 17.0604C22.0284 17.3704 23.4311 17.6326 24.8141 17.9614L28.5217 18.7569C29.4882 18.9722 30.4512 19.2253 31.4276 19.39C31.2238 18.3357 30.8759 17.2755 30.5733 16.2445L27.3533 5.03087C27.1695 4.39993 27.0322 3.62397 26.786 3.02519ZM31.1916 9.35188C30.9533 9.39985 30.715 9.44545 30.4801 9.50772C30.7251 10.3658 30.9755 11.2236 31.1916 12.0896C31.452 12.0455 31.7012 12.007 31.9378 11.8813C33.2601 11.1024 32.7332 9.16357 31.1916 9.35188ZM16.8654 10.7332C15.0127 11.3017 13.1351 11.7897 11.2809 12.3557C11.3418 12.9521 12.8001 18.5346 13.0207 18.7926L13.1053 18.7987C15.0195 18.3537 16.9009 17.7943 18.8025 17.3017C18.4746 15.8013 17.9886 14.3264 17.5788 12.8461C17.4866 12.513 17.1637 10.6947 16.8654 10.7332ZM17.2199 19.5274C16.7067 19.6945 16.1916 19.8438 15.6708 19.9843C15.8806 22.3957 17.6503 24.1688 19.0328 25.9375C19.5648 25.7125 20.0973 25.4988 20.6404 25.3022C19.4509 24.28 18.447 22.808 17.8846 21.3429C17.7761 21.06 17.4494 19.5149 17.2199 19.5274ZM36.399 7.99816C36.7757 7.53233 42.1527 5.36223 42.8824 5.22979C43.5051 5.26564 43.9943 5.91978 43.6745 6.51805C43.2876 7.24136 41.4215 7.71038 40.7015 8.00893L38.4436 8.96145C38.0057 9.14825 37.5661 9.35996 37.1138 9.50772C36.2742 9.37342 36.0242 8.69589 36.399 7.99816ZM43.2316 14.2072C42.5192 14.3402 36.8369 12.6507 36.6059 12.1479C36.3492 11.5898 36.5902 11.1093 37.1138 10.8596C37.7403 10.8493 43.4108 12.2078 43.7661 12.9242C44.0204 13.4368 43.6947 13.9703 43.2316 14.2072ZM2.96015 54.6037C3.00962 61.5844 5.49964 57.5521 7.51862 58.9949C7.8907 59.2606 7.92756 59.9271 7.64113 60.2653C7.23791 60.7412 6.01208 60.5585 5.45336 60.5607C1.35247 60.5767 1.41104 58.5964 1.20438 55.1619L0.299987 39.0665C0.168048 36.9388 -0.603058 33.2923 1.0068 31.6759C2.21731 30.4605 4.00825 30.6976 5.57234 30.704L14.0927 30.707C15.0307 30.7138 17.9354 30.3312 18.0394 31.4204C18.1535 32.616 16.9107 32.4589 16.1098 32.4551L7.02132 32.4544C5.85877 32.4547 4.66711 32.4016 3.5086 32.4645C1.49737 32.5739 1.83698 34.3951 1.91237 35.7286L2.54683 47.1104C2.68718 49.6082 2.78008 52.1081 2.96015 54.6037ZM40.317 58.7977C44.6168 58.9212 44.0104 58.4387 44.1781 54.6209L45.0224 39.4485C45.1163 37.7138 45.2538 35.9738 45.3048 34.2374C45.3749 31.8517 43.1254 32.452 41.3688 32.4559L31.6729 32.4554C31.0163 32.4562 29.9976 32.6474 29.7248 31.8388C29.5609 31.3526 29.8628 30.8563 30.3384 30.704L42.3016 30.7017C44.5382 30.7023 47.1216 30.8486 47.1125 33.9454C47.1066 35.9499 46.8764 38.0391 46.7591 40.0493L45.9631 55.0769C45.7512 59.5109 45.5042 60.5925 40.7687 60.5617C39.5854 60.5048 39.7012 59.4664 40.317 58.7977ZM24.1893 44.6382C20.296 44.7582 17.8733 40.6587 17.6971 37.2281C17.5359 34.0919 20.1254 31.2191 23.2621 31.0993C24.6971 30.8784 26.3062 31.4322 27.4391 32.308C31.7901 35.6718 29.0705 44.026 24.1893 44.6382ZM23.3773 32.8359C16.6383 33.6077 19.9194 43.2266 24.0058 42.9017C26.4928 42.5644 28.2181 38.6173 27.9218 36.44C27.6143 34.1826 25.6285 32.6592 23.3773 32.8359Z" fill="#FF4F00"/>
<path d="M30.0923 61.926L12.7534 61.9285C11.928 61.9295 9.75466 62.2688 9.51804 61.3472C9.38863 60.8431 9.43777 53.8612 9.55675 53.1157C10.2183 48.9697 13.3857 47.6811 16.9765 46.355C17.8445 46.0344 18.7255 45.6389 19.6193 45.4045C20.5666 45.3075 21.2176 46.5085 21.9791 46.9484C24.8981 48.6345 26.33 45.7855 27.7196 45.4188L27.7762 45.4045C28.9064 45.6502 32.9963 47.1618 34.1106 47.7188C38.6569 49.9914 38.2108 54.3923 38.2236 58.5402C38.226 59.3237 38.3131 60.3293 38.2063 61.0856C38.0252 62.3656 35.9042 61.9277 34.8522 61.9277L30.0923 61.926ZM19.4342 47.3385L16.876 48.2826C12.1429 50.0491 11.2773 51.1612 11.2777 55.9325L11.2797 60.1625H15.6695L15.6665 57.3337C15.6665 56.6159 15.4166 54.9601 16.5457 54.9805C17.7079 55.0015 17.444 56.6124 17.4435 57.3865L17.4398 60.1625H30.0923L30.1778 60.1349C30.4298 59.5464 29.9325 56.3672 30.3303 55.4936C30.6261 54.8442 31.6961 54.9569 31.8902 55.6353C32.0228 56.099 31.9365 59.4572 31.9366 60.1625H36.3978L36.4005 56.4071C36.4061 51.061 35.481 50.06 30.6753 48.2858C29.7923 47.9598 28.9118 47.5794 28.0015 47.3385C26.3028 49.0134 23.6775 49.7659 21.4742 48.676C20.9576 48.4206 19.7768 47.2701 19.4342 47.3385Z" fill="#FF4F00"/>
</svg>
