<svg width="42" height="36" viewBox="0 0 42 36" fill="none" xmlns="http://www.w3.org/2000/svg">
<path d="M41.3226 1.35498H18.4394L18.2903 0.542073C18.2587 0.386758 18.1735 0.247465 18.0497 0.148444C17.926 0.0494222 17.7714 -0.0030582 17.6129 0.000137814H0.677419C0.497757 0.000137814 0.325452 0.0715087 0.198412 0.198549C0.0713707 0.32559 0 0.497894 0 0.677557V34.5485C0 34.7282 0.0713707 34.9005 0.198412 35.0275C0.325452 35.1546 0.497757 35.2259 0.677419 35.2259H14.2258C14.4055 35.2259 14.5778 35.1546 14.7048 35.0275C14.8319 34.9005 14.9032 34.7282 14.9032 34.5485C14.9032 34.3689 14.8319 34.1966 14.7048 34.0695C14.5778 33.9425 14.4055 33.8711 14.2258 33.8711H1.35484V8.12917H40.6452V33.8711H16.2581C16.0784 33.8711 15.9061 33.9425 15.7791 34.0695C15.652 34.1966 15.5806 34.3689 15.5806 34.5485C15.5806 34.7282 15.652 34.9005 15.7791 35.0275C15.9061 35.1546 16.0784 35.2259 16.2581 35.2259H41.3226C41.5022 35.2259 41.6745 35.1546 41.8016 35.0275C41.9286 34.9005 42 34.7282 42 34.5485V2.0324C42 1.85273 41.9286 1.68043 41.8016 1.55339C41.6745 1.42635 41.5022 1.35498 41.3226 1.35498ZM1.35484 1.35498H17.0574L17.22 2.16788L18.1413 6.77433H1.35484V1.35498ZM19.5232 6.77433L19.1168 4.74207L18.7103 2.70982H40.6452V6.77433H19.5232Z" fill="#FF5000"/>
<path d="M4.0648 5.41952C4.81306 5.41952 5.41964 4.81293 5.41964 4.06468C5.41964 3.31642 4.81306 2.70984 4.0648 2.70984C3.31654 2.70984 2.70996 3.31642 2.70996 4.06468C2.70996 4.81293 3.31654 5.41952 4.0648 5.41952Z" fill="#FF5000"/>
<path d="M9.48374 5.41952C10.232 5.41952 10.8386 4.81293 10.8386 4.06468C10.8386 3.31642 10.232 2.70984 9.48374 2.70984C8.73549 2.70984 8.12891 3.31642 8.12891 4.06468C8.12891 4.81293 8.73549 5.41952 9.48374 5.41952Z" fill="#FF5000"/>
<path d="M14.9037 5.41952C15.6519 5.41952 16.2585 4.81293 16.2585 4.06468C16.2585 3.31642 15.6519 2.70984 14.9037 2.70984C14.1554 2.70984 13.5488 3.31642 13.5488 4.06468C13.5488 4.81293 14.1554 5.41952 14.9037 5.41952Z" fill="#FF5000"/>
<path d="M25.0648 4.0647H21.0003C20.8206 4.0647 20.6483 4.13607 20.5213 4.26311C20.3942 4.39015 20.3229 4.56245 20.3229 4.74212C20.3229 4.92178 20.3942 5.09408 20.5213 5.22112C20.6483 5.34817 20.8206 5.41954 21.0003 5.41954H25.0648C25.2445 5.41954 25.4168 5.34817 25.5438 5.22112C25.6709 5.09408 25.7422 4.92178 25.7422 4.74212C25.7422 4.56245 25.6709 4.39015 25.5438 4.26311C25.4168 4.13607 25.2445 4.0647 25.0648 4.0647ZM38.6132 4.0647H27.0971C26.9174 4.0647 26.7451 4.13607 26.6181 4.26311C26.491 4.39015 26.4196 4.56245 26.4196 4.74212C26.4196 4.92178 26.491 5.09408 26.6181 5.22112C26.7451 5.34817 26.9174 5.41954 27.0971 5.41954H38.6132C38.7929 5.41954 38.9652 5.34817 39.0922 5.22112C39.2192 5.09408 39.2906 4.92178 39.2906 4.74212C39.2906 4.56245 39.2192 4.39015 39.0922 4.26311C38.9652 4.13607 38.7929 4.0647 38.6132 4.0647ZM5.2232 19.1644C5.16022 19.1009 5.0853 19.0505 5.00275 19.0161C4.9202 18.9817 4.83166 18.964 4.74223 18.964C4.6528 18.964 4.56426 18.9817 4.48171 19.0161C4.39916 19.0505 4.32424 19.1009 4.26126 19.1644L2.90642 20.5192C2.84364 20.5825 2.79397 20.6576 2.76026 20.7401C2.72654 20.8227 2.70946 20.911 2.70997 21.0002C2.70946 21.0893 2.72654 21.1777 2.76026 21.2602C2.79397 21.3428 2.84364 21.4179 2.90642 21.4811L4.26126 22.836C4.32424 22.8995 4.39916 22.9499 4.48171 22.9843C4.56426 23.0187 4.6528 23.0364 4.74223 23.0364C4.83166 23.0364 4.9202 23.0187 5.00275 22.9843C5.0853 22.9499 5.16022 22.8995 5.2232 22.836C5.28669 22.773 5.33709 22.6981 5.37148 22.6155C5.40587 22.533 5.42358 22.4444 5.42358 22.355C5.42358 22.2656 5.40587 22.1771 5.37148 22.0945C5.33709 22.012 5.28669 21.937 5.2232 21.8741L4.34255 21.0002L5.2232 20.1263C5.28669 20.0633 5.33709 19.9884 5.37148 19.9059C5.40587 19.8233 5.42358 19.7348 5.42358 19.6453C5.42358 19.5559 5.40587 19.4674 5.37148 19.3848C5.33709 19.3023 5.28669 19.2274 5.2232 19.1644ZM21.0003 27.097C21.18 27.097 21.3523 27.0256 21.4793 26.8985C21.6063 26.7715 21.6777 26.5992 21.6777 26.4195V14.226C21.6777 14.0463 21.6063 13.874 21.4793 13.747C21.3523 13.6199 21.18 13.5486 21.0003 13.5486H19.5845C19.4782 12.926 19.2282 12.3367 18.8544 11.8275C18.4806 11.3184 17.9933 10.9034 17.4311 10.6154C16.869 10.3274 16.2475 10.1744 15.6159 10.1685C14.9843 10.1626 14.36 10.304 13.7926 10.5815C13.2779 10.3059 12.7008 10.1681 12.1172 10.1813C11.5336 10.1945 10.9633 10.3583 10.4616 10.6568C9.95997 10.9554 9.54399 11.3785 9.25404 11.8852C8.96409 12.3918 8.81001 12.9648 8.80675 13.5486H7.45191C7.27224 13.5486 7.09994 13.6199 6.9729 13.747C6.84586 13.874 6.77449 14.0463 6.77449 14.226V26.4195C6.77449 26.5992 6.84586 26.7715 6.9729 26.8985C7.09994 27.0256 7.27224 27.097 7.45191 27.097H21.0003ZM20.3229 25.7421H17.6132V14.9034H20.3229V25.7421ZM18.1958 13.5486H15.5809C15.5775 12.8488 15.3574 12.1672 14.9509 11.5976C15.1571 11.5464 15.3685 11.5191 15.5809 11.5163C16.1802 11.5183 16.7618 11.7188 17.235 12.0865C17.7081 12.4542 18.046 12.9684 18.1958 13.5486ZM12.9661 13.5486C13.0967 13.0497 13.367 12.5985 13.7451 12.2479C14.053 12.6117 14.2232 13.072 14.2261 13.5486H12.9661ZM12.1938 11.5163C12.3053 11.5172 12.4164 11.5285 12.5258 11.5502C12.0325 12.1168 11.7044 12.8081 11.5774 13.5486H10.1616C10.1616 13.0096 10.3757 12.4927 10.7568 12.1115C11.1379 11.7304 11.6549 11.5163 12.1938 11.5163ZM8.12933 14.9034H16.2584V25.7421H8.12933V14.9034ZM23.71 14.9034H38.6132C38.7929 14.9034 38.9652 14.832 39.0922 14.705C39.2192 14.578 39.2906 14.4057 39.2906 14.226C39.2906 14.0463 39.2192 13.874 39.0922 13.747C38.9652 13.6199 38.7929 13.5486 38.6132 13.5486H23.71C23.5303 13.5486 23.358 13.6199 23.231 13.747C23.1039 13.874 23.0326 14.0463 23.0326 14.226C23.0326 14.4057 23.1039 14.578 23.231 14.705C23.358 14.832 23.5303 14.9034 23.71 14.9034ZM23.71 17.6131H33.1938C33.3735 17.6131 33.5458 17.5417 33.6728 17.4147C33.7999 17.2876 33.8713 17.1153 33.8713 16.9357C33.8713 16.756 33.7999 16.5837 33.6728 16.4567C33.5458 16.3296 33.3735 16.2582 33.1938 16.2582H23.71C23.5303 16.2582 23.358 16.3296 23.231 16.4567C23.1039 16.5837 23.0326 16.756 23.0326 16.9357C23.0326 17.1153 23.1039 17.2876 23.231 17.4147C23.358 17.5417 23.5303 17.6131 23.71 17.6131ZM23.71 20.3228H35.9035C36.0832 20.3228 36.2555 20.2514 36.3825 20.1244C36.5096 19.9973 36.5809 19.825 36.5809 19.6453C36.5809 19.4657 36.5096 19.2934 36.3825 19.1663C36.2555 19.0393 36.0832 18.9679 35.9035 18.9679H23.71C23.5303 18.9679 23.358 19.0393 23.231 19.1663C23.1039 19.2934 23.0326 19.4657 23.0326 19.6453C23.0326 19.825 23.1039 19.9973 23.231 20.1244C23.358 20.2514 23.5303 20.3228 23.71 20.3228ZM23.0326 26.4195C23.0326 26.5992 23.1039 26.7715 23.231 26.8985C23.358 27.0256 23.5303 27.097 23.71 27.097H29.7525L29.6171 30.3892C29.6123 30.5189 29.6449 30.6472 29.7109 30.7589C29.777 30.8705 29.8737 30.9609 29.9896 31.0192C30.0831 31.0699 30.1881 31.0956 30.2945 31.0937C30.4496 31.0944 30.6003 31.0418 30.7213 30.9447L32.1303 29.8066H33.8713C33.9965 29.807 34.1194 29.7726 34.2262 29.7073C34.3331 29.642 34.4198 29.5483 34.4766 29.4367C34.5335 29.3251 34.5583 29.2 34.5483 29.0751C34.5383 28.9503 34.4939 28.8307 34.42 28.7295L33.2413 27.097H38.6132C38.7929 27.097 38.9652 27.0256 39.0922 26.8985C39.2192 26.7715 39.2906 26.5992 39.2906 26.4195V22.355C39.2906 22.1754 39.2192 22.0031 39.0922 21.876C38.9652 21.749 38.7929 21.6776 38.6132 21.6776H23.71C23.5303 21.6776 23.358 21.749 23.231 21.876C23.1039 22.0031 23.0326 22.1754 23.0326 22.355V26.4195ZM31.8932 28.4518C31.7381 28.4511 31.5874 28.5037 31.4664 28.6008L31.0329 28.9531L31.1616 26.5212L31.3784 26.8192L32.5503 28.4518H31.8932ZM24.3874 23.0324H37.9358V25.7421H32.2455L31.0803 24.157C30.9976 24.0425 30.8813 23.9568 30.7475 23.9117C30.6138 23.8666 30.4693 23.8644 30.3342 23.9055C30.1991 23.9465 30.0803 24.0287 29.9942 24.1406C29.9081 24.2525 29.8592 24.3885 29.8542 24.5295L29.8067 25.7421H24.3874V23.0324Z" fill="#FF5000"/>
</svg>
