<svg width="86" height="100" viewBox="0 0 86 100" fill="none" xmlns="http://www.w3.org/2000/svg">
<path d="M0 73.5V26.5L43 0L86 26.5V73.5L43 100L0 73.5Z" fill="#FF5000"/>
<path d="M32.1542 40C29.8599 40 28 41.8599 28 44.1542V56.6169C28 57.4755 28.2605 58.2734 28.7068 58.9355L31.7595 48.4742C32.1473 47.1451 33.3658 46.2313 34.7504 46.2313H52.9315V46.2233C52.9315 43.929 51.0717 42.069 48.7773 42.069H38.748L36.4436 40.2273C36.2595 40.0802 36.0309 40 35.7952 40H32.1542Z" fill="white"/>
<path d="M56.9576 49.6383C57.152 48.9735 56.6533 48.3083 55.9608 48.3083H34.7504C34.2889 48.3083 33.8827 48.6129 33.7535 49.056L30.7229 59.4414C30.5289 60.1063 31.0275 60.771 31.7199 60.771H51.3685C52.7525 60.771 53.9707 59.8579 54.3589 58.5294L56.9576 49.6383Z" fill="white"/>
</svg>
