<svg width="47" height="52" viewBox="0 0 47 52" fill="none" xmlns="http://www.w3.org/2000/svg">
<path d="M29.3896 28.4944H20.2165C19.9971 28.4944 19.8184 28.6732 19.8184 28.8926C19.8184 29.1119 19.9971 29.2907 20.2165 29.2907H29.3896C29.609 29.2907 29.7877 29.1119 29.7877 28.8926C29.7877 28.6732 29.609 28.4944 29.3896 28.4944ZM20.2165 31.8338H25.5302C25.7496 31.8338 25.9284 31.6551 25.9284 31.4357C25.9284 31.2163 25.7496 31.0376 25.5302 31.0376H20.2165C19.9971 31.0376 19.8184 31.2163 19.8184 31.4357C19.8184 31.6551 19.9971 31.8338 20.2165 31.8338ZM29.3896 36.9363H20.2165C19.9971 36.9363 19.8184 37.1151 19.8184 37.3344C19.8184 37.5538 19.9971 37.7326 20.2165 37.7326H29.3896C29.609 37.7326 29.7877 37.5538 29.7877 37.3344C29.7877 37.1151 29.609 36.9363 29.3896 36.9363ZM25.5302 39.4713H20.2165C19.9971 39.4713 19.8184 39.6501 19.8184 39.8694C19.8184 40.0888 19.9971 40.2676 20.2165 40.2676H25.5302C25.7496 40.2676 25.9284 40.0888 25.9284 39.8694C25.9284 39.6501 25.7496 39.4713 25.5302 39.4713ZM20.2165 20.1013H33.3871C33.6065 20.1013 33.7852 19.9226 33.7852 19.7032C33.7852 19.4838 33.6065 19.3051 33.3871 19.3051H20.2165C19.9971 19.3051 19.8184 19.4838 19.8184 19.7032C19.8184 19.9226 19.9971 20.1013 20.2165 20.1013ZM20.2165 22.6363H30.7221C30.9415 22.6363 31.1202 22.4576 31.1202 22.2382C31.1202 22.0188 30.9415 21.8401 30.7221 21.8401H20.2165C19.9971 21.8401 19.8184 22.0188 19.8184 22.2382C19.8184 22.4576 19.9971 22.6363 20.2165 22.6363Z" fill="#FF4F00"/>
<path d="M44.1025 45.4756V32.0694C44.1025 31.8744 44.1675 31.6956 44.2894 31.5494L46.2719 28.9819C46.4831 28.7137 46.4425 28.3075 46.15 28.0638L44.8906 27.0725C44.7444 26.9587 44.5819 26.9019 44.4031 26.9263C44.2163 26.9425 44.0619 27.04 43.9481 27.1781L41.47 30.2656C41.2344 30.55 41.1125 30.9237 41.1125 31.3056V35.9613H39.6094V8.10875C39.6094 7.88937 39.4225 7.71062 39.2113 7.71062H29.5587C29.1769 7.43437 28.7625 7.16625 28.2994 6.9225C28.1775 4.39563 26.0894 2.3725 23.53 2.3725C20.9706 2.3725 18.8744 4.3875 18.7525 6.91438C18.4275 7.07688 18.1188 7.2475 17.8425 7.4425C17.7938 7.42625 17.745 7.41 17.6963 7.41H16.5344C16.3556 6.65438 16.0794 5.9475 15.6812 5.28125L16.5263 4.43625C16.6806 4.28188 16.6806 4.03 16.5263 3.8675L14.5275 1.86875C14.365 1.71438 14.1213 1.71438 13.9587 1.86875L13.1462 2.68125C12.4475 2.25062 11.6919 1.93375 10.8794 1.755V0.398125C10.8794 0.170625 10.7006 0 10.4812 0H7.65375C7.43438 0 7.25563 0.17875 7.25563 0.398125V1.77125C6.51625 1.96625 5.80125 2.275 5.135 2.68125L4.1925 1.73875C4.03 1.57625 3.78625 1.57625 3.62375 1.73875L1.625 3.7375C1.55187 3.81062 1.51125 3.90813 1.51125 4.01375C1.51125 4.11938 1.55187 4.225 1.625 4.29L2.60812 5.28125C2.21 5.9475 1.9175 6.65438 1.74688 7.41H0.398125C0.170625 7.41 0 7.58875 0 7.80812V10.6438C0 10.8631 0.17875 11.0419 0.398125 11.0419H1.77125C1.96625 11.7975 2.26688 12.4963 2.67313 13.1544L1.7225 14.105C1.56812 14.2675 1.56812 14.5112 1.7225 14.6737L3.72938 16.6725C3.87563 16.8269 4.14375 16.8269 4.29 16.6725L5.27312 15.6894C5.89875 16.0631 6.565 16.3475 7.2475 16.5181V17.7044C7.2475 17.8263 7.30438 17.9319 7.3775 17.9969V48.0431C7.3775 48.2706 7.56437 48.4412 7.77562 48.4412H28.9819C29.0062 48.8638 29.3475 49.205 29.7781 49.205H40.4544C40.6981 50.7812 42.0469 52 43.6881 52C45.5081 52 46.9787 50.5294 46.9787 48.7175C46.995 47.0438 45.7275 45.6706 44.1025 45.4756ZM38.8131 8.515V35.9531H36.855V10.8063C36.855 10.5869 36.6763 10.4081 36.4569 10.4081H32.0287C31.6631 9.7175 31.1675 9.09188 30.5581 8.515H38.8131ZM16.5181 11.0419H17.7044C17.9319 11.0419 18.1025 10.855 18.1025 10.6438V8.23063C18.4681 7.97062 18.8744 7.74312 19.3294 7.51562C19.4838 7.4425 19.5731 7.28 19.5569 7.12563C19.5731 4.94 21.3525 3.17688 23.5381 3.17688C25.7237 3.17688 27.495 4.94813 27.5112 7.12563V7.15C27.5112 7.30438 27.5844 7.43437 27.7225 7.5075C30.7369 9.08375 32.1669 11.3019 32.1019 14.2675H16.5425C16.5425 14.1619 16.51 14.0481 16.4287 13.975L15.6162 13.1625C16.0225 12.4963 16.3312 11.7812 16.5181 11.0419ZM14.43 16.5344L15.9006 15.0638H32.4756C32.6869 15.0638 32.8575 14.9012 32.8737 14.69C32.955 13.4062 32.7925 12.2525 32.3944 11.2125H36.0425V35.9531H31.395C31.1675 35.9531 30.9969 36.14 30.9969 36.3512V44.85H10.7656V17.9888C10.8387 17.9156 10.8875 17.8181 10.8875 17.7044V16.5506C11.6431 16.3719 12.35 16.0875 13.0163 15.6894L13.8612 16.5344C14.0156 16.6969 14.2756 16.6969 14.43 16.5344ZM4.05437 9.05937C4.05437 6.24812 6.34562 3.97312 9.14062 3.97312C11.9519 3.97312 14.2269 6.25625 14.2269 9.05937C14.2269 11.8625 11.9438 14.1456 9.14062 14.1456C6.34562 14.1456 4.05437 11.8544 4.05437 9.05937ZM28.9819 46.9787V47.6531H8.18188V18.1025H9.96938V45.2481C9.96938 45.4756 10.1481 45.6463 10.3675 45.6463H30.9969V46.1744H29.7863C29.3556 46.1744 28.9819 46.54 28.9819 46.9787ZM40.4544 48.4088H29.7863L29.7944 46.9787H40.9337C40.6656 47.4012 40.5031 47.8888 40.4544 48.4088ZM41.1125 46.1744H31.8013V36.7494H34.8481V39.7637C34.8481 39.9263 34.9456 40.0644 35.0919 40.1294C35.1488 40.1456 35.1975 40.1619 35.2544 40.1619C35.36 40.1619 35.4575 40.1213 35.5306 40.04L36.5381 39.0325L37.4481 39.9425C37.5619 40.0644 37.7325 40.0969 37.8788 40.0319C38.0331 39.9669 38.1306 39.8206 38.1306 39.6662V36.7494H41.1125V46.1744ZM41.9169 31.2975C41.9169 31.0944 41.9819 30.8994 42.1037 30.7531L44.5006 27.7712L45.5569 28.6L43.6719 31.0375C43.4362 31.3138 43.3144 31.6875 43.3144 32.0612V45.4675C42.8106 45.5325 42.3312 45.7031 41.925 45.9631V31.2975H41.9169ZM43.7044 49.92C43.0462 49.92 42.5019 49.3756 42.5019 48.7175C42.5019 48.0513 43.0462 47.515 43.7044 47.515C44.3706 47.515 44.9069 48.0513 44.9069 48.7175C44.9069 49.3756 44.3706 49.92 43.7044 49.92Z" fill="#FF4F00"/>
<path d="M17.3556 17.745H12.6431C12.1962 17.745 11.8306 18.1107 11.8306 18.5575V23.3757C11.8306 23.8225 12.1962 24.1882 12.6431 24.1882H17.3556C17.8025 24.1882 18.16 23.8225 18.16 23.3757V18.5575C18.16 18.1107 17.8025 17.745 17.3556 17.745ZM16.4619 20.475L14.9506 21.9863C14.8694 22.0594 14.7637 22.1 14.6744 22.1C14.5687 22.1 14.4631 22.0594 14.39 21.9863L13.5612 21.1494C13.3988 20.995 13.3988 20.7432 13.5612 20.5807C13.7156 20.4263 13.9675 20.4263 14.1219 20.5807L14.6825 21.1413L15.9094 19.9063C16.0719 19.7519 16.3156 19.7519 16.4781 19.9063C16.6081 20.0607 16.6081 20.3125 16.4619 20.475ZM17.3556 26.7557H12.6431C12.1962 26.7557 11.8306 27.1213 11.8306 27.5682V32.3863C11.8306 32.8332 12.1962 33.1988 12.6431 33.1988H17.3556C17.8025 33.1988 18.16 32.8332 18.16 32.3863V27.5682C18.16 27.1213 17.8025 26.7557 17.3556 26.7557ZM16.4619 29.4775L14.9506 30.9807C14.8694 31.0619 14.7637 31.1025 14.6744 31.1025C14.5687 31.1025 14.4631 31.0619 14.39 30.9807L13.5612 30.1519C13.3988 29.9894 13.3988 29.7457 13.5612 29.5832C13.7156 29.4288 13.9675 29.4288 14.1219 29.5832L14.6825 30.1357L15.9094 28.9088C16.0719 28.7463 16.3156 28.7463 16.4781 28.9088C16.6081 29.0713 16.6081 29.3232 16.4619 29.4775ZM17.3556 35.9207H12.6431C12.1962 35.9207 11.8306 36.2863 11.8306 36.7332V41.5513C11.8306 41.9982 12.1962 42.3638 12.6431 42.3638H17.3556C17.8025 42.3638 18.16 41.9982 18.16 41.5513V36.7332C18.16 36.2863 17.8025 35.9207 17.3556 35.9207ZM16.4619 38.6507L14.9506 40.1619C14.8694 40.235 14.7637 40.2757 14.6744 40.2757C14.5687 40.2757 14.4631 40.235 14.39 40.1619L13.5612 39.325C13.3988 39.1707 13.3988 38.9188 13.5612 38.7563C13.7156 38.6019 13.9675 38.6019 14.1219 38.7563L14.6825 39.3169L15.9094 38.0819C16.0719 37.9275 16.3156 37.9275 16.4781 38.0819C16.6081 38.2363 16.6081 38.4882 16.4619 38.6507ZM26.155 8.22253C26.155 9.66878 24.9769 10.8469 23.5306 10.8469C22.0925 10.8469 20.9144 9.66878 20.9144 8.22253C20.9144 6.78441 22.0925 5.60628 23.5306 5.60628C24.9769 5.60628 26.155 6.78441 26.155 8.22253ZM9.14937 4.76941C6.79312 4.76941 4.85938 6.68691 4.85938 9.05941C4.85938 11.4157 6.785 13.3494 9.14937 13.3494C11.5138 13.3494 13.4394 11.4238 13.4394 9.05941C13.4313 6.68691 11.5138 4.76941 9.14937 4.76941ZM11.8063 7.75941L8.475 10.7738C8.40187 10.8388 8.30437 10.8794 8.215 10.8794C8.10937 10.8794 8.00375 10.8388 7.93062 10.7575L6.41125 9.23003C6.24875 9.07566 6.24875 8.82378 6.41125 8.66941C6.56562 8.50691 6.8175 8.50691 6.98 8.66941L8.23125 9.92878L11.27 7.16628C11.4406 7.01191 11.6925 7.02003 11.8387 7.19066C11.985 7.35316 11.9688 7.60503 11.8063 7.75941Z" fill="#FF4F00"/>
<path d="M43.7048 49.1156C43.9246 49.1156 44.1029 48.9373 44.1029 48.7175C44.1029 48.4976 43.9246 48.3193 43.7048 48.3193C43.4849 48.3193 43.3066 48.4976 43.3066 48.7175C43.3066 48.9373 43.4849 49.1156 43.7048 49.1156Z" fill="#FF4F00"/>
</svg>
