<svg width="52" height="53" viewBox="0 0 52 53" fill="none" xmlns="http://www.w3.org/2000/svg">
<path d="M30.6522 25.6719H8.27734C8.01627 25.6719 7.76589 25.7591 7.58129 25.9144C7.39668 26.0697 7.29297 26.2804 7.29297 26.5C7.29297 26.7196 7.39668 26.9303 7.58129 27.0856C7.76589 27.2409 8.01627 27.3281 8.27734 27.3281H28.9492L30.6522 25.6719ZM34.1024 22.3594H8.27734C8.01627 22.3594 7.76589 22.4466 7.58129 22.6019C7.39668 22.7572 7.29297 22.9679 7.29297 23.1875C7.29297 23.4071 7.39668 23.6178 7.58129 23.7731C7.76589 23.9284 8.01627 24.0156 8.27734 24.0156H32.3945L34.1024 22.3594Z" fill="#FF4F00"/>
<path d="M40.7637 50.5156C40.7637 50.7353 40.66 50.9459 40.4754 51.1012C40.2908 51.2565 40.0404 51.3438 39.7793 51.3438H3.35742C3.09635 51.3438 2.84597 51.2565 2.66136 51.1012C2.47676 50.9459 2.37305 50.7353 2.37305 50.5156V2.48438C2.37305 2.26474 2.47676 2.05411 2.66136 1.8988C2.84597 1.7435 3.09635 1.65625 3.35742 1.65625H25.0137V11.1797C25.0137 13.0098 26.2835 14.0781 28.459 14.0781H40.7637V15.9663L41.2559 15.4859C41.6704 15.0902 42.1717 14.7655 42.7324 14.5295V13.3328L25.8947 0H3.35742C2.5742 0 1.82307 0.261746 1.26925 0.727657C0.715429 1.19357 0.404297 1.82548 0.404297 2.48438V50.5156C0.404297 51.1745 0.715429 51.8064 1.26925 52.2723C1.82307 52.7383 2.5742 53 3.35742 53H39.7793C40.5625 53 41.3137 52.7383 41.8675 52.2723C42.4213 51.8064 42.7324 51.1745 42.7324 50.5156V32.8559L40.7637 34.744V50.5156ZM26.9824 11.1797V3.15516L38.7063 12.4219H28.459C27.3713 12.4219 26.9824 12.0948 26.9824 11.1797Z" fill="#FF4F00"/>
<path d="M51.5899 20.7486C51.5675 20.4249 51.4689 20.1082 51.2999 19.8168C51.131 19.5253 50.8949 19.265 50.6056 19.0509L46.9191 16.3429C46.6278 16.1245 46.2879 15.9568 45.9191 15.8495C45.5503 15.7422 45.1599 15.6974 44.7704 15.7178C44.3809 15.7383 44.0001 15.8234 43.65 15.9684C43.2999 16.1133 42.9874 16.3152 42.7306 16.5624L18.8841 39.4807C18.7836 39.5772 18.7112 39.6921 18.6724 39.8161L16.1869 47.8241C16.1404 47.9729 16.1441 48.1297 16.1976 48.2768C16.2511 48.4239 16.3523 48.5556 16.4898 48.6571C16.6272 48.7585 16.7956 48.8258 16.976 48.8512C17.1563 48.8767 17.3415 48.8594 17.5109 48.8013L26.6311 45.6668C26.7727 45.6188 26.8991 45.5436 27.0002 45.4474L50.8615 22.5456C51.1189 22.3018 51.3159 22.0174 51.4409 21.7088C51.566 21.4002 51.6167 21.0738 51.5899 20.7486ZM20.2327 41.3399L24.7608 44.5157L18.5838 46.6357L20.2327 41.3399ZM26.3998 43.5054L21.1432 39.8203L41.4509 20.3303L46.7074 24.0155L26.3998 43.5054ZM49.3849 21.4483L48.0068 22.7733L42.7306 19.084L44.2071 17.6679C44.3786 17.5052 44.6192 17.4058 44.877 17.3911C45.1349 17.3764 45.3893 17.4476 45.5853 17.5893L49.2914 20.2889C49.4819 20.4329 49.5982 20.6336 49.6157 20.8485C49.6331 21.0634 49.5504 21.2756 49.3849 21.44V21.4483ZM9.62603 11.6723C8.76694 12.0627 8.05023 12.6423 7.55258 13.3491C7.05494 14.0558 6.7951 14.8631 6.80088 15.6846V19.0468C6.80088 19.2664 6.90459 19.477 7.08919 19.6323C7.2738 19.7876 7.52418 19.8749 7.78525 19.8749C8.04632 19.8749 8.2967 19.7876 8.48131 19.6323C8.66591 19.477 8.76963 19.2664 8.76963 19.0468V15.6846C8.75782 15.096 8.96365 14.5189 9.35867 14.0331C9.75368 13.5472 10.3184 13.1766 10.9746 12.9725C10.439 12.6081 9.98264 12.1681 9.62603 11.6723ZM21.5665 19.8749C21.8276 19.8749 22.078 19.7876 22.2626 19.6323C22.4472 19.477 22.5509 19.2664 22.5509 19.0468V15.6846C22.5575 14.8624 22.2981 14.0543 21.8004 13.3467C21.3028 12.6392 20.5855 12.0589 19.7257 11.6682C19.3696 12.1655 18.9132 12.6068 18.3771 12.9725C19.0334 13.1766 19.5981 13.5472 19.9931 14.0331C20.3881 14.5189 20.5939 15.096 20.5821 15.6846V19.0468C20.5821 19.2664 20.6858 19.477 20.8704 19.6323C21.055 19.7876 21.3054 19.8749 21.5665 19.8749ZM14.6759 5.79675C13.8971 5.79675 13.1358 5.99103 12.4883 6.35501C11.8408 6.71899 11.3361 7.23633 11.0381 7.84161C10.7401 8.44689 10.6621 9.11293 10.814 9.75549C10.966 10.3981 11.341 10.9883 11.8916 11.4515C12.4423 11.9148 13.1439 12.2303 13.9077 12.3581C14.6715 12.4859 15.4632 12.4203 16.1827 12.1696C16.9022 11.9189 17.5171 11.4943 17.9498 10.9496C18.3824 10.4048 18.6134 9.7644 18.6134 9.10925C18.6134 8.23072 18.1985 7.38818 17.4601 6.76696C16.7217 6.14575 15.7202 5.79675 14.6759 5.79675ZM14.6759 10.7655C14.2865 10.7655 13.9059 10.6684 13.5821 10.4864C13.2583 10.3044 13.006 10.0457 12.857 9.74307C12.708 9.44043 12.669 9.10742 12.745 8.78613C12.8209 8.46485 13.0084 8.16974 13.2838 7.93811C13.5591 7.70648 13.9099 7.54873 14.2918 7.48483C14.6737 7.42092 15.0695 7.45372 15.4293 7.57908C15.789 7.70443 16.0965 7.91672 16.3128 8.18909C16.5292 8.46146 16.6446 8.78168 16.6446 9.10925C16.6446 9.54852 16.4372 9.96979 16.068 10.2804C15.6988 10.591 15.198 10.7655 14.6759 10.7655ZM27.1971 28.9843H8.27744C8.01637 28.9843 7.76599 29.0715 7.58138 29.2268C7.39677 29.3821 7.29306 29.5927 7.29306 29.8124C7.29306 30.032 7.39677 30.2426 7.58138 30.398C7.76599 30.5533 8.01637 30.6405 8.27744 30.6405H25.4745L27.1971 28.9843ZM23.7469 32.2968H8.27744C8.01637 32.2968 7.76599 32.384 7.58138 32.5393C7.39677 32.6946 7.29306 32.9052 7.29306 33.1249C7.29306 33.3445 7.39677 33.5551 7.58138 33.7105C7.76599 33.8658 8.01637 33.953 8.27744 33.953H22.0242L23.7469 32.2968ZM20.2967 35.6093H8.27744C8.01637 35.6093 7.76599 35.6965 7.58138 35.8518C7.39677 36.0071 7.29306 36.2177 7.29306 36.4374C7.29306 36.657 7.39677 36.8676 7.58138 37.023C7.76599 37.1783 8.01637 37.2655 8.27744 37.2655H18.5691L20.2967 35.6093ZM16.7677 39.3979C16.8187 39.2335 16.8896 39.074 16.9793 38.9218H8.27744C8.01637 38.9218 7.76599 39.009 7.58138 39.1643C7.39677 39.3196 7.29306 39.5302 7.29306 39.7499C7.29306 39.9695 7.39677 40.1801 7.58138 40.3355C7.76599 40.4908 8.01637 40.578 8.27744 40.578H16.3985L16.7677 39.3979ZM35.8399 39.7499C35.8388 39.6698 35.8239 39.5903 35.7956 39.5139L34.6882 40.578H34.8556C35.1166 40.578 35.367 40.4908 35.5516 40.3355C35.7362 40.1801 35.8399 39.9695 35.8399 39.7499ZM7.29306 43.0624C7.29306 43.282 7.39677 43.4926 7.58138 43.648C7.76599 43.8033 8.01637 43.8905 8.27744 43.8905H15.3699L15.862 42.2343H8.27744C8.01637 42.2343 7.76599 42.3215 7.58138 42.4768C7.39677 42.6321 7.29306 42.8427 7.29306 43.0624ZM35.8399 43.0624C35.8399 42.8427 35.7362 42.6321 35.5516 42.4768C35.367 42.3215 35.1166 42.2343 34.8556 42.2343H32.9606L31.2331 43.8905H34.8556C35.1166 43.8905 35.367 43.8033 35.5516 43.648C35.7362 43.4926 35.8399 43.282 35.8399 43.0624Z" fill="#FF4F00"/>
</svg>
