<svg width="86" height="100" viewBox="0 0 86 100" fill="none" xmlns="http://www.w3.org/2000/svg">
<path d="M0 73.5V26.5L43 0L86 26.5V73.5L43 100L0 73.5Z" fill="#FF5000"/>
<path d="M36.6012 60.0655C38.1846 60.0655 39.7086 59.6821 41.0707 58.9633L43.5264 63.1815C44.8156 65.5504 48.3227 65.9948 50.1776 64.0423C52.1353 62.1892 51.6822 58.6841 49.3166 57.3912C49.3167 57.3912 45.0878 54.9293 45.0878 54.9293C46.2947 52.6195 46.5462 49.8616 45.6773 47.337C45.5289 46.7432 44.6229 46.8549 44.6274 47.4743C46.6082 53.0097 42.5433 59.0407 36.6012 58.9988C32.0164 59.0934 27.9732 55.0513 28.0685 50.466C27.9805 44.6386 34.0681 40.3978 39.5126 42.4452C40.172 42.6774 40.5323 41.6901 39.876 41.4426C33.7527 39.1394 26.9016 43.9105 27.0018 50.4661C26.8953 55.624 31.4427 60.1724 36.6012 60.0655ZM43.3886 57.2532C43.8228 56.8191 44.2048 56.3454 44.5417 55.8455L48.7797 58.313C50.5495 59.2799 50.8879 61.9021 49.4234 63.2882C48.0366 64.7482 45.4113 64.4157 44.4482 62.645C44.4482 62.645 41.9842 58.4126 41.9842 58.4126C42.4821 58.0737 42.9534 57.6884 43.3886 57.2532Z" fill="white"/>
<path d="M39.1535 45.1808C39.7876 45.4763 40.2443 44.5352 39.6175 44.2204C36.9677 42.9401 33.7848 43.4786 31.6961 45.5613C27.3424 49.9079 30.5046 57.4399 36.6014 57.3944C42.1347 57.4552 45.5421 51.0037 42.2626 46.4612C41.8551 45.8946 40.9927 46.5072 41.393 47.0784C43.0494 49.4134 42.7799 52.5838 40.7529 54.616C38.4635 56.8997 34.7392 56.8992 32.4513 54.617C27.8776 49.8668 33.1739 42.4187 39.1535 45.1808Z" fill="white"/>
<path d="M36.2572 50.873C36.481 51.0625 36.8181 51.0359 37.0089 50.81L41.5455 45.4476C42.255 45.8225 43.2258 45.691 43.8161 45.1723L46.8075 47.3471C46.4787 48.3432 47.2886 49.4168 48.3344 49.3991C49.5041 49.4296 50.3219 48.081 49.7478 47.0656L55.2673 41.1529V42.9995C55.2783 43.6988 56.3223 43.7018 56.3339 42.9995C56.3339 42.9995 56.3339 39.7997 56.3339 39.7997C56.3223 39.5061 56.0905 39.2789 55.8006 39.2664H52.6008C51.9013 39.2779 51.8985 40.321 52.6008 40.333C52.6008 40.333 54.5728 40.333 54.5728 40.333L48.9715 46.3334C48.4904 46.11 47.8526 46.1758 47.4301 46.4814L44.4485 44.3137C45.0215 42.9624 43.94 41.3686 42.468 41.3996C40.7806 41.3477 39.7188 43.4297 40.7293 44.7606L36.1944 50.1215C36.0043 50.346 36.0324 50.6829 36.2572 50.873ZM48.3344 47.2659C49.0352 47.2783 49.0351 48.3201 48.3343 48.3325C47.6335 48.32 47.6336 47.2782 48.3344 47.2659ZM42.468 42.4662C43.3158 42.4398 43.846 43.4903 43.3315 44.1539C42.7594 44.9871 41.3828 44.5523 41.4014 43.5327C41.4014 42.9445 41.8798 42.4662 42.468 42.4662Z" fill="white"/>
<path d="M55.8002 35H36.068C34.3035 35 32.8682 36.4353 32.8682 38.1998V40.301C32.878 41.0028 33.928 40.9965 33.9348 40.301C33.9348 40.301 33.9348 38.1998 33.9348 38.1998C33.9348 37.0236 34.8917 36.0666 36.068 36.0666H55.8002C56.9767 36.0666 57.9335 37.0236 57.9335 38.1998V54.1989C57.9335 55.3754 56.9767 56.3322 55.8002 56.3322H50.4354C50.1407 56.3322 49.9021 56.5707 49.9021 56.8655C49.9021 57.1602 50.1407 57.3988 50.4354 57.3988H55.8002C57.5647 57.3988 59.0001 55.9634 59.0001 54.1989V38.1998C59.0001 36.4353 57.5647 35 55.8002 35Z" fill="white"/>
<path d="M50.4674 53.6654C49.7681 53.6764 49.765 54.7203 50.4674 54.732H56.3337C57.033 54.721 57.0362 53.6771 56.3337 53.6654H50.4674ZM56.3337 51.5322H53.1339C52.4338 51.5435 52.4322 52.5872 53.134 52.5988H56.3337C57.0339 52.5875 57.0355 51.5438 56.3337 51.5322ZM39.8013 38.7329C40.501 38.7213 40.5033 37.6782 39.8013 37.6663H35.5349C34.8352 37.6778 34.8329 38.7209 35.5349 38.7329H39.8013Z" fill="white"/>
</svg>
