<svg width="48" height="48" viewBox="0 0 48 48" fill="none" xmlns="http://www.w3.org/2000/svg">
<path d="M0 0V48H48V0H0ZM45.1765 11.2941H39.5294V2.82353H45.1765V11.2941ZM36.7059 2.82353V11.2941H2.82353V2.82353H36.7059ZM2.82353 45.1765V14.1176H45.1765V45.1765H2.82353Z" fill="#FF4F00"/>
<path d="M5.64648 5.64709H8.47001V8.47062H5.64648V5.64709ZM11.2935 5.64709H14.1171V8.47062H11.2935V5.64709ZM16.9406 5.64709H19.7641V8.47062H16.9406V5.64709ZM5.64648 42.353H42.3524V16.9412H5.64648V42.353ZM28.2347 34.3384V24.9559L39.5288 20.4382V38.856L28.2347 34.3384ZM33.61 19.7647L25.4112 23.0443V36.25L33.61 39.5294H8.47001V31.0589H14.3027L12.9424 33.0993L15.2918 34.6655L18.6374 29.6471L15.2918 24.6287L12.9424 26.195L14.3027 28.2353H8.47001V19.7647H33.61Z" fill="#FF4F00"/>
<path d="M31.0586 28.2352H33.8821V31.0588H31.0586V28.2352Z" fill="#FF4F00"/>
</svg>
