<svg width="47" height="47" viewBox="0 0 47 47" fill="none" xmlns="http://www.w3.org/2000/svg">
<path fill-rule="evenodd" clip-rule="evenodd" d="M8.39284 30.2143C3.77225 30.2143 0 33.9865 0 38.6071C0 43.2277 3.77225 47 8.39284 47H31.8928C36.5134 47 40.2856 43.2277 40.2856 38.6071C40.2856 33.9865 36.5134 30.2143 31.8928 30.2143H8.39284ZM8.39284 33.5714H31.8928C34.7116 33.5714 36.9285 35.7883 36.9285 38.6071C36.9285 41.426 34.7116 43.6428 31.8928 43.6428H8.39284C5.57402 43.6428 3.35714 41.426 3.35714 38.6071C3.35714 35.7883 5.57402 33.5714 8.39284 33.5714ZM35.2499 15.1072C34.8048 15.1072 34.3778 15.284 34.063 15.5988C33.7482 15.9136 33.5714 16.3406 33.5714 16.7857C33.5714 17.2309 33.7482 17.6579 34.063 17.9727C34.3778 18.2874 34.8048 18.4643 35.2499 18.4643C35.6951 18.4643 36.1221 18.2874 36.4369 17.9727C36.7517 17.6579 36.9285 17.2309 36.9285 16.7857C36.9285 16.3406 36.7517 15.9136 36.4369 15.5988C36.1221 15.284 35.6951 15.1072 35.2499 15.1072ZM35.2499 5.03577C34.8048 5.03577 34.3778 5.21259 34.063 5.52738C33.7482 5.84217 33.5714 6.26915 33.5714 6.71434V11.75C33.5714 12.1952 33.7482 12.6222 34.063 12.9369C34.3778 13.2517 34.8048 13.4286 35.2499 13.4286C35.6951 13.4286 36.1221 13.2517 36.4369 12.9369C36.7517 12.6222 36.9285 12.1952 36.9285 11.75V6.71434C36.9285 6.26915 36.7517 5.84217 36.4369 5.52738C36.1221 5.21259 35.6951 5.03577 35.2499 5.03577Z" fill="#FF4F00"/>
<path fill-rule="evenodd" clip-rule="evenodd" d="M35.2497 0C30.8344 0 26.9755 2.4598 24.9684 6.07825C23.4574 5.39776 21.8145 5.03549 20.1426 5.03571C13.6731 5.03571 8.39258 10.3162 8.39258 16.7857C8.39258 23.2551 13.6731 28.5357 20.1426 28.5357C20.1437 28.5357 20.1448 28.5357 20.1459 28.5357C24.4622 28.5239 28.3758 26.1454 30.4108 22.4509C31.8884 23.1234 33.5258 23.5 35.2498 23.5C41.7192 23.5 46.9997 18.2194 46.9997 11.75C46.9997 5.28056 41.7191 0 35.2497 0ZM35.2497 3.35714C39.9048 3.35714 43.6425 7.09487 43.6425 11.75C43.6425 16.4051 39.9048 20.1428 35.2497 20.1428C33.5976 20.1428 32.0629 19.6698 30.768 18.8544C30.645 18.7415 30.5057 18.6475 30.3549 18.5757C28.2341 17.0565 26.8568 14.5735 26.8568 11.75C26.8568 10.8709 26.9928 10.0235 27.2404 9.22885C27.326 9.0711 27.3858 8.90064 27.4174 8.72397C28.6251 5.57655 31.6632 3.35714 35.2497 3.35714ZM20.1426 8.39284C21.4068 8.39268 22.6483 8.67896 23.7784 9.22229C23.5985 10.0369 23.4997 10.8828 23.4997 11.75C23.4997 15.2892 25.0839 18.4704 27.5748 20.628C26.1565 23.3876 23.313 25.1686 20.1426 25.1785C15.4875 25.1785 11.7497 21.4408 11.7497 16.7857C11.7497 12.1306 15.4875 8.39284 20.1426 8.39284Z" fill="#FF4F00"/>
</svg>
