<svg width="49" height="46" viewBox="0 0 49 46" fill="none" xmlns="http://www.w3.org/2000/svg">
<path fill-rule="evenodd" clip-rule="evenodd" d="M2.77734 24.2778C2.77734 20.7493 5.63775 17.8889 9.16623 17.8889H39.8329C43.3614 17.8889 46.2218 20.7493 46.2218 24.2778V39.6111C46.2218 43.1396 43.3614 46 39.8329 46H9.16623C5.63775 46 2.77734 43.1396 2.77734 39.6111V31.9445C2.77734 31.2389 3.34943 30.6667 4.05512 30.6667C4.76081 30.6667 5.3329 31.2389 5.3329 31.9445V39.6111C5.3329 41.7282 7.04913 43.4445 9.16623 43.4445H39.8329C41.9499 43.4445 43.6662 41.7282 43.6662 39.6111V24.2778C43.6662 22.1608 41.9499 20.4445 39.8329 20.4445H9.16623C7.04913 20.4445 5.3329 22.1608 5.3329 24.2778C5.3329 24.9834 4.76081 25.5556 4.05512 25.5556C3.34943 25.5556 2.77734 24.9834 2.77734 24.2778Z" fill="#FF4F00"/>
<path fill-rule="evenodd" clip-rule="evenodd" d="M18.1115 26.8333C18.1115 26.1277 18.6836 25.5555 19.3893 25.5555H29.6115C30.3171 25.5555 30.8893 26.1277 30.8893 26.8333C30.8893 27.5389 30.3171 28.1111 29.6115 28.1111H19.3893C18.6836 28.1111 18.1115 27.5389 18.1115 26.8333ZM1.02623 5.20281C1.68145 4.94074 2.42506 5.25944 2.68716 5.91466L7.79827 18.6923C8.06037 19.3476 7.74166 20.0912 7.08645 20.3534C6.43123 20.6154 5.68759 20.2967 5.42549 19.6415L0.314377 6.86377C0.0523046 6.20855 0.371008 5.46491 1.02623 5.20281ZM47.9747 5.20281C47.3195 4.94074 46.5758 5.25944 46.3136 5.91466L41.2025 18.6923C40.9406 19.3476 41.2593 20.0912 41.9145 20.3534C42.5697 20.6154 43.3132 20.2967 43.5754 19.6415L48.6865 6.86377C48.9487 6.20855 48.63 5.46491 47.9747 5.20281ZM18.4858 5.48535C18.9848 4.98633 19.7939 4.98633 20.293 5.48535L24.5004 9.69292L28.7079 5.48535C29.207 4.98633 30.0161 4.98633 30.5152 5.48535C31.014 5.98435 31.014 6.79339 30.5152 7.29238L25.4041 12.4035C24.905 12.9025 24.0959 12.9025 23.5968 12.4035L18.4858 7.29238C17.9868 6.79339 17.9868 5.98435 18.4858 5.48535Z" fill="#FF4F00"/>
<path fill-rule="evenodd" clip-rule="evenodd" d="M24.4995 0C25.205 0 25.7772 0.572087 25.7772 1.27778V11.5C25.7772 12.2057 25.205 12.7778 24.4995 12.7778C23.7939 12.7778 23.2217 12.2057 23.2217 11.5V1.27778C23.2217 0.572087 23.7939 0 24.4995 0Z" fill="#FF4F00"/>
</svg>
