<svg width="86" height="100" viewBox="0 0 86 100" fill="none" xmlns="http://www.w3.org/2000/svg">
<path d="M0 73.5V26.5L43 0L86 26.5V73.5L43 100L0 73.5Z" fill="#FF5000"/>
<path d="M58.0833 33H28.9167C27.3067 33 26 34.3067 26 35.9167V53.4167C26 55.0267 27.3067 56.3333 28.9167 56.3333H34.7733C35.0942 56.3333 35.3567 56.0708 35.3567 55.75C35.3567 55.4292 35.0942 55.1667 34.7733 55.1667H30.6667V34.1667H56.3333V55.1667H52.2267C51.9058 55.1667 51.6433 55.4292 51.6433 55.75C51.6433 56.0708 51.9058 56.3333 52.2267 56.3333H58.0833C59.6933 56.3333 61 55.0267 61 53.4167V35.9167C61 34.3067 59.6933 33 58.0833 33Z" fill="white"/>
<path d="M51.2758 61.1691C51.0483 60.9416 50.675 60.9416 50.4475 61.1691L49.8058 61.8166L48.8375 60.8483C49.8758 59.6291 50.5 58.0541 50.5 56.3333C50.5 52.4716 47.3617 49.3333 43.5 49.3333C39.6383 49.3333 36.5 52.4716 36.5 56.3333C36.5 60.1949 39.6383 63.3333 43.5 63.3333C45.2208 63.3333 46.7958 62.7091 48.015 61.6708L48.9833 62.6391L48.3358 63.2808C48.2308 63.3916 48.1667 63.5374 48.1667 63.6949C48.1667 63.8524 48.2308 63.9983 48.3358 64.1091L52.0575 67.8308C52.1742 67.9416 52.32 67.9999 52.4717 67.9999C52.6233 67.9999 52.7692 67.9416 52.8858 67.8308L54.9975 65.7191C55.1025 65.6083 55.1667 65.4624 55.1667 65.3049C55.1667 65.1474 55.1025 65.0016 54.9975 64.8908L51.2758 61.1691ZM43.5 62.1666C40.2858 62.1666 37.6667 59.5474 37.6667 56.3333C37.6667 53.1191 40.2858 50.4999 43.5 50.4999C46.7142 50.4999 49.3333 53.1191 49.3333 56.3333C49.3333 59.5474 46.7142 62.1666 43.5 62.1666Z" fill="white"/>
<path d="M46.9532 53.7784C46.8657 53.5626 46.6499 53.4167 46.4165 53.4167H44.0832C43.7624 53.4167 43.4999 53.6792 43.4999 54.0001C43.4999 54.3209 43.7624 54.5834 44.0832 54.5834H45.0107L43.4999 56.0942L42.7474 55.3417C42.5199 55.1142 42.1524 55.1142 41.9249 55.3417L39.5915 57.6751C39.364 57.9026 39.364 58.2701 39.5915 58.4976C39.7082 58.6142 39.854 58.6667 40.0057 58.6667C40.1574 58.6667 40.3032 58.6084 40.4199 58.4976L42.339 56.5784L43.0915 57.3309C43.319 57.5584 43.6865 57.5584 43.914 57.3309L45.8332 55.4117V56.3392C45.8332 56.6601 46.0957 56.9226 46.4165 56.9226C46.7374 56.9226 46.9999 56.6601 46.9999 56.3392V54.0059C46.9999 53.9301 46.9882 53.8542 46.959 53.7842L46.9532 53.7784Z" fill="white"/>
<path d="M42.3332 38.8333H39.9998C39.6777 38.8333 39.4165 39.0944 39.4165 39.4166V47.5833C39.4165 47.9054 39.6777 48.1666 39.9998 48.1666H42.3332C42.6553 48.1666 42.9165 47.9054 42.9165 47.5833V39.4166C42.9165 39.0944 42.6553 38.8333 42.3332 38.8333Z" fill="white"/>
<path d="M46.9997 41.1667H44.6663C44.3442 41.1667 44.083 41.4279 44.083 41.7501V47.5834C44.083 47.9056 44.3442 48.1667 44.6663 48.1667H46.9997C47.3218 48.1667 47.583 47.9056 47.583 47.5834V41.7501C47.583 41.4279 47.3218 41.1667 46.9997 41.1667Z" fill="white"/>
<path d="M51.6667 36.5H49.3333C49.0112 36.5 48.75 36.7612 48.75 37.0833V47.5833C48.75 47.9055 49.0112 48.1667 49.3333 48.1667H51.6667C51.9888 48.1667 52.25 47.9055 52.25 47.5833V37.0833C52.25 36.7612 51.9888 36.5 51.6667 36.5Z" fill="white"/>
<path d="M37.6667 42.3333H35.3333C35.0112 42.3333 34.75 42.5944 34.75 42.9166V47.5833C34.75 47.9054 35.0112 48.1666 35.3333 48.1666H37.6667C37.9888 48.1666 38.25 47.9054 38.25 47.5833V42.9166C38.25 42.5944 37.9888 42.3333 37.6667 42.3333Z" fill="white"/>
</svg>
