<svg width="45" height="45" viewBox="0 0 45 45" fill="none" xmlns="http://www.w3.org/2000/svg">
<path d="M37.1931 7.90187C37.1231 7.90187 37.0531 7.90187 36.9552 7.87387C35.9473 7.79689 35.1074 6.88702 35.1074 5.80917C35.1074 4.70333 35.9263 3.80746 37.0111 3.72347C37.0531 3.70947 37.1301 3.70947 37.1931 3.70947C38.355 3.70947 39.2928 4.65434 39.2928 5.80917C39.2928 5.99814 39.1388 6.15212 38.9499 6.15212C38.7609 6.15212 38.6069 5.99814 38.6069 5.80917C38.6069 5.01828 37.984 4.39537 37.1931 4.39537C37.1441 4.39537 37.1371 4.39537 37.1231 4.40237C36.3462 4.47236 35.8003 5.06728 35.8003 5.80917C35.8003 6.53007 36.3602 7.13898 37.0671 7.19497C37.1371 7.20897 37.1441 7.20897 37.1931 7.20897C37.3821 7.20897 37.5361 7.36295 37.5361 7.55192C37.5431 7.74789 37.3891 7.90187 37.1931 7.90187Z" fill="#FF5000"/>
<path d="M37.2003 11.4083C36.0455 11.4083 35.1006 10.4705 35.1006 9.30864C35.1006 9.11967 35.2546 8.96569 35.4435 8.96569C35.6325 8.96569 35.7865 9.11967 35.7865 9.30864C35.7865 10.0855 36.4164 10.7154 37.1933 10.7154C37.9702 10.7154 38.6001 10.0855 38.6001 9.30864C38.6001 8.53175 37.9702 7.90184 37.1933 7.90184C37.0043 7.90184 36.8503 7.74787 36.8503 7.55889C36.8503 7.36992 37.0043 7.21594 37.1933 7.21594C38.3481 7.21594 39.293 8.15381 39.293 9.31564C39.3 10.4705 38.3551 11.4083 37.2003 11.4083Z" fill="#FF5000"/>
<path d="M37.1994 4.40234C37.0104 4.40234 36.8564 4.24836 36.8564 4.05939V2.99554C36.8564 2.80657 37.0104 2.65259 37.1994 2.65259C37.3884 2.65259 37.5423 2.80657 37.5423 2.99554V4.05939C37.5493 4.24836 37.3884 4.40234 37.1994 4.40234Z" fill="#FF5000"/>
<path d="M37.1994 12.5703C37.0104 12.5703 36.8564 12.4163 36.8564 12.2273V11.0655C36.8564 10.8765 37.0104 10.7225 37.1994 10.7225C37.3884 10.7225 37.5423 10.8765 37.5423 11.0655V12.2273C37.5493 12.4163 37.3884 12.5703 37.1994 12.5703Z" fill="#FF5000"/>
<path d="M30.0257 9.43454H0.342951C0.153978 9.43454 0 9.28057 0 9.09159V4.65423C0 4.46526 0.153978 4.31128 0.342951 4.31128H30.5366C30.7256 4.31128 30.8796 4.46526 30.8796 4.65423C30.8796 4.8432 30.7256 4.99718 30.5366 4.99718H0.685901V8.74164H30.0187C30.2077 8.74164 30.3616 8.89562 30.3616 9.08459C30.3686 9.28057 30.2147 9.43454 30.0257 9.43454Z" fill="#FF5000"/>
<path d="M36.9276 34.6801H6.52398C3.71038 34.6801 1.42871 32.3914 1.42871 29.5848V9.09173C1.42871 8.90276 1.58269 8.74878 1.77166 8.74878C1.96063 8.74878 2.11461 8.90276 2.11461 9.09173V29.5848C2.11461 32.0134 4.08833 33.9942 6.51698 33.9942H36.9136C39.3353 33.9942 41.309 32.0204 41.309 29.5848V13.4591C41.309 13.2701 41.463 13.1162 41.6519 13.1162C41.8409 13.1162 41.9949 13.2701 41.9949 13.4591V29.5848C42.0089 32.3914 39.7272 34.6801 36.9276 34.6801Z" fill="#FF5000"/>
<path d="M37.2 15.3278C32.9726 15.3278 29.5361 11.8913 29.5361 7.6639C29.5361 3.43651 32.9796 0 37.2 0C41.4274 0 44.8639 3.43651 44.8639 7.6639C44.8639 11.8913 41.4274 15.3278 37.2 15.3278ZM37.2 0.6929C33.3576 0.6929 30.229 3.82145 30.229 7.6639C30.229 11.5063 33.3576 14.6349 37.2 14.6349C41.0425 14.6349 44.171 11.5063 44.171 7.6639C44.171 3.82145 41.0495 0.6929 37.2 0.6929Z" fill="#FF5000"/>
<path d="M42.1487 44.7936H2.8283C2.63933 44.7936 2.48535 44.6396 2.48535 44.4506C2.48535 44.2616 2.63933 44.1077 2.8283 44.1077H42.1487C42.3376 44.1077 42.4916 44.2616 42.4916 44.4506C42.4916 44.6396 42.3376 44.7936 42.1487 44.7936Z" fill="#FF5000"/>
<path d="M34.5473 44.7936C34.4003 44.7936 34.2603 44.6956 34.2183 44.5486L31.1528 34.4351C31.0968 34.2531 31.2018 34.0571 31.3837 34.0081C31.5657 33.9521 31.7617 34.0571 31.8107 34.2391L34.8692 44.3526C34.9252 44.5346 34.8202 44.7306 34.6383 44.7866C34.6103 44.7866 34.5753 44.7936 34.5473 44.7936Z" fill="#FF5000"/>
<path d="M30.6905 44.7936C30.5435 44.7936 30.4036 44.6956 30.3616 44.5486L27.352 34.4351C27.296 34.2531 27.401 34.0571 27.583 34.0081C27.7649 33.9521 27.9609 34.0571 28.0099 34.2391L31.0195 44.3526C31.0755 44.5346 30.9705 44.7306 30.7885 44.7796C30.7605 44.7866 30.7255 44.7936 30.6905 44.7936Z" fill="#FF5000"/>
<path d="M12.8011 44.7936C12.7661 44.7936 12.7381 44.7866 12.7031 44.7796C12.5211 44.7236 12.4162 44.5346 12.4651 44.3527L15.3697 34.2391C15.4257 34.0571 15.6147 33.9522 15.7967 34.0012C15.9786 34.0571 16.0836 34.2461 16.0346 34.4281L13.1301 44.5416C13.0881 44.6956 12.9551 44.7936 12.8011 44.7936Z" fill="#FF5000"/>
<path d="M9.05693 44.7936C9.02193 44.7936 8.99393 44.7866 8.95894 44.7796C8.77697 44.7236 8.67198 44.5346 8.72797 44.3527L11.6815 34.2391C11.7375 34.0571 11.9265 33.9522 12.1085 34.0012C12.2905 34.0571 12.3954 34.2461 12.3395 34.4281L9.38588 44.5416C9.34388 44.6956 9.2039 44.7936 9.05693 44.7936Z" fill="#FF5000"/>
<path d="M28.9056 38.7954H14.5226C14.3337 38.7954 14.1797 38.6414 14.1797 38.4524C14.1797 38.2635 14.3337 38.1095 14.5226 38.1095H28.9056C29.0945 38.1095 29.2485 38.2635 29.2485 38.4524C29.2555 38.6414 29.1015 38.7954 28.9056 38.7954Z" fill="#FF5000"/>
<path d="M13.4109 32.3143H11.1222C10.9333 32.3143 10.7793 32.1603 10.7793 31.9714V11.6463C10.7793 11.4573 10.9333 11.3033 11.1222 11.3033H13.4109C13.5999 11.3033 13.7539 11.4573 13.7539 11.6463V29.6057C13.7539 29.7947 13.5999 29.9487 13.4109 29.9487C13.2219 29.9487 13.068 29.7947 13.068 29.6057V11.9892H11.4722V31.6214H13.4179C13.6069 31.6214 13.7609 31.7754 13.7609 31.9644C13.7609 32.1603 13.6069 32.3143 13.4109 32.3143Z" fill="#FF5000"/>
<path d="M32.308 32.3143H11.1291C10.9401 32.3143 10.7861 32.1603 10.7861 31.9713V29.6056C10.7861 29.4167 10.9401 29.2627 11.1291 29.2627C11.3181 29.2627 11.472 29.4167 11.472 29.6056V31.6214H31.9651V29.9556H13.4178C13.2288 29.9556 13.0748 29.8016 13.0748 29.6126C13.0748 29.4237 13.2288 29.2697 13.4178 29.2697H32.308C32.497 29.2697 32.651 29.4237 32.651 29.6126V31.9713C32.651 32.1603 32.497 32.3143 32.308 32.3143Z" fill="#FF5000"/>
<path d="M17.7986 29.9557C17.6096 29.9557 17.4557 29.8017 17.4557 29.6127V17.7354L16.1048 16.8256V29.6057C16.1048 29.7947 15.9509 29.9487 15.7619 29.9487C15.5729 29.9487 15.4189 29.7947 15.4189 29.6057V16.1817C15.4189 16.0557 15.4889 15.9367 15.6009 15.8737C15.7129 15.8107 15.8529 15.8177 15.9579 15.8947L17.9946 17.2665C18.0926 17.3295 18.1486 17.4345 18.1486 17.5535V29.6057C18.1416 29.8017 17.9876 29.9557 17.7986 29.9557Z" fill="#FF5000"/>
<path d="M21.7185 29.9557C21.5296 29.9557 21.3756 29.8017 21.3756 29.6127V20.4091L20.0248 19.7022V29.6057C20.0248 29.7947 19.8708 29.9487 19.6818 29.9487C19.4928 29.9487 19.3389 29.7947 19.3389 29.6057V19.1282C19.3389 19.0093 19.4019 18.8973 19.5068 18.8343C19.6118 18.7713 19.7378 18.7713 19.8428 18.8273L21.8795 19.8981C21.9915 19.9611 22.0615 20.0731 22.0615 20.2061V29.6057C22.0615 29.8017 21.9075 29.9557 21.7185 29.9557Z" fill="#FF5000"/>
<path d="M25.6314 29.9556C25.4425 29.9556 25.2885 29.8017 25.2885 29.6127V23.4746L23.9447 22.9916V29.6127C23.9447 29.8017 23.7907 29.9556 23.6017 29.9556C23.4128 29.9556 23.2588 29.8017 23.2588 29.6127V22.5017C23.2588 22.3897 23.3148 22.2847 23.4058 22.2218C23.4968 22.1588 23.6157 22.1448 23.7207 22.1798L25.7574 22.9077C25.8974 22.9566 25.9884 23.0896 25.9884 23.2296V29.6127C25.9814 29.8017 25.8274 29.9556 25.6314 29.9556Z" fill="#FF5000"/>
<path d="M29.5504 29.9557C29.3614 29.9557 29.2074 29.8017 29.2074 29.6127V26.4282L27.8636 26.1692V29.6197C27.8636 29.8087 27.7097 29.9627 27.5207 29.9627C27.3317 29.9627 27.1777 29.8087 27.1777 29.6197V25.7563C27.1777 25.6513 27.2267 25.5533 27.3037 25.4903C27.3807 25.4273 27.4857 25.3993 27.5907 25.4203L29.6274 25.8123C29.7884 25.8403 29.9073 25.9873 29.9073 26.1482V29.6197C29.9003 29.8017 29.7464 29.9557 29.5504 29.9557Z" fill="#FF5000"/>
<path d="M27.8063 23.0337C27.6594 23.0337 27.5194 22.9357 27.4774 22.7817C27.4214 22.5998 27.5334 22.4108 27.7153 22.3548L29.4021 21.8719L29.2131 19.9542C29.1921 19.7652 29.3321 19.5972 29.5211 19.5762C29.7101 19.5622 29.878 19.6952 29.899 19.8842L30.116 22.0888C30.13 22.2568 30.025 22.4108 29.871 22.4528L27.9113 23.0197C27.8693 23.0337 27.8413 23.0337 27.8063 23.0337Z" fill="#FF5000"/>
<path d="M29.7733 22.4666C29.7103 22.4666 29.6403 22.4456 29.5843 22.4106L16.5872 13.7669C16.4262 13.6619 16.3842 13.4449 16.4892 13.2909C16.5942 13.13 16.8112 13.088 16.9652 13.193L29.9623 21.8367C30.1233 21.9417 30.1653 22.1587 30.0603 22.3127C29.9903 22.4176 29.8853 22.4666 29.7733 22.4666Z" fill="#FF5000"/>
</svg>
