<svg width="53" height="52" viewBox="0 0 53 52" fill="none" xmlns="http://www.w3.org/2000/svg">
<path d="M20.4755 15.925C20.0421 15.4916 19.3921 15.4916 18.9588 15.925L14.3005 20.475L12.3505 18.6333C11.9171 18.2 11.2671 18.2 10.8338 18.6333C10.4005 19.0666 10.4005 19.7166 10.8338 20.15L13.5421 22.75C13.7588 22.9666 13.9755 23.075 14.3005 23.075C14.6255 23.075 14.8421 22.9666 15.0588 22.75L20.4755 17.55C20.8005 17.0083 20.8005 16.3583 20.4755 15.925ZM15.3838 35.425H12.2421C11.5921 35.425 11.1588 35.8583 11.1588 36.5083C11.1588 37.1583 11.5921 37.5916 12.2421 37.5916H15.3838C16.0338 37.5916 16.4671 37.1583 16.4671 36.5083C16.4671 35.8583 16.0338 35.425 15.3838 35.425Z" fill="#FF4F00"/>
<path d="M50.8083 38.8917C50.9167 37.5917 50.8083 33.3667 47.3417 28.7083L42.4667 21.6667C41.275 20.0417 39.1083 19.6083 37.4833 20.6917C36.8333 21.125 36.4 21.775 36.075 22.425C34.775 21.775 33.5833 22.2083 32.6083 22.75C31.85 23.2917 31.3083 23.9417 31.0917 24.8083C30.4417 24.5917 29.6833 24.7 29.0333 24.9167C28.4917 25.1333 28.0583 25.35 27.625 25.675V4.44167C27.625 1.95 25.5667 0 23.1833 0H4.44167C2.05833 0 0 1.95 0 4.44167C0 9.53333 0 31.4167 0 36.5083C0 39 2.05833 40.95 4.44167 40.95H21.9917C22.2083 41.4917 22.425 42.0333 22.75 42.4667C23.1833 43.225 28.1667 51.5667 35.3167 49.725L35.425 49.9417C36.4 51.2417 37.8083 52 39.325 52C40.3 52 41.1667 51.7833 42.0333 51.2417L49.9417 46.0417C51.025 45.2833 51.675 44.3083 52 43.0083C52.2167 41.8167 52 40.5167 51.2417 39.5417L50.8083 38.8917ZM18.0917 20.0417C16.6833 21.0167 16.0333 22.8583 16.7917 24.5917H9.1V16.4667H16.0333C16.6833 16.4667 17.1167 16.0333 17.1167 15.3833C17.1167 14.7333 16.6833 14.3 16.0333 14.3H8.01667C7.36667 14.3 6.93333 14.7333 6.93333 15.3833V25.675C6.93333 26.325 7.36667 26.7583 8.01667 26.7583H18.2L21.9917 32.175H2.16667V8.88333H25.5667V24.375L23.1833 21.0167C21.9917 19.3917 19.7167 18.9583 18.0917 20.0417ZM4.44167 2.16667H23.1833C24.4833 2.16667 25.4583 3.14167 25.4583 4.44167V6.71667H2.16667V4.44167C2.16667 3.14167 3.25 2.16667 4.44167 2.16667ZM2.16667 36.5083V34.2333H22.9667C22.3167 35.1 21.8833 36.075 21.6667 37.1583C21.5583 37.7 21.5583 38.2417 21.5583 38.7833H4.44167C3.25 38.8917 2.16667 37.8083 2.16667 36.5083ZM49.8333 42.575C49.725 43.225 49.2917 43.7667 48.75 44.2L40.8417 49.4C39.65 50.1583 38.025 49.9417 37.1583 48.75L36.6167 47.8833C36.4 47.5583 36.075 47.45 35.75 47.45C35.6417 47.45 35.5333 47.45 35.425 47.5583C29.4667 49.725 24.7 41.6 24.7 41.4917C24.7 41.4917 24.7 41.3833 24.5917 41.3833C24.2667 40.95 24.05 40.4083 23.9417 39.7583C23.8333 39.1083 23.8333 38.4583 23.9417 37.7C24.05 37.05 24.375 36.4 24.7 35.8583C24.8083 36.075 26.4333 38.4583 26.4333 38.2417L26.325 38.35C25.7833 38.675 25.675 39.325 26 39.8667C26.325 40.4083 26.975 40.5167 27.5167 40.1917L28.4917 39.5417C28.7083 39.4333 28.925 39.1083 28.925 38.8917C28.925 38.5667 28.925 38.35 28.7083 38.025C25.5667 33.5833 18.9583 24.1583 18.85 23.9417C18.4167 23.2917 18.525 22.425 19.2833 21.8833C20.0417 21.45 20.9083 21.5583 21.45 22.3167L27.1917 30.55C27.5167 31.0917 28.1667 31.2 28.7083 30.7667C29.25 30.4417 29.3583 29.7917 28.925 29.25C28.3833 28.4917 28.7083 27.4083 29.6833 27.0833C31.0917 26.65 31.525 27.8417 31.6333 27.95C31.9583 28.3833 32.6083 28.6 33.15 28.1667C33.6917 27.8417 33.8 27.1917 33.3667 26.65C32.9333 26 33.0417 25.1333 33.8 24.7C35.3167 23.725 36.1833 25.5667 36.725 26C37.1583 26.325 37.7 26.2167 38.1333 25.8917C38.4583 25.5667 38.5667 24.9167 38.2417 24.4833C37.8083 23.8333 37.9167 22.9667 38.5667 22.5333C39.2167 22.1 40.1917 22.3167 40.625 22.9667L45.5 30.0083C49.075 34.9917 48.5333 39.1083 48.5333 39.1083C48.5333 39.4333 48.5333 39.65 48.75 39.8667L49.2917 40.7333C49.725 41.275 49.9417 41.925 49.8333 42.575Z" fill="#FF4F00"/>
</svg>
