<svg width="45" height="49" viewBox="0 0 45 49" fill="none" xmlns="http://www.w3.org/2000/svg">
<path d="M40.0167 8.16667H36.75V6.53333C36.7263 6.32345 36.6683 6.1103 36.5107 5.95595L30.7941 0.239283C30.6389 0.0824833 30.4265 0.0236833 30.2167 0H5.71667C3.04372 0.0245 1.35893 2.3275 1.63333 4.9H0.816667C0.600073 4.9 0.392351 4.98604 0.239196 5.1392C0.0860416 5.29235 0 5.50007 0 5.71667C0 5.93326 0.0860416 6.14098 0.239196 6.29414C0.392351 6.44729 0.600073 6.53333 0.816667 6.53333H1.63333V9.8H0.816667C0.600073 9.8 0.392351 9.88604 0.239196 10.0392C0.0860416 10.1924 0 10.4001 0 10.6167C0 10.8333 0.0860416 11.041 0.239196 11.1941C0.392351 11.3473 0.600073 11.4333 0.816667 11.4333H1.63333V14.7H0.816667C0.600073 14.7 0.392351 14.786 0.239196 14.9392C0.0860416 15.0924 0 15.3001 0 15.5167C0 15.7333 0.0860416 15.941 0.239196 16.0941C0.392351 16.2473 0.600073 16.3333 0.816667 16.3333H1.63333V19.6H0.816667C0.600073 19.6 0.392351 19.686 0.239196 19.8392C0.0860416 19.9923 0 20.2001 0 20.4167C0 20.6333 0.0860416 20.841 0.239196 20.9941C0.392351 21.1473 0.600073 21.2333 0.816667 21.2333H1.63333V24.5H0.816667C0.600073 24.5 0.392351 24.586 0.239196 24.7392C0.0860416 24.8923 0 25.1001 0 25.3167C0 25.5333 0.0860416 25.741 0.239196 25.8941C0.392351 26.0473 0.600073 26.1333 0.816667 26.1333H1.63333V29.4H0.816667C0.600073 29.4 0.392351 29.486 0.239196 29.6392C0.0860416 29.7924 0 30.0001 0 30.2167C0 30.4333 0.0860416 30.641 0.239196 30.7941C0.392351 30.9473 0.600073 31.0333 0.816667 31.0333H1.63333V34.3H0.816667C0.600073 34.3 0.392351 34.386 0.239196 34.5392C0.0860416 34.6923 0 34.9001 0 35.1167C0 35.3333 0.0860416 35.541 0.239196 35.6941C0.392351 35.8473 0.600073 35.9333 0.816667 35.9333H1.63333C1.36383 38.5075 3.03473 40.8064 5.71667 40.8333H8.98333V41.65H8.16667C7.95007 41.65 7.74235 41.736 7.5892 41.8892C7.43604 42.0424 7.35 42.2501 7.35 42.4667C7.35 42.6833 7.43604 42.891 7.5892 43.0441C7.74235 43.1973 7.95007 43.2833 8.16667 43.2833H8.98333V44.9167C8.98333 47.1682 10.8151 49 13.0667 49H40.0167C42.2682 49 44.1 47.1682 44.1 44.9167V12.25C44.1 9.99845 42.2682 8.16667 40.0167 8.16667ZM31.0333 2.7881L33.9619 5.71667H32.6667C31.7659 5.71667 31.0333 4.98412 31.0333 4.08333V2.7881ZM8.98333 12.25H8.16667C7.95007 12.25 7.74235 12.336 7.5892 12.4892C7.43604 12.6424 7.35 12.8501 7.35 13.0667C7.35 13.2833 7.43604 13.491 7.5892 13.6441C7.74235 13.7973 7.95007 13.8833 8.16667 13.8833H8.98333V17.15H8.16667C7.95007 17.15 7.74235 17.236 7.5892 17.3892C7.43604 17.5424 7.35 17.7501 7.35 17.9667C7.35 18.1833 7.43604 18.391 7.5892 18.5441C7.74235 18.6973 7.95007 18.7833 8.16667 18.7833H8.98333V22.05H8.16667C7.95007 22.05 7.74235 22.136 7.5892 22.2892C7.43604 22.4424 7.35 22.6501 7.35 22.8667C7.35 23.0833 7.43604 23.291 7.5892 23.4441C7.74235 23.5973 7.95007 23.6833 8.16667 23.6833H8.98333V26.95H8.16667C7.95007 26.95 7.74235 27.036 7.5892 27.1892C7.43604 27.3424 7.35 27.5501 7.35 27.7667C7.35 27.9833 7.43604 28.191 7.5892 28.3441C7.74235 28.4973 7.95007 28.5833 8.16667 28.5833H8.98333V31.85H8.16667C7.95007 31.85 7.74235 31.936 7.5892 32.0892C7.43604 32.2424 7.35 32.4501 7.35 32.6667C7.35 32.8833 7.43604 33.091 7.5892 33.2441C7.74235 33.3973 7.95007 33.4833 8.16667 33.4833H8.98333V36.75H8.16667C7.95007 36.75 7.74235 36.836 7.5892 36.9892C7.43604 37.1423 7.35 37.3501 7.35 37.5667C7.35 37.7833 7.43604 37.991 7.5892 38.1441C7.74235 38.2973 7.95007 38.3833 8.16667 38.3833H8.98333V39.2H5.71667C4.3659 39.2 3.26667 38.1008 3.26667 36.75V35.9333H4.08333C4.29993 35.9333 4.50765 35.8473 4.6608 35.6941C4.81396 35.541 4.9 35.3333 4.9 35.1167C4.9 34.9001 4.81396 34.6923 4.6608 34.5392C4.50765 34.386 4.29993 34.3 4.08333 34.3H3.26667V31.0333H4.08333C4.29993 31.0333 4.50765 30.9473 4.6608 30.7941C4.81396 30.641 4.9 30.4333 4.9 30.2167C4.9 30.0001 4.81396 29.7924 4.6608 29.6392C4.50765 29.486 4.29993 29.4 4.08333 29.4H3.26667V26.1333H4.08333C4.29993 26.1333 4.50765 26.0473 4.6608 25.8941C4.81396 25.741 4.9 25.5333 4.9 25.3167C4.9 25.1001 4.81396 24.8923 4.6608 24.7392C4.50765 24.586 4.29993 24.5 4.08333 24.5H3.26667V21.2333H4.08333C4.29993 21.2333 4.50765 21.1473 4.6608 20.9941C4.81396 20.841 4.9 20.6333 4.9 20.4167C4.9 20.2001 4.81396 19.9923 4.6608 19.8392C4.50765 19.686 4.29993 19.6 4.08333 19.6H3.26667V16.3333H4.08333C4.29993 16.3333 4.50765 16.2473 4.6608 16.0941C4.81396 15.941 4.9 15.7333 4.9 15.5167C4.9 15.3001 4.81396 15.0924 4.6608 14.9392C4.50765 14.786 4.29993 14.7 4.08333 14.7H3.26667V11.4333H4.08333C4.29993 11.4333 4.50765 11.3473 4.6608 11.1941C4.81396 11.041 4.9 10.8333 4.9 10.6167C4.9 10.4001 4.81396 10.1924 4.6608 10.0392C4.50765 9.88604 4.29993 9.8 4.08333 9.8H3.26667V6.53333H4.08333C4.29993 6.53333 4.50765 6.44729 4.6608 6.29414C4.81396 6.14098 4.9 5.93326 4.9 5.71667C4.9 5.50007 4.81396 5.29235 4.6608 5.1392C4.50765 4.98604 4.29993 4.9 4.08333 4.9H3.26667V4.08333C3.26667 2.73257 4.3659 1.63333 5.71667 1.63333H29.4V4.08333C29.4 5.8849 30.8651 7.35 32.6667 7.35H35.1167V8.16667H13.0667C10.8151 8.16667 8.98333 9.99845 8.98333 12.25ZM42.4667 44.9167C42.4667 46.2674 41.3674 47.3667 40.0167 47.3667H13.0667C11.7159 47.3667 10.6167 46.2674 10.6167 44.9167V43.2833H11.4333C11.6499 43.2833 11.8576 43.1973 12.0108 43.0441C12.164 42.891 12.25 42.6833 12.25 42.4667C12.25 42.2501 12.164 42.0424 12.0108 41.8892C11.8576 41.736 11.6499 41.65 11.4333 41.65H10.6167V38.3833H11.4333C11.6499 38.3833 11.8576 38.2973 12.0108 38.1441C12.164 37.991 12.25 37.7833 12.25 37.5667C12.25 37.3501 12.164 37.1423 12.0108 36.9892C11.8576 36.836 11.6499 36.75 11.4333 36.75H10.6167V33.4833H11.4333C11.6499 33.4833 11.8576 33.3973 12.0108 33.2441C12.164 33.091 12.25 32.8833 12.25 32.6667C12.25 32.4501 12.164 32.2424 12.0108 32.0892C11.8576 31.936 11.6499 31.85 11.4333 31.85H10.6167V28.5833H11.4333C11.6499 28.5833 11.8576 28.4973 12.0108 28.3441C12.164 28.191 12.25 27.9833 12.25 27.7667C12.25 27.5501 12.164 27.3424 12.0108 27.1892C11.8576 27.036 11.6499 26.95 11.4333 26.95H10.6167V23.6833H11.4333C11.6499 23.6833 11.8576 23.5973 12.0108 23.4441C12.164 23.291 12.25 23.0833 12.25 22.8667C12.25 22.6501 12.164 22.4424 12.0108 22.2892C11.8576 22.136 11.6499 22.05 11.4333 22.05H10.6167V18.7833H11.4333C11.6499 18.7833 11.8576 18.6973 12.0108 18.5441C12.164 18.391 12.25 18.1833 12.25 17.9667C12.25 17.7501 12.164 17.5424 12.0108 17.3892C11.8576 17.236 11.6499 17.15 11.4333 17.15H10.6167V13.8833H11.4333C11.6499 13.8833 11.8576 13.7973 12.0108 13.6441C12.164 13.491 12.25 13.2833 12.25 13.0667C12.25 12.8501 12.164 12.6424 12.0108 12.4892C11.8576 12.336 11.6499 12.25 11.4333 12.25H10.6167C10.6167 10.8992 11.7159 9.8 13.0667 9.8H40.0167C41.3674 9.8 42.4667 10.8992 42.4667 12.25V44.9167Z" fill="#FF4F00"/>
<path d="M35.9326 13.8833H17.1492C15.7985 13.8833 14.6992 14.9825 14.6992 16.3333V40.8333C14.6992 42.1841 15.7985 43.2833 17.1492 43.2833H35.9326C37.2833 43.2833 38.3826 42.1841 38.3826 40.8333V16.3333C38.3826 14.9825 37.2833 13.8833 35.9326 13.8833ZM36.7492 40.8333C36.7492 41.0499 36.6632 41.2576 36.51 41.4108C36.3569 41.5639 36.1491 41.65 35.9326 41.65H17.1492C16.9326 41.65 16.7249 41.5639 16.5717 41.4108C16.4186 41.2576 16.3326 41.0499 16.3326 40.8333V16.3333C16.3326 15.8833 16.6984 15.5166 17.1492 15.5166H35.9326C36.3834 15.5166 36.7492 15.8833 36.7492 16.3333V40.8333Z" fill="#FF4F00"/>
<path d="M35.02 22.5008C34.9522 22.3674 34.8493 22.2549 34.7224 22.1755C34.5955 22.0961 34.4494 22.0527 34.2997 22.05H30.2164C29.1449 22.0672 29.1417 23.6654 30.2164 23.6834H32.4663L27.0069 29.7487L25.1531 27.2767C25.0254 27.1057 24.8356 26.9916 24.6247 26.9591C24.4138 26.9265 24.1985 26.9781 24.0252 27.1027L18.3086 31.1861C17.4454 31.8231 18.3755 33.1248 19.2575 32.514L24.325 28.8953L26.2964 31.5234C26.3687 31.6198 26.4615 31.6991 26.5681 31.7554C26.6748 31.8117 26.7925 31.8438 26.913 31.8492C27.0338 31.8577 27.155 31.8377 27.2667 31.7909C27.3785 31.7441 27.4777 31.6718 27.5565 31.5797L33.4831 24.9949V26.95C33.5002 28.0223 35.0984 28.0239 35.1164 26.95C35.0796 26.7728 35.2136 22.5237 35.02 22.5008ZM21.2331 18.7834H32.6664C33.7362 18.767 33.7428 17.168 32.6664 17.15H21.2331C20.1632 17.1664 20.1567 18.7654 21.2331 18.7834ZM34.2997 37.5667H28.5831C27.5108 37.5838 27.5083 39.1821 28.5831 39.2H34.2997C35.372 39.1829 35.3745 37.5847 34.2997 37.5667ZM34.2997 34.3H31.0331C29.9608 34.3172 29.9591 35.9154 31.0331 35.9334H34.2997C35.372 35.9162 35.3736 34.318 34.2997 34.3Z" fill="#FF4F00"/>
</svg>
