<svg width="55" height="54" viewBox="0 0 55 54" fill="none" xmlns="http://www.w3.org/2000/svg">
<path d="M50.5645 7.09678H46.0456L47.269 5.23387C47.476 5.28924 47.689 5.31903 47.9032 5.32258C48.4296 5.32258 48.9441 5.1665 49.3818 4.87407C49.8194 4.58165 50.1605 4.16601 50.3619 3.67972C50.5634 3.19344 50.6161 2.65834 50.5134 2.1421C50.4107 1.62586 50.1572 1.15166 49.785 0.779475C49.4129 0.407287 48.9387 0.153824 48.4224 0.0511371C47.9062 -0.0515493 47.3711 0.0011531 46.8848 0.20258C46.3985 0.404007 45.9829 0.745111 45.6904 1.18276C45.398 1.6204 45.2419 2.13494 45.2419 2.66129C45.2442 3.23919 45.4365 3.8003 45.7893 4.25807L43.9264 7.09678H4.43548C3.25955 7.09818 2.13219 7.56594 1.30068 8.39745C0.469169 9.22896 0.00140858 10.3563 0 11.5323V39.9194C0.00140858 41.0953 0.469169 42.2226 1.30068 43.0542C2.13219 43.8857 3.25955 44.3534 4.43548 44.3548H22.1774V47.9032H19.5161C18.8103 47.9032 18.1334 48.1836 17.6343 48.6827C17.1352 49.1818 16.8548 49.8587 16.8548 50.5645C16.8548 51.2703 17.1352 51.9472 17.6343 52.4463C18.1334 52.9454 18.8103 53.2258 19.5161 53.2258H35.4839C36.1897 53.2258 36.8666 52.9454 37.3657 52.4463C37.8648 51.9472 38.1452 51.2703 38.1452 50.5645C38.1452 49.8587 37.8648 49.1818 37.3657 48.6827C36.8666 48.1836 36.1897 47.9032 35.4839 47.9032H32.8226V44.3548H50.5645C51.7404 44.3534 52.8678 43.8857 53.6993 43.0542C54.5308 42.2226 54.9986 41.0953 55 39.9194V11.5323C54.9986 10.3563 54.5308 9.22896 53.6993 8.39745C52.8678 7.56594 51.7404 7.09818 50.5645 7.09678ZM47.9032 1.77419C48.0787 1.77419 48.2502 1.82622 48.3961 1.9237C48.542 2.02117 48.6557 2.15972 48.7228 2.32181C48.7899 2.48391 48.8075 2.66228 48.7733 2.83436C48.739 3.00644 48.6546 3.1645 48.5305 3.28856C48.4064 3.41263 48.2484 3.49711 48.0763 3.53134C47.9042 3.56557 47.7258 3.548 47.5637 3.48086C47.4017 3.41372 47.2631 3.30002 47.1656 3.15414C47.0682 3.00825 47.0161 2.83674 47.0161 2.66129C47.0161 2.42602 47.1096 2.20038 47.276 2.03402C47.4423 1.86766 47.668 1.77419 47.9032 1.77419ZM40.4188 12.4194L35.7314 19.541C35.6489 19.533 35.5726 19.5161 35.4839 19.5161C35.1114 19.5168 34.7432 19.5961 34.4035 19.749C34.0638 19.9019 33.7603 20.1248 33.5127 20.4032L23.0512 16.099C23.0512 16.0547 23.0645 16.0103 23.0645 15.9677C23.0645 15.2619 22.7841 14.585 22.285 14.0859C21.786 13.5868 21.109 13.3065 20.4032 13.3065C19.6974 13.3065 19.0205 13.5868 18.5214 14.0859C18.0223 14.585 17.7419 15.2619 17.7419 15.9677C17.7441 16.1868 17.7739 16.4046 17.8306 16.6162L8.68379 22.715C8.22744 22.3678 7.67021 22.179 7.09677 22.1774C6.57042 22.1774 6.05589 22.3335 5.61824 22.6259C5.18059 22.9184 4.83949 23.334 4.63806 23.8203C4.43664 24.3066 4.38393 24.8417 4.48662 25.3579C4.58931 25.8741 4.84277 26.3483 5.21496 26.7205C5.58715 27.0927 6.06134 27.3462 6.57758 27.4489C7.09382 27.5516 7.62892 27.4988 8.11521 27.2974C8.60149 27.096 9.01713 26.7549 9.30956 26.3172C9.60198 25.8796 9.75806 25.3651 9.75806 24.8387C9.75587 24.6197 9.72606 24.4018 9.66935 24.1902L18.8171 18.0915C19.3449 18.4937 20.0057 18.6808 20.6661 18.6149C21.3264 18.549 21.9372 18.2352 22.3752 17.7366L32.8368 22.0435C32.8368 22.0878 32.8235 22.1322 32.8235 22.1748C32.8229 22.6129 32.9306 23.0444 33.1368 23.4309C33.3431 23.8174 33.6416 24.147 34.0059 24.3905C34.3701 24.634 34.7888 24.7838 35.2249 24.8265C35.6609 24.8693 36.1007 24.8038 36.5054 24.6358C36.91 24.4678 37.2669 24.2024 37.5443 23.8634C37.8218 23.5243 38.0113 23.122 38.0959 22.6921C38.1805 22.2623 38.1578 21.8181 38.0295 21.3992C37.9013 20.9803 37.6717 20.5994 37.361 20.2906L42.5425 12.4194H53.2258V37.2581H1.77419V12.4194H40.4188ZM36.371 22.1774C36.371 22.3529 36.3189 22.5244 36.2215 22.6703C36.124 22.8161 35.9854 22.9298 35.8233 22.997C35.6613 23.0641 35.4829 23.0817 35.3108 23.0475C35.1387 23.0132 34.9807 22.9288 34.8566 22.8047C34.7325 22.6806 34.648 22.5226 34.6138 22.3505C34.5796 22.1784 34.5972 22 34.6643 21.8379C34.7314 21.6758 34.8451 21.5373 34.991 21.4398C35.1369 21.3424 35.3084 21.2903 35.4839 21.2903C35.7191 21.2903 35.9448 21.3838 36.1111 21.5501C36.2775 21.7165 36.371 21.9421 36.371 22.1774ZM21.2903 15.9677C21.2903 16.1432 21.2383 16.3147 21.1408 16.4606C21.0433 16.6065 20.9048 16.7202 20.7427 16.7873C20.5806 16.8545 20.4022 16.872 20.2302 16.8378C20.0581 16.8036 19.9 16.7191 19.776 16.595C19.6519 16.471 19.5674 16.3129 19.5332 16.1408C19.4989 15.9687 19.5165 15.7904 19.5837 15.6283C19.6508 15.4662 19.7645 15.3276 19.9104 15.2301C20.0563 15.1327 20.2278 15.0806 20.4032 15.0806C20.6385 15.0806 20.8641 15.1741 21.0305 15.3405C21.1969 15.5068 21.2903 15.7325 21.2903 15.9677ZM7.98387 24.8387C7.98387 25.0142 7.93184 25.1857 7.83437 25.3316C7.73689 25.4774 7.59835 25.5911 7.43625 25.6583C7.27416 25.7254 7.09579 25.743 6.92371 25.7088C6.75163 25.6745 6.59356 25.59 6.4695 25.466C6.34544 25.3419 6.26095 25.1839 6.22672 25.0118C6.19249 24.8397 6.21006 24.6613 6.2772 24.4992C6.34435 24.3371 6.45805 24.1986 6.60393 24.1011C6.74981 24.0036 6.92132 23.9516 7.09677 23.9516C7.33205 23.9516 7.55768 24.0451 7.72405 24.2114C7.89041 24.3778 7.98387 24.6034 7.98387 24.8387ZM50.5645 8.87097C51.113 8.87324 51.6473 9.04491 52.0945 9.3625C52.5416 9.68008 52.8798 10.1281 53.0626 10.6452H43.7099L44.8782 8.87097H50.5645ZM4.43548 8.87097H42.7581L41.5871 10.6452H1.93742C2.12024 10.1281 2.45835 9.68008 2.90551 9.3625C3.35267 9.04491 3.88703 8.87324 4.43548 8.87097ZM36.371 50.5645C36.371 50.7998 36.2775 51.0254 36.1111 51.1918C35.9448 51.3582 35.7191 51.4516 35.4839 51.4516H19.5161C19.2809 51.4516 19.0552 51.3582 18.8889 51.1918C18.7225 51.0254 18.629 50.7998 18.629 50.5645C18.629 50.3292 18.7225 50.1036 18.8889 49.9372C19.0552 49.7709 19.2809 49.6774 19.5161 49.6774H35.4839C35.7191 49.6774 35.9448 49.7709 36.1111 49.9372C36.2775 50.1036 36.371 50.3292 36.371 50.5645ZM31.0484 47.9032H23.9516V44.3548H31.0484V47.9032ZM50.5645 42.5806H4.43548C3.72967 42.5806 3.05276 42.3003 2.55367 41.8012C2.05458 41.3021 1.77419 40.6252 1.77419 39.9194V39.0323H53.2258V39.9194C53.2258 40.6252 52.9454 41.3021 52.4463 41.8012C51.9472 42.3003 51.2703 42.5806 50.5645 42.5806Z" fill="#FF5000"/>
<path d="M13.3062 33.7097H9.75781V35.4839H13.3062V33.7097Z" fill="#FF5000"/>
<path d="M13.3062 30.1613H9.75781V31.9354H13.3062V30.1613Z" fill="#FF5000"/>
<path d="M18.6285 33.7097H15.0801V35.4839H18.6285V33.7097Z" fill="#FF5000"/>
<path d="M18.6285 30.1613H15.0801V31.9354H18.6285V30.1613Z" fill="#FF5000"/>
<path d="M18.6285 26.6129H15.0801V28.3871H18.6285V26.6129Z" fill="#FF5000"/>
<path d="M18.6285 23.0646H15.0801V24.8388H18.6285V23.0646Z" fill="#FF5000"/>
<path d="M7.98393 33.7097H4.43555V35.4839H7.98393V33.7097Z" fill="#FF5000"/>
<path d="M23.9507 33.7097H20.4023V35.4839H23.9507V33.7097Z" fill="#FF5000"/>
<path d="M23.9507 30.1613H20.4023V31.9354H23.9507V30.1613Z" fill="#FF5000"/>
<path d="M23.9507 26.6129H20.4023V28.3871H23.9507V26.6129Z" fill="#FF5000"/>
<path d="M29.2749 33.7097H25.7266V35.4839H29.2749V33.7097Z" fill="#FF5000"/>
<path d="M29.2749 30.1613H25.7266V31.9354H29.2749V30.1613Z" fill="#FF5000"/>
<path d="M34.5972 33.7097H31.0488V35.4839H34.5972V33.7097Z" fill="#FF5000"/>
<path d="M34.5972 30.1613H31.0488V31.9354H34.5972V30.1613Z" fill="#FF5000"/>
<path d="M39.9195 33.7097H36.3711V35.4839H39.9195V33.7097Z" fill="#FF5000"/>
<path d="M39.9195 30.1613H36.3711V31.9354H39.9195V30.1613Z" fill="#FF5000"/>
<path d="M34.5972 26.6129H31.0488V28.3871H34.5972V26.6129Z" fill="#FF5000"/>
<path d="M45.2417 33.7097H41.6934V35.4839H45.2417V33.7097Z" fill="#FF5000"/>
<path d="M45.2417 30.1613H41.6934V31.9354H45.2417V30.1613Z" fill="#FF5000"/>
<path d="M45.2417 26.6129H41.6934V28.3871H45.2417V26.6129Z" fill="#FF5000"/>
<path d="M45.2417 23.0646H41.6934V24.8388H45.2417V23.0646Z" fill="#FF5000"/>
<path d="M50.564 33.7097H47.0156V35.4839H50.564V33.7097Z" fill="#FF5000"/>
<path d="M50.564 30.1613H47.0156V31.9354H50.564V30.1613Z" fill="#FF5000"/>
<path d="M50.564 26.6129H47.0156V28.3871H50.564V26.6129Z" fill="#FF5000"/>
<path d="M50.564 23.0646H47.0156V24.8388H50.564V23.0646Z" fill="#FF5000"/>
<path d="M45.2417 19.5161H41.6934V21.2903H45.2417V19.5161Z" fill="#FF5000"/>
<path d="M50.564 19.5161H47.0156V21.2903H50.564V19.5161Z" fill="#FF5000"/>
<path d="M50.564 15.9678H47.0156V17.742H50.564V15.9678Z" fill="#FF5000"/>
</svg>
