<svg width="43" height="43" viewBox="0 0 43 43" fill="none" xmlns="http://www.w3.org/2000/svg">
<path d="M43 4.61914H42.1602V0.839844H0.839844V4.61914H0V0.419922C0 0.184766 0.184766 0 0.419922 0H42.5801C42.8152 0 43 0.184766 43 0.419922V4.61914Z" fill="#FF4F00"/>
<path d="M38.7756 43C38.6664 43 38.5572 42.958 38.4816 42.874L28.3867 32.7791L25.8084 39.0107C25.7412 39.1703 25.5816 39.2795 25.4053 39.2711C25.2289 39.2627 25.0777 39.1535 25.0189 38.9855L22.6254 31.7965L23.4232 31.5277L25.4641 37.6502L27.8576 31.8721C27.908 31.7461 28.0256 31.6453 28.16 31.6201C28.2943 31.5949 28.4371 31.6369 28.5379 31.7377L38.784 41.9838L41.9922 38.7756L31.7461 28.5295C31.6453 28.4287 31.6033 28.2859 31.6285 28.1516C31.6537 28.0172 31.7461 27.8996 31.8805 27.8492L37.6586 25.4557L19.3668 19.3584L22.8605 29.848C22.9025 29.974 22.8857 30.1168 22.8018 30.226C22.7178 30.3352 22.6002 30.4023 22.4574 30.4023H0.419922C0.184766 30.4023 0 30.2176 0 29.9824V4.61914C0 4.38398 0.184766 4.19922 0.419922 4.19922H3.32578L4.05645 2.35996C4.12363 2.20039 4.2832 2.09961 4.45117 2.09961H15.2852C15.4531 2.09961 15.6127 2.20039 15.6715 2.35996L16.4021 4.19922H42.5801C42.8152 4.19922 43 4.38398 43 4.61914V29.9824C43 30.2176 42.8152 30.4023 42.5801 30.4023H34.7947L42.874 38.4816C43.042 38.6496 43.042 38.91 42.874 39.0779L39.0695 42.8824C38.9939 42.958 38.8848 43 38.7756 43ZM0.839844 29.5625H21.8779L18.3002 18.8293C18.2498 18.6781 18.2918 18.5102 18.401 18.401C18.5102 18.2918 18.6781 18.2498 18.8293 18.3002L38.9855 25.0189C39.1535 25.0777 39.2627 25.2289 39.2711 25.4053C39.2795 25.5816 39.1703 25.7412 39.0107 25.8084L32.7791 28.3867L33.9549 29.5625H42.1602V5.03906H16.125C15.957 5.03906 15.7975 4.93828 15.7387 4.77871L14.9996 2.93945H4.73672L4.00605 4.77871C3.93887 4.93828 3.7793 5.03906 3.61133 5.03906H0.839844V29.5625Z" fill="#FF4F00"/>
<path d="M40.9004 2.09961H40.0605V2.93945H40.9004V2.09961Z" fill="#FF4F00"/>
<path d="M38.3809 2.09961H37.541V2.93945H38.3809V2.09961Z" fill="#FF4F00"/>
<path d="M35.8613 2.09961H35.0215V2.93945H35.8613V2.09961Z" fill="#FF4F00"/>
<path d="M20.7441 25.2793H8.48242C8.24727 25.2793 8.0625 25.0945 8.0625 24.8594V9.74219C8.0625 9.50703 8.24727 9.32227 8.48242 9.32227H34.4336C34.6688 9.32227 34.8535 9.50703 34.8535 9.74219V22.2559H34.0137V10.1621H8.90234V24.4395H20.7441V25.2793Z" fill="#FF4F00"/>
<path d="M20.0723 23.2637H12.69C12.4549 23.2637 12.2701 23.0789 12.2701 22.8438C12.2701 21.8779 11.5395 21.2061 10.498 21.2061C10.2629 21.2061 10.0781 21.0213 10.0781 20.7861V13.8154C10.0781 13.5803 10.2629 13.3955 10.498 13.3955C11.5395 13.3955 12.2701 12.7236 12.2701 11.7578C12.2701 11.5227 12.4549 11.3379 12.69 11.3379H30.3939C30.6291 11.3379 30.8139 11.5227 30.8139 11.7578C30.8139 12.7236 31.4773 13.3955 32.418 13.3955C32.6531 13.3955 32.8379 13.5803 32.8379 13.8154V20.7861C32.8379 21.0213 32.6531 21.2061 32.418 21.2061C31.5445 21.2061 30.9062 21.7855 30.8223 22.6422L29.9824 22.5582C30.1 21.4076 30.8979 20.5678 31.998 20.3998V14.2018C30.9398 14.0338 30.1588 13.2695 29.9992 12.1777H13.0764C12.9084 13.2695 12.0686 14.0506 10.918 14.2102V20.3998C12.0686 20.551 12.9084 21.3404 13.0764 22.4322H20.0723V23.2637Z" fill="#FF4F00"/>
<path d="M22.583 20.3409L22.3059 19.5515C23.2549 19.2155 23.8932 18.3085 23.8932 17.3007C23.8932 15.9905 22.8266 14.9155 21.508 14.9155C20.1979 14.9155 19.1229 15.9821 19.1229 17.3007C19.1229 17.7794 19.2656 18.2413 19.526 18.636L18.8289 19.1063C18.4678 18.5772 18.2746 17.9474 18.2746 17.3007C18.2746 15.5202 19.7191 14.0757 21.4996 14.0757C23.2801 14.0757 24.7246 15.5202 24.7246 17.3007C24.733 18.6696 23.868 19.8874 22.583 20.3409ZM14.8145 19.0224C13.8654 19.0224 13.0928 18.2497 13.0928 17.3007C13.0928 16.3517 13.8654 15.579 14.8145 15.579C15.7635 15.579 16.5361 16.3517 16.5361 17.3007C16.5361 18.2497 15.7551 19.0224 14.8145 19.0224ZM14.8145 16.4188C14.3273 16.4188 13.9326 16.8136 13.9326 17.3007C13.9326 17.7878 14.3273 18.1825 14.8145 18.1825C15.3016 18.1825 15.6963 17.7878 15.6963 17.3007C15.6963 16.8136 15.2932 16.4188 14.8145 16.4188ZM28.2016 19.0224C27.2525 19.0224 26.4799 18.2497 26.4799 17.3007C26.4799 16.3517 27.2525 15.579 28.2016 15.579C29.1506 15.579 29.9232 16.3517 29.9232 17.3007C29.9232 18.2497 29.1506 19.0224 28.2016 19.0224ZM28.2016 16.4188C27.7145 16.4188 27.3197 16.8136 27.3197 17.3007C27.3197 17.7878 27.7145 18.1825 28.2016 18.1825C28.6887 18.1825 29.0834 17.7878 29.0834 17.3007C29.0834 16.8136 28.6887 16.4188 28.2016 16.4188Z" fill="#FF4F00"/>
</svg>
