<svg width="45" height="41" viewBox="0 0 45 41" fill="none" xmlns="http://www.w3.org/2000/svg">
<path d="M44.985 26.8875C44.985 26.8875 44.9775 26.835 44.97 26.805C44.9625 26.7525 44.94 26.7075 44.9175 26.6625C44.9175 26.6475 44.91 26.64 44.9025 26.625L44.8725 26.58L38.9025 16.125C38.7675 15.8925 38.52 15.75 38.25 15.75H30V9.75C30 8.5125 28.9875 7.5 27.75 7.5H25.5C25.0875 7.5 24.75 7.8375 24.75 8.25C24.75 8.6625 25.0875 9 25.5 9H27.75C28.1625 9 28.5 9.3375 28.5 9.75V31.5H11.9175C10.9725 30.57 9.675 30 8.25 30C6.825 30 5.5275 30.57 4.5825 31.5H1.5V9.75C1.5 9.3375 1.8375 9 2.25 9H4.5C4.9125 9 5.25 8.6625 5.25 8.25C5.25 7.8375 4.9125 7.5 4.5 7.5H2.25C1.0125 7.5 0 8.5125 0 9.75V33.75C0 34.9875 1.0125 36 2.25 36H3.06C3.42 38.5425 5.61 40.5 8.25 40.5C10.89 40.5 13.08 38.5425 13.44 36H31.56C31.92 38.5425 34.11 40.5 36.75 40.5C39.39 40.5 41.58 38.5425 41.94 36H42.75C43.9875 36 45 34.9875 45 33.75V27C45 27 45 26.925 44.985 26.8875ZM8.25 37.5C7.0125 37.5 6 36.4875 6 35.25C6 34.0125 7.0125 33 8.25 33C9.4875 33 10.5 34.0125 10.5 35.25C10.5 36.4875 9.4875 37.5 8.25 37.5ZM36.75 37.5C35.5125 37.5 34.5 36.4875 34.5 35.25C34.5 34.0125 35.5125 33 36.75 33C37.9875 33 39 34.0125 39 35.25C39 36.4875 37.9875 37.5 36.75 37.5ZM43.5 33.75C43.5 34.1625 43.1625 34.5 42.75 34.5H41.94C41.58 31.9575 39.39 30 36.75 30C34.11 30 31.92 31.9575 31.56 34.5H30V17.25H37.815L39.0975 19.5H33.75C33.3375 19.5 33 19.8375 33 20.25V27C33 27.4125 33.3375 27.75 33.75 27.75H43.5V33.75Z" fill="#FF4F00"/>
<path d="M18 26.25H19.5C19.9125 26.25 20.25 25.9125 20.25 25.5C20.25 25.0875 19.9125 24.75 19.5 24.75H18C17.5875 24.75 17.25 25.0875 17.25 25.5C17.25 25.9125 17.5875 26.25 18 26.25ZM25.5 24.75H22.5C22.0875 24.75 21.75 25.0875 21.75 25.5C21.75 25.9125 22.0875 26.25 22.5 26.25H25.5C25.9125 26.25 26.25 25.9125 26.25 25.5C26.25 25.0875 25.9125 24.75 25.5 24.75ZM18 29.25H25.5C25.9125 29.25 26.25 28.9125 26.25 28.5C26.25 28.0875 25.9125 27.75 25.5 27.75H18C17.5875 27.75 17.25 28.0875 17.25 28.5C17.25 28.9125 17.5875 29.25 18 29.25ZM15 16.5C19.5525 16.5 23.25 12.8025 23.25 8.25C23.25 3.6975 19.5525 0 15 0C10.4475 0 6.75 3.6975 6.75 8.25C6.75 12.8025 10.4475 16.5 15 16.5ZM14.25 3.75C14.25 3.3375 14.5875 3 15 3C15.4125 3 15.75 3.3375 15.75 3.75V7.785L18.3375 9.0825C18.705 9.2625 18.855 9.7125 18.6675 10.0875C18.54 10.35 18.2775 10.5 18 10.5C17.8875 10.5 17.775 10.4775 17.6625 10.4175L14.6625 8.9175C14.4075 8.7975 14.25 8.535 14.25 8.25V3.75Z" fill="#FF4F00"/>
</svg>
