<svg width="54" height="52" viewBox="0 0 54 52" fill="none" xmlns="http://www.w3.org/2000/svg">
<path d="M4.15492 49.5458H1.00087C0.681255 49.5458 0.412109 49.2851 0.412109 48.9655V39.5959C0.412109 39.2762 0.672844 39.0155 1.00087 39.0155H4.15492C4.47453 39.0155 4.73526 39.2762 4.73526 39.5959V48.9571C4.73526 49.2851 4.47453 49.5458 4.15492 49.5458ZM1.24478 48.7132H3.911V39.8398H1.24478V48.7132Z" fill="#FF4F00"/>
<path d="M16.8643 49.546H13.7102C13.3906 49.546 13.1299 49.2852 13.1299 48.9656V40.7987C13.1299 40.4791 13.3906 40.2184 13.7102 40.2184H16.8643C17.1839 40.2184 17.4446 40.4791 17.4446 40.7987V48.9656C17.453 49.2852 17.1923 49.546 16.8643 49.546ZM13.9541 48.7133H16.6204V41.0342H13.9541V48.7133Z" fill="#FF4F00"/>
<path d="M29.5049 49.5458H26.3509C26.0312 49.5458 25.7705 49.2851 25.7705 48.9655V33.3718C25.7705 33.0522 26.0312 32.7915 26.3509 32.7915H29.5049C29.8245 32.7915 30.0852 33.0522 30.0852 33.3718V48.9571C30.0852 49.2851 29.8245 49.5458 29.5049 49.5458ZM26.5948 48.7131H29.261V33.6158H26.5948V48.7131Z" fill="#FF4F00"/>
<path d="M10.5225 49.5459H7.36843C7.04882 49.5459 6.78809 49.2851 6.78809 48.9655V32.985C6.78809 32.6654 7.04882 32.4047 7.36843 32.4047H10.5225C10.8421 32.4047 11.1028 32.6654 11.1028 32.985V48.9571C11.1112 49.2851 10.8421 49.5459 10.5225 49.5459ZM7.61234 48.7132H10.2786V33.2289H7.61234V48.7132Z" fill="#FF4F00"/>
<path d="M23.0791 49.546H19.9251C19.6055 49.546 19.3447 49.2852 19.3447 48.9656V35.8616C19.3447 35.542 19.6055 35.2812 19.9251 35.2812H23.0791C23.3987 35.2812 23.6595 35.542 23.6595 35.8616V48.9572C23.6679 49.2852 23.3987 49.546 23.0791 49.546ZM20.169 48.7133H22.8352V36.1055H20.169V48.7133Z" fill="#FF4F00"/>
<path d="M29.6733 51.8H0.412129C0.185038 51.8 0 51.6149 0 51.3794C0 51.1439 0.185038 50.9673 0.412129 50.9673H29.6733C29.9004 50.9673 30.0854 51.1523 30.0854 51.3794C30.0854 51.6065 29.9004 51.8 29.6733 51.8Z" fill="#FF4F00"/>
<path d="M27.2929 29.8815C23.2978 29.8815 19.5466 28.3255 16.7289 25.5079C10.9003 19.6792 10.9003 10.2002 16.7289 4.37151C22.5576 -1.45717 32.0366 -1.45717 37.8653 4.37151C40.6913 7.19754 42.2389 10.9488 42.2389 14.9439C42.2389 18.939 40.6829 22.6902 37.8653 25.5079C35.0392 28.3255 31.2796 29.8815 27.2929 29.8815ZM27.2929 0.822156C23.6763 0.822156 20.0596 2.20153 17.3093 4.95186C11.8086 10.4525 11.8086 19.41 17.3093 24.9191C19.9755 27.5853 23.5249 29.0572 27.2929 29.0572C31.0609 29.0572 34.6103 27.5853 37.2765 24.9191C39.9427 22.2529 41.4146 18.7035 41.4146 14.9355C41.4146 11.1674 39.9427 7.61808 37.2765 4.95186C34.5178 2.19312 30.9095 0.822156 27.2929 0.822156Z" fill="#FF4F00"/>
<path d="M50.0443 41.4715C50.0023 41.4715 49.9686 41.4715 49.9266 41.4715C48.8752 41.4379 47.908 40.9921 47.2015 40.2015L38.572 30.5038C38.1094 29.9824 38.1346 29.1917 38.6224 28.7039L41.0532 26.2732C41.541 25.7854 42.3316 25.7601 42.8531 26.2227L52.5507 34.8522C53.3413 35.5503 53.7871 36.5176 53.8208 37.5773C53.8544 38.6287 53.4591 39.6211 52.7105 40.3697C52.004 41.0762 51.0536 41.4715 50.0443 41.4715ZM41.9868 26.7106C41.8606 26.7106 41.7344 26.761 41.6419 26.8535L39.2112 29.2843C39.0262 29.4693 39.0177 29.7553 39.1944 29.9487L47.8239 39.6464C48.3706 40.2604 49.1275 40.6136 49.9518 40.6388C50.8013 40.6725 51.5498 40.3529 52.1386 39.7725C52.7189 39.1922 53.0301 38.4184 53.0049 37.5857C52.9797 36.7615 52.6264 36.0045 52.0124 35.4578L42.3064 26.8367C42.2139 26.7526 42.0961 26.7106 41.9868 26.7106Z" fill="#FF4F00"/>
<path d="M39.1517 29.1833C39.0423 29.1833 38.9414 29.1413 38.8573 29.0656L36.2331 26.4414C36.0733 26.2816 36.0733 26.0209 36.2331 25.8526C36.3929 25.6928 36.6537 25.6928 36.8219 25.8526L39.4461 28.4768C39.6059 28.6366 39.6059 28.8974 39.4461 29.0656C39.362 29.1413 39.2526 29.1833 39.1517 29.1833Z" fill="#FF4F00"/>
<path d="M41.1282 27.2069C41.0189 27.2069 40.918 27.1648 40.8339 27.0891L38.2097 24.465C38.0499 24.3052 38.0499 24.0444 38.2097 23.8762C38.3695 23.7164 38.6302 23.7164 38.7985 23.8762L41.4226 26.5004C41.5824 26.6602 41.5824 26.9209 41.4226 27.0891C41.3385 27.1648 41.2292 27.2069 41.1282 27.2069Z" fill="#FF4F00"/>
<path d="M40.8683 32.8673C40.759 32.8673 40.6581 32.8253 40.574 32.7496C40.4142 32.5898 40.4142 32.3291 40.574 32.1608L44.5186 28.2162C44.6784 28.0564 44.9392 28.0564 45.1074 28.2162C45.2672 28.376 45.2672 28.6367 45.1074 28.8049L41.1627 32.7496C41.0786 32.8253 40.9693 32.8673 40.8683 32.8673Z" fill="#FF4F00"/>
<path d="M27.2934 27.0723C20.6068 27.0723 15.165 21.6305 15.165 14.9439C15.165 8.24889 20.6068 2.79028 27.2934 2.79028C28.7064 2.79028 30.0942 3.0342 31.4063 3.52202C33.5847 4.29582 35.4687 5.66678 36.8649 7.49192C38.5302 9.62826 39.4134 12.202 39.4134 14.9355C39.4134 17.669 38.5302 20.2427 36.8565 22.379C35.4351 24.2126 33.5426 25.5836 31.3895 26.3237C30.0942 26.8199 28.7064 27.0723 27.2934 27.0723ZM27.2934 3.62295C21.061 3.62295 15.9977 8.70307 15.9977 14.9439C15.9977 21.1763 21.0694 26.2396 27.2934 26.2396C28.6139 26.2396 29.9008 26.0125 31.1203 25.5583C33.1305 24.8602 34.88 23.5902 36.2089 21.8828C37.7649 19.8894 38.5891 17.4924 38.5891 14.9439C38.5891 12.3954 37.7649 9.99834 36.2089 8.00498C34.9136 6.306 33.1557 5.02756 31.1203 4.30423C29.9008 3.85004 28.6055 3.62295 27.2934 3.62295Z" fill="#FF4F00"/>
<path d="M27.1585 17.341C24.6352 17.341 22.583 15.2888 22.583 12.7655C22.583 10.2423 24.6352 8.19006 27.1585 8.19006C29.6817 8.19006 31.734 10.2423 31.734 12.7655C31.734 15.2888 29.6817 17.341 27.1585 17.341ZM27.1585 9.01432C25.0894 9.01432 23.4073 10.6965 23.4073 12.7655C23.4073 14.8346 25.0894 16.5168 27.1585 16.5168C29.2275 16.5168 30.9097 14.8346 30.9097 12.7655C30.9097 10.6965 29.2275 9.01432 27.1585 9.01432Z" fill="#FF4F00"/>
<path d="M34.5601 24.5491C34.5433 24.5491 34.5348 24.5491 34.518 24.5491C34.2909 24.5239 34.1227 24.322 34.1479 24.0949C34.1564 24.0024 34.1564 23.9099 34.1564 23.8258C34.1564 20.5876 31.8602 17.7195 28.6977 17.0046C28.4707 16.9541 28.3361 16.7355 28.3865 16.5084C28.437 16.2897 28.6557 16.1467 28.8828 16.1972C32.4237 16.9962 34.989 20.2007 34.989 23.8258C34.989 23.9351 34.989 24.0529 34.9806 24.179C34.9554 24.3893 34.7703 24.5491 34.5601 24.5491Z" fill="#FF4F00"/>
<path d="M19.7403 24.2631C19.5132 24.2631 19.3281 24.1117 19.3281 23.8846V23.8173C19.3281 20.1334 21.843 16.9962 25.4428 16.1887C25.6699 16.1383 25.8886 16.2813 25.939 16.4999C25.9895 16.727 25.8465 16.9457 25.6278 16.9962C22.4065 17.7195 20.1608 20.5203 20.1608 23.8173C20.1524 24.0528 19.9673 24.2631 19.7403 24.2631Z" fill="#FF4F00"/>
</svg>
