<svg width="62" height="49" viewBox="0 0 62 49" fill="none" xmlns="http://www.w3.org/2000/svg">
<path d="M14.0001 48.0004C15.5914 48.0004 17.1175 47.3682 18.2428 46.243C19.368 45.1178 20.0001 43.5916 20.0001 42.0003H41.0003V33.0002H1V42.0003H8.00005C8.00005 43.5916 8.6322 45.1178 9.75743 46.243C10.8827 47.3682 12.4088 48.0004 14.0001 48.0004ZM14.0001 40.0003C14.3957 40.0003 14.7823 40.1176 15.1112 40.3374C15.4401 40.5571 15.6965 40.8695 15.8479 41.2349C15.9992 41.6004 16.0389 42.0025 15.9617 42.3905C15.8845 42.7785 15.694 43.1348 15.4143 43.4145C15.1346 43.6942 14.7782 43.8847 14.3903 43.9619C14.0023 44.0391 13.6002 43.9995 13.2347 43.8481C12.8693 43.6967 12.5569 43.4404 12.3371 43.1115C12.1174 42.7826 12.0001 42.3959 12.0001 42.0003C12.0001 41.4699 12.2108 40.9612 12.5859 40.5861C12.961 40.211 13.4697 40.0003 14.0001 40.0003ZM56.0004 42.0003C56.0004 40.8136 55.6485 39.6536 54.9892 38.6669C54.3299 37.6802 53.3929 36.9111 52.2965 36.457C51.2001 36.0029 49.9937 35.884 48.8298 36.1156C47.6659 36.3471 46.5968 36.9185 45.7577 37.7576C44.9186 38.5968 44.3471 39.6659 44.1156 40.8298C43.8841 41.9937 44.0029 43.2001 44.4571 44.2964C44.9112 45.3928 45.6802 46.3299 46.6669 46.9892C47.6536 47.6485 48.8137 48.0004 50.0004 48.0004C51.5917 48.0004 53.1178 47.3682 54.243 46.243C55.3683 45.1178 56.0004 43.5916 56.0004 42.0003ZM48.0004 42.0003C48.0004 41.6047 48.1177 41.2181 48.3374 40.8892C48.5572 40.5603 48.8695 40.3039 49.235 40.1525C49.6005 40.0012 50.0026 39.9616 50.3906 40.0387C50.7785 40.1159 51.1349 40.3064 51.4146 40.5861C51.6943 40.8658 51.8848 41.2222 51.962 41.6101C52.0391 41.9981 51.9995 42.4002 51.8481 42.7657C51.6968 43.1311 51.4404 43.4435 51.1115 43.6633C50.7826 43.883 50.3959 44.0003 50.0004 44.0003C49.4699 44.0003 48.9612 43.7896 48.5861 43.4145C48.2111 43.0395 48.0004 42.5308 48.0004 42.0003Z" fill="#FF4F00"/>
<path d="M44 15.0001V26.0002H61.0001L53.9288 15.0001H44Z" fill="#FF4F00"/>
<path d="M56.5854 30.5852C56.3059 30.8651 56.1156 31.2216 56.0386 31.6096C55.9617 31.9976 56.0014 32.3997 56.1528 32.7651C56.3042 33.1305 56.5605 33.4429 56.8894 33.6627C57.2182 33.8825 57.6048 34 58.0004 34.0002H61.0004V30.0002H58.0004C57.7376 29.9999 57.4774 30.0514 57.2346 30.1518C56.9918 30.2522 56.7712 30.3994 56.5854 30.5852ZM24.5001 14.0001L31.0002 22.6664V6H9V28.0002L15 20.0001L17.5001 23.3339L24.5001 14.0001ZM15 16.0001C14.4067 16.0001 13.8267 15.8241 13.3333 15.4945C12.84 15.1648 12.4555 14.6963 12.2284 14.1481C12.0013 13.5999 11.9419 12.9967 12.0577 12.4148C12.1734 11.8328 12.4591 11.2983 12.8787 10.8787C13.2983 10.4592 13.8328 10.1734 14.4148 10.0577C14.9967 9.94192 15.5999 10.0013 16.1481 10.2284C16.6963 10.4555 17.1648 10.84 17.4945 11.3333C17.8241 11.8267 18.0001 12.4067 18.0001 13.0001C17.9999 13.7956 17.6837 14.5586 17.1212 15.1212C16.5586 15.6837 15.7956 15.9999 15 16.0001Z" fill="#FF4F00"/>
<path d="M14 39.0004C13.4067 39.0004 12.8267 39.1763 12.3333 39.506C11.8399 39.8356 11.4554 40.3041 11.2284 40.8523C11.0013 41.4005 10.9419 42.0037 11.0576 42.5857C11.1734 43.1676 11.4591 43.7022 11.8787 44.1217C12.2982 44.5413 12.8328 44.827 13.4147 44.9428C13.9967 45.0585 14.5999 44.9991 15.1481 44.772C15.6963 44.545 16.1648 44.1605 16.4945 43.6671C16.8241 43.1738 17 42.5937 17 42.0004C16.9992 41.205 16.6828 40.4425 16.1204 39.88C15.558 39.3176 14.7954 39.0013 14 39.0004ZM14 43.0004C13.8022 43.0004 13.6089 42.9417 13.4444 42.8319C13.28 42.722 13.1518 42.5658 13.0761 42.3831C13.0004 42.2003 12.9806 41.9993 13.0192 41.8053C13.0578 41.6113 13.1531 41.4331 13.2929 41.2933C13.4328 41.1534 13.611 41.0582 13.8049 41.0196C13.9989 40.981 14.2 41.0008 14.3827 41.0765C14.5654 41.1522 14.7216 41.2804 14.8315 41.4448C14.9414 41.6093 15 41.8026 15 42.0004C14.9997 42.2655 14.8943 42.5197 14.7068 42.7072C14.5193 42.8946 14.2652 43.0001 14 43.0004ZM50.0003 39.0004C49.4069 39.0004 48.8269 39.1763 48.3336 39.506C47.8402 39.8356 47.4557 40.3041 47.2286 40.8523C47.0016 41.4005 46.9422 42.0037 47.0579 42.5857C47.1737 43.1676 47.4594 43.7022 47.879 44.1217C48.2985 44.5413 48.8331 44.827 49.415 44.9428C49.997 45.0585 50.6002 44.9991 51.1484 44.772C51.6965 44.545 52.1651 44.1605 52.4947 43.6671C52.8244 43.1738 53.0003 42.5937 53.0003 42.0004C52.9994 41.205 52.6831 40.4425 52.1206 39.88C51.5582 39.3176 50.7957 39.0013 50.0003 39.0004ZM50.0003 43.0004C49.8025 43.0004 49.6092 42.9417 49.4447 42.8319C49.2803 42.722 49.1521 42.5658 49.0764 42.3831C49.0007 42.2003 48.9809 41.9993 49.0195 41.8053C49.0581 41.6113 49.1533 41.4331 49.2932 41.2933C49.433 41.1534 49.6112 41.0582 49.8052 41.0196C49.9992 40.981 50.2003 41.0008 50.383 41.0765C50.5657 41.1522 50.7219 41.2804 50.8318 41.4448C50.9417 41.6093 51.0003 41.8026 51.0003 42.0004C51 42.2655 50.8946 42.5197 50.7071 42.7072C50.5196 42.8946 50.2654 43.0001 50.0003 43.0004Z" fill="#FF4F00"/>
<path d="M61.8417 25.4589L52.8417 11.4588C52.751 11.3181 52.6265 11.2023 52.4795 11.1221C52.3326 11.042 52.1678 11 52.0004 11.0001H42.0003V1.00001C42.0003 0.734789 41.895 0.480433 41.7074 0.292896C41.5199 0.105358 41.2655 0 41.0003 0H1.00001C0.734789 0 0.480433 0.105358 0.292895 0.292896C0.105358 0.480433 0 0.734789 0 1.00001V42.0003C0 42.2655 0.105358 42.5199 0.292895 42.7074C0.480433 42.895 0.734789 43.0003 1.00001 43.0003H7.07255C7.31294 44.6662 8.14557 46.1897 9.41788 47.2916C10.6902 48.3935 12.317 49 14.0001 49C15.6832 49 17.31 48.3935 18.5823 47.2916C19.8546 46.1897 20.6873 44.6662 20.9277 43.0003H43.0728C43.3132 44.6662 44.1458 46.1897 45.4182 47.2916C46.6905 48.3935 48.3172 49 50.0004 49C51.6835 49 53.3103 48.3935 54.5826 47.2916C55.8549 46.1897 56.6876 44.6662 56.9279 43.0003H61.0005C61.2657 43.0003 61.52 42.895 61.7076 42.7074C61.8951 42.5199 62.0005 42.2655 62.0005 42.0003V26.0002C62.0005 25.8083 61.9454 25.6204 61.8417 25.4589ZM14.0001 47.0004C13.0112 47.0004 12.0445 46.7071 11.2222 46.1577C10.4 45.6083 9.75911 44.8274 9.38067 43.9138C9.00223 43.0001 8.90322 41.9948 9.09614 41.0249C9.28907 40.0549 9.76528 39.164 10.4645 38.4648C11.1638 37.7655 12.0547 37.2893 13.0246 37.0964C13.9946 36.9034 14.9999 37.0024 15.9135 37.3809C16.8272 37.7593 17.6081 38.4002 18.1575 39.2224C18.7069 40.0447 19.0001 41.0114 19.0001 42.0003C18.9988 43.326 18.4716 44.597 17.5342 45.5344C16.5968 46.4718 15.3258 46.999 14.0001 47.0004ZM40.0003 41.0003H20.9277C20.6873 39.3344 19.8546 37.811 18.5823 36.7091C17.31 35.6072 15.6832 35.0006 14.0001 35.0006C12.317 35.0006 10.6902 35.6072 9.41788 36.7091C8.14557 37.811 7.31294 39.3344 7.07255 41.0003H2.00002V34.0003H40.0003V41.0003ZM40.0003 32.0002H2.00002V2.00002H40.0003V32.0002ZM53.3829 16.0001L59.1692 25.0002H45.0003V16.0001H53.3829ZM50.0004 47.0004C49.0115 47.0004 48.0448 46.7071 47.2225 46.1577C46.4003 45.6083 45.7594 44.8274 45.381 43.9138C45.0025 43.0001 44.9035 41.9948 45.0964 41.0249C45.2893 40.0549 45.7656 39.164 46.4648 38.4648C47.1641 37.7655 48.055 37.2893 49.0249 37.0964C49.9948 36.9034 51.0002 37.0024 51.9138 37.3809C52.8274 37.7593 53.6083 38.4002 54.1578 39.2224C54.7072 40.0447 55.0004 41.0114 55.0004 42.0003C54.9991 43.326 54.4719 44.597 53.5345 45.5344C52.5971 46.4718 51.3261 46.999 50.0004 47.0004ZM60.0005 33.0003H58.0004C57.7352 33.0003 57.4809 32.8949 57.2933 32.7074C57.1058 32.5198 57.0004 32.2655 57.0004 32.0002C57.0004 31.735 57.1058 31.4807 57.2933 31.2931C57.4809 31.1056 57.7352 31.0002 58.0004 31.0002H60.0005V33.0003ZM60.0005 29.0002H58.0004C57.2048 29.0002 56.4417 29.3163 55.8791 29.8789C55.3165 30.4415 55.0004 31.2046 55.0004 32.0002C55.0004 32.7959 55.3165 33.559 55.8791 34.1216C56.4417 34.6842 57.2048 35.0003 58.0004 35.0003H60.0005V41.0003H56.9279C56.6876 39.3344 55.8549 37.811 54.5826 36.7091C53.3103 35.6072 51.6835 35.0006 50.0004 35.0006C48.3172 35.0006 46.6905 35.6072 45.4182 36.7091C44.1458 37.811 43.3132 39.3344 43.0728 41.0003H42.0003V13.0001H51.4541L52.0979 14.0001H44.0003C43.7351 14.0001 43.4808 14.1055 43.2932 14.293C43.1057 14.4805 43.0003 14.7349 43.0003 15.0001V26.0002C43.0003 26.2654 43.1057 26.5198 43.2932 26.7073C43.4808 26.8948 43.7351 27.0002 44.0003 27.0002H60.0005V29.0002Z" fill="#FF4F00"/>
<path d="M30.9992 5H8.99903C8.73381 5 8.47946 5.10536 8.29192 5.2929C8.10438 5.48043 7.99902 5.73479 7.99902 6.00001V28.0002C7.99902 28.2654 8.10438 28.5198 8.29192 28.7073C8.47946 28.8948 8.73381 29.0002 8.99903 29.0002H30.9992C31.2644 29.0002 31.5188 28.8948 31.7063 28.7073C31.8939 28.5198 31.9992 28.2654 31.9992 28.0002V6.00001C31.9992 5.73479 31.8939 5.48043 31.7063 5.2929C31.5188 5.10536 31.2644 5 30.9992 5ZM29.9992 7.00002V19.6665L25.2992 13.4001C25.206 13.2759 25.0852 13.1751 24.9464 13.1056C24.8075 13.0362 24.6544 13.0001 24.4991 13.0001C24.3439 13.0001 24.1908 13.0362 24.0519 13.1056C23.9131 13.1751 23.7923 13.2759 23.6991 13.4001L17.4991 21.667L15.7991 19.4001C15.7059 19.2759 15.5852 19.1751 15.4463 19.1057C15.3074 19.0363 15.1543 19.0001 14.9991 19.0001C14.8438 19.0001 14.6907 19.0363 14.5519 19.1057C14.413 19.1751 14.2922 19.2759 14.1991 19.4001L9.99904 25.0002V7.00002H29.9992ZM18.9991 27.0002H10.999L14.9991 21.6668L18.9991 27.0002ZM21.4991 27.0002L18.7491 23.3336L24.4991 15.6667L29.9992 23.0001V27.0002H21.4991Z" fill="#FF4F00"/>
<path d="M15 17.0001C15.7912 17.0001 16.5645 16.7655 17.2223 16.3259C17.8801 15.8864 18.3928 15.2617 18.6956 14.5308C18.9983 13.7999 19.0775 12.9956 18.9232 12.2197C18.7689 11.4437 18.3879 10.731 17.8285 10.1716C17.2691 9.61217 16.5563 9.2312 15.7804 9.07686C15.0045 8.92252 14.2002 9.00173 13.4693 9.30449C12.7384 9.60724 12.1137 10.1199 11.6741 10.7777C11.2346 11.4355 11 12.2089 11 13C11.0012 14.0605 11.423 15.0773 12.1729 15.8272C12.9228 16.5771 13.9395 16.9989 15 17.0001ZM15 11C15.3956 11 15.7823 11.1173 16.1112 11.3371C16.4401 11.5568 16.6964 11.8692 16.8478 12.2347C16.9992 12.6001 17.0388 13.0023 16.9616 13.3902C16.8844 13.7782 16.694 14.1345 16.4143 14.4143C16.1345 14.694 15.7782 14.8844 15.3902 14.9616C15.0022 15.0388 14.6001 14.9992 14.2347 14.8478C13.8692 14.6964 13.5568 14.4401 13.3371 14.1112C13.1173 13.7823 13 13.3956 13 13C13.0006 12.4698 13.2116 11.9614 13.5865 11.5865C13.9614 11.2116 14.4698 11.0006 15 11Z" fill="#FF4F00"/>
</svg>
