<svg width="47" height="44" viewBox="0 0 47 44" fill="none" xmlns="http://www.w3.org/2000/svg">
<path d="M37.4887 29.9244H37.4055V28.7238C37.4055 27.8664 37.065 27.0442 36.4587 26.438C35.8525 25.8318 35.0303 25.4912 34.173 25.4912C33.3156 25.4912 32.4934 25.8318 31.8872 26.438C31.281 27.0442 30.9404 27.8664 30.9404 28.7238V29.9244H30.885C30.377 29.9244 29.9244 30.3216 29.9244 30.8296V36.2049C29.9244 36.7128 30.3678 37.1192 30.885 37.1192H37.4887C37.7334 37.1209 37.9688 37.0257 38.1436 36.8544C38.3184 36.6831 38.4183 36.4496 38.4215 36.2049V30.8296C38.4197 30.7089 38.3942 30.5897 38.3464 30.4789C38.2985 30.368 38.2293 30.2677 38.1427 30.1837C38.056 30.0996 37.9537 30.0335 37.8415 29.989C37.7292 29.9445 37.6094 29.9226 37.4887 29.9244ZM32.7876 28.7238C32.7815 28.538 32.8129 28.353 32.8797 28.1796C32.9466 28.0062 33.0477 27.8481 33.177 27.7145C33.3062 27.581 33.461 27.4748 33.6321 27.4023C33.8032 27.3298 33.9871 27.2924 34.173 27.2924C34.3588 27.2924 34.5427 27.3298 34.7138 27.4023C34.885 27.4748 35.0397 27.581 35.169 27.7145C35.2982 27.8481 35.3993 28.0062 35.4662 28.1796C35.5331 28.353 35.5644 28.538 35.5584 28.7238V29.9244H32.7876V28.7238ZM36.5743 35.2813H31.7716V31.7716H36.5743V35.2813ZM16.2553 27.8925C16.2546 27.6478 16.1571 27.4133 15.984 27.2403C15.8109 27.0672 15.5764 26.9697 15.3317 26.969H5.07984C4.83511 26.9697 4.6006 27.0672 4.42754 27.2403C4.25449 27.4133 4.15696 27.6478 4.15625 27.8925V33.6188C4.15696 33.8635 4.25449 34.0981 4.42754 34.2711C4.6006 34.4442 4.83511 34.5417 5.07984 34.5424H15.3317C15.5764 34.5417 15.8109 34.4442 15.984 34.2711C16.1571 34.0981 16.2546 33.8635 16.2553 33.6188V27.8925ZM14.4081 32.7876H6.00343V28.8161H14.4081V32.7876Z" fill="#FF4F00"/>
<path d="M38.6061 19.3771V12.2192C38.6048 12.0985 38.5797 11.9793 38.5322 11.8683L34.5977 2.19826C34.3344 1.54548 33.8811 0.986885 33.2964 0.594927C32.7118 0.202968 32.0228 -0.00426371 31.319 0.000111893H7.31484C6.6107 -0.00551519 5.92122 0.201216 5.33633 0.593334C4.75145 0.985452 4.29833 1.54475 4.03609 2.19826L0.0831232 11.8775C0.0328327 11.9847 0.00456695 12.1009 0 12.2192V34.8657C0.00772825 35.8096 0.387369 36.7123 1.05654 37.378C1.7257 38.0437 2.6304 38.4187 3.5743 38.4215H23.6716C25.9621 41.7464 29.8228 44 34.1913 44C41.1922 44 46.9 38.3014 46.9 31.2914C46.8907 25.8422 43.4088 21.1781 38.6061 19.3771ZM32.8798 2.87248L36.3064 11.2679H24.9L23.4407 1.84729H31.3097C31.6442 1.84069 31.9728 1.93495 32.2529 2.11782C32.5329 2.30068 32.7514 2.56365 32.8798 2.87248ZM15.1469 13.1151H23.1821V17.2897L15.1469 20.4484V13.1151ZM15.3039 11.2679L16.8371 1.84729H21.5659L23.0251 11.2679H15.3039ZM5.74474 2.87248C5.87318 2.56365 6.09167 2.30068 6.37173 2.11782C6.65179 1.93495 6.98044 1.84069 7.31484 1.84729H14.9714L13.4383 11.2679H2.32745L5.74474 2.87248ZM3.5743 36.5743C3.12034 36.5714 2.68554 36.391 2.36282 36.0717C2.04009 35.7524 1.85503 35.3196 1.84718 34.8657V13.1151H13.2997V21.8061C13.2994 21.9574 13.3363 22.1065 13.4071 22.2402C13.478 22.3738 13.5807 22.488 13.7061 22.5727C13.8601 22.673 14.0395 22.7275 14.2233 22.7297C14.3403 22.7306 14.4564 22.7087 14.565 22.665L24.4475 18.786C24.6193 18.7175 24.7666 18.5991 24.8704 18.4459C24.9741 18.2928 25.0295 18.112 25.0293 17.927V13.1151H36.7589V18.8414C35.9144 18.6662 35.0539 18.5796 34.1913 18.5828C27.1905 18.5828 21.4827 24.2906 21.4827 31.2914C21.4853 33.1107 21.8757 34.9086 22.628 36.5651H3.5743V36.5743ZM34.1821 42.1436C32.0358 42.1436 29.9376 41.5071 28.153 40.3147C26.3683 39.1222 24.9774 37.4273 24.156 35.4443C23.3346 33.4614 23.1197 31.2793 23.5384 29.1742C23.9572 27.0691 24.9907 25.1354 26.5084 23.6177C28.0262 22.1 29.9598 21.0664 32.065 20.6477C34.1701 20.229 36.3521 20.4439 38.3351 21.2653C40.3181 22.0866 42.0129 23.4776 43.2054 25.2622C44.3978 27.0469 45.0343 29.145 45.0343 31.2914C45.0435 37.2763 40.167 42.1436 34.1821 42.1436Z" fill="#FF4F00"/>
</svg>
