<svg width="42" height="41" viewBox="0 0 42 41" fill="none" xmlns="http://www.w3.org/2000/svg">
<path d="M41.4338 18.7776L41.4144 18.6676L41.4015 18.6417C41.3885 18.6093 41.3691 18.5834 41.3561 18.5575L41.3302 18.5122L41.3043 18.4798L38.0927 15.4689V7.58876C38.0927 6.64987 37.3286 5.88582 36.3898 5.88582H27.8621L22.2871 0.65398C21.8468 0.239577 21.2641 0 20.6554 0C20.0338 0 19.464 0.226627 19.0043 0.65398L13.4681 5.88582H5.12176C4.18288 5.88582 3.41883 6.64987 3.41883 7.58876V15.3847L0.168351 18.4539C0.142451 18.4733 0.129501 18.4992 0.129501 18.4992L0.0906507 18.551L0.0453253 18.6352L0.0388503 18.6546C0.0194251 18.6935 0.0129501 18.7323 0.0129501 18.7582L0 18.8035V38.928C0 40.0676 0.932407 41 2.07202 41H39.3748C40.5079 41 41.4403 40.0676 41.4403 38.928V18.8294L41.4338 18.7776ZM1.01658 37.1538V19.9626L11.7198 29.4161L1.01658 37.1538ZM26.8002 33.9422L25.8354 34.6415L26.2693 35.807C26.347 36.0142 26.3275 36.2344 26.2175 36.4221C26.1074 36.6099 25.9131 36.7394 25.7059 36.7653L24.5016 36.9401L24.3591 38.151C24.3332 38.3776 24.2037 38.5719 24.0095 38.6884C23.8994 38.7467 23.7764 38.7791 23.6598 38.7791C23.5562 38.7791 23.4526 38.7596 23.362 38.7143L22.2806 38.2287L21.5101 39.2129C21.3741 39.3812 21.1734 39.4848 20.9597 39.4848H20.9468C20.7331 39.4848 20.5389 39.3942 20.4029 39.2323L19.5741 38.2481L18.4604 38.7014C18.3697 38.7337 18.2791 38.7532 18.1819 38.7532C18.0589 38.7532 17.9359 38.7208 17.8323 38.656C17.6445 38.5524 17.515 38.3647 17.4826 38.151L17.2949 36.9401L16.1164 36.7783C15.8962 36.7459 15.7085 36.6229 15.5984 36.4286C15.4818 36.2408 15.4624 36.0142 15.5466 35.807L15.9934 34.6545L15.0351 33.8451C14.8732 33.7091 14.7761 33.5148 14.7761 33.3076C14.7761 33.1004 14.8667 32.9062 15.0221 32.7702L15.9027 31.9997L15.4883 30.873C15.4171 30.6723 15.4365 30.4521 15.5466 30.2644C15.6502 30.0831 15.838 29.9536 16.0452 29.9212L17.2884 29.714L17.4826 28.4837C17.5215 28.2636 17.651 28.0758 17.8452 27.9722C17.9553 27.9139 18.0719 27.8816 18.1884 27.8816C18.292 27.8816 18.3956 27.9075 18.4927 27.9463L19.5805 28.4449L20.3511 27.4283C20.4871 27.2535 20.6943 27.1499 20.9274 27.1499C21.1669 27.1563 21.3741 27.2729 21.5036 27.4607L22.177 28.4384L23.3102 27.9398C23.4073 27.901 23.5044 27.8816 23.6015 27.8816C23.7246 27.8816 23.8476 27.9139 23.9512 27.9722C24.1519 28.0888 24.2814 28.283 24.3073 28.5032L24.4692 29.7399L25.7448 29.9212C25.9649 29.9536 26.1527 30.0766 26.2628 30.2644C26.3729 30.4586 26.3923 30.6788 26.3081 30.886L25.8484 32.0385L26.8261 32.7961C27.0009 32.9386 27.1045 33.1458 27.0981 33.3724C27.0916 33.599 26.9815 33.8062 26.8002 33.9422ZM22.0346 23.8864C21.659 23.6145 21.1799 23.4656 20.7007 23.4656C20.2216 23.4656 19.7424 23.621 19.3669 23.8929L12.5616 28.8075L4.43541 21.6267V7.58876C4.43541 7.2132 4.74621 6.9024 5.12176 6.9024H36.3962C36.7718 6.9024 37.0826 7.2132 37.0826 7.58876V21.6526L29.0535 28.937L22.0346 23.8864ZM40.4237 37.1279L29.8888 29.5392L40.4237 19.982V37.1279Z" fill="#FF4F00"/>
<path d="M25.0529 33.9551L25.8817 33.353L25.0464 32.7055C24.7939 32.5047 24.7032 32.1745 24.8198 31.8766L25.2212 30.873L24.101 30.7111C23.7773 30.6658 23.5312 30.4133 23.4859 30.1025L23.3499 29.0341L22.3528 29.4679C22.2621 29.5068 22.1585 29.5262 22.0614 29.5262C21.8218 29.5262 21.6081 29.4097 21.4722 29.2154L20.8959 28.3736L20.229 29.2478C20.093 29.4291 19.8858 29.5327 19.6592 29.5327C19.5556 29.5327 19.4584 29.5068 19.3613 29.4615L18.4095 29.0341L18.2476 30.0895C18.1958 30.4003 17.9562 30.6334 17.6519 30.6788L16.5641 30.8601L16.9202 31.8443C17.0238 32.1227 16.9396 32.44 16.7195 32.6342L15.949 33.3012L16.8037 34.0199C17.0368 34.2141 17.1209 34.5379 17.0109 34.8228L16.6224 35.8264L17.6519 35.9624C17.9627 36.0077 18.2087 36.2538 18.2605 36.5646L18.4289 37.62L19.4066 37.225C19.4908 37.1927 19.5815 37.1732 19.6786 37.1732C19.8923 37.1732 20.0865 37.2639 20.2225 37.4322L20.9477 38.2999L21.634 37.4258C21.77 37.2509 21.9772 37.1473 22.1909 37.1473C22.2945 37.1473 22.3916 37.1668 22.4888 37.2121L23.4147 37.6265L23.5377 36.5905C23.5701 36.2667 23.8226 36.0142 24.1399 35.9689L25.2018 35.8135L24.8198 34.7775C24.6903 34.4796 24.7939 34.1364 25.0529 33.9551ZM18.5519 32.291C18.5519 31.9673 18.8174 31.7083 19.1347 31.7083C19.452 31.7083 19.7174 31.9673 19.7174 32.291C19.7174 32.6083 19.452 32.8738 19.1347 32.8738C18.8174 32.8673 18.5519 32.6083 18.5519 32.291ZM19.5944 35.3473C19.4973 35.4444 19.3678 35.5027 19.2383 35.5027C19.0958 35.5027 18.9728 35.4444 18.8821 35.3473C18.6814 35.1465 18.6814 34.8293 18.8821 34.6285L22.152 31.3586C22.2492 31.2615 22.3787 31.2097 22.5082 31.2097C22.6442 31.2097 22.7737 31.2615 22.8643 31.3586C23.065 31.5594 23.065 31.8766 22.8643 32.0774L19.5944 35.3473ZM22.6506 35.1077C22.2427 35.1077 21.9125 34.7775 21.9125 34.3695C21.9125 33.9616 22.2427 33.6314 22.6506 33.6314C23.0586 33.6314 23.3888 33.9616 23.3888 34.3695C23.3888 34.7775 23.0586 35.1077 22.6506 35.1077ZM25.9076 12.7558H25.5191V8.54705C25.5191 8.37222 25.4349 8.21035 25.286 8.1197C25.2018 8.0679 25.1047 8.03552 25.0075 8.03552C24.9363 8.03552 24.8651 8.05495 24.8003 8.08085L17.5548 11.2471H12.6273C12.2646 11.2471 11.9668 11.545 11.9668 11.9011V18.4021C11.9668 18.7647 12.2646 19.0625 12.6273 19.0625H13.0028V21.5619C13.0028 22.7727 13.987 23.7569 15.1914 23.7569C16.4022 23.7569 17.3864 22.7727 17.3864 21.5619V19.0625H17.5677L24.8198 22.1965C24.8845 22.2224 24.9493 22.2353 25.0205 22.2353C25.1241 22.2353 25.2212 22.2094 25.2989 22.1511C25.4478 22.0605 25.532 21.8986 25.532 21.7302V17.5215H25.9205C27.235 17.5215 28.3098 16.4531 28.3098 15.1322C28.2969 13.8242 27.2285 12.7558 25.9076 12.7558ZM16.3698 21.5619C16.3698 22.2094 15.8454 22.7404 15.1914 22.7404C14.5439 22.7404 14.0194 22.2094 14.0194 21.5619V19.0625H16.3763V21.5619H16.3698ZM24.509 20.9532L18.1828 18.2208V12.0889L24.509 9.32406V20.9532ZM30.0128 11.8493C30.1487 11.8493 30.2718 11.7975 30.3689 11.7004L32.3891 9.68018C32.5898 9.47946 32.5898 9.16218 32.3891 8.96145C32.292 8.86433 32.1689 8.81253 32.033 8.81253C31.897 8.81253 31.7675 8.86433 31.6768 8.96145L29.6566 10.9817C29.4559 11.1824 29.4559 11.4997 29.6566 11.7004C29.7473 11.7975 29.8768 11.8493 30.0128 11.8493ZM30.2523 18.3762C30.1552 18.279 30.0257 18.2272 29.8962 18.2272C29.7602 18.2272 29.6307 18.279 29.5401 18.3762C29.3393 18.5769 29.3393 18.8942 29.5401 19.0949L31.5603 21.1151C31.6574 21.2122 31.7804 21.264 31.9164 21.264C32.0524 21.264 32.1819 21.2122 32.2725 21.1151C32.4733 20.9144 32.4733 20.5971 32.2725 20.3964L30.2523 18.3762ZM29.4624 15.6502H32.5316C32.81 15.6502 33.0366 15.4236 33.0366 15.1386C33.0366 14.8602 32.81 14.6336 32.5316 14.6336H29.4624C29.184 14.6336 28.9573 14.8602 28.9573 15.1386C28.9508 15.4171 29.1775 15.6502 29.4624 15.6502Z" fill="#FF4F00"/>
</svg>
