<svg width="45" height="55" viewBox="0 0 45 55" fill="none" xmlns="http://www.w3.org/2000/svg">
<path d="M16.461 39.8271H3.71657C3.42323 39.8271 3.18555 40.0648 3.18555 40.3582V50.4474C3.18555 50.7408 3.42323 50.9785 3.71657 50.9785H16.4611C16.7544 50.9785 16.9921 50.7408 16.9921 50.4474V40.3581C16.992 40.0648 16.7543 39.8271 16.461 39.8271ZM5.46513 43.6998L7.05767 42.1073C7.26456 41.8997 7.60367 41.9006 7.8096 42.1073L9.40215 43.6998C9.60957 43.9071 9.60957 44.2434 9.40215 44.4507C9.19494 44.6581 8.85849 44.6581 8.65128 44.4507L7.96466 43.7642V46.1993C7.96466 46.4927 7.72698 46.7304 7.43364 46.7304C7.1403 46.7304 6.90261 46.4927 6.90261 46.1993V43.7642L6.216 44.4507C6.00879 44.6581 5.67234 44.6581 5.46513 44.4507C5.25771 44.2434 5.25771 43.9071 5.46513 43.6998ZM14.3369 48.8545H5.84056C5.54723 48.8545 5.30954 48.6168 5.30954 48.3234C5.30954 48.0301 5.54723 47.7924 5.84056 47.7924H14.3369C14.6302 47.7924 14.8679 48.0301 14.8679 48.3234C14.8679 48.6168 14.6302 48.8545 14.3369 48.8545ZM13.9725 44.4603C13.8152 44.3243 13.6363 44.0929 13.2749 43.7642V46.1993C13.2749 46.4927 13.0372 46.7304 12.7439 46.7304C12.4505 46.7304 12.2129 46.4927 12.2129 46.1993V43.7642L11.5262 44.4507C11.319 44.6581 10.9826 44.6581 10.7754 44.4507C10.568 44.2434 10.568 43.9071 10.7754 43.6998L12.3679 42.1073C12.5765 41.898 12.9152 41.9019 13.1199 42.1073L14.7124 43.6998C15.1878 44.175 14.5146 44.9292 13.9725 44.4603ZM33.4535 49.9164H19.1161C18.8227 49.9164 18.5851 50.1541 18.5851 50.4474C18.5851 50.7408 18.8227 50.9785 19.1161 50.9785H33.4535C33.7469 50.9785 33.9846 50.7408 33.9846 50.4474C33.9846 50.1541 33.7469 49.9164 33.4535 49.9164ZM18.5851 47.7924C18.5851 48.0858 18.8227 48.3234 19.1161 48.3234H33.4535C33.7469 48.3234 33.9846 48.0858 33.9846 47.7924C33.9846 47.4991 33.7469 47.2614 33.4535 47.2614H19.1161C18.8227 47.2614 18.5851 47.4991 18.5851 47.7924ZM18.5851 45.1373C18.5851 45.4306 18.8227 45.6683 19.1161 45.6683H25.4883C25.7816 45.6683 26.0193 45.4306 26.0193 45.1373C26.0193 44.844 25.7816 44.6063 25.4883 44.6063H19.1161C18.8227 44.6063 18.5851 44.844 18.5851 45.1373Z" fill="#FF4F00"/>
<path d="M43.1225 13.6121C43.2209 13.3088 45 11.9526 45 10.6204C45 9.8087 44.4044 9.18061 43.8788 8.62654C43.0146 7.71498 42.9744 7.62683 43.1409 6.31934C43.2355 5.57697 43.3427 4.7354 42.8834 4.10465C42.1174 3.05332 40.3034 3.30057 39.6053 2.79206C38.9105 2.28642 38.5937 0.484333 37.3428 0.0785235C36.1121 -0.322719 34.8309 0.944306 33.917 0.944306C33.0042 0.944306 31.7189 -0.321763 30.4918 0.0783111C29.2389 0.484545 28.9222 2.28737 28.2301 2.79185C27.5244 3.30492 25.7188 3.04982 24.9503 4.10475C24.188 5.15172 24.9846 6.79132 24.7113 7.63002C24.4521 8.42857 22.8339 9.28809 22.8339 10.6204C22.8339 12.0389 24.6266 12.8605 24.752 13.8071C21.2377 13.8071 11.9864 13.8071 8.49629 13.8071C8.34951 13.8071 8.20933 13.8679 8.10896 13.9749L0.143695 22.4712C0.0500226 22.571 0 22.7073 0 22.8344V53.6334C0 53.9268 0.237687 54.1645 0.531025 54.1645H36.6403C36.9336 54.1645 37.1713 53.9268 37.1713 53.6334C37.1707 20.7382 37.2186 22.7392 37.0787 22.535C37.0335 22.4688 37.0964 22.5479 35.5516 20.8966C36.6601 21.3926 37.5517 21.4446 38.3318 20.3933C38.8242 19.7312 39.1576 18.7747 39.6037 18.4504C40.307 17.9389 42.1161 18.191 42.8837 17.1361C43.6468 16.0875 42.8483 14.4539 43.1225 13.6121ZM24.6996 14.8691C24.6011 15.6465 24.4842 16.4961 24.95 17.136C25.4135 17.7732 26.2522 17.9312 26.9919 18.0706C28.265 18.3103 28.3444 18.3675 28.9598 19.4977C29.3221 20.1634 29.7329 20.918 30.4917 21.1639C31.5674 21.513 32.6576 20.5921 33.5812 20.3478L35.4145 22.3033H23.2744L21.8805 14.8691H24.6996ZM8.72622 14.8691H15.2906L13.8967 22.3033H1.75663L8.72622 14.8691ZM36.1092 23.3653V53.1024H1.06194V23.3653H13.8064V31.8616C13.8064 32.2935 14.3035 32.5504 14.656 32.2866L15.7542 31.4633L16.8525 32.2866C17.0412 32.428 17.3009 32.4281 17.4896 32.2865L18.5867 31.4634L19.6842 32.2865C19.873 32.4281 20.1327 32.4279 20.3215 32.2865L21.4186 31.4635L22.5151 32.2864C22.8659 32.5494 23.3649 32.2941 23.3649 31.8616V23.3653H36.1092ZM42.0872 15.0567C42.1603 15.6294 42.2357 16.2215 42.0248 16.5112C42.0248 16.5112 42.0248 16.5113 42.0247 16.5113C41.8092 16.8077 41.2172 16.9192 40.6445 17.0269C39.0384 17.3294 38.7112 17.5735 37.9413 18.9894C37.1686 20.4116 37.001 20.4094 35.6361 19.7654C34.1359 19.0572 33.7007 19.0558 32.1973 19.7654C31.6816 20.0088 31.1483 20.2602 30.8193 20.1538C30.1284 19.9296 29.7661 18.2544 28.8534 17.5917C27.9392 16.9256 26.2299 17.0901 25.8087 16.5111C25.3932 15.9403 26.077 14.3766 25.7216 13.2853C25.3756 12.2116 23.8956 11.3748 23.8956 10.6203C23.8956 9.85618 25.369 9.0435 25.721 7.95829C26.0777 6.86385 25.3921 5.302 25.8084 4.72988C26.23 4.15148 27.9325 4.3212 28.8549 3.6503C29.7792 2.97643 30.1194 1.31528 30.8199 1.08811C31.4817 0.871556 32.738 2.00614 33.9167 2.00614C35.0689 2.00614 36.3626 0.876017 37.0141 1.08832C37.7067 1.31294 38.0645 2.98397 38.98 3.65041C39.91 4.328 41.5998 4.14628 42.0249 4.72966C42.4422 5.30306 41.754 6.85844 42.1122 7.95766C42.4589 9.02619 43.9378 9.86903 43.9378 10.6203C43.9378 11.0084 43.5163 11.4531 43.1086 11.8831C42.028 13.0232 41.8769 13.4053 42.0872 15.0567Z" fill="#FF4F00"/>
<path d="M33.917 4.42163C30.3658 4.42163 27.4766 7.31083 27.4766 10.8621C27.4766 14.4135 30.3658 17.3027 33.917 17.3027C37.4683 17.3027 40.3575 14.4135 40.3575 10.8621C40.3575 7.31072 37.4683 4.42163 33.917 4.42163ZM36.4848 9.40339L33.2986 12.5895C33.0914 12.797 32.7549 12.797 32.5477 12.5895L30.9547 10.9965C30.7472 10.7892 30.7472 10.4529 30.9547 10.2456C31.1619 10.0382 31.4983 10.0382 31.7055 10.2456L32.9232 11.4631L35.7339 8.65252C35.9411 8.4451 36.2776 8.4451 36.4848 8.65252C36.6922 8.85983 36.6922 9.19608 36.4848 9.40339Z" fill="#FF4F00"/>
<path d="M26.5506 26.0205C26.8438 26.0205 27.0816 25.7828 27.0816 25.4895C27.0816 25.1962 26.8438 24.9585 26.5506 24.9585C26.2573 24.9585 26.0195 25.1962 26.0195 25.4895C26.0195 25.7828 26.2573 26.0205 26.5506 26.0205Z" fill="#FF4F00"/>
<path d="M29.2058 26.0205C29.4991 26.0205 29.7369 25.7828 29.7369 25.4895C29.7369 25.1962 29.4991 24.9585 29.2058 24.9585C28.9126 24.9585 28.6748 25.1962 28.6748 25.4895C28.6748 25.7828 28.9126 26.0205 29.2058 26.0205Z" fill="#FF4F00"/>
<path d="M31.8621 26.0205C32.1554 26.0205 32.3931 25.7828 32.3931 25.4895C32.3931 25.1962 32.1554 24.9585 31.8621 24.9585C31.5688 24.9585 31.3311 25.1962 31.3311 25.4895C31.3311 25.7828 31.5688 26.0205 31.8621 26.0205Z" fill="#FF4F00"/>
<path d="M33.9861 26.0205C34.2794 26.0205 34.5171 25.7828 34.5171 25.4895C34.5171 25.1962 34.2794 24.9585 33.9861 24.9585C33.6928 24.9585 33.4551 25.1962 33.4551 25.4895C33.4551 25.7828 33.6928 26.0205 33.9861 26.0205Z" fill="#FF4F00"/>
<path d="M33.9861 28.6757C34.2794 28.6757 34.5171 28.4379 34.5171 28.1447C34.5171 27.8514 34.2794 27.6136 33.9861 27.6136C33.6928 27.6136 33.4551 27.8514 33.4551 28.1447C33.4551 28.4379 33.6928 28.6757 33.9861 28.6757Z" fill="#FF4F00"/>
<path d="M33.9861 31.331C34.2794 31.331 34.5171 31.0932 34.5171 30.7999C34.5171 30.5067 34.2794 30.2689 33.9861 30.2689C33.6928 30.2689 33.4551 30.5067 33.4551 30.7999C33.4551 31.0932 33.6928 31.331 33.9861 31.331Z" fill="#FF4F00"/>
<path d="M33.9861 33.9859C34.2794 33.9859 34.5171 33.7481 34.5171 33.4549C34.5171 33.1616 34.2794 32.9238 33.9861 32.9238C33.6928 32.9238 33.4551 33.1616 33.4551 33.4549C33.4551 33.7481 33.6928 33.9859 33.9861 33.9859Z" fill="#FF4F00"/>
<path d="M33.9861 36.6409C34.2794 36.6409 34.5171 36.4032 34.5171 36.1099C34.5171 35.8166 34.2794 35.5789 33.9861 35.5789C33.6928 35.5789 33.4551 35.8166 33.4551 36.1099C33.4551 36.4032 33.6928 36.6409 33.9861 36.6409Z" fill="#FF4F00"/>
<path d="M10.6199 26.0205C10.9132 26.0205 11.1509 25.7828 11.1509 25.4895C11.1509 25.1962 10.9132 24.9585 10.6199 24.9585C10.3266 24.9585 10.0889 25.1962 10.0889 25.4895C10.0889 25.7828 10.3266 26.0205 10.6199 26.0205Z" fill="#FF4F00"/>
<path d="M7.96462 26.0205C8.2579 26.0205 8.49564 25.7828 8.49564 25.4895C8.49564 25.1962 8.2579 24.9585 7.96462 24.9585C7.67134 24.9585 7.43359 25.1962 7.43359 25.4895C7.43359 25.7828 7.67134 26.0205 7.96462 26.0205Z" fill="#FF4F00"/>
<path d="M5.31032 26.0205C5.6036 26.0205 5.84135 25.7828 5.84135 25.4895C5.84135 25.1962 5.6036 24.9585 5.31032 24.9585C5.01704 24.9585 4.7793 25.1962 4.7793 25.4895C4.7793 25.7828 5.01704 26.0205 5.31032 26.0205Z" fill="#FF4F00"/>
<path d="M3.1863 26.0205C3.47958 26.0205 3.71732 25.7828 3.71732 25.4895C3.71732 25.1962 3.47958 24.9585 3.1863 24.9585C2.89302 24.9585 2.65527 25.1962 2.65527 25.4895C2.65527 25.7828 2.89302 26.0205 3.1863 26.0205Z" fill="#FF4F00"/>
<path d="M3.1863 28.6757C3.47958 28.6757 3.71732 28.4379 3.71732 28.1447C3.71732 27.8514 3.47958 27.6136 3.1863 27.6136C2.89302 27.6136 2.65527 27.8514 2.65527 28.1447C2.65527 28.4379 2.89302 28.6757 3.1863 28.6757Z" fill="#FF4F00"/>
<path d="M3.1863 31.331C3.47958 31.331 3.71732 31.0932 3.71732 30.7999C3.71732 30.5067 3.47958 30.2689 3.1863 30.2689C2.89302 30.2689 2.65527 30.5067 2.65527 30.7999C2.65527 31.0932 2.89302 31.331 3.1863 31.331Z" fill="#FF4F00"/>
<path d="M3.1863 33.9859C3.47958 33.9859 3.71732 33.7481 3.71732 33.4549C3.71732 33.1616 3.47958 32.9238 3.1863 32.9238C2.89302 32.9238 2.65527 33.1616 2.65527 33.4549C2.65527 33.7481 2.89302 33.9859 3.1863 33.9859Z" fill="#FF4F00"/>
<path d="M3.1863 36.6409C3.47958 36.6409 3.71732 36.4032 3.71732 36.1099C3.71732 35.8166 3.47958 35.5789 3.1863 35.5789C2.89302 35.5789 2.65527 35.8166 2.65527 36.1099C2.65527 36.4032 2.89302 36.6409 3.1863 36.6409Z" fill="#FF4F00"/>
</svg>
