<svg width="43" height="43" viewBox="0 0 43 43" fill="none" xmlns="http://www.w3.org/2000/svg">
<path d="M5.34453 35.3649H3.05402C2.24404 35.3649 1.46724 35.0431 0.894501 34.4704C0.321762 33.8976 0 33.1208 0 32.3109V26.2028C0 25.3928 0.321762 24.616 0.894501 24.0433C1.46724 23.4706 2.24404 23.1488 3.05402 23.1488H5.34453C5.54703 23.1488 5.74123 23.2292 5.88441 23.3724C6.0276 23.5156 6.10804 23.7098 6.10804 23.9123V34.6014C6.10804 34.8039 6.0276 34.9981 5.88441 35.1413C5.74123 35.2844 5.54703 35.3649 5.34453 35.3649ZM3.05402 24.6758C2.64903 24.6758 2.26063 24.8367 1.97426 25.1231C1.68789 25.4094 1.52701 25.7978 1.52701 26.2028V32.3109C1.52701 32.7158 1.68789 33.1042 1.97426 33.3906C2.26063 33.677 2.64903 33.8379 3.05402 33.8379H4.58103V24.6758H3.05402Z" fill="#FF4F00"/>
<path d="M7.63507 37.6554C6.8251 37.6554 6.0483 37.3336 5.47556 36.7609C4.90282 36.1881 4.58105 35.4113 4.58105 34.6014V23.9123C4.58105 23.1023 4.90282 22.3255 5.47556 21.7528C6.0483 21.18 6.8251 20.8583 7.63507 20.8583C8.44505 20.8583 9.22185 21.18 9.79459 21.7528C10.3673 22.3255 10.6891 23.1023 10.6891 23.9123V34.6014C10.6891 35.4113 10.3673 36.1881 9.79459 36.7609C9.22185 37.3336 8.44505 37.6554 7.63507 37.6554ZM7.63507 22.3853C7.23008 22.3853 6.84168 22.5462 6.55531 22.8325C6.26894 23.1189 6.10806 23.5073 6.10806 23.9123V34.6014C6.10806 35.0063 6.26894 35.3947 6.55531 35.6811C6.84168 35.9675 7.23008 36.1284 7.63507 36.1284C8.04006 36.1284 8.42846 35.9675 8.71483 35.6811C9.0012 35.3947 9.16208 35.0063 9.16208 34.6014V23.9123C9.16208 23.5073 9.0012 23.1189 8.71483 22.8325C8.42846 22.5462 8.04006 22.3853 7.63507 22.3853ZM39.7023 35.3649H37.4117C37.2093 35.3649 37.0151 35.2844 36.8719 35.1412C36.7287 34.9981 36.6482 34.8039 36.6482 34.6014V23.9123C36.6482 23.7098 36.7287 23.5156 36.8719 23.3724C37.0151 23.2292 37.2093 23.1488 37.4117 23.1488H39.7023C40.5122 23.1488 41.289 23.4706 41.8618 24.0433C42.4345 24.616 42.7563 25.3928 42.7563 26.2028V32.3108C42.7563 33.1208 42.4345 33.8976 41.8618 34.4704C41.289 35.0431 40.5122 35.3649 39.7023 35.3649ZM38.1753 33.8379H39.7023C40.1073 33.8379 40.4957 33.677 40.782 33.3906C41.0684 33.1042 41.2293 32.7158 41.2293 32.3108V26.2028C41.2293 25.7978 41.0684 25.4094 40.782 25.123C40.4957 24.8367 40.1073 24.6758 39.7023 24.6758H38.1753V33.8379Z" fill="#FF4F00"/>
<path d="M35.1212 37.6554C34.3112 37.6554 33.5344 37.3336 32.9616 36.7609C32.3889 36.1881 32.0671 35.4113 32.0671 34.6014V23.9123C32.0671 23.1023 32.3889 22.3255 32.9616 21.7528C33.5344 21.18 34.3112 20.8583 35.1212 20.8583C35.9311 20.8583 36.7079 21.18 37.2807 21.7528C37.8534 22.3255 38.1752 23.1023 38.1752 23.9123V34.6014C38.1752 35.4113 37.8534 36.1881 37.2807 36.7609C36.7079 37.3336 35.9311 37.6554 35.1212 37.6554ZM35.1212 22.3853C34.7162 22.3853 34.3278 22.5462 34.0414 22.8325C33.755 23.1189 33.5941 23.5073 33.5941 23.9123V34.6014C33.5941 35.0063 33.755 35.3947 34.0414 35.6811C34.3278 35.9675 34.7162 36.1284 35.1212 36.1284C35.5261 36.1284 35.9145 35.9675 36.2009 35.6811C36.4873 35.3947 36.6482 35.0063 36.6482 34.6014V23.9123C36.6482 23.5073 36.4873 23.1189 36.2009 22.8325C35.9145 22.5462 35.5261 22.3853 35.1212 22.3853ZM22.9051 42.9999H19.8511C19.2436 42.9999 18.661 42.7586 18.2314 42.329C17.8019 41.8995 17.5605 41.3169 17.5605 40.7094C17.5605 40.1019 17.8019 39.5193 18.2314 39.0898C18.661 38.6602 19.2436 38.4189 19.8511 38.4189H22.9051C23.5126 38.4189 24.0952 38.6602 24.5247 39.0898C24.9543 39.5193 25.1956 40.1019 25.1956 40.7094C25.1956 41.3169 24.9543 41.8995 24.5247 42.329C24.0952 42.7586 23.5126 42.9999 22.9051 42.9999ZM19.8511 39.9459C19.6486 39.9459 19.4544 40.0263 19.3112 40.1695C19.168 40.3127 19.0876 40.5069 19.0876 40.7094C19.0876 40.9119 19.168 41.1061 19.3112 41.2493C19.4544 41.3925 19.6486 41.4729 19.8511 41.4729H22.9051C23.1076 41.4729 23.3018 41.3925 23.445 41.2493C23.5881 41.1061 23.6686 40.9119 23.6686 40.7094C23.6686 40.5069 23.5881 40.3127 23.445 40.1695C23.3018 40.0263 23.1076 39.9459 22.9051 39.9459H19.8511Z" fill="#FF4F00"/>
<path d="M35.1219 41.4729H24.4328C24.2303 41.4729 24.0361 41.3925 23.8929 41.2493C23.7497 41.1061 23.6693 40.9119 23.6693 40.7094C23.6693 40.5069 23.7497 40.3127 23.8929 40.1695C24.0361 40.0263 24.2303 39.9459 24.4328 39.9459H35.1219C36.1343 39.9459 37.1053 39.5437 37.8213 38.8278C38.5372 38.1118 38.9394 37.1408 38.9394 36.1284V34.6014C38.9394 34.3989 39.0198 34.2047 39.163 34.0615C39.3062 33.9183 39.5004 33.8379 39.7029 33.8379C39.9054 33.8379 40.0996 33.9183 40.2428 34.0615C40.386 34.2047 40.4664 34.3989 40.4664 34.6014V36.1284C40.4664 37.5458 39.9033 38.9052 38.901 39.9075C37.8987 40.9098 36.5393 41.4729 35.1219 41.4729ZM38.9394 24.6758C38.7369 24.6758 38.5427 24.5954 38.3995 24.4522C38.2563 24.309 38.1759 24.1148 38.1759 23.9123V18.5678C38.1768 17.8349 38.1283 17.1028 38.0308 16.3765C38.0178 16.2762 38.0246 16.1744 38.051 16.0768C38.0773 15.9792 38.1226 15.8877 38.1843 15.8076C38.246 15.7274 38.3228 15.6603 38.4105 15.6099C38.4981 15.5594 38.5948 15.5268 38.6951 15.5137C38.7953 15.5007 38.8972 15.5076 38.9948 15.5339C39.0924 15.5602 39.1839 15.6055 39.264 15.6672C39.3441 15.7289 39.4113 15.8057 39.4617 15.8934C39.5121 15.981 39.5448 16.0777 39.5578 16.178C39.6593 16.9705 39.7078 17.7688 39.7029 18.5678V23.9123C39.7029 24.1148 39.6225 24.309 39.4793 24.4522C39.3361 24.5954 39.1419 24.6758 38.9394 24.6758ZM3.81819 24.6758C3.6157 24.6758 3.4215 24.5954 3.27831 24.4522C3.13513 24.309 3.05469 24.1148 3.05469 23.9123V18.5678C3.05487 17.7685 3.10843 16.9701 3.21502 16.178C3.22806 16.0777 3.26071 15.981 3.31112 15.8934C3.36154 15.8057 3.42872 15.7289 3.50883 15.6672C3.58895 15.6055 3.68043 15.5602 3.77805 15.5339C3.87567 15.5076 3.97752 15.5007 4.07778 15.5137C4.17805 15.5268 4.27476 15.5594 4.36241 15.6099C4.45005 15.6603 4.52691 15.7274 4.58859 15.8076C4.65027 15.8877 4.69557 15.9792 4.7219 16.0768C4.74822 16.1744 4.75507 16.2762 4.74203 16.3765C4.63946 17.1025 4.58589 17.8346 4.5817 18.5678V23.9123C4.5817 24.1148 4.50126 24.309 4.35807 24.4522C4.21489 24.5954 4.02069 24.6758 3.81819 24.6758Z" fill="#FF4F00"/>
<path d="M38.786 17.0408C37.6053 17.024 36.4547 16.6653 35.4737 16.008C34.4926 15.3508 33.7231 14.4233 33.2582 13.3378C32.2377 11.0225 30.5627 9.05595 28.4392 7.68005C26.3158 6.30414 23.8365 5.57889 21.3063 5.59349C18.7761 5.60809 16.3053 6.36191 14.1979 7.76224C12.0904 9.16256 10.4382 11.1483 9.44451 13.4753C9.01577 14.5197 8.28899 15.4148 7.35485 16.0489C6.42071 16.6829 5.32054 17.0279 4.1916 17.0408H3.97018C3.86099 17.0418 3.75287 17.0193 3.65312 16.9748C3.55336 16.9304 3.4643 16.8651 3.39193 16.7833C3.31957 16.7016 3.26558 16.6052 3.23363 16.5008C3.20167 16.3964 3.19248 16.2863 3.20668 16.1781C3.79287 11.776 5.95774 7.73666 9.29876 4.81106C12.6398 1.88545 16.9296 0.272705 21.3705 0.272705C25.8113 0.272705 30.1011 1.88545 33.4421 4.81106C36.7832 7.73666 38.948 11.776 39.5342 16.1781C39.5484 16.2863 39.5392 16.3964 39.5073 16.5008C39.4753 16.6052 39.4213 16.7016 39.349 16.7833C39.2766 16.8651 39.1875 16.9304 39.0878 16.9748C38.988 17.0193 38.8799 17.0418 38.7707 17.0408H38.786ZM21.3781 1.77074C17.4635 1.77045 13.6717 3.13744 10.6578 5.63556C7.64384 8.13368 5.5971 11.606 4.87112 15.4527C5.57244 15.3206 6.22964 15.0153 6.78299 14.5646C7.33634 14.114 7.76832 13.5322 8.03966 12.8721C8.96913 10.6887 10.42 8.76663 12.2652 7.27444C14.1103 5.78225 16.2933 4.76548 18.6229 4.31329C20.9524 3.8611 23.3573 3.9873 25.6267 4.6808C27.8961 5.37431 29.9607 6.61396 31.6396 8.29107C32.9209 9.56128 33.9563 11.0574 34.6936 12.7041C34.9815 13.3747 35.4232 13.9681 35.9829 14.4363C36.5426 14.9045 37.2047 15.2344 37.9156 15.3993C37.2765 12.0968 35.6653 9.06059 33.2888 6.68007C31.7285 5.11242 29.8718 3.87098 27.8269 3.02812C25.782 2.18526 23.5898 1.75783 21.3781 1.77074Z" fill="#FF4F00"/>
<path d="M19.8515 21.6218H16.034C15.8315 21.6218 15.6373 21.5414 15.4941 21.3982C15.351 21.255 15.2705 21.0608 15.2705 20.8583V20.0948C15.2699 19.9943 15.2892 19.8947 15.3272 19.8017C15.3652 19.7087 15.4212 19.6241 15.4919 19.5527L18.8361 16.2086C18.9551 16.089 19.036 15.9369 19.0688 15.7714C19.1015 15.6059 19.0846 15.4344 19.0201 15.2786C18.9557 15.1227 18.8465 14.9893 18.7064 14.8953C18.5664 14.8013 18.4016 14.7509 18.2329 14.7503H17.6527C17.4259 14.7503 17.2084 14.8404 17.048 15.0007C16.8876 15.1611 16.7975 15.3786 16.7975 15.6054V16.2773C16.7975 16.4798 16.7171 16.674 16.5739 16.8172C16.4307 16.9603 16.2365 17.0408 16.034 17.0408C15.8315 17.0408 15.6373 16.9603 15.4941 16.8172C15.351 16.674 15.2705 16.4798 15.2705 16.2773V15.6054C15.2705 15.2926 15.3321 14.9828 15.4518 14.6938C15.5716 14.4048 15.747 14.1422 15.9682 13.921C16.1894 13.6998 16.452 13.5243 16.7411 13.4046C17.0301 13.2849 17.3398 13.2233 17.6527 13.2233H18.2329C18.8647 13.2233 19.4706 13.4742 19.9173 13.921C20.3641 14.3677 20.6151 14.9736 20.6151 15.6054C20.6171 15.9187 20.5567 16.2293 20.4374 16.519C20.3181 16.8087 20.1423 17.0717 19.9203 17.2927L17.1106 20.0948H19.8515C20.054 20.0948 20.2482 20.1752 20.3914 20.3184C20.5346 20.4616 20.6151 20.6558 20.6151 20.8583C20.6151 21.0608 20.5346 21.255 20.3914 21.3982C20.2482 21.5414 20.054 21.6218 19.8515 21.6218ZM26.7231 18.5678H25.1961C24.3861 18.5678 23.6093 18.246 23.0366 17.6733C22.4638 17.1006 22.1421 16.3238 22.1421 15.5138V13.9868C22.1421 13.7843 22.2225 13.5901 22.3657 13.4469C22.5089 13.3037 22.7031 13.2233 22.9056 13.2233C23.1081 13.2233 23.3023 13.3037 23.4454 13.4469C23.5886 13.5901 23.6691 13.7843 23.6691 13.9868V15.5138C23.6691 15.9188 23.83 16.3072 24.1163 16.5935C24.4027 16.8799 24.7911 17.0408 25.1961 17.0408H25.9596V13.9868C25.9596 13.7843 26.04 13.5901 26.1832 13.4469C26.3264 13.3037 26.5206 13.2233 26.7231 13.2233C26.9256 13.2233 27.1198 13.3037 27.263 13.4469C27.4062 13.5901 27.4866 13.7843 27.4866 13.9868V17.8043C27.4866 18.0068 27.4062 18.201 27.263 18.3442C27.1198 18.4874 26.9256 18.5678 26.7231 18.5678Z" fill="#FF4F00"/>
<path d="M26.7235 21.6218C26.521 21.6218 26.3268 21.5414 26.1836 21.3982C26.0404 21.255 25.96 21.0608 25.96 20.8583V17.8043C25.96 17.6018 26.0404 17.4076 26.1836 17.2644C26.3268 17.1212 26.521 17.0408 26.7235 17.0408C26.926 17.0408 27.1202 17.1212 27.2633 17.2644C27.4065 17.4076 27.487 17.6018 27.487 17.8043V20.8583C27.487 21.0608 27.4065 21.255 27.2633 21.3982C27.1202 21.5414 26.926 21.6218 26.7235 21.6218Z" fill="#FF4F00"/>
<path d="M21.3777 27.7298C19.4146 27.7298 17.4956 27.1477 15.8634 26.057C14.2311 24.9664 12.9589 23.4162 12.2077 21.6026C11.4564 19.7889 11.2599 17.7932 11.6429 15.8678C12.0258 13.9425 12.9712 12.1739 14.3593 10.7858C15.7474 9.39768 17.516 8.45236 19.4413 8.06938C21.3667 7.6864 23.3624 7.88296 25.1761 8.6342C26.9897 9.38545 28.5399 10.6576 29.6305 12.2899C30.7211 13.9221 31.3033 15.8411 31.3033 17.8042C31.3033 18.0067 31.2228 18.2009 31.0796 18.3441C30.9365 18.4873 30.7423 18.5677 30.5398 18.5677C30.3373 18.5677 30.1431 18.4873 29.9999 18.3441C29.8567 18.2009 29.7763 18.0067 29.7763 17.8042C29.7763 16.1431 29.2837 14.5194 28.3608 13.1382C27.438 11.7571 26.1263 10.6806 24.5917 10.045C23.0571 9.40931 21.3684 9.24299 19.7392 9.56705C18.1101 9.89111 16.6136 10.691 15.439 11.8656C14.2645 13.0401 13.4646 14.5366 13.1405 16.1657C12.8165 17.7949 12.9828 19.4836 13.6185 21.0182C14.2541 22.5528 15.3306 23.8645 16.7117 24.7874C18.0929 25.7102 19.7166 26.2028 21.3777 26.2028C21.5802 26.2028 21.7744 26.2832 21.9176 26.4264C22.0608 26.5696 22.1412 26.7638 22.1412 26.9663C22.1412 27.1688 22.0608 27.363 21.9176 27.5062C21.7744 27.6493 21.5802 27.7298 21.3777 27.7298Z" fill="#FF4F00"/>
<path d="M20.6146 30.0205C20.5141 30.021 20.4145 30.0018 20.3215 29.9638C20.2285 29.9258 20.1439 29.8698 20.0725 29.799C20.001 29.7281 19.9442 29.6436 19.9054 29.5506C19.8666 29.4575 19.8467 29.3577 19.8467 29.257C19.8467 29.1562 19.8666 29.0564 19.9054 28.9633C19.9442 28.8703 20.001 28.7858 20.0725 28.7149L21.8286 26.9664L20.0725 25.218C19.9288 25.0742 19.848 24.8793 19.848 24.6759C19.848 24.4726 19.9288 24.2776 20.0725 24.1338C20.2163 23.9901 20.4113 23.9093 20.6146 23.9093C20.8179 23.9093 21.0129 23.9901 21.1567 24.1338L23.4472 26.4244C23.5188 26.4953 23.5756 26.5798 23.6143 26.6728C23.6531 26.7659 23.6731 26.8657 23.6731 26.9664C23.6731 27.0672 23.6531 27.167 23.6143 27.2601C23.5756 27.3531 23.5188 27.4376 23.4472 27.5085L21.1567 29.799C21.0854 29.8698 21.0007 29.9258 20.9077 29.9638C20.8147 30.0018 20.7151 30.021 20.6146 30.0205Z" fill="#FF4F00"/>
</svg>
