<svg width="51" height="61" viewBox="0 0 51 61" fill="none" xmlns="http://www.w3.org/2000/svg">
<path d="M17.6547 28.4422H21.5778C22.1202 28.4422 22.5586 28.0038 22.5586 27.4615V24.5191C22.5586 23.9768 22.1202 23.5384 21.5778 23.5384H19.6163V25.4999H20.5971V26.4807H18.6355V22.5576H22.5586V20.5961H17.6547C17.1124 20.5961 16.674 21.0345 16.674 21.5768V27.4615C16.674 28.0038 17.1124 28.4422 17.6547 28.4422ZM30.4047 28.4422H31.3855C33.5491 28.4422 35.3086 26.6827 35.3086 24.5191C35.3086 22.3556 33.5491 20.5961 31.3855 20.5961H30.4047C29.8624 20.5961 29.424 21.0345 29.424 21.5768V27.4615C29.424 28.0038 29.8624 28.4422 30.4047 28.4422ZM31.3855 22.5576C32.4673 22.5576 33.3471 23.4374 33.3471 24.5191C33.3471 25.6009 32.4673 26.4807 31.3855 26.4807V22.5576ZM25.5009 26.4807C27.1231 26.4807 28.4432 25.1606 28.4432 23.5384C28.4432 21.9162 27.1231 20.5961 25.5009 20.5961H24.5201C23.9778 20.5961 23.5394 21.0345 23.5394 21.5768V28.4422H25.5009V26.4807ZM25.5009 22.5576C26.0423 22.5576 26.4817 22.997 26.4817 23.5384C26.4817 24.0798 26.0423 24.5191 25.5009 24.5191V22.5576ZM9.80859 28.4422H11.7701V26.4807H12.7509C13.2923 26.4807 13.7317 26.9201 13.7317 27.4615V28.4422H15.6932V27.4615C15.6932 26.7053 15.398 26.0217 14.9282 25.4999C15.399 24.9781 15.6932 24.2946 15.6932 23.5384C15.6932 21.9162 14.3731 20.5961 12.7509 20.5961H10.7894C10.247 20.5961 9.80859 21.0345 9.80859 21.5768V28.4422ZM11.7701 22.5576H12.7509C13.2923 22.5576 13.7317 22.997 13.7317 23.5384C13.7317 24.0798 13.2923 24.5191 12.7509 24.5191H11.7701V22.5576Z" fill="#FF5000"/>
<path d="M49.0385 43.7286L49.0375 3.9221C49.0375 1.7595 47.278 0 45.1154 0H7.84615C5.68258 0 3.92308 1.7595 3.92308 3.92308C1.7595 3.92308 0 5.68258 0 7.84615V56.8846C0 59.0482 1.7595 60.8077 3.92308 60.8077H41.1923C43.3559 60.8077 45.1154 59.0482 45.1154 56.8846C47.279 56.8846 49.0385 55.1251 49.0385 52.9615V51.8288C50.2242 50.8862 51 49.4494 51 47.8203C51 46.4473 50.4655 45.1556 49.4945 44.1846L49.0385 43.7286ZM7.84615 1.96154H45.1154C46.1972 1.96154 47.0759 2.84031 47.0759 3.9221L47.0769 41.767L45.1154 39.8055V13.7308C45.1154 13.4699 45.0124 13.2208 44.828 13.0374L36.0011 4.21044C35.8177 4.02606 35.5686 3.92308 35.3077 3.92308H5.88462C5.88462 2.84129 6.76437 1.96154 7.84615 1.96154ZM36.2885 7.27142L41.767 12.75H38.25C37.1682 12.75 36.2885 11.8703 36.2885 10.7885V7.27142ZM41.1923 58.8462H3.92308C2.84129 58.8462 1.96154 57.9664 1.96154 56.8846V7.84615C1.96154 6.76437 2.84129 5.88462 3.92308 5.88462H34.3269V10.7885C34.3269 12.952 36.0864 14.7115 38.25 14.7115H43.1538V37.844L38.9434 33.6335C38.5599 33.25 37.9401 33.25 37.5566 33.6335L37.2692 33.9209L35.6765 32.3281C37.6655 32.1388 39.2308 30.4794 39.2308 28.4423V20.5962C39.2308 18.4326 37.4713 16.6731 35.3077 16.6731H34.9948C32.3095 12.4273 27.5998 9.80769 22.5577 9.80769C17.5156 9.80769 12.8059 12.4273 10.1206 16.6731H9.80769C7.64411 16.6731 5.88462 18.4326 5.88462 20.5962V28.4423C5.88462 30.6059 7.64411 32.3654 9.80769 32.3654H10.1206C12.8059 36.6111 17.5156 39.2308 22.5577 39.2308C25.194 39.2308 27.7401 38.5148 29.9547 37.2261L31.9593 39.2308L31.672 39.5181C31.2885 39.9016 31.2885 40.5215 31.672 40.9049L42.2231 51.4561C42.5065 51.7395 42.8223 51.9729 43.1538 52.1789V56.8846C43.1538 57.9664 42.2741 58.8462 41.1923 58.8462ZM33.3462 37.844L31.6073 36.1051C32.5478 35.3724 33.403 34.5241 34.1484 33.5737L35.8824 35.3077L33.3462 37.844ZM29.9429 16.6731C27.9352 14.7792 25.3342 13.7308 22.5577 13.7308C19.7841 13.7308 17.1772 14.7792 15.1686 16.6731H12.5117C14.9097 13.6131 18.6179 11.7692 22.5577 11.7692C26.4974 11.7692 30.2057 13.6131 32.6037 16.6731H29.9429ZM26.5965 16.6731H18.5159C19.7507 16.0356 21.1277 15.6923 22.5577 15.6923C23.9886 15.6923 25.3627 16.0356 26.5965 16.6731ZM35.3077 18.6346C36.3895 18.6346 37.2692 19.5144 37.2692 20.5962V28.4423C37.2692 29.5241 36.3895 30.4038 35.3077 30.4038H9.80769C8.7259 30.4038 7.84615 29.5241 7.84615 28.4423V20.5962C7.84615 19.5144 8.7259 18.6346 9.80769 18.6346H35.3077ZM26.5975 32.3654C25.3637 33.0029 23.9896 33.3462 22.5577 33.3462C21.1258 33.3462 19.7527 33.0029 18.5179 32.3654H26.5975ZM15.1715 32.3654C17.1792 34.2593 19.7811 35.3077 22.5577 35.3077C25.3342 35.3077 27.9362 34.2593 29.9439 32.3654H32.6037C30.2057 35.4254 26.4974 37.2692 22.5577 37.2692C18.6179 37.2692 14.9097 35.4254 12.5117 32.3654H15.1715ZM47.0769 52.9615C47.0769 54.0433 46.1972 54.9231 45.1154 54.9231V52.889C45.3606 52.9243 45.6058 52.9615 45.8588 52.9615C46.2805 52.9615 46.6846 52.8958 47.0769 52.7997V52.9615ZM45.8588 51C45.0095 51 44.2101 50.6695 43.6099 50.0693L33.7522 40.2115L38.25 35.7137L48.1077 45.5714C48.7079 46.1717 49.0385 46.971 49.0385 47.8203C49.0385 49.574 47.6124 51 45.8588 51Z" fill="#FF5000"/>
<path d="M18.6354 41.1923H3.92383V43.1538H18.6354V41.1923Z" fill="#FF5000"/>
<path d="M30.4046 45.1154H3.92383V47.0769H30.4046V45.1154Z" fill="#FF5000"/>
<path d="M23.5392 49.0385H3.92383V51H23.5392V49.0385Z" fill="#FF5000"/>
<path d="M35.3084 52.9615H3.92383V54.9231H35.3084V52.9615Z" fill="#FF5000"/>
</svg>
