<svg width="63" height="52" viewBox="0 0 63 52" fill="none" xmlns="http://www.w3.org/2000/svg">
<path d="M59.28 0H3.12C1.404 0 0 1.404 0 3.12V48.88C0 50.596 1.404 52 3.12 52H59.28C60.996 52 62.4 50.596 62.4 48.88V3.12C62.4 1.404 60.996 0 59.28 0ZM57.2 3.12C57.772 3.12 58.24 3.588 58.24 4.16C58.24 4.732 57.772 5.2 57.2 5.2C56.628 5.2 56.16 4.732 56.16 4.16C56.16 3.588 56.628 3.12 57.2 3.12ZM53.04 3.12C53.612 3.12 54.08 3.588 54.08 4.16C54.08 4.732 53.612 5.2 53.04 5.2C52.468 5.2 52 4.732 52 4.16C52 3.588 52.468 3.12 53.04 3.12ZM48.88 3.12C49.452 3.12 49.92 3.588 49.92 4.16C49.92 4.732 49.452 5.2 48.88 5.2C48.308 5.2 47.84 4.732 47.84 4.16C47.84 3.588 48.308 3.12 48.88 3.12ZM60.32 48.88C60.32 49.452 59.852 49.92 59.28 49.92H3.12C2.548 49.92 2.08 49.452 2.08 48.88V8.32H60.32V48.88Z" fill="#FF4F00"/>
<path d="M10.3999 44.72H16.6399C17.2119 44.72 17.6799 44.252 17.6799 43.68C17.6799 40.0816 19.0839 36.6808 21.6423 34.1224C24.2007 31.564 27.6015 30.16 31.1999 30.16C34.5487 30.16 37.6271 31.3872 39.9879 33.4152L41.4647 31.9384L42.9415 30.4616C43.3471 30.056 44.0127 30.056 44.4183 30.4616C44.8239 30.8672 44.8239 31.5328 44.4183 31.9384L42.9311 33.4256L41.4647 34.892C43.4927 37.2528 44.7199 40.3312 44.7199 43.68C44.7199 44.252 45.1879 44.72 45.7599 44.72H51.9999C52.5719 44.72 53.0399 44.252 53.0399 43.68C53.0399 31.6368 43.2431 21.84 31.1999 21.84C25.3655 21.84 19.8847 24.1176 15.7559 28.236C11.6375 32.3648 9.35986 37.8456 9.35986 43.68C9.35986 44.252 9.82786 44.72 10.3999 44.72ZM16.5151 30.472L19.4583 33.4152C17.1911 36.0152 15.8599 39.2184 15.6311 42.64H11.4711C11.6999 38.0952 13.4679 33.852 16.5151 30.472Z" fill="#FF4F00"/>
<path d="M39.9881 33.4152L32.5313 40.872C32.1257 40.664 31.6785 40.56 31.2001 40.56C29.4841 40.56 28.0801 41.964 28.0801 43.68C28.0801 45.396 29.4841 46.8 31.2001 46.8C32.9161 46.8 34.3201 45.396 34.3201 43.68C34.3201 43.2016 34.2161 42.7544 34.0081 42.3488L41.4649 34.892C41.0177 34.3616 40.5185 33.8624 39.9881 33.4152ZM20.8001 14.56H41.6001C42.1721 14.56 42.6401 14.092 42.6401 13.52C42.6401 12.948 42.1721 12.48 41.6001 12.48H20.8001C20.2281 12.48 19.7601 12.948 19.7601 13.52C19.7601 14.092 20.2281 14.56 20.8001 14.56ZM15.6001 18.72H46.8001C47.3721 18.72 47.8401 18.252 47.8401 17.68C47.8401 17.108 47.3721 16.64 46.8001 16.64H15.6001C15.0281 16.64 14.5601 17.108 14.5601 17.68C14.5601 18.252 15.0281 18.72 15.6001 18.72Z" fill="#FF4F00"/>
</svg>
