<svg width="68" height="58" viewBox="0 0 68 58" fill="none" xmlns="http://www.w3.org/2000/svg">
<path d="M1.16 44.08H5.8C6.10765 44.08 6.4027 43.9578 6.62024 43.7402C6.83779 43.5227 6.96 43.2276 6.96 42.92C6.96 42.6123 6.83779 42.3173 6.62024 42.0998C6.4027 41.8822 6.10765 41.76 5.8 41.76H2.32V25.52H56.84C57.1476 25.52 57.4427 25.3978 57.6602 25.1802C57.8778 24.9627 58 24.6677 58 24.36C58 24.0523 57.8778 23.7573 57.6602 23.5398C57.4427 23.3222 57.1476 23.2 56.84 23.2H55.68V20.88H56.84C56.9924 20.8801 57.1432 20.8501 57.284 20.7919C57.4248 20.7336 57.5527 20.6482 57.6604 20.5404C57.7682 20.4327 57.8536 20.3048 57.9119 20.164C57.9701 20.0232 58.0001 19.8724 58 19.72V1.16C58.0001 1.00764 57.9701 0.856761 57.9119 0.715983C57.8536 0.575205 57.7682 0.447293 57.6604 0.339559C57.5527 0.231826 57.4248 0.146384 57.284 0.0881201C57.1432 0.0298559 56.9924 -8.82494e-05 56.84 1.95355e-07H1.16C1.00764 -8.82494e-05 0.85676 0.0298559 0.715983 0.0881201C0.575205 0.146384 0.447293 0.231826 0.339559 0.339559C0.231826 0.447293 0.146384 0.575205 0.0881198 0.715983C0.0298557 0.856761 -8.82494e-05 1.00764 1.95357e-07 1.16V19.72C-8.82494e-05 19.8724 0.0298557 20.0232 0.0881198 20.164C0.146384 20.3048 0.231826 20.4327 0.339559 20.5404C0.447293 20.6482 0.575205 20.7336 0.715983 20.7919C0.85676 20.8501 1.00764 20.8801 1.16 20.88H2.32V23.2H1.16C1.00764 23.1999 0.85676 23.2299 0.715983 23.2881C0.575205 23.3464 0.447293 23.4318 0.339559 23.5396C0.231826 23.6473 0.146384 23.7752 0.0881198 23.916C0.0298557 24.0568 -8.82494e-05 24.2076 1.95357e-07 24.36V42.92C-8.82494e-05 43.0724 0.0298557 43.2232 0.0881198 43.364C0.146384 43.5048 0.231826 43.6327 0.339559 43.7404C0.447293 43.8482 0.575205 43.9336 0.715983 43.9919C0.85676 44.0501 1.00764 44.0801 1.16 44.08ZM2.32 2.32H55.68V18.56H2.32V2.32ZM4.64 20.88H53.36V23.2H4.64V20.88ZM15.08 44.08H38.28C38.5877 44.08 38.8827 43.9578 39.1002 43.7402C39.3178 43.5227 39.44 43.2276 39.44 42.92C39.44 42.6123 39.3178 42.3173 39.1002 42.0998C38.8827 41.8822 38.5877 41.76 38.28 41.76H15.08C14.7723 41.76 14.4773 41.8822 14.2598 42.0998C14.0422 42.3173 13.92 42.6123 13.92 42.92C13.92 43.2276 14.0422 43.5227 14.2598 43.7402C14.4773 43.9578 14.7723 44.08 15.08 44.08Z" fill="#FF4F00"/>
<path d="M10.4409 13.92C11.1292 13.92 11.802 13.7159 12.3743 13.3335C12.9466 12.9511 13.3926 12.4076 13.656 11.7717C13.9194 11.1358 13.9883 10.4361 13.8541 9.76105C13.7198 9.08599 13.3884 8.46592 12.9017 7.97923C12.415 7.49254 11.7949 7.16111 11.1199 7.02683C10.4448 6.89255 9.74509 6.96147 9.1092 7.22486C8.47331 7.48825 7.92981 7.9343 7.54743 8.50658C7.16504 9.07886 6.96094 9.75168 6.96094 10.44C6.96195 11.3626 7.32891 12.2472 7.98132 12.8996C8.63373 13.552 9.5183 13.919 10.4409 13.92ZM10.4409 9.27996C10.6704 9.27996 10.8946 9.348 11.0854 9.47546C11.2762 9.60292 11.4248 9.78409 11.5126 9.99605C11.6004 10.208 11.6234 10.4413 11.5787 10.6663C11.5339 10.8913 11.4234 11.098 11.2612 11.2602C11.099 11.4224 10.8923 11.5329 10.6672 11.5777C10.4422 11.6224 10.209 11.5995 9.99703 11.5117C9.78506 11.4239 9.6039 11.2752 9.47643 11.0844C9.34897 10.8937 9.28094 10.6694 9.28094 10.44C9.28115 10.1324 9.40343 9.83745 9.62093 9.61995C9.83842 9.40245 10.1334 9.28017 10.4409 9.27996ZM10.4409 30.16C9.75266 30.16 9.07984 30.3641 8.50755 30.7465C7.93527 31.1288 7.48923 31.6723 7.22584 32.3082C6.96245 32.9441 6.89353 33.6438 7.02781 34.3189C7.16208 34.9939 7.49352 35.614 7.98021 36.1007C8.46689 36.5874 9.08697 36.9188 9.76203 37.0531C10.4371 37.1874 11.1368 37.1185 11.7727 36.8551C12.4086 36.5917 12.9521 36.1456 13.3345 35.5733C13.7168 35.0011 13.9209 34.3282 13.9209 33.64C13.9199 32.7173 13.553 31.8328 12.9006 31.1803C12.2481 30.5279 11.3636 30.161 10.4409 30.16ZM10.4409 34.8C10.2115 34.8 9.98724 34.7319 9.79648 34.6045C9.60572 34.477 9.45704 34.2958 9.36924 34.0839C9.28144 33.8719 9.25847 33.6387 9.30323 33.4137C9.34799 33.1886 9.45847 32.9819 9.6207 32.8197C9.78292 32.6575 9.98962 32.547 10.2146 32.5023C10.4397 32.4575 10.6729 32.4805 10.8849 32.5683C11.0968 32.6561 11.278 32.8047 11.4054 32.9955C11.5329 33.1863 11.6009 33.4105 11.6009 33.64C11.6007 33.9475 11.4784 34.2425 11.261 34.46C11.0435 34.6775 10.7485 34.7998 10.4409 34.8ZM17.4009 11.6H49.8809C50.1886 11.6 50.4836 11.4777 50.7012 11.2602C50.9187 11.0427 51.0409 10.7476 51.0409 10.44C51.0409 10.1323 50.9187 9.83726 50.7012 9.61972C50.4836 9.40218 50.1886 9.27996 49.8809 9.27996H17.4009C17.0933 9.27996 16.7982 9.40218 16.5807 9.61972C16.3632 9.83726 16.2409 10.1323 16.2409 10.44C16.2409 10.7476 16.3632 11.0427 16.5807 11.2602C16.7982 11.4777 17.0933 11.6 17.4009 11.6ZM38.2809 32.48H17.4009C17.0933 32.48 16.7982 32.6022 16.5807 32.8197C16.3632 33.0373 16.2409 33.3323 16.2409 33.64C16.2409 33.9476 16.3632 34.2427 16.5807 34.4602C16.7982 34.6777 17.0933 34.8 17.4009 34.8H38.2809C38.5886 34.8 38.8836 34.6777 39.1012 34.4602C39.3187 34.2427 39.4409 33.9476 39.4409 33.64C39.4409 33.3323 39.3187 33.0373 39.1012 32.8197C38.8836 32.6022 38.5886 32.48 38.2809 32.48ZM54.5209 27.84C51.138 27.844 47.8948 29.1896 45.5027 31.5817C43.1106 33.9738 41.765 37.217 41.7609 40.6C41.7609 50.4237 53.4266 57.5366 53.9251 57.8346C54.105 57.9428 54.311 58 54.5209 58C54.7309 58 54.9369 57.9428 55.1168 57.8346C55.6152 57.5366 67.2809 50.4237 67.2809 40.6C67.2769 37.217 65.9313 33.9738 63.5392 31.5817C61.1471 29.1896 57.9039 27.844 54.5209 27.84ZM54.5209 55.4591C52.2213 53.9184 44.0809 47.9417 44.0809 40.6C44.0809 37.8311 45.1809 35.1756 47.1387 33.2178C49.0966 31.2599 51.7521 30.16 54.5209 30.16C57.2898 30.16 59.9453 31.2599 61.9031 33.2178C63.861 35.1756 64.9609 37.8311 64.9609 40.6C64.9609 47.9417 56.8205 53.9184 54.5209 55.4591Z" fill="#FF4F00"/>
<path d="M54.5207 34.8C53.3736 34.8 52.2522 35.1402 51.2984 35.7775C50.3446 36.4148 49.6012 37.3207 49.1622 38.3805C48.7232 39.4403 48.6084 40.6065 48.8322 41.7316C49.0559 42.8567 49.6083 43.8901 50.4195 44.7013C51.2306 45.5124 52.2641 46.0648 53.3892 46.2886C54.5143 46.5124 55.6805 46.3975 56.7403 45.9585C57.8001 45.5196 58.7059 44.7762 59.3432 43.8224C59.9805 42.8686 60.3207 41.7472 60.3207 40.6C60.3191 39.0623 59.7075 37.588 58.6201 36.5006C57.5328 35.4133 56.0585 34.8017 54.5207 34.8ZM54.5207 44.08C53.8324 44.08 53.1596 43.8759 52.5873 43.4936C52.015 43.1112 51.569 42.5677 51.3056 41.9318C51.0422 41.2959 50.9733 40.5962 51.1076 39.9211C51.2418 39.2461 51.5733 38.626 52.06 38.1393C52.5467 37.6526 53.1667 37.3212 53.8418 37.1869C54.5168 37.0526 55.2166 37.1216 55.8524 37.3849C56.4883 37.6483 57.0318 38.0944 57.4142 38.6667C57.7966 39.2389 58.0007 39.9118 58.0007 40.6C57.9997 41.5227 57.6327 42.4073 56.9803 43.0597C56.3279 43.7121 55.4433 44.079 54.5207 44.08Z" fill="#FF4F00"/>
<path d="M10.4412 44.08C11.0819 44.08 11.6012 43.5607 11.6012 42.92C11.6012 42.2794 11.0819 41.76 10.4412 41.76C9.8006 41.76 9.28125 42.2794 9.28125 42.92C9.28125 43.5607 9.8006 44.08 10.4412 44.08Z" fill="#FF4F00"/>
</svg>
