<svg width="47" height="47" viewBox="0 0 47 47" fill="none" xmlns="http://www.w3.org/2000/svg">
<path d="M41.9643 0H5.03571C3.70016 0 2.41931 0.530547 1.47493 1.47493C0.530547 2.41931 0 3.70016 0 5.03571V41.9643C0 43.2998 0.530547 44.5807 1.47493 45.5251C2.41931 46.4695 3.70016 47 5.03571 47H41.9643C43.2998 47 44.5807 46.4695 45.5251 45.5251C46.4695 44.5807 47 43.2998 47 41.9643V5.03571C47 3.70016 46.4695 2.41931 45.5251 1.47493C44.5807 0.530547 43.2998 0 41.9643 0ZM5.03571 3.35714H41.9643C42.4095 3.35714 42.8364 3.53399 43.1512 3.84879C43.466 4.16358 43.6429 4.59053 43.6429 5.03571V13.4286H3.35714V5.03571C3.35714 4.59053 3.53399 4.16358 3.84879 3.84879C4.16358 3.53399 4.59053 3.35714 5.03571 3.35714ZM41.9643 43.6429H5.03571C4.59053 43.6429 4.16358 43.466 3.84879 43.1512C3.53399 42.8364 3.35714 42.4095 3.35714 41.9643V16.7857H43.6429V41.9643C43.6429 42.4095 43.466 42.8364 43.1512 43.1512C42.8364 43.466 42.4095 43.6429 41.9643 43.6429Z" fill="#FF5000"/>
<path d="M8.39342 10.0714H10.072C10.5172 10.0714 10.9441 9.89453 11.2589 9.57973C11.5737 9.26494 11.7506 8.83799 11.7506 8.3928C11.7506 7.94762 11.5737 7.52067 11.2589 7.20588C10.9441 6.89108 10.5172 6.71423 10.072 6.71423H8.39342C7.94823 6.71423 7.52128 6.89108 7.20649 7.20588C6.89169 7.52067 6.71484 7.94762 6.71484 8.3928C6.71484 8.83799 6.89169 9.26494 7.20649 9.57973C7.52128 9.89453 7.94823 10.0714 8.39342 10.0714ZM16.7863 10.0714H18.4648C18.91 10.0714 19.337 9.89453 19.6518 9.57973C19.9666 9.26494 20.1434 8.83799 20.1434 8.3928C20.1434 7.94762 19.9666 7.52067 19.6518 7.20588C19.337 6.89108 18.91 6.71423 18.4648 6.71423H16.7863C16.3411 6.71423 15.9141 6.89108 15.5993 7.20588C15.2846 7.52067 15.1077 7.94762 15.1077 8.3928C15.1077 8.83799 15.2846 9.26494 15.5993 9.57973C15.9141 9.89453 16.3411 10.0714 16.7863 10.0714Z" fill="#FF5000"/>
<path d="M23.5007 23.5C20.3844 23.5 17.3957 24.7379 15.1921 26.9415C12.9886 29.145 11.7507 32.1337 11.7507 35.25C11.7439 35.8125 11.7889 36.3743 11.8849 36.9286H20.6135C20.3101 36.4209 20.1479 35.8414 20.1435 35.25C20.1435 34.3596 20.4972 33.5057 21.1268 32.8761C21.7564 32.2466 22.6103 31.8929 23.5007 31.8929C23.5712 31.8929 23.6383 31.9096 23.7071 31.913L25.4612 29.2827C25.7083 28.9123 26.0924 28.6552 26.529 28.568C26.9656 28.4808 27.419 28.5706 27.7894 28.8177C28.1598 29.0648 28.4169 29.4489 28.5041 29.8855C28.5913 30.3221 28.5014 30.7755 28.2544 31.1459L26.5019 33.7745C26.7534 34.2662 26.8752 34.814 26.8559 35.3659C26.8365 35.9179 26.6765 36.4557 26.3912 36.9286H35.1197C35.2146 36.3742 35.2585 35.8124 35.2507 35.25C35.2507 32.1337 34.0127 29.145 31.8092 26.9415C29.6056 24.7379 26.6169 23.5 23.5007 23.5Z" fill="#FF5000"/>
</svg>
