<svg width="86" height="100" viewBox="0 0 86 100" fill="none" xmlns="http://www.w3.org/2000/svg">
<path d="M0 73.5V26.5L43 0L86 26.5V73.5L43 100L0 73.5Z" fill="#FF5000"/>
<path d="M58.5255 57.9661H27.4745C27.3486 57.9661 27.2279 57.9161 27.139 57.8271C27.05 57.7381 27 57.6174 27 57.4916V35.4745C27 35.3486 27.05 35.2279 27.139 35.139C27.2279 35.05 27.3486 35 27.4745 35H58.5255C58.6514 35 58.7721 35.05 58.861 35.139C58.95 35.2279 59 35.3486 59 35.4745V57.4916C59 57.6174 58.95 57.7381 58.861 57.8271C58.7721 57.9161 58.6514 57.9661 58.5255 57.9661ZM27.9489 57.0172H58.0511V35.9489H27.9489V57.0172Z" fill="white"/>
<path d="M58.5255 55.1437H27.4745C27.3486 55.1437 27.2279 55.0937 27.139 55.0048C27.05 54.9158 27 54.7951 27 54.6693C27 54.5434 27.05 54.4228 27.139 54.3338C27.2279 54.2448 27.3486 54.1948 27.4745 54.1948H58.5255C58.6514 54.1948 58.7721 54.2448 58.861 54.3338C58.95 54.4228 59 54.5434 59 54.6693C59 54.7951 58.95 54.9158 58.861 55.0048C58.7721 55.0937 58.6514 55.1437 58.5255 55.1437ZM44.5628 63.8576H41.4372C41.3114 63.8576 41.1907 63.8076 41.1017 63.7186C41.0128 63.6297 40.9628 63.509 40.9628 63.3831V57.4912C40.9628 57.3653 41.0128 57.2447 41.1017 57.1557C41.1907 57.0667 41.3114 57.0167 41.4372 57.0167H44.5628C44.6886 57.0167 44.8093 57.0667 44.8983 57.1557C44.9872 57.2447 45.0372 57.3653 45.0372 57.4912V63.3831C45.0372 63.509 44.9872 63.6297 44.8983 63.7186C44.8093 63.8076 44.6886 63.8576 44.5628 63.8576ZM41.9117 62.9087H44.0883V57.9656H41.9117V62.9087Z" fill="white"/>
<path d="M49.7688 65.8883H36.2309C36.1534 65.8879 36.0771 65.8686 36.0088 65.832C35.9405 65.7954 35.8822 65.7427 35.839 65.6783C35.7957 65.614 35.769 65.54 35.7609 65.4629C35.7529 65.3858 35.7639 65.3079 35.7929 65.2361L37.3061 61.4945C37.3414 61.4071 37.402 61.3323 37.4801 61.2795C37.5582 61.2267 37.6502 61.1984 37.7444 61.1981H41.4371C41.5629 61.1981 41.6836 61.2481 41.7726 61.3371C41.8616 61.4261 41.9116 61.5467 41.9116 61.6726C41.9116 61.7984 41.8616 61.9191 41.7726 62.0081C41.6836 62.097 41.5629 62.147 41.4371 62.147H38.0641L36.9345 64.9394H49.0652L47.9338 62.147H44.5626C44.4368 62.147 44.3161 62.097 44.2272 62.0081C44.1382 61.9191 44.0882 61.7984 44.0882 61.6726C44.0882 61.5467 44.1382 61.4261 44.2272 61.3371C44.3161 61.2481 44.4368 61.1981 44.5626 61.1981H48.2553C48.3495 61.1985 48.4414 61.2268 48.5194 61.2796C48.5974 61.3324 48.658 61.4072 48.6933 61.4945L50.2086 65.2361C50.2377 65.3079 50.2487 65.3858 50.2406 65.4629C50.2326 65.54 50.2058 65.614 50.1626 65.6783C50.1194 65.7427 50.0611 65.7954 49.9928 65.832C49.9244 65.8686 49.8482 65.8879 49.7707 65.8883H49.7688ZM34.7849 55.1441H32.6272C32.5014 55.1441 32.3807 55.0941 32.2918 55.0051C32.2028 54.9162 32.1528 54.7955 32.1528 54.6696V50.2142C32.1528 50.0883 32.2028 49.9677 32.2918 49.8787C32.3807 49.7897 32.5014 49.7397 32.6272 49.7397H34.7849C34.9107 49.7397 35.0314 49.7897 35.1204 49.8787C35.2094 49.9677 35.2594 50.0883 35.2594 50.2142V54.6696C35.2594 54.7955 35.2094 54.9162 35.1204 55.0051C35.0314 55.0941 34.9107 55.1441 34.7849 55.1441ZM33.1017 54.1952H34.3105V50.6886H33.1017V54.1952ZM39.4316 55.1441H37.2743C37.1485 55.1441 37.0278 55.0941 36.9388 55.0051C36.8499 54.9162 36.7999 54.7955 36.7999 54.6696V48.5306C36.7999 48.4048 36.8499 48.2841 36.9388 48.1951C37.0278 48.1061 37.1485 48.0561 37.2743 48.0561H39.4316C39.5575 48.0561 39.6781 48.1061 39.7671 48.1951C39.8561 48.2841 39.9061 48.4048 39.9061 48.5306V54.6696C39.9061 54.7955 39.8561 54.9162 39.7671 55.0051C39.6781 55.0941 39.5575 55.1441 39.4316 55.1441ZM37.7488 54.1952H38.9572V49.005H37.7488V54.1952ZM44.0787 55.1441H41.921C41.7952 55.1441 41.6745 55.0941 41.5856 55.0051C41.4966 54.9162 41.4466 54.7955 41.4466 54.6696V46.1233C41.4466 45.9975 41.4966 45.8768 41.5856 45.7878C41.6745 45.6988 41.7952 45.6488 41.921 45.6488H44.0787C44.2045 45.6488 44.3252 45.6988 44.4142 45.7878C44.5032 45.8768 44.5532 45.9975 44.5532 46.1233V54.6696C44.5532 54.7955 44.5032 54.9162 44.4142 55.0051C44.3252 55.0941 44.2045 55.1441 44.0787 55.1441ZM42.3955 54.1952H43.6043V46.5977H42.3955V54.1952ZM48.7254 55.1441H46.5681C46.4423 55.1441 46.3216 55.0941 46.2326 55.0051C46.1437 54.9162 46.0937 54.7955 46.0937 54.6696V47.6507C46.0937 47.5248 46.1437 47.4042 46.2326 47.3152C46.3216 47.2262 46.4423 47.1762 46.5681 47.1762H48.7254C48.8512 47.1762 48.9719 47.2262 49.0609 47.3152C49.1499 47.4042 49.1999 47.5248 49.1999 47.6507V54.6696C49.1999 54.7955 49.1499 54.9162 49.0609 55.0051C48.9719 55.0941 48.8512 55.1441 48.7254 55.1441ZM47.0426 54.1952H48.251V48.1251H47.0426V54.1952ZM53.3725 55.1441H51.2148C51.089 55.1441 50.9683 55.0941 50.8793 55.0051C50.7904 54.9162 50.7404 54.7955 50.7404 54.6696V42.8386C50.7404 42.7128 50.7904 42.5921 50.8793 42.5031C50.9683 42.4142 51.089 42.3642 51.2148 42.3642H53.3725C53.4983 42.3642 53.619 42.4142 53.708 42.5031C53.797 42.5921 53.847 42.7128 53.847 42.8386V54.6696C53.847 54.7955 53.797 54.9162 53.708 55.0051C53.619 55.0941 53.4983 55.1441 53.3725 55.1441ZM51.6893 54.1952H52.898V43.3131H51.6893V54.1952ZM34.128 46.5977C33.2546 46.5977 32.4008 46.3387 31.6745 45.8535C30.9483 45.3683 30.3823 44.6786 30.0481 43.8716C29.7138 43.0647 29.6264 42.1768 29.7968 41.3202C29.9672 40.4635 30.3878 39.6767 31.0053 39.0591C31.6229 38.4415 32.4098 38.0209 33.2664 37.8505C34.1231 37.6801 35.011 37.7675 35.8179 38.1018C36.6249 38.436 37.3145 39.002 37.7998 39.7283C38.285 40.4545 38.544 41.3083 38.544 42.1817C38.5427 43.3525 38.077 44.4749 37.2491 45.3028C36.4212 46.1307 35.2988 46.5964 34.128 46.5977ZM34.128 38.7145C33.4422 38.7145 32.7719 38.9179 32.2017 39.2989C31.6316 39.6798 31.1872 40.2213 30.9247 40.8549C30.6623 41.4884 30.5937 42.1855 30.7274 42.8581C30.8612 43.5307 31.1914 44.1484 31.6763 44.6333C32.1612 45.1182 32.779 45.4484 33.4516 45.5822C34.1241 45.716 34.8213 45.6473 35.4548 45.3849C36.0883 45.1225 36.6298 44.6781 37.0108 44.1079C37.3918 43.5378 37.5951 42.8674 37.5951 42.1817C37.5941 41.2625 37.2284 40.3812 36.5784 39.7312C35.9285 39.0812 35.0472 38.7156 34.128 38.7145Z" fill="white"/>
<path d="M34.1278 42.6561C34.0019 42.6561 33.8813 42.6061 33.7923 42.5172C33.7033 42.4282 33.6533 42.3075 33.6533 42.1817V38.2401C33.6533 38.1142 33.7033 37.9936 33.7923 37.9046C33.8813 37.8156 34.0019 37.7656 34.1278 37.7656C34.2536 37.7656 34.3743 37.8156 34.4633 37.9046C34.5522 37.9936 34.6022 38.1142 34.6022 38.2401V42.1817C34.6022 42.3075 34.5522 42.4282 34.4633 42.5172C34.3743 42.6061 34.2536 42.6561 34.1278 42.6561Z" fill="white"/>
<path d="M37.5406 44.6268C37.4575 44.6269 37.376 44.6049 37.3041 44.5633L33.8906 42.5925C33.7816 42.5296 33.7021 42.4259 33.6695 42.3044C33.6369 42.1828 33.654 42.0533 33.7169 41.9443C33.7798 41.8353 33.8834 41.7558 34.005 41.7232C34.1265 41.6906 34.2561 41.7077 34.3651 41.7706L37.7786 43.7414C37.8691 43.7936 37.9398 43.8743 37.9798 43.9709C38.0198 44.0675 38.0268 44.1745 37.9996 44.2755C37.9725 44.3764 37.9128 44.4656 37.8298 44.5291C37.7468 44.5926 37.6451 44.627 37.5406 44.6268Z" fill="white"/>
<path d="M30.7145 44.6268C30.61 44.627 30.5084 44.5926 30.4254 44.5291C30.3424 44.4656 30.2826 44.3764 30.2555 44.2755C30.2284 44.1745 30.2354 44.0675 30.2753 43.9709C30.3153 43.8743 30.3861 43.7936 30.4766 43.7414L33.8905 41.7706C33.9994 41.7077 34.129 41.6906 34.2505 41.7232C34.3721 41.7558 34.4757 41.8353 34.5386 41.9443C34.6016 42.0533 34.6186 42.1828 34.586 42.3044C34.5534 42.4259 34.4739 42.5296 34.3649 42.5925L30.951 44.5633C30.8792 44.6049 30.7976 44.6269 30.7145 44.6268Z" fill="white"/>
</svg>
