<svg width="40" height="49" viewBox="0 0 40 49" fill="none" xmlns="http://www.w3.org/2000/svg">
<path d="M13.3643 17.7942L16.116 21.4287C16.5086 21.9373 17.086 22.2703 17.7228 22.3553C18.3596 22.4403 19.0043 22.2705 19.5165 21.8828C20.0288 21.495 20.3672 20.9207 20.4582 20.2847C20.5493 19.6488 20.3856 19.0026 20.0027 18.4867L18.5871 16.6166L23.4189 16.327C23.834 16.298 24.235 16.1645 24.5845 15.9388C24.9341 15.7131 25.2208 15.4026 25.418 15.0362C25.6151 14.6698 25.7163 14.2594 25.7121 13.8433C25.7079 13.4273 25.5984 13.0191 25.3939 12.6567L21.5033 5.91766C21.2915 5.55961 20.9926 5.26095 20.6343 5.04948C20.2761 4.83801 19.8702 4.72061 19.4544 4.7082C19.0385 4.69579 18.6264 4.78877 18.2561 4.9785C17.8859 5.16823 17.5697 5.44853 17.337 5.79331L14.3183 10.3647C14.0073 10.834 13.8681 11.3964 13.9243 11.9566L11.6143 13.29C11.1136 13.5847 10.7341 14.048 10.5436 14.5969C10.353 15.1458 10.364 15.7445 10.5744 16.2861C10.7848 16.8277 11.181 17.2768 11.6921 17.5531C12.2032 17.8293 12.7959 17.9148 13.3643 17.7942ZM18.8471 20.1168C18.8145 20.2671 18.7398 20.4051 18.6316 20.5144C18.5235 20.6238 18.3864 20.7 18.2364 20.7342C18.0865 20.7685 17.9299 20.7593 17.785 20.7077C17.6401 20.6561 17.5129 20.5643 17.4183 20.443L14.8659 17.0719L16.2695 16.2616L18.7004 19.4724C18.7698 19.5629 18.8189 19.6674 18.8442 19.7786C18.8695 19.8898 18.8705 20.0052 18.8471 20.1168ZM15.6817 11.2643L18.7 6.69288C18.7766 6.57668 18.8818 6.482 19.0053 6.41786C19.1289 6.35371 19.2668 6.32222 19.406 6.32637C19.5451 6.33053 19.6809 6.37019 19.8004 6.44159C19.9199 6.513 20.0192 6.61377 20.0888 6.73434L23.9796 13.4735C24.0492 13.594 24.0868 13.7303 24.0889 13.8694C24.091 14.0086 24.0575 14.146 23.9915 14.2685C23.9256 14.3911 23.8295 14.4948 23.7122 14.5697C23.595 14.6447 23.4605 14.6884 23.3216 14.6968L17.8522 15.0246C17.7011 15.0325 17.5507 14.9988 17.4174 14.9271C17.2842 14.8554 17.1732 14.7484 17.0965 14.6179L16.3764 13.3706L15.6558 12.1223C15.5796 11.9911 15.5417 11.8412 15.5463 11.6896C15.5509 11.538 15.5978 11.3906 15.6817 11.2643ZM12.1327 15.8206C12.0247 15.6329 11.9954 15.4101 12.0514 15.201C12.1074 14.9918 12.2441 14.8134 12.4314 14.7048L14.5532 13.4799L15.37 14.8946L13.2481 16.1196C13.0604 16.2275 12.8377 16.2566 12.6286 16.2005C12.4195 16.1445 12.2412 16.0079 12.1327 15.8206ZM24.8632 8.47054C24.9717 8.65797 25.1501 8.79471 25.3593 8.85078C25.5684 8.90685 25.7913 8.87766 25.979 8.76961L27.3934 7.95295C27.5809 7.84459 27.7177 7.66621 27.7737 7.45703C27.8297 7.24784 27.8004 7.02497 27.6921 6.83742C27.5838 6.64987 27.4055 6.51298 27.1964 6.45686C26.9872 6.40074 26.7643 6.42997 26.5767 6.53814L25.1623 7.3548C24.9747 7.46312 24.8378 7.64152 24.7817 7.85075C24.7257 8.05998 24.755 8.28292 24.8632 8.47054ZM23.0696 6.67691C23.2572 6.78497 23.48 6.81417 23.6891 6.7581C23.8983 6.70203 24.0766 6.56526 24.1849 6.37783L25.0016 4.96382C25.0553 4.87097 25.0902 4.76845 25.1042 4.66212C25.1183 4.55579 25.1113 4.44773 25.0835 4.34412C25.0558 4.24051 25.008 4.14337 24.9427 4.05826C24.8774 3.97315 24.796 3.90173 24.7032 3.84809C24.6103 3.79445 24.5077 3.75964 24.4014 3.74563C24.2951 3.73163 24.187 3.73872 24.0834 3.76649C23.9798 3.79427 23.8827 3.84218 23.7976 3.90749C23.7126 3.97281 23.6412 4.05424 23.5876 4.14715L22.7709 5.56117C22.7172 5.65403 22.6824 5.75656 22.6683 5.8629C22.6543 5.96924 22.6613 6.07731 22.6891 6.18092C22.7168 6.28454 22.7647 6.38167 22.83 6.46678C22.8953 6.55188 22.9767 6.62328 23.0696 6.67691ZM25.5196 10.9205C25.5196 11.0278 25.5407 11.134 25.5817 11.2331C25.6227 11.3322 25.6829 11.4222 25.7587 11.4981C25.8346 11.5739 25.9246 11.6341 26.0237 11.6751C26.1228 11.7161 26.229 11.7372 26.3363 11.7372H27.9696C28.1862 11.7372 28.3939 11.6512 28.5471 11.498C28.7002 11.3449 28.7863 11.1371 28.7863 10.9205C28.7863 10.7039 28.7002 10.4962 28.5471 10.3431C28.3939 10.1899 28.1862 10.1039 27.9696 10.1039H26.3363C26.229 10.1038 26.1228 10.125 26.0237 10.166C25.9246 10.207 25.8346 10.2672 25.7587 10.343C25.6829 10.4188 25.6227 10.5089 25.5817 10.608C25.5407 10.7071 25.5196 10.8133 25.5196 10.9205Z" fill="#FF5000"/>
<path d="M38.3708 47.3666H36.7374V17.9666C36.7365 17.1005 36.3921 16.2702 35.7796 15.6578C35.1672 15.0454 34.3369 14.7009 33.4708 14.7H32.5407C32.7739 12.8613 32.613 10.9941 32.0687 9.2224C31.5244 7.45074 30.6091 5.81525 29.3838 4.4247C28.1585 3.03415 26.6512 1.92039 24.9621 1.15748C23.273 0.394572 21.4408 0 19.5874 0C17.7341 0 15.9019 0.394572 14.2128 1.15748C12.5237 1.92039 11.0164 3.03415 9.79106 4.4247C8.56574 5.81525 7.65049 7.45074 7.10618 9.2224C6.56187 10.9941 6.40097 12.8613 6.63417 14.7H5.70411C4.83802 14.7009 4.00767 15.0454 3.39525 15.6578C2.78283 16.2702 2.43837 17.1005 2.43745 17.9666V47.3666H0.804112C0.58971 47.3699 0.385213 47.4575 0.234769 47.6102C0.084324 47.763 0 47.9689 0 48.1833C0 48.3977 0.084324 48.6036 0.234769 48.7563C0.385213 48.9091 0.58971 48.9966 0.804112 49H38.3708C38.5852 48.9966 38.7897 48.9091 38.9401 48.7563C39.0906 48.6036 39.1749 48.3977 39.1749 48.1833C39.1749 47.9689 39.0906 47.763 38.9401 47.6102C38.7897 47.4575 38.5852 47.3699 38.3708 47.3666ZM19.5874 1.6333C22.6187 1.6367 25.5248 2.84237 27.6683 4.9858C29.8117 7.12923 31.0174 10.0354 31.0208 13.0666C30.3929 28.2345 8.77968 28.2301 8.15411 13.0665C8.15754 10.0353 9.36322 7.12918 11.5066 4.98577C13.6501 2.84236 16.5562 1.6367 19.5874 1.6333ZM27.7541 24.5H31.0208L31.022 26.95H27.7541V24.5ZM17.9541 26.0199C19.038 26.1672 20.1369 26.1672 21.2208 26.0199V26.95H17.9541V26.0199ZM11.422 26.95H8.15411V24.5H11.4208L11.422 26.95ZM15.5041 47.3666V40.0166C15.5043 39.8001 15.5904 39.5925 15.7435 39.4394C15.8967 39.2863 16.1042 39.2002 16.3208 39.2H22.8541C23.0706 39.2002 23.2782 39.2863 23.4313 39.4394C23.5844 39.5925 23.6706 39.8001 23.6708 40.0166V47.3666H15.5041ZM25.3041 47.3666V40.0166C25.3034 39.3671 25.045 38.7443 24.5857 38.285C24.1264 37.8257 23.5037 37.5673 22.8541 37.5666H16.3208C15.6712 37.5673 15.0485 37.8257 14.5891 38.285C14.1298 38.7443 13.8715 39.3671 13.8708 40.0166V47.3666H4.07078V17.9666C4.07127 17.5336 4.24352 17.1184 4.54972 16.8122C4.85592 16.506 5.27108 16.3338 5.70411 16.3333H6.95079C7.6077 18.8646 9.0091 21.1405 10.9737 22.8666H8.15411C7.72108 22.8671 7.30592 23.0394 6.99972 23.3456C6.69352 23.6518 6.52127 24.0669 6.52078 24.5V26.95C6.52127 27.383 6.69352 27.7982 6.99972 28.1044C7.30592 28.4106 7.72108 28.5828 8.15411 28.5833H11.4208C11.8538 28.5828 12.269 28.4106 12.5752 28.1044C12.8814 27.7982 13.0536 27.383 13.0541 26.95V24.5C13.0541 24.4508 13.0439 24.4045 13.0396 24.3564C14.0665 24.9535 15.1705 25.4067 16.3208 25.7033V26.95C16.3213 27.383 16.4935 27.7982 16.7997 28.1044C17.1059 28.4106 17.5211 28.5828 17.9541 28.5833H21.2208C21.6538 28.5828 22.069 28.4106 22.3752 28.1044C22.6814 27.7982 22.8536 27.383 22.8541 26.95V25.7033C24.0043 25.4067 25.1084 24.9535 26.1353 24.3564C26.131 24.4045 26.1208 24.4508 26.1208 24.5V26.95C26.1213 27.383 26.2935 27.7982 26.5997 28.1044C26.9059 28.4106 27.3211 28.5828 27.7541 28.5833H31.0208C31.4538 28.5828 31.869 28.4106 32.1752 28.1044C32.4814 27.7982 32.6536 27.383 32.6541 26.95V24.5C32.6536 24.0669 32.4814 23.6518 32.1752 23.3456C31.869 23.0394 31.4538 22.8671 31.0208 22.8666H28.2012C30.1658 21.1405 31.5672 18.8646 32.2241 16.3333H33.4708C33.9038 16.3338 34.319 16.506 34.6252 16.8122C34.9314 17.1184 35.1036 17.5336 35.1041 17.9666V47.3666H25.3041Z" fill="#FF5000"/>
<path d="M11.4215 30.2167H8.15482C7.72178 30.2172 7.30663 30.3894 7.00042 30.6956C6.69422 31.0018 6.52198 31.417 6.52148 31.85V34.3C6.52198 34.733 6.69422 35.1482 7.00042 35.4544C7.30663 35.7606 7.72178 35.9328 8.15482 35.9333H11.4215C11.8545 35.9328 12.2697 35.7606 12.5759 35.4544C12.8821 35.1482 13.0543 34.733 13.0548 34.3V31.85C13.0543 31.417 12.8821 31.0018 12.5759 30.6956C12.2697 30.3894 11.8545 30.2172 11.4215 30.2167ZM8.15482 34.3V31.85H11.4215L11.4227 34.3H8.15482ZM21.2215 30.2167H17.9548C17.5218 30.2172 17.1066 30.3894 16.8004 30.6956C16.4942 31.0018 16.322 31.417 16.3215 31.85V34.3C16.322 34.733 16.4942 35.1482 16.8004 35.4544C17.1066 35.7606 17.5218 35.9328 17.9548 35.9333H21.2215C21.6545 35.9328 22.0697 35.7606 22.3759 35.4544C22.6821 35.1482 22.8543 34.733 22.8548 34.3V31.85C22.8543 31.417 22.6821 31.0018 22.3759 30.6956C22.0697 30.3894 21.6545 30.2172 21.2215 30.2167ZM17.9548 34.3V31.85H21.2215L21.2227 34.3H17.9548ZM31.0215 30.2167H27.7548C27.3218 30.2172 26.9066 30.3894 26.6004 30.6956C26.2942 31.0018 26.122 31.417 26.1215 31.85V34.3C26.122 34.733 26.2942 35.1482 26.6004 35.4544C26.9066 35.7606 27.3218 35.9328 27.7548 35.9333H31.0215C31.4545 35.9328 31.8697 35.7606 32.1759 35.4544C32.4821 35.1482 32.6543 34.733 32.6548 34.3V31.85C32.6543 31.417 32.4821 31.0018 32.1759 30.6956C31.8697 30.3894 31.4545 30.2172 31.0215 30.2167ZM27.7548 34.3V31.85H31.0215L31.0227 34.3H27.7548Z" fill="#FF5000"/>
</svg>
