<svg width="52" height="52" viewBox="0 0 52 52" fill="none" xmlns="http://www.w3.org/2000/svg">
<path fill-rule="evenodd" clip-rule="evenodd" d="M3.71913 0C1.68266 0 0.00520067 1.67746 0.00520067 3.71393L0.000248829 35.9063C0.000248829 37.559 2.47868 37.559 2.47868 35.9063L2.48116 3.71393C2.48116 3.00705 3.01225 2.47595 3.71913 2.47595H38.3825C39.0894 2.47595 39.6205 3.00705 39.6205 3.71393V25.9975C39.5957 27.6713 42.1212 27.6713 42.0964 25.9975V3.71393C42.0964 1.67746 40.419 0 38.3825 0H3.71913ZM11.147 9.90382C10.8187 9.90382 10.5038 10.0342 10.2716 10.2664C10.0394 10.4986 9.90902 10.8135 9.90902 11.1418C9.90902 11.4701 10.0394 11.785 10.2716 12.0172C10.5038 12.2493 10.8187 12.3798 11.147 12.3798C11.4753 12.3798 11.7902 12.2493 12.0224 12.0172C12.2545 11.785 12.385 11.4701 12.385 11.1418C12.385 10.8135 12.2545 10.4986 12.0224 10.2664C11.7902 10.0342 11.4753 9.90382 11.147 9.90382ZM15.9751 9.90629C14.362 10.0177 14.4772 12.4243 16.094 12.3822H30.9546C32.5702 12.3476 32.5702 9.94096 30.9546 9.90629H16.094C16.0544 9.90442 16.0147 9.90442 15.9751 9.90629ZM11.147 17.3317C10.8187 17.3317 10.5038 17.4621 10.2716 17.6943C10.0394 17.9264 9.90902 18.2413 9.90902 18.5697C9.90902 18.898 10.0394 19.2129 10.2716 19.445C10.5038 19.6772 10.8187 19.8076 11.147 19.8076C11.4753 19.8076 11.7902 19.6772 12.0224 19.445C12.2545 19.2129 12.385 18.898 12.385 18.5697C12.385 18.2413 12.2545 17.9264 12.0224 17.6943C11.7902 17.4621 11.4753 17.3317 11.147 17.3317ZM31.0908 17.3317C31.045 17.3317 30.9992 17.3317 30.9546 17.3366H16.094C16.0544 17.3348 16.0147 17.3348 15.9751 17.3366C14.4573 17.5248 14.5638 19.7606 16.094 19.8027H30.9546C32.6544 19.9525 32.7967 17.3676 31.0908 17.3317ZM16.094 24.7571C14.4784 24.7917 14.4784 27.1984 16.094 27.233H30.9546C32.6408 27.2702 32.6408 24.7199 30.9546 24.7571H16.094ZM11.147 24.7595C10.8187 24.7595 10.5038 24.89 10.2716 25.1221C10.0394 25.3543 9.90902 25.6692 9.90902 25.9975C9.90902 26.3259 10.0394 26.6407 10.2716 26.8729C10.5038 27.1051 10.8187 27.2355 11.147 27.2355C11.4753 27.2355 11.7902 27.1051 12.0224 26.8729C12.2545 26.6407 12.385 26.3259 12.385 25.9975C12.385 25.6692 12.2545 25.3543 12.0224 25.1221C11.7902 24.89 11.4753 24.7595 11.147 24.7595ZM11.147 32.1874C10.8187 32.1874 10.5038 32.3178 10.2716 32.55C10.0394 32.7822 9.90902 33.0971 9.90902 33.4254C9.90902 33.7537 10.0394 34.0686 10.2716 34.3008C10.5038 34.5329 10.8187 34.6634 11.147 34.6634C11.4753 34.6634 11.7902 34.5329 12.0224 34.3008C12.2545 34.0686 12.385 33.7537 12.385 33.4254C12.385 33.0971 12.2545 32.7822 12.0224 32.55C11.7902 32.3178 11.4753 32.1874 11.147 32.1874ZM16.094 32.1874C14.4078 32.1503 14.4078 34.7005 16.094 34.6634H28.4762C30.1623 34.7005 30.1623 32.1503 28.4762 32.1874H16.094ZM11.147 39.6153C10.8187 39.6153 10.5038 39.7457 10.2716 39.9779C10.0394 40.21 9.90902 40.5249 9.90902 40.8532C9.90902 41.1816 10.0394 41.4965 10.2716 41.7286C10.5038 41.9608 10.8187 42.0912 11.147 42.0912C11.4753 42.0912 11.7902 41.9608 12.0224 41.7286C12.2545 41.4965 12.385 41.1816 12.385 40.8532C12.385 40.5249 12.2545 40.21 12.0224 39.9779C11.7902 39.7457 11.4753 39.6153 11.147 39.6153ZM15.9751 39.6153C14.3236 39.6945 14.4413 42.1729 16.094 42.0937H26.0002C27.653 42.0937 27.653 39.6153 26.0002 39.6153H16.094C16.0544 39.6134 16.0147 39.6134 15.9751 39.6153ZM1.22585 40.831C1.06221 40.8326 0.900521 40.8666 0.750122 40.9311C0.599723 40.9956 0.463601 41.0892 0.349629 41.2067C0.235656 41.3241 0.146096 41.4629 0.0861262 41.6152C0.0261565 41.7675 -0.00303185 41.9301 0.000248829 42.0937L0.00520067 48.2811C0.00520067 50.3176 1.68266 51.995 3.71913 51.995H28.4787C30.1524 52.0198 30.1524 49.4943 28.4787 49.5191H3.71913C3.01225 49.5191 2.48116 48.988 2.48116 48.2811L2.47868 42.0937C2.48201 41.9278 2.45196 41.7629 2.3903 41.6089C2.32864 41.4548 2.23664 41.3147 2.11977 41.1969C2.0029 41.0791 1.86354 40.986 1.70997 40.9232C1.55641 40.8603 1.39177 40.8289 1.22585 40.831ZM40.8609 29.709C34.7218 29.709 29.7216 34.7116 29.7216 40.8508C29.7216 46.9899 34.723 52 40.8609 52C47.0001 52 52.0002 46.9899 52.0002 40.8508C52.0002 34.7116 46.9988 29.709 40.8609 29.709ZM40.8609 32.1874C41.9994 32.1848 43.1271 32.4071 44.1793 32.8415C45.2316 33.276 46.1877 33.914 46.9927 34.719C47.7977 35.524 48.4357 36.4801 48.8702 37.5324C49.3046 38.5846 49.5269 39.7124 49.5243 40.8508C49.5271 41.9896 49.3049 43.1177 48.8706 44.1705C48.4363 45.2233 47.7984 46.1799 46.9935 46.9855C46.1886 47.7911 45.2325 48.4299 44.1801 48.8651C43.1277 49.3003 41.9997 49.5234 40.8609 49.5216C39.7221 49.5234 38.5941 49.3003 37.5418 48.8651C36.4894 48.4299 35.5333 47.7911 34.7284 46.9855C33.9235 46.1799 33.2855 45.2233 32.8512 44.1705C32.4169 43.1177 32.1948 41.9896 32.1976 40.8508C32.195 39.7124 32.4173 38.5846 32.8517 37.5324C33.2862 36.4801 33.9242 35.524 34.7292 34.719C35.5342 33.914 36.4902 33.276 37.5425 32.8415C38.5948 32.4071 39.7225 32.1848 40.8609 32.1874ZM44.7705 36.9846C44.4499 36.995 44.1458 37.1295 43.9224 37.3597L39.545 41.7359L37.7994 39.983C37.6846 39.8662 37.5479 39.7734 37.3971 39.7098C37.2462 39.6461 37.0843 39.613 36.9206 39.6123C36.7569 39.6115 36.5947 39.6432 36.4433 39.7054C36.2919 39.7677 36.1543 39.8593 36.0385 39.975C35.9226 40.0906 35.8308 40.2281 35.7684 40.3794C35.7059 40.5307 35.674 40.6929 35.6745 40.8566C35.675 41.0203 35.7079 41.1823 35.7713 41.3332C35.8348 41.4841 35.9274 41.621 36.044 41.7359L38.6685 44.3592C38.7834 44.4743 38.92 44.5656 39.0703 44.6279C39.2206 44.6902 39.3817 44.7223 39.5443 44.7223C39.707 44.7223 39.8681 44.6902 40.0184 44.6279C40.1687 44.5656 40.3052 44.4743 40.4202 44.3592L45.6779 39.1127C45.8584 38.9385 45.9818 38.7136 46.0317 38.4678C46.0816 38.222 46.0556 37.9668 45.9572 37.736C45.8588 37.5053 45.6927 37.3099 45.4807 37.1757C45.2688 37.0415 45.0211 36.9748 44.7705 36.9846Z" fill="#EC7834"/>
</svg>
