<svg width="52" height="49" viewBox="0 0 52 49" fill="none" xmlns="http://www.w3.org/2000/svg">
<path d="M8.79628 49H25.8617C27.2858 49 28.4406 47.8451 28.4406 46.4211C28.4406 44.997 27.2858 43.8421 25.8617 43.8421H8.79628C7.03847 43.8421 6.0938 42.5588 5.7704 42.0061C5.14191 40.9359 4.79814 39.2031 5.72012 37.5497L22.7074 7.08205C24.0724 4.63669 27.4988 4.6403 28.8589 7.08076L41.4274 29.6239C42.1212 30.8705 43.6941 31.3174 44.9358 30.6211C46.1799 29.9274 46.6271 28.3571 45.9331 27.1127L33.3646 4.56835C31.7675 1.70881 28.9343 0 25.7823 0C22.6316 0 19.7983 1.70881 18.2014 4.56989L1.21444 35.0386C-0.442795 38.0116 -0.401274 41.6825 1.32275 44.6189C2.93459 47.3616 5.72759 49 8.79628 49Z" fill="#FF5000"/>
<path d="M25.8602 30.9473C27.2843 30.9473 28.4391 29.7925 28.4391 28.3684V18.0526C28.4391 16.6285 27.2843 15.4736 25.8602 15.4736C24.4361 15.4736 23.2812 16.6285 23.2812 18.0526V28.3684C23.2812 29.7925 24.4361 30.9473 25.8602 30.9473Z" fill="#FF5000"/>
<path d="M25.8602 38.6843C27.2845 38.6843 28.4391 37.5296 28.4391 36.1053C28.4391 34.681 27.2845 33.5264 25.8602 33.5264C24.4359 33.5264 23.2812 34.681 23.2812 36.1053C23.2812 37.5296 24.4359 38.6843 25.8602 38.6843Z" fill="#FF5000"/>
<path d="M36.1755 46.4211V43.8421C36.1755 42.418 35.0206 41.2632 33.5965 41.2632C32.1724 41.2632 31.0176 42.418 31.0176 43.8421V46.4211C31.0176 47.8452 32.1724 49 33.5965 49C35.0206 49 36.1755 47.8452 36.1755 46.4211ZM43.9123 38.6842C43.9123 37.2601 42.7575 36.1053 41.3334 36.1053C39.9093 36.1053 38.7544 37.2601 38.7544 38.6842V46.4211C38.7544 47.8452 39.9093 49 41.3334 49C42.7575 49 43.9123 47.8452 43.9123 46.4211V38.6842ZM49.0702 30.9474C47.6461 30.9474 46.4913 32.1022 46.4913 33.5263V46.4211C46.4913 47.8452 47.6461 49 49.0702 49C50.4943 49 51.6492 47.8452 51.6492 46.4211V33.5263C51.6492 32.1022 50.4943 30.9474 49.0702 30.9474Z" fill="#FF5000"/>
</svg>
