<svg width="153" height="31" viewBox="0 0 153 31" fill="none" xmlns="http://www.w3.org/2000/svg">
<path d="M19.8251 16.8145C19.0143 15.8765 18.3148 14.9465 17.655 14.08C17.5516 13.9449 17.4483 13.8098 17.345 13.6746C17.3609 13.8654 17.3688 14.0562 17.3688 14.2549C17.3688 17.6333 14.221 20.2406 10.8903 20.3757C9.3879 20.4473 7.6232 20.2565 6.3275 19.7318C3.23529 18.4918 0.977739 15.8527 0.930044 11.5761C0.922095 10.6699 1.06518 9.79546 1.31956 8.96875C0.47695 10.5427 0 12.3392 0 14.247C0 20.4552 5.03179 25.487 11.24 25.487C15.9221 25.487 19.9364 22.6253 21.6295 18.5474C20.9698 18.0228 20.3656 17.4345 19.8171 16.8066L19.8251 16.8145Z" fill="white"/>
<path d="M38.7678 3.45202C38.7678 3.45202 34.2527 9.03229 28.6486 8.92895C24.0381 8.84151 21.6057 6.88603 17.8457 4.81132C12.8617 2.05298 8.38631 2.83994 5.58822 4.55694C5.43719 4.65233 5.28616 4.75567 5.14308 4.85901C4.38791 5.41545 3.77583 6.10702 3.26709 6.82244C1.75676 8.9528 1.55802 11.3932 1.88394 13.2533C2.2019 14.7398 2.93323 16.0832 3.94277 17.1483C5.38155 18.5712 7.1065 19.1913 8.0445 19.4695L8.01271 19.4536C8.01271 19.4536 5.31001 17.7207 5.15898 14.6603C4.97615 10.9798 7.57551 8.92895 10.8346 9.11973C12.7901 9.23102 14.4356 10.3518 15.8187 11.8304C16.3434 12.3868 16.8362 13.0148 17.3529 13.6825C17.4562 13.8177 17.5596 13.9528 17.6629 14.0879C18.3227 14.9544 19.0222 15.8844 19.833 16.8224C21.7011 18.9766 24.2686 20.6777 27.3529 20.8367C33.8314 21.1706 37.4006 16.1388 38.4896 11.894C39.4435 8.19763 38.7678 3.45997 38.7678 3.45997V3.45202Z" fill="#FF4F00"/>
<path d="M37.798 6.13867C37.798 6.13867 38.7757 19.1275 27.2972 19.4614C27.2972 19.4614 28.5055 18.3326 29.2289 16.4646C29.2289 16.4646 24.9363 16.8382 22.7742 13.2134C22.7742 13.2134 26.7249 13.8255 28.7837 12.8398C26.9634 11.5759 26.4228 10.0019 26.4228 10.0019C26.4228 10.0019 33.1716 11.4328 37.806 6.13867H37.798Z" fill="white"/>
<path d="M46.7912 15.2544C45.604 15.2544 44.6288 14.9788 43.8656 14.4276C43.1024 13.8764 42.7208 13.1132 42.7208 12.138C42.7208 11.1345 43.0459 10.3572 43.696 9.806C44.3461 9.2548 45.2931 8.852 46.5368 8.5976L50.0772 7.8768C50.0772 7.21253 49.9288 6.7108 49.632 6.3716C49.3493 6.01827 48.9395 5.8416 48.4024 5.8416C47.8653 5.8416 47.4413 5.97587 47.1304 6.2444C46.8336 6.4988 46.6428 6.86627 46.558 7.3468L42.9116 7.2196C43.1377 5.9052 43.7243 4.93 44.6712 4.294C45.6181 3.658 46.8619 3.34 48.4024 3.34C50.1832 3.34 51.5117 3.7428 52.388 4.5484C53.2784 5.354 53.7236 6.55533 53.7236 8.1524V11.7564C53.7236 12.1097 53.7801 12.3429 53.8932 12.456C54.0204 12.5691 54.19 12.6256 54.402 12.6256H54.6776V15C54.5645 15.0424 54.3808 15.0777 54.1264 15.106C53.872 15.1343 53.6247 15.1484 53.3844 15.1484C52.9463 15.1484 52.5223 15.0777 52.1124 14.9364C51.7025 14.7809 51.3633 14.5124 51.0948 14.1308C50.8263 13.7351 50.692 13.1697 50.692 12.4348L50.9676 12.7104C50.8263 13.2192 50.5719 13.6715 50.2044 14.0672C49.8511 14.4488 49.3917 14.7456 48.8264 14.9576C48.2611 15.1555 47.5827 15.2544 46.7912 15.2544ZM47.7452 12.88C48.1975 12.88 48.6003 12.7881 48.9536 12.6044C49.3069 12.4207 49.5825 12.1521 49.7804 11.7988C49.9783 11.4455 50.0772 11.0073 50.0772 10.4844V10.018L47.8724 10.5268C47.4343 10.6257 47.088 10.7812 46.8336 10.9932C46.5933 11.1911 46.4732 11.4596 46.4732 11.7988C46.4732 12.138 46.5792 12.4065 46.7912 12.6044C47.0032 12.7881 47.3212 12.88 47.7452 12.88ZM56.2327 15V3.5944H59.4975L59.6247 6.308L59.3279 6.1384C59.4833 5.5448 59.7165 5.04307 60.0275 4.6332C60.3525 4.2092 60.7341 3.8912 61.1723 3.6792C61.6245 3.45307 62.1192 3.34 62.6563 3.34C63.6032 3.34 64.3593 3.6156 64.9247 4.1668C65.5041 4.718 65.8787 5.46 66.0483 6.3928L65.6455 6.414C65.7727 5.74973 65.9988 5.19147 66.3239 4.7392C66.6489 4.2728 67.0376 3.92653 67.4899 3.7004C67.9563 3.46013 68.4721 3.34 69.0375 3.34C69.8148 3.34 70.4861 3.50253 71.0515 3.8276C71.6309 4.15267 72.0832 4.64027 72.4083 5.2904C72.7333 5.9264 72.8959 6.71787 72.8959 7.6648V15H69.2495V8.7036C69.2495 7.8556 69.1293 7.22667 68.8891 6.8168C68.6629 6.3928 68.2813 6.1808 67.7443 6.1808C67.3909 6.1808 67.1012 6.27973 66.8751 6.4776C66.6489 6.67547 66.4723 6.9652 66.3451 7.3468C66.232 7.7284 66.1755 8.1948 66.1755 8.746V15H62.9319V8.746C62.9319 7.898 62.8188 7.262 62.5927 6.838C62.3807 6.39987 61.9991 6.1808 61.4479 6.1808C61.1087 6.1808 60.8189 6.27973 60.5787 6.4776C60.3525 6.67547 60.1759 6.9652 60.0487 7.3468C59.9356 7.7284 59.8791 8.1948 59.8791 8.746V15H56.2327ZM78.674 15.2544C77.4868 15.2544 76.5116 14.9788 75.7484 14.4276C74.9852 13.8764 74.6036 13.1132 74.6036 12.138C74.6036 11.1345 74.9287 10.3572 75.5788 9.806C76.2289 9.2548 77.1759 8.852 78.4196 8.5976L81.96 7.8768C81.96 7.21253 81.8116 6.7108 81.5148 6.3716C81.2321 6.01827 80.8223 5.8416 80.2852 5.8416C79.7481 5.8416 79.3241 5.97587 79.0132 6.2444C78.7164 6.4988 78.5256 6.86627 78.4408 7.3468L74.7944 7.2196C75.0205 5.9052 75.6071 4.93 76.554 4.294C77.5009 3.658 78.7447 3.34 80.2852 3.34C82.066 3.34 83.3945 3.7428 84.2708 4.5484C85.1612 5.354 85.6064 6.55533 85.6064 8.1524V11.7564C85.6064 12.1097 85.6629 12.3429 85.776 12.456C85.9032 12.5691 86.0728 12.6256 86.2848 12.6256H86.5604V15C86.4473 15.0424 86.2636 15.0777 86.0092 15.106C85.7548 15.1343 85.5075 15.1484 85.2672 15.1484C84.8291 15.1484 84.4051 15.0777 83.9952 14.9364C83.5853 14.7809 83.2461 14.5124 82.9776 14.1308C82.7091 13.7351 82.5748 13.1697 82.5748 12.4348L82.8504 12.7104C82.7091 13.2192 82.4547 13.6715 82.0872 14.0672C81.7339 14.4488 81.2745 14.7456 80.7092 14.9576C80.1439 15.1555 79.4655 15.2544 78.674 15.2544ZM79.628 12.88C80.0803 12.88 80.4831 12.7881 80.8364 12.6044C81.1897 12.4207 81.4653 12.1521 81.6632 11.7988C81.8611 11.4455 81.96 11.0073 81.96 10.4844V10.018L79.7552 10.5268C79.3171 10.6257 78.9708 10.7812 78.7164 10.9932C78.4761 11.1911 78.356 11.4596 78.356 11.7988C78.356 12.138 78.462 12.4065 78.674 12.6044C78.886 12.7881 79.204 12.88 79.628 12.88ZM87.7605 15V12.2652L93.7601 6.2232H88.0573V3.5944H98.1909V6.3292L92.0853 12.3712H98.3393V15H87.7605ZM105.613 15.2544C104.411 15.2544 103.358 15.0071 102.454 14.5124C101.563 14.0177 100.864 13.3252 100.355 12.4348C99.8603 11.5444 99.613 10.4985 99.613 9.2972C99.613 8.09587 99.8603 7.05 100.355 6.1596C100.864 5.2692 101.563 4.57667 102.454 4.082C103.358 3.58733 104.411 3.34 105.613 3.34C106.814 3.34 107.86 3.58733 108.75 4.082C109.641 4.57667 110.333 5.2692 110.828 6.1596C111.337 7.05 111.591 8.09587 111.591 9.2972C111.591 10.4985 111.337 11.5444 110.828 12.4348C110.333 13.3252 109.641 14.0177 108.75 14.5124C107.86 15.0071 106.814 15.2544 105.613 15.2544ZM105.613 12.562C106.319 12.562 106.863 12.2793 107.245 11.714C107.641 11.1487 107.839 10.3431 107.839 9.2972C107.839 8.26547 107.641 7.46693 107.245 6.9016C106.863 6.32213 106.319 6.0324 105.613 6.0324C104.892 6.0324 104.334 6.32213 103.938 6.9016C103.556 7.46693 103.365 8.26547 103.365 9.2972C103.365 10.3431 103.556 11.1487 103.938 11.714C104.334 12.2793 104.892 12.562 105.613 12.562ZM113.394 15V3.5944H116.659L116.807 7.0924L116.362 7.0076C116.461 6.10307 116.68 5.38227 117.019 4.8452C117.373 4.30813 117.811 3.92653 118.334 3.7004C118.857 3.46013 119.436 3.34 120.072 3.34C120.878 3.34 121.57 3.51667 122.15 3.87C122.743 4.2092 123.195 4.70387 123.506 5.354C123.817 5.99 123.973 6.76027 123.973 7.6648V15H120.326V8.9156C120.326 8.33613 120.284 7.84147 120.199 7.4316C120.114 7.02173 119.959 6.7108 119.733 6.4988C119.521 6.2868 119.21 6.1808 118.8 6.1808C118.206 6.1808 117.761 6.42107 117.464 6.9016C117.182 7.368 117.04 8.03933 117.04 8.9156V15H113.394Z" fill="#FF5000"/>
<path d="M46.8938 28.1945C45.954 28.1945 45.1707 28.0702 44.5441 27.8217C43.9176 27.5625 43.4368 27.2114 43.1019 26.7684C42.7778 26.3255 42.5942 25.8232 42.551 25.2614L45.3706 25.1642C45.4354 25.5531 45.592 25.8448 45.8405 26.0392C46.089 26.2337 46.4455 26.3309 46.91 26.3309C47.2881 26.3309 47.5798 26.2715 47.7851 26.1527C47.9903 26.023 48.093 25.834 48.093 25.5855C48.093 25.4126 48.0498 25.2722 47.9633 25.1642C47.8877 25.0561 47.7311 24.9589 47.4934 24.8725C47.2665 24.7861 46.9262 24.705 46.4725 24.6294C45.5218 24.4782 44.7764 24.2945 44.2363 24.0785C43.6961 23.8516 43.3126 23.5653 43.0857 23.2196C42.8697 22.8739 42.7616 22.4418 42.7616 21.9232C42.7616 21.0698 43.0965 20.3838 43.7663 19.8652C44.4469 19.3467 45.4732 19.0874 46.8452 19.0874C47.6987 19.0874 48.4117 19.217 48.9842 19.4763C49.5676 19.7356 50.0159 20.0975 50.3292 20.562C50.6533 21.0158 50.8532 21.5451 50.9288 22.1501L48.1578 22.2473C48.1254 21.9772 48.0498 21.745 47.9309 21.5505C47.8121 21.3561 47.6609 21.2102 47.4772 21.113C47.2935 21.005 47.0721 20.9509 46.8128 20.9509C46.4455 20.9509 46.1538 21.032 45.9377 21.194C45.7325 21.3453 45.6299 21.5559 45.6299 21.826C45.6299 22.0097 45.6731 22.1663 45.7595 22.2959C45.8567 22.4148 46.0134 22.512 46.2294 22.5876C46.4455 22.6632 46.7372 22.7281 47.1045 22.7821C48.0444 22.9009 48.7952 23.0792 49.3569 23.3168C49.9187 23.5437 50.3238 23.8408 50.5723 24.2081C50.8316 24.5646 50.9612 25.0021 50.9612 25.5207C50.9612 26.0932 50.7938 26.5794 50.4589 26.9791C50.1348 27.3788 49.6702 27.6813 49.0653 27.8866C48.4603 28.0918 47.7365 28.1945 46.8938 28.1945ZM56.4408 28.1945C55.5334 28.1945 54.7393 28.0054 54.0587 27.6273C53.3781 27.2492 52.8488 26.7198 52.4707 26.0392C52.0925 25.3586 51.9035 24.5592 51.9035 23.6409C51.9035 22.7227 52.0925 21.9286 52.4707 21.2588C52.8488 20.5782 53.3727 20.0489 54.0425 19.6708C54.7231 19.2819 55.5171 19.0874 56.4246 19.0874C57.3321 19.0874 58.1153 19.2819 58.7743 19.6708C59.4441 20.0489 59.9572 20.5944 60.3137 21.3074C60.6702 22.0205 60.8485 22.8685 60.8485 23.8516V24.3701H54.7879C54.8203 24.9751 54.9878 25.4289 55.2903 25.7313C55.6036 26.023 56.0033 26.1689 56.4894 26.1689C56.8567 26.1689 57.1646 26.0986 57.4131 25.9582C57.6616 25.807 57.8398 25.5639 57.9479 25.229L60.7351 25.391C60.4974 26.2985 59.9951 26.9953 59.228 27.4814C58.461 27.9568 57.5319 28.1945 56.4408 28.1945ZM54.7879 22.7821H58.0289C58.0073 22.2095 57.8506 21.7828 57.5589 21.5019C57.2673 21.2102 56.8891 21.0644 56.4246 21.0644C55.9817 21.0644 55.609 21.2156 55.3065 21.5181C55.0148 21.8206 54.8419 22.2419 54.7879 22.7821ZM64.7738 28C63.996 28 63.391 27.8055 62.9589 27.4166C62.5268 27.0277 62.3107 26.3957 62.3107 25.5207V16.4946H65.0979V25.2128C65.0979 25.4937 65.1628 25.6935 65.2924 25.8124C65.422 25.9312 65.6057 25.9906 65.8434 25.9906H66.3781V28H64.7738ZM69.9328 28C69.1549 28 68.55 27.8055 68.1178 27.4166C67.6857 27.0277 67.4696 26.3957 67.4696 25.5207V16.4946H70.2569V25.2128C70.2569 25.4937 70.3217 25.6935 70.4513 25.8124C70.581 25.9312 70.7646 25.9906 71.0023 25.9906H71.537V28H69.9328ZM76.7125 28.1945C75.8051 28.1945 75.011 28.0054 74.3305 27.6273C73.6499 27.2492 73.1205 26.7198 72.7424 26.0392C72.3643 25.3586 72.1752 24.5592 72.1752 23.6409C72.1752 22.7227 72.3643 21.9286 72.7424 21.2588C73.1205 20.5782 73.6445 20.0489 74.3142 19.6708C74.9948 19.2819 75.7889 19.0874 76.6963 19.0874C77.6038 19.0874 78.387 19.2819 79.046 19.6708C79.7158 20.0489 80.229 20.5944 80.5855 21.3074C80.942 22.0205 81.1202 22.8685 81.1202 23.8516V24.3701H75.0597C75.0921 24.9751 75.2595 25.4289 75.562 25.7313C75.8753 26.023 76.275 26.1689 76.7612 26.1689C77.1285 26.1689 77.4364 26.0986 77.6848 25.9582C77.9333 25.807 78.1116 25.5639 78.2196 25.229L81.0068 25.391C80.7691 26.2985 80.2668 26.9953 79.4998 27.4814C78.7327 27.9568 77.8037 28.1945 76.7125 28.1945ZM75.0597 22.7821H78.3006C78.279 22.2095 78.1224 21.7828 77.8307 21.5019C77.539 21.2102 77.1609 21.0644 76.6963 21.0644C76.2534 21.0644 75.8807 21.2156 75.5782 21.5181C75.2865 21.8206 75.1137 22.2419 75.0597 22.7821ZM82.5033 28V19.2819H85.1771L85.2743 21.9232L85.0637 21.8908C85.2149 20.9617 85.4688 20.2974 85.8253 19.8976C86.1818 19.4871 86.6787 19.2819 87.3161 19.2819H88.0778V21.5343H87.2999C86.8354 21.5343 86.4573 21.5883 86.1656 21.6964C85.8739 21.8044 85.6524 21.9826 85.5012 22.2311C85.3608 22.4688 85.2905 22.7983 85.2905 23.2196V28H82.5033ZM92.8969 28.1945C91.957 28.1945 91.1738 28.0702 90.5472 27.8217C89.9206 27.5625 89.4399 27.2114 89.105 26.7684C88.7809 26.3255 88.5972 25.8232 88.554 25.2614L91.3736 25.1642C91.4385 25.5531 91.5951 25.8448 91.8436 26.0392C92.0921 26.2337 92.4486 26.3309 92.9131 26.3309C93.2912 26.3309 93.5829 26.2715 93.7882 26.1527C93.9934 26.023 94.096 25.834 94.096 25.5855C94.096 25.4126 94.0528 25.2722 93.9664 25.1642C93.8908 25.0561 93.7341 24.9589 93.4965 24.8725C93.2696 24.7861 92.9293 24.705 92.4756 24.6294C91.5249 24.4782 90.7795 24.2945 90.2393 24.0785C89.6992 23.8516 89.3156 23.5653 89.0888 23.2196C88.8727 22.8739 88.7647 22.4418 88.7647 21.9232C88.7647 21.0698 89.0996 20.3838 89.7694 19.8652C90.45 19.3467 91.4763 19.0874 92.8483 19.0874C93.7017 19.0874 94.4147 19.217 94.9873 19.4763C95.5707 19.7356 96.019 20.0975 96.3323 20.562C96.6564 21.0158 96.8562 21.5451 96.9319 22.1501L94.1609 22.2473C94.1284 21.9772 94.0528 21.745 93.934 21.5505C93.8152 21.3561 93.6639 21.2102 93.4803 21.113C93.2966 21.005 93.0751 20.9509 92.8159 20.9509C92.4486 20.9509 92.1569 21.032 91.9408 21.194C91.7356 21.3453 91.6329 21.5559 91.6329 21.826C91.6329 22.0097 91.6761 22.1663 91.7626 22.2959C91.8598 22.4148 92.0164 22.512 92.2325 22.5876C92.4486 22.6632 92.7402 22.7281 93.1076 22.7821C94.0474 22.9009 94.7982 23.0792 95.36 23.3168C95.9218 23.5437 96.3269 23.8408 96.5754 24.2081C96.8346 24.5646 96.9643 25.0021 96.9643 25.5207C96.9643 26.0932 96.7968 26.5794 96.4619 26.9791C96.1378 27.3788 95.6733 27.6813 95.0683 27.8866C94.4633 28.0918 93.7395 28.1945 92.8969 28.1945ZM101.212 28.1945C100.305 28.1945 99.5972 27.9082 99.0895 27.3356C98.5926 26.7522 98.3441 25.942 98.3441 24.9049V19.2819H101.131V24.2567C101.131 24.8725 101.218 25.3208 101.391 25.6017C101.574 25.8826 101.861 26.023 102.249 26.023C102.682 26.023 103.011 25.8718 103.238 25.5693C103.476 25.256 103.594 24.7699 103.594 24.1109V19.2819H106.382V28H103.87L103.789 25.3748L104.113 25.4234C104.005 26.3525 103.708 27.0493 103.222 27.5139C102.736 27.9676 102.066 28.1945 101.212 28.1945ZM108.361 30.4307V19.2819H111.067L111.116 21.113L110.905 21.032C111.121 20.4054 111.467 19.9246 111.943 19.5897C112.429 19.2548 113.001 19.0874 113.66 19.0874C114.449 19.0874 115.113 19.2873 115.653 19.687C116.194 20.0759 116.604 20.616 116.885 21.3074C117.166 21.988 117.306 22.7659 117.306 23.6409C117.306 24.5052 117.16 25.283 116.869 25.9744C116.588 26.6658 116.172 27.2114 115.621 27.6111C115.081 28 114.416 28.1945 113.628 28.1945C113.206 28.1945 112.812 28.1188 112.445 27.9676C112.088 27.8055 111.775 27.5841 111.505 27.3032C111.246 27.0115 111.057 26.6712 110.938 26.2823L111.148 26.1851V30.4307H108.361ZM112.785 26.1365C113.293 26.1365 113.693 25.915 113.984 25.4721C114.287 25.0183 114.438 24.408 114.438 23.6409C114.438 22.8739 114.287 22.2689 113.984 21.826C113.693 21.3723 113.293 21.1454 112.785 21.1454C112.439 21.1454 112.142 21.2426 111.894 21.4371C111.656 21.6207 111.473 21.8962 111.343 22.2635C111.213 22.6308 111.148 23.09 111.148 23.6409C111.148 24.1919 111.213 24.651 111.343 25.0183C111.473 25.3856 111.656 25.6665 111.894 25.861C112.142 26.0446 112.439 26.1365 112.785 26.1365ZM118.695 30.4307V19.2819H121.401L121.45 21.113L121.239 21.032C121.455 20.4054 121.801 19.9246 122.276 19.5897C122.762 19.2548 123.335 19.0874 123.994 19.0874C124.783 19.0874 125.447 19.2873 125.987 19.687C126.527 20.0759 126.938 20.616 127.219 21.3074C127.5 21.988 127.64 22.7659 127.64 23.6409C127.64 24.5052 127.494 25.283 127.202 25.9744C126.922 26.6658 126.506 27.2114 125.955 27.6111C125.414 28 124.75 28.1945 123.961 28.1945C123.54 28.1945 123.146 28.1188 122.779 27.9676C122.422 27.8055 122.109 27.5841 121.839 27.3032C121.579 27.0115 121.39 26.6712 121.271 26.2823L121.482 26.1851V30.4307H118.695ZM123.119 26.1365C123.627 26.1365 124.026 25.915 124.318 25.4721C124.62 25.0183 124.772 24.408 124.772 23.6409C124.772 22.8739 124.62 22.2689 124.318 21.826C124.026 21.3723 123.627 21.1454 123.119 21.1454C122.773 21.1454 122.476 21.2426 122.228 21.4371C121.99 21.6207 121.806 21.8962 121.677 22.2635C121.547 22.6308 121.482 23.09 121.482 23.6409C121.482 24.1919 121.547 24.651 121.677 25.0183C121.806 25.3856 121.99 25.6665 122.228 25.861C122.476 26.0446 122.773 26.1365 123.119 26.1365ZM133.177 28.1945C132.259 28.1945 131.454 28.0054 130.763 27.6273C130.082 27.2492 129.547 26.7198 129.158 26.0392C128.78 25.3586 128.591 24.5592 128.591 23.6409C128.591 22.7227 128.78 21.9232 129.158 21.2426C129.547 20.562 130.082 20.0327 130.763 19.6546C131.454 19.2765 132.259 19.0874 133.177 19.0874C134.095 19.0874 134.895 19.2765 135.575 19.6546C136.256 20.0327 136.785 20.562 137.163 21.2426C137.552 21.9232 137.747 22.7227 137.747 23.6409C137.747 24.5592 137.552 25.3586 137.163 26.0392C136.785 26.7198 136.256 27.2492 135.575 27.6273C134.895 28.0054 134.095 28.1945 133.177 28.1945ZM133.177 26.1365C133.717 26.1365 134.133 25.9204 134.425 25.4883C134.727 25.0561 134.879 24.4404 134.879 23.6409C134.879 22.8523 134.727 22.2419 134.425 21.8098C134.133 21.3669 133.717 21.1454 133.177 21.1454C132.626 21.1454 132.199 21.3669 131.897 21.8098C131.605 22.2419 131.459 22.8523 131.459 23.6409C131.459 24.4404 131.605 25.0561 131.897 25.4883C132.199 25.9204 132.626 26.1365 133.177 26.1365ZM139.125 28V19.2819H141.799L141.896 21.9232L141.685 21.8908C141.837 20.9617 142.09 20.2974 142.447 19.8976C142.803 19.4871 143.3 19.2819 143.938 19.2819H144.699V21.5343H143.922C143.457 21.5343 143.079 21.5883 142.787 21.6964C142.496 21.8044 142.274 21.9826 142.123 22.2311C141.982 22.4688 141.912 22.7983 141.912 23.2196V28H139.125ZM149.61 28C148.67 28 147.979 27.7839 147.536 27.3518C147.104 26.9089 146.888 26.2067 146.888 25.2452V17.2401H149.675V24.8887C149.675 25.31 149.761 25.6017 149.934 25.7637C150.118 25.915 150.393 25.9906 150.761 25.9906H151.96V28H149.61ZM145.445 21.2912V19.2819H151.96V21.2912H145.445Z" fill="white"/>
</svg>
