<svg width="54" height="52" viewBox="0 0 54 52" fill="none" xmlns="http://www.w3.org/2000/svg">
<path d="M52.9866 38.6004H0.797437C0.585944 38.6004 0.383112 38.5163 0.233564 38.3668C0.0840153 38.2172 0 38.0144 0 37.8029V0.797559C0 0.586066 0.0840153 0.383234 0.233564 0.233686C0.383112 0.0841374 0.585944 0.00012207 0.797437 0.00012207H52.9866C53.1981 0.00012207 53.4009 0.0841374 53.5505 0.233686C53.7 0.383234 53.7841 0.586066 53.7841 0.797559V37.8029C53.7841 38.0144 53.7 38.2172 53.5505 38.3668C53.4009 38.5163 53.1981 38.6004 52.9866 38.6004ZM1.59487 37.0055H52.1892V1.595H1.59487V37.0055Z" fill="#EC7834"/>
<path d="M52.9866 33.8574H0.797437C0.585944 33.8574 0.383112 33.7734 0.233564 33.6239C0.0840153 33.4743 0 33.2715 0 33.06C0 32.8485 0.0840153 32.6457 0.233564 32.4961C0.383112 32.3466 0.585944 32.2626 0.797437 32.2626H52.9866C53.1981 32.2626 53.4009 32.3466 53.5505 32.4961C53.7 32.6457 53.7841 32.8485 53.7841 33.06C53.7841 33.2715 53.7 33.4743 53.5505 33.6239C53.4009 33.7734 53.1981 33.8574 52.9866 33.8574ZM29.5187 48.5033H24.2654C24.0539 48.5033 23.8511 48.4193 23.7015 48.2697C23.552 48.1202 23.468 47.9174 23.468 47.7059V37.8029C23.468 37.5914 23.552 37.3886 23.7015 37.239C23.8511 37.0895 24.0539 37.0055 24.2654 37.0055H29.5187C29.7302 37.0055 29.933 37.0895 30.0825 37.239C30.2321 37.3886 30.3161 37.5914 30.3161 37.8029V47.7059C30.3161 47.9174 30.2321 48.1202 30.0825 48.2697C29.933 48.4193 29.7302 48.5033 29.5187 48.5033ZM25.0628 46.9084H28.7212V38.6004H25.0628V46.9084Z" fill="#EC7834"/>
<path d="M38.2688 51.9157H15.5149C15.3846 51.9152 15.2565 51.8827 15.1416 51.8212C15.0268 51.7597 14.9288 51.671 14.8561 51.5629C14.7835 51.4547 14.7385 51.3304 14.725 51.2008C14.7115 51.0712 14.73 50.9403 14.7788 50.8196L17.322 44.5308C17.3815 44.384 17.4833 44.2583 17.6145 44.1696C17.7457 44.0809 17.9003 44.0332 18.0587 44.0327H24.2652C24.4767 44.0327 24.6796 44.1168 24.8291 44.2663C24.9786 44.4159 25.0627 44.6187 25.0627 44.8302C25.0627 45.0417 24.9786 45.2445 24.8291 45.3941C24.6796 45.5436 24.4767 45.6276 24.2652 45.6276H18.5961L16.6976 50.3208H37.0862L35.1846 45.6276H29.5185C29.307 45.6276 29.1042 45.5436 28.9546 45.3941C28.8051 45.2445 28.7211 45.0417 28.7211 44.8302C28.7211 44.6187 28.8051 44.4159 28.9546 44.2663C29.1042 44.1168 29.307 44.0327 29.5185 44.0327H35.725C35.8833 44.0334 36.0378 44.081 36.1689 44.1697C36.3 44.2584 36.4017 44.3841 36.4611 44.5308L39.008 50.8196C39.0568 50.9403 39.0753 51.0712 39.0618 51.2008C39.0483 51.3304 39.0033 51.4547 38.9307 51.5629C38.858 51.671 38.76 51.7597 38.6452 51.8212C38.5303 51.8827 38.4022 51.9152 38.2719 51.9157H38.2688ZM13.0845 33.8575H9.45805C9.24656 33.8575 9.04373 33.7734 8.89418 33.6239C8.74463 33.4743 8.66061 33.2715 8.66061 33.06V25.5715C8.66061 25.36 8.74463 25.1571 8.89418 25.0076C9.04373 24.858 9.24656 24.774 9.45805 24.774H13.0845C13.296 24.774 13.4989 24.858 13.6484 25.0076C13.798 25.1571 13.882 25.36 13.882 25.5715V33.06C13.882 33.2715 13.798 33.4743 13.6484 33.6239C13.4989 33.7734 13.296 33.8575 13.0845 33.8575ZM10.2555 32.2626H12.2871V26.3689H10.2555V32.2626ZM20.8945 33.8575H17.2686C17.0571 33.8575 16.8543 33.7734 16.7048 33.6239C16.5552 33.4743 16.4712 33.2715 16.4712 33.06V22.7418C16.4712 22.5303 16.5552 22.3275 16.7048 22.1779C16.8543 22.0284 17.0571 21.9444 17.2686 21.9444H20.8945C21.106 21.9444 21.3088 22.0284 21.4584 22.1779C21.6079 22.3275 21.692 22.5303 21.692 22.7418V33.06C21.692 33.2715 21.6079 33.4743 21.4584 33.6239C21.3088 33.7734 21.106 33.8575 20.8945 33.8575ZM18.0661 32.2626H20.0971V23.5392H18.0661V32.2626ZM28.7051 33.8575H25.0786C24.8671 33.8575 24.6643 33.7734 24.5147 33.6239C24.3652 33.4743 24.2812 33.2715 24.2812 33.06V18.6957C24.2812 18.4842 24.3652 18.2814 24.5147 18.1318C24.6643 17.9823 24.8671 17.8983 25.0786 17.8983H28.7051C28.9166 17.8983 29.1194 17.9823 29.269 18.1318C29.4185 18.2814 29.5025 18.4842 29.5025 18.6957V33.06C29.5025 33.2715 29.4185 33.4743 29.269 33.6239C29.1194 33.7734 28.9166 33.8575 28.7051 33.8575ZM25.8761 32.2626H27.9077V19.4932H25.8761V32.2626ZM36.5151 33.8575H32.8892C32.6777 33.8575 32.4749 33.7734 32.3253 33.6239C32.1758 33.4743 32.0918 33.2715 32.0918 33.06V21.2629C32.0918 21.0514 32.1758 20.8485 32.3253 20.699C32.4749 20.5494 32.6777 20.4654 32.8892 20.4654H36.5151C36.7266 20.4654 36.9294 20.5494 37.079 20.699C37.2285 20.8485 37.3125 21.0514 37.3125 21.2629V33.06C37.3125 33.2715 37.2285 33.4743 37.079 33.6239C36.9294 33.7734 36.7266 33.8575 36.5151 33.8575ZM33.6866 32.2626H35.7176V22.0603H33.6866V32.2626ZM44.3257 33.8575H40.6992C40.4877 33.8575 40.2848 33.7734 40.1353 33.6239C39.9858 33.4743 39.9017 33.2715 39.9017 33.06V13.175C39.9017 12.9635 39.9858 12.7607 40.1353 12.6111C40.2848 12.4616 40.4877 12.3776 40.6992 12.3776H44.3257C44.5372 12.3776 44.74 12.4616 44.8895 12.6111C45.0391 12.7607 45.1231 12.9635 45.1231 13.175V33.06C45.1231 33.2715 45.0391 33.4743 44.8895 33.6239C44.74 33.7734 44.5372 33.8575 44.3257 33.8575ZM41.4966 32.2626H43.5282V13.9724H41.4966V32.2626ZM11.9804 19.4932C10.5124 19.4932 9.07739 19.0578 7.8568 18.2423C6.63621 17.4267 5.68487 16.2675 5.1231 14.9113C4.56132 13.555 4.41434 12.0626 4.70073 10.6228C4.98712 9.18306 5.69402 7.86053 6.73205 6.8225C7.77008 5.78448 9.0926 5.07757 10.5324 4.79118C11.9722 4.50479 13.4645 4.65178 14.8208 5.21355C16.177 5.77533 17.3362 6.72666 18.1518 7.94725C18.9674 9.16784 19.4027 10.6029 19.4027 12.0709C19.4004 14.0387 18.6177 15.9253 17.2263 17.3167C15.8348 18.7082 13.9482 19.4909 11.9804 19.4932ZM11.9804 6.24344C10.8279 6.24344 9.70118 6.58521 8.74286 7.22554C7.78455 7.86586 7.03763 8.77598 6.59657 9.8408C6.15551 10.9056 6.0401 12.0773 6.26495 13.2077C6.48981 14.3381 7.04482 15.3765 7.8598 16.1915C8.67478 17.0065 9.71312 17.5615 10.8435 17.7863C11.9739 18.0112 13.1456 17.8958 14.2105 17.4547C15.2753 17.0136 16.1854 16.2667 16.8257 15.3084C17.4661 14.3501 17.8078 13.2234 17.8078 12.0709C17.806 10.5259 17.1915 9.04469 16.099 7.95222C15.0066 6.85976 13.5254 6.24522 11.9804 6.24344Z" fill="#EC7834"/>
<path d="M11.9805 12.8683C11.769 12.8683 11.5662 12.7843 11.4167 12.6347C11.2671 12.4852 11.1831 12.2824 11.1831 12.0709V5.446C11.1831 5.2345 11.2671 5.03167 11.4167 4.88212C11.5662 4.73258 11.769 4.64856 11.9805 4.64856C12.192 4.64856 12.3949 4.73258 12.5444 4.88212C12.694 5.03167 12.778 5.2345 12.778 5.446V12.0709C12.778 12.2824 12.694 12.4852 12.5444 12.6347C12.3949 12.7843 12.192 12.8683 11.9805 12.8683Z" fill="#EC7834"/>
<path d="M17.7167 16.1807C17.5771 16.1808 17.4399 16.144 17.3192 16.074L11.5819 12.7615C11.3987 12.6558 11.2651 12.4816 11.2103 12.2773C11.1555 12.073 11.1842 11.8553 11.2899 11.6721C11.3957 11.4889 11.5699 11.3553 11.7742 11.3005C11.9785 11.2457 12.1962 11.2744 12.3794 11.3801L18.1166 14.6926C18.2688 14.7804 18.3877 14.916 18.4549 15.0783C18.5221 15.2406 18.5338 15.4206 18.4882 15.5902C18.4426 15.7599 18.3422 15.9098 18.2027 16.0165C18.0632 16.1233 17.8923 16.181 17.7167 16.1807Z" fill="#EC7834"/>
<path d="M6.24367 16.1807C6.06799 16.181 5.89712 16.1233 5.75761 16.0165C5.6181 15.9098 5.51775 15.7599 5.47215 15.5902C5.42655 15.4206 5.43826 15.2406 5.50545 15.0783C5.57264 14.916 5.69155 14.7804 5.84372 14.6926L11.5816 11.3801C11.7648 11.2744 11.9825 11.2457 12.1868 11.3005C12.3911 11.3553 12.5653 11.4889 12.671 11.6721C12.7768 11.8553 12.8054 12.073 12.7506 12.2773C12.6959 12.4816 12.5622 12.6558 12.379 12.7615L6.64116 16.074C6.5204 16.144 6.38326 16.1808 6.24367 16.1807Z" fill="#EC7834"/>
</svg>
