<svg width="51" height="51" viewBox="0 0 51 51" fill="none" xmlns="http://www.w3.org/2000/svg">
<path d="M23.9449 7.84125C24.0506 7.84125 24.1519 7.79927 24.2267 7.72455C24.3014 7.64983 24.3434 7.54848 24.3434 7.44281V2.39062C24.3434 2.28495 24.3014 2.18361 24.2267 2.10889C24.1519 2.03417 24.0506 1.99219 23.9449 1.99219C23.8392 1.99219 23.7379 2.03417 23.6632 2.10889C23.5885 2.18361 23.5465 2.28495 23.5465 2.39062V7.44281C23.5465 7.54848 23.5885 7.64983 23.6632 7.72455C23.7379 7.79927 23.8392 7.84125 23.9449 7.84125ZM23.9449 9.5625C24.05 9.56046 24.1501 9.51783 24.2244 9.44354C24.2987 9.36926 24.3413 9.2691 24.3434 9.16406V8.81344C24.3434 8.70777 24.3014 8.60642 24.2267 8.5317C24.1519 8.45698 24.0506 8.415 23.9449 8.415C23.8392 8.415 23.7379 8.45698 23.6632 8.5317C23.5885 8.60642 23.5465 8.70777 23.5465 8.81344V9.16406C23.5465 9.26973 23.5885 9.37108 23.6632 9.4458C23.7379 9.52052 23.8392 9.5625 23.9449 9.5625ZM15.498 40.1466H24.9012C25.0068 40.1466 25.1082 40.1046 25.1829 40.0299C25.2576 39.9551 25.2996 39.8538 25.2996 39.7481C25.2996 39.6425 25.2576 39.5411 25.1829 39.4664C25.1082 39.3917 25.0068 39.3497 24.9012 39.3497H15.498C15.3924 39.3497 15.291 39.3917 15.2163 39.4664C15.1416 39.5411 15.0996 39.6425 15.0996 39.7481C15.0996 39.8538 15.1416 39.9551 15.2163 40.0299C15.291 40.1046 15.3924 40.1466 15.498 40.1466ZM30.9654 42.1148H15.498C15.3924 42.1148 15.291 42.1568 15.2163 42.2315C15.1416 42.3063 15.0996 42.4076 15.0996 42.5133C15.0996 42.619 15.1416 42.7203 15.2163 42.795C15.291 42.8697 15.3924 42.9117 15.498 42.9117H30.9654C31.0711 42.9117 31.1724 42.8697 31.2471 42.795C31.3219 42.7203 31.3638 42.619 31.3638 42.5133C31.3638 42.4076 31.3219 42.3063 31.2471 42.2315C31.1724 42.1568 31.0711 42.1148 30.9654 42.1148ZM15.498 45.645H27.9373C28.0429 45.645 28.1443 45.603 28.219 45.5283C28.2937 45.4536 28.3357 45.3522 28.3357 45.2466C28.3357 45.1409 28.2937 45.0395 28.219 44.9648C28.1443 44.8901 28.0429 44.8481 27.9373 44.8481H15.498C15.3924 44.8481 15.291 44.8901 15.2163 44.9648C15.1416 45.0395 15.0996 45.1409 15.0996 45.2466C15.0996 45.3522 15.1416 45.4536 15.2163 45.5283C15.291 45.603 15.3924 45.645 15.498 45.645ZM30.9654 47.6053H15.498C15.3924 47.6053 15.291 47.6473 15.2163 47.722C15.1416 47.7967 15.0996 47.8981 15.0996 48.0037C15.0996 48.1094 15.1416 48.2108 15.2163 48.2855C15.291 48.3602 15.3924 48.4022 15.498 48.4022H30.9654C31.0711 48.4022 31.1724 48.3602 31.2471 48.2855C31.3219 48.2108 31.3638 48.1094 31.3638 48.0037C31.3638 47.8981 31.3219 47.7967 31.2471 47.722C31.1724 47.6473 31.0711 47.6053 30.9654 47.6053Z" fill="#FF4F00"/>
<path d="M25.5876 0H25.4123C22.1565 0.0121163 18.9371 0.684283 15.9485 1.97587C12.9599 3.26746 10.2642 5.15164 8.02445 7.51453L7.96867 7.57828C4.31306 11.4493 2.0414 16.4213 1.50804 21.7188C0.974686 27.0163 2.20963 32.3414 5.02023 36.8634C5.07604 36.9512 5.16396 37.0137 5.26521 37.0375C5.36646 37.0613 5.47302 37.0446 5.56211 36.9909L14.503 31.4128C14.5917 31.3568 14.6547 31.268 14.6784 31.1658C14.6906 31.1159 14.6926 31.0642 14.6844 31.0135C14.6762 30.9628 14.6579 30.9144 14.6305 30.8709C13.1397 28.4774 12.48 25.659 12.7538 22.8525C13.0275 20.046 14.2194 17.4081 16.1446 15.3478H16.1924C16.2143 15.3298 16.2286 15.3042 16.2323 15.2761C17.182 14.3149 18.2763 13.5082 19.4755 12.8855C19.5871 12.8138 19.7066 12.7659 19.8182 12.7022L23.9062 22.4241C23.8029 22.5179 23.7094 22.622 23.6273 22.7348C23.3177 23.1446 23.1518 23.645 23.1554 24.1586C23.159 24.6722 23.3318 25.1703 23.6471 25.5757C23.9624 25.9811 24.4025 26.2712 24.8994 26.4012C25.3963 26.5311 25.9221 26.4937 26.3955 26.2945C26.8689 26.0954 27.2635 25.7457 27.518 25.2996C27.7726 24.8536 27.873 24.336 27.8037 23.8271C27.7343 23.3183 27.4991 22.8464 27.1345 22.4847C26.7699 22.123 26.2962 21.8916 25.7868 21.8264C25.686 21.8179 25.5847 21.8179 25.484 21.8264H25.3405L21.2526 12.0408L21.643 11.9133C23.5643 11.3105 25.6004 11.1683 27.5868 11.4983C29.5731 11.8284 31.4539 12.6213 33.077 13.813C34.7001 15.0047 36.0199 16.5617 36.9296 18.3581C37.8393 20.1544 38.3135 22.1397 38.3137 24.1533C38.3214 27.0515 37.334 29.8645 35.5166 32.122C35.4547 32.2041 35.4263 32.3066 35.437 32.4089C35.4419 32.4601 35.4572 32.5098 35.4819 32.555C35.5065 32.6002 35.54 32.6399 35.5804 32.6719L43.828 39.2461C43.8984 39.3018 43.9853 39.3326 44.0751 39.3338C44.1337 39.3329 44.1913 39.3188 44.2437 39.2926C44.2962 39.2664 44.342 39.2287 44.3779 39.1823C47.2116 35.6373 48.9878 31.3646 49.5022 26.8554C50.0166 22.3462 49.2484 17.7833 47.2859 13.691C45.3235 9.59879 42.2463 6.14322 38.408 3.72137C34.5697 1.29952 30.126 0.00966412 25.5876 0ZM24.3445 23.1094L24.4162 23.0297C24.7089 22.7516 25.0962 22.595 25.4999 22.5914H25.5477C25.9126 22.5958 26.2648 22.7253 26.5457 22.9582C26.8265 23.191 27.019 23.5132 27.0909 23.8709C27.1628 24.2286 27.1098 24.6001 26.9408 24.9235C26.7717 25.2468 26.4969 25.5023 26.1621 25.6474C25.8273 25.7925 25.4529 25.8183 25.1014 25.7205C24.7499 25.6228 24.4426 25.4074 24.2308 25.1103C24.019 24.8132 23.9155 24.4525 23.9376 24.0883C23.9598 23.7241 24.1062 23.3786 24.3524 23.1094H24.3445ZM11.8893 24.1533C11.886 26.5563 12.5242 28.9166 13.738 30.9905L5.45851 36.1383C2.87785 31.8315 1.7568 26.8066 2.26222 21.8113C2.76763 16.8161 4.87248 12.1176 8.26351 8.415L15.3318 15.0928C13.1022 17.5827 11.8756 20.8111 11.8893 24.1533ZM25.1095 10.5427C23.8285 10.5752 22.559 10.7926 21.3402 11.1881L20.9896 11.3077L19.5234 7.88906C19.4622 7.74899 19.3621 7.62944 19.235 7.54466C19.1078 7.45989 18.959 7.41347 18.8062 7.41094C18.7024 7.40789 18.5992 7.4269 18.5034 7.46672C18.3149 7.54931 18.1657 7.70161 18.0869 7.89173C18.0082 8.08186 18.0061 8.29506 18.081 8.48672L19.5234 11.9531C19.4118 12.0089 19.3002 12.0647 19.1966 12.1284C17.9828 12.7506 16.8726 13.5571 15.9055 14.5191L8.80539 7.84125C13.0924 3.42612 18.9562 0.892591 25.1095 0.796875V10.5427ZM43.9954 38.3855L36.3773 32.3053C38.1495 29.9579 39.1039 27.0945 39.0946 24.1533C39.0942 20.6134 37.7155 17.2129 35.2506 14.6722C32.7858 12.1315 29.4286 10.6504 25.8904 10.5427V0.796875C30.2185 0.867275 34.4418 2.13989 38.0883 4.47251C41.7347 6.80512 44.6607 10.1058 46.5391 14.0057C48.4175 17.9056 49.1744 22.2511 48.7252 26.5564C48.276 30.8617 46.6384 34.9573 43.9954 38.3855Z" fill="#FF4F00"/>
<path d="M32.8077 36.7519H13.6827C13.3565 36.754 13.0443 36.885 12.8144 37.1164C12.5845 37.3479 12.4555 37.6608 12.4555 37.987V49.7728C12.4554 50.0942 12.5814 50.4028 12.8064 50.6322C13.0314 50.8617 13.3374 50.9937 13.6588 51H32.7838C33.1092 51 33.4214 50.8707 33.6515 50.6406C33.8816 50.4104 34.0109 50.0983 34.0109 49.7728V37.987C34.011 37.6649 33.8853 37.3555 33.6605 37.1247C33.4357 36.894 33.1297 36.7602 32.8077 36.7519ZM33.2539 49.7728C33.2519 49.8905 33.2042 50.0028 33.1209 50.0861C33.0377 50.1693 32.9254 50.217 32.8077 50.2191H13.6827C13.5649 50.217 13.4526 50.1693 13.3694 50.0861C13.2861 50.0028 13.2385 49.8905 13.2364 49.7728V37.987C13.2364 37.8687 13.2834 37.7552 13.3671 37.6715C13.4508 37.5878 13.5643 37.5408 13.6827 37.5408H32.8077C32.926 37.5408 33.0395 37.5878 33.1232 37.6715C33.2069 37.7552 33.2539 37.8687 33.2539 37.987V49.7728ZM26.6797 1.59375V9.78562C30.2709 10.1065 33.6138 11.7534 36.0565 14.4054C38.4992 17.0573 39.8666 20.524 39.8919 24.1294C39.8998 26.9635 39.0679 29.7364 37.5013 32.0981L43.8763 37.1902C46.2188 33.8984 47.634 30.0377 47.9739 26.0118C48.3138 21.9859 47.5659 17.9426 45.8085 14.3047C44.051 10.6667 41.3484 7.56775 37.9834 5.33171C34.6184 3.09566 30.7144 1.80468 26.6797 1.59375ZM5.73782 35.0625L12.6706 30.7514C11.4098 28.2806 10.8895 25.4982 11.1722 22.7387C11.4549 19.9793 12.5287 17.3602 14.2644 15.1964L8.3436 9.61828C5.37874 13.0941 3.54157 17.3896 3.07614 21.9344C2.6107 26.4791 3.53904 31.0579 5.73782 35.0625Z" fill="#FF4F00"/>
</svg>
