<svg width="86" height="100" viewBox="0 0 86 100" fill="none" xmlns="http://www.w3.org/2000/svg">
<path d="M0 73.5V26.5L43 0L86 26.5V73.5L43 100L0 73.5Z" fill="#FF5000"/>
<path d="M50.2402 35C50.5918 35 50.8848 35.127 51.1191 35.3809L56.1289 40.3906C56.3633 40.625 56.4805 40.918 56.4805 41.2695C56.4805 41.6211 56.3633 41.9141 56.1289 42.1484L51.1191 47.1582C50.8848 47.3926 50.5918 47.5098 50.2402 47.5098C49.8887 47.5098 49.5957 47.3926 49.3613 47.1582C49.1074 46.9043 48.9805 46.6016 48.9805 46.25C48.9805 45.918 49.1074 45.625 49.3613 45.3711L52.2324 42.5H50.2402C49.0684 42.5 47.9648 42.7637 46.9297 43.291C45.9141 43.7988 45.0547 44.4922 44.3516 45.3711C43.2773 46.7383 42.7402 48.2812 42.7402 50C42.7402 51.7383 42.3203 53.3594 41.4805 54.8633C41.0508 55.6641 40.5137 56.377 39.8691 57.002C38.9512 57.959 37.877 58.7012 36.6465 59.2285C35.416 59.7559 34.1172 60.0195 32.75 60.0195H30.2305C29.8984 60.0195 29.6055 59.8926 29.3516 59.6387C29.1172 59.4043 29 59.1113 29 58.7598C29 58.4082 29.1172 58.1152 29.3516 57.8809C29.6055 57.627 29.8984 57.5 30.2305 57.5H32.75C33.9219 57.5 35.0156 57.2461 36.0312 56.7383C37.0664 56.2305 37.9355 55.5371 38.6387 54.6582C39.7129 53.291 40.25 51.7383 40.25 50C40.25 48.2617 40.6602 46.6504 41.4805 45.166C41.9297 44.3652 42.4668 43.6523 43.0918 43.0273C44.0293 42.0703 45.1133 41.3281 46.3438 40.8008C47.5742 40.2734 48.873 40.0098 50.2402 40.0098H52.2324L49.3613 37.1387C49.1074 36.8848 48.9805 36.5918 48.9805 36.2598C48.9805 35.9082 49.1074 35.6152 49.3613 35.3809C49.5957 35.127 49.8887 35 50.2402 35ZM50.2402 52.5195C50.5918 52.5195 50.8848 52.6367 51.1191 52.8711L56.1289 57.8809C56.3633 58.1152 56.4805 58.4082 56.4805 58.7598C56.4805 59.1113 56.3633 59.4043 56.1289 59.6387L51.1191 64.6484C50.8848 64.8828 50.5918 65 50.2402 65C49.8887 65 49.5957 64.8828 49.3613 64.6484C49.1074 64.4141 48.9805 64.1211 48.9805 63.7695C48.9805 63.4375 49.1074 63.1445 49.3613 62.8906L52.2324 60.0195H50.2402C48.873 60.0195 47.5742 59.7559 46.3438 59.2285C45.1133 58.7012 44.0293 57.959 43.0918 57.002C43.5996 56.2793 44.0195 55.498 44.3516 54.6582C45.0547 55.5371 45.9141 56.2305 46.9297 56.7383C47.9648 57.2461 49.0684 57.5 50.2402 57.5H52.2324L49.3613 54.6582C49.1074 54.4043 48.9805 54.1016 48.9805 53.75C48.9805 53.418 49.1074 53.125 49.3613 52.8711C49.5957 52.6367 49.8887 52.5195 50.2402 52.5195ZM30.2305 40.0098H32.75C34.1172 40.0098 35.416 40.2734 36.6465 40.8008C37.877 41.3281 38.9512 42.0703 39.8691 43.0273C39.3613 43.7695 38.9512 44.5508 38.6387 45.3711C37.9355 44.4922 37.0664 43.7988 36.0312 43.291C35.0156 42.7637 33.9219 42.5 32.75 42.5H30.2305C29.8984 42.5 29.6055 42.3828 29.3516 42.1484C29.1172 41.8945 29 41.6016 29 41.2695C29 40.918 29.1172 40.6152 29.3516 40.3613C29.6055 40.127 29.8984 40.0098 30.2305 40.0098Z" fill="white"/>
</svg>
