<svg width="52" height="37" viewBox="0 0 52 37" fill="none" xmlns="http://www.w3.org/2000/svg">
<path d="M11.2599 0C5.06646 0 0 5.01911 0 11.182C0 11.3531 0.00519979 11.524 0.0138886 11.6932H0L1.47266 31.3625C1.68544 34.2006 4.0906 36.4203 6.93671 36.4169H15.5966C18.4423 36.4135 20.8409 34.1861 21.0607 31.3489L21.6057 24.2734H24.2599C24.2599 27.1248 26.6153 29.4667 29.4667 29.4667H46.7932C49.6446 29.4667 52 27.1248 52 24.2734V12.1435C52 9.29214 49.6446 6.93671 46.7932 6.93671H29.4667C26.6153 6.93671 24.2599 9.29214 24.2599 12.1435H22.4893C22.5167 11.8266 22.5333 11.5058 22.5333 11.182C22.5333 5.01911 17.4533 0 11.2599 0ZM11.2599 3.46667C15.5967 3.46667 19.0667 6.90967 19.0667 11.182C19.0667 15.4544 15.5967 18.8974 11.2599 18.8974C6.92307 18.8974 3.46667 15.4544 3.46667 11.182C3.46667 6.90967 6.92307 3.46667 11.2599 3.46667ZM11.2564 9.45208C10.7991 9.45386 10.3609 9.63633 10.0375 9.95974C9.71411 10.2831 9.53163 10.7213 9.52985 11.1786C9.52896 11.4063 9.57291 11.6318 9.6592 11.8425C9.74548 12.0531 9.87241 12.2447 10.0327 12.4063C10.1931 12.5679 10.3837 12.6963 10.5936 12.7842C10.8036 12.8721 11.0288 12.9179 11.2564 12.9187C11.4852 12.9196 11.7119 12.8752 11.9234 12.7881C12.1349 12.701 12.3271 12.5728 12.4889 12.4111C12.6506 12.2493 12.7788 12.0571 12.8659 11.8456C12.953 11.6341 12.9974 11.4074 12.9965 11.1786C12.9956 10.951 12.9499 10.7258 12.862 10.5158C12.7741 10.3059 12.6456 10.1153 12.4841 9.95497C12.3225 9.79464 12.1309 9.66771 11.9203 9.58142C11.7096 9.49514 11.484 9.45119 11.2564 9.45208ZM29.4666 10.4034H46.7931C47.771 10.4034 48.5332 11.1656 48.5332 12.1435V19.0768H45.0666C44.6545 19.0751 44.254 19.2205 43.9392 19.4864L42.2127 20.9456C41.8247 21.2736 41.5982 21.7544 41.5965 22.2625V26H29.4666C28.4887 26 27.7265 25.2513 27.7265 24.2734V19.9367H36.3898C37.3474 19.9402 38.1266 19.1644 38.1298 18.2068C38.1333 17.2441 37.3524 16.4629 36.3898 16.4667H27.7265V12.1435C27.7265 11.1656 28.4887 10.4034 29.4666 10.4034ZM22.2726 15.6102H24.2598V20.8068H21.8731L22.2726 15.6102ZM18.4809 19.7539L17.6075 31.0781C17.525 32.1434 16.665 32.9456 15.5965 32.9469H6.92309C5.86019 32.9482 5.00514 32.1651 4.92568 31.1052L4.07933 19.7844C6.03198 21.3962 8.5363 22.3674 11.2598 22.3674C13.9997 22.3674 16.5204 21.3831 18.4809 19.7539ZM45.6929 22.5469H48.5332V24.2734C48.5332 25.2513 47.771 26 46.7931 26H45.0666V23.0716L45.6929 22.5469ZM8.66318 26C8.43556 26.0009 8.21034 26.0466 8.00038 26.1345C7.79042 26.2225 7.59984 26.3509 7.43952 26.5125C7.27919 26.6741 7.15226 26.8656 7.06598 27.0763C6.97969 27.2869 6.93574 27.5125 6.93663 27.7401C6.93841 28.1975 7.12088 28.6356 7.44429 28.959C7.76769 29.2824 8.20582 29.4649 8.66318 29.4667H13.8564C14.084 29.4676 14.3096 29.4236 14.5203 29.3373C14.7309 29.251 14.9225 29.1241 15.0841 28.9638C15.2456 28.8034 15.3741 28.6129 15.462 28.4029C15.5499 28.1929 15.5956 27.9677 15.5965 27.7401C15.5974 27.5113 15.553 27.2847 15.4659 27.0731C15.3787 26.8616 15.2506 26.6694 15.0888 26.5077C14.9271 26.3459 14.7349 26.2178 14.5234 26.1306C14.3119 26.0435 14.0852 25.9991 13.8564 26H8.66318Z" fill="#EC7834"/>
</svg>
