<svg width="52" height="52" viewBox="0 0 52 52" fill="none" xmlns="http://www.w3.org/2000/svg">
<path d="M51.7379 10.9977L32.059 0.0641589C31.9048 -0.0213863 31.7176 -0.0213863 31.5636 0.0641589C31.2328 0.247994 11.9624 10.9543 11.8811 11.0003C11.7153 11.0944 11.6225 11.2702 11.6225 11.4433V25.2719C9.54548 27.1843 8.21744 29.9024 8.15789 32.9224C8.12649 34.5133 8.43635 36.0503 9.0786 37.4912C9.40569 38.2251 9.24133 39.1024 8.66943 39.6744L8.36691 39.977C8.16778 40.176 8.16778 40.4988 8.36691 40.6978L8.3923 40.7232L7.06385 42.0525L6.70332 41.6919C6.50439 41.4928 6.18138 41.4928 5.98245 41.6919L0.744519 46.9297C-0.248173 47.9223 -0.248173 49.5374 0.744519 50.53L1.46997 51.2555V51.2556C2.46266 52.2481 4.07772 52.2483 5.07031 51.2555L8.53199 47.7937C8.5328 47.7929 8.53372 47.7924 8.53454 47.7917C8.53535 47.7909 8.53586 47.7899 8.53658 47.7891L10.3081 46.0175C10.5073 45.8185 10.5073 45.4957 10.3081 45.2967L9.94843 44.937L11.277 43.6078L11.3022 43.633C11.5011 43.8321 11.8241 43.8321 12.023 43.633L12.3255 43.3305C12.8975 42.7585 13.7749 42.5943 14.5086 42.9213C15.9482 43.563 17.4805 43.8725 19.0775 43.842C20.8023 43.808 22.4286 43.3602 23.8627 42.5956L31.5636 46.8735C31.7209 46.9609 31.9111 46.9556 32.0588 46.8735L51.7376 35.941C51.8995 35.8511 51.9999 35.6804 51.9999 35.4954V11.4433C52.0001 11.2667 51.9018 11.0881 51.7379 10.9977ZM31.8113 1.09305L50.4405 11.4434L44.111 14.9601L25.4811 4.61009L31.8113 1.09305ZM4.34945 50.5347C3.75451 51.1297 2.78629 51.1298 2.19094 50.5346L1.46559 49.8093C0.87044 49.2141 0.87044 48.2458 1.46548 47.6507L4.56917 44.5472L7.45314 47.4311L4.34945 50.5347ZM9.22756 44.216L7.78492 42.7733L9.11337 41.4441L10.5561 42.8868L9.22756 44.216ZM19.0574 42.8227C17.619 42.8511 16.2269 42.5709 14.9239 41.9902C13.8274 41.5013 12.5288 41.7341 11.6635 42.5524L9.4477 40.3366C10.2697 39.4676 10.4967 38.1682 10.0099 37.0761C9.42914 35.7731 9.14895 34.3825 9.1774 32.9426C9.2815 27.6681 13.6628 23.4107 18.9393 23.452C24.1968 23.493 28.5071 27.8036 28.5481 33.061C28.5893 38.3396 24.3317 42.7187 19.0574 42.8227ZM31.3015 41.693L27.4253 39.5394C28.7855 37.7267 29.5866 35.4758 29.5677 33.0529C29.522 27.2045 24.7973 22.4779 18.9472 22.4321C16.6457 22.4158 14.4615 23.1343 12.6421 24.4413V12.3098L31.3014 22.6758V41.693H31.3015ZM31.8113 21.7927L13.182 11.4434L19.5118 7.92657L38.1411 18.2762L31.8113 21.7927ZM50.9805 31.3688L32.3211 41.7351V22.6758L38.681 19.1426V31.942C38.681 32.4052 39.2712 32.6404 39.5817 32.2692L42.0876 29.2753L43.9985 29.7062C44.3194 29.7781 44.6204 29.5299 44.6204 29.2089V15.8435L50.9805 12.3099V31.3688Z" fill="#EC7834"/>
<path d="M18.2156 34.405C18.0167 34.6041 17.6937 34.6041 17.4948 34.405L15.8218 32.7322L15.1008 33.4531L17.8552 36.2074L22.8466 31.216L22.1256 30.495L18.2156 34.405Z" fill="#EC7834"/>
<path d="M18.8622 24.9811C14.3644 24.9811 10.7051 28.6404 10.7051 33.1382C10.7051 37.636 14.3644 41.2952 18.8622 41.2952C23.36 41.2952 27.0192 37.636 27.0192 33.1382C27.0192 28.6404 23.3601 24.9811 18.8622 24.9811ZM23.9283 31.5766L18.2158 37.2891C18.0169 37.4882 17.6939 37.4882 17.495 37.2891L14.0195 33.8137C13.821 33.6154 13.8199 33.2924 14.0195 33.0928L15.4616 31.6509C15.6605 31.4519 15.9833 31.4518 16.1824 31.651L17.8554 33.3237L21.7654 29.4137C21.964 29.2149 22.2871 29.2144 22.4863 29.4137L23.9283 30.8558C24.1274 31.0547 24.1274 31.3775 23.9283 31.5766Z" fill="#EC7834"/>
</svg>
