<svg width="32" height="32" viewBox="0 0 32 32" fill="none" xmlns="http://www.w3.org/2000/svg">
<g clip-path="url(#clip0_0_81)">
<path d="M32 16C32 7.16344 24.8366 0 16 0C7.16344 0 0 7.16344 0 16C0 24.8366 7.16344 32 16 32C24.8366 32 32 24.8366 32 16Z" fill="#FF5000"/>
<path d="M9.5232 22.8931C9.38008 22.8931 9.24176 22.8362 9.13936 22.7344C9.02408 22.6191 8.9664 22.4585 8.98336 22.2964C9.01048 22.0306 9.2736 19.672 10.2203 18.7254C10.6116 18.3341 11.1317 18.1191 11.6844 18.1191C12.2378 18.1191 12.7578 18.3348 13.1485 18.7254C13.9561 19.5331 13.9561 20.8467 13.1485 21.6535C12.2018 22.6002 9.84328 22.8633 9.57752 22.8904C9.5592 22.8925 9.5408 22.8931 9.5232 22.8931Z" fill="white"/>
<path d="M22.7902 9.43225C22.7367 9.26673 22.6065 9.13657 22.441 9.08297C19.4457 8.11465 16.205 8.89377 13.982 11.1167C12.543 12.5558 11.6838 14.47 11.5623 16.5079C11.5474 16.7561 11.7034 16.9826 11.9407 17.0572C12.6242 17.2729 13.2271 17.6377 13.7316 18.1422C14.236 18.6467 14.601 19.2489 14.8166 19.9324C14.8885 20.1589 15.0987 20.3114 15.3334 20.3114C15.3442 20.3114 15.355 20.3114 15.3659 20.3108C17.4036 20.1901 19.3181 19.3302 20.757 17.8918C22.98 15.6689 23.7586 12.4269 22.7902 9.43225ZM18.3126 15.7306C17.1143 15.7306 16.1426 14.7589 16.1426 13.5606C16.1426 12.3624 17.1143 11.3906 18.3126 11.3906C19.5108 11.3906 20.4826 12.3624 20.4826 13.5606C20.4826 14.7589 19.5108 15.7306 18.3126 15.7306Z" fill="white"/>
<path d="M17.389 21.0663L18.091 22.9712C18.1574 23.1523 18.3161 23.2844 18.5059 23.3177C18.5371 23.3232 18.569 23.3258 18.6002 23.3258C18.7582 23.3258 18.9108 23.2567 19.0138 23.134L20.7418 21.092C21.2476 20.4946 21.4206 19.6998 21.2205 18.9484C20.1233 19.952 18.809 20.673 17.389 21.0663Z" fill="white"/>
<path d="M12.9261 10.653C12.1754 10.4536 11.3806 10.6259 10.7825 11.1317L8.74056 12.8596C8.59336 12.9844 8.52352 13.1776 8.5568 13.3682C8.59072 13.5581 8.72224 13.7161 8.90328 13.7832L10.8082 14.4851C11.2015 13.0651 11.9225 11.7502 12.9261 10.653Z" fill="white"/>
</g>
<defs>
<clipPath id="clip0_0_81">
<rect width="32" height="32" fill="white"/>
</clipPath>
</defs>
</svg>
