<svg width="21" height="21" viewBox="0 0 21 21" fill="none" xmlns="http://www.w3.org/2000/svg">
<path d="M1 10.5C1 6.02166 1 3.78249 2.39124 2.39124C3.78249 1 6.02166 1 10.5 1C14.9783 1 17.2175 1 18.6088 2.39124C20 3.78249 20 6.02166 20 10.5C20 14.9783 20 17.2175 18.6088 18.6088C17.2175 20 14.9783 20 10.5 20C6.02166 20 3.78249 20 2.39124 18.6088C1 17.2175 1 14.9783 1 10.5Z" stroke="#C0C4CC" stroke-width="1.5" stroke-linejoin="round"/>
<path d="M9.0359 9.50749C8.21585 9.39159 6.34666 9.5834 5.43011 11.2782C4.51355 12.9729 5.4373 14.7368 6.01374 15.4069C6.58298 16.0338 8.39226 17.221 10.3114 16.0619C10.7871 15.7746 11.3797 15.5603 12.052 13.3153L11.9738 4.48145C11.8441 5.45419 12.9186 7.73575 15.978 8.0057" stroke="#C0C4CC" stroke-width="1.5" stroke-linecap="round" stroke-linejoin="round"/>
</svg>
