<svg width="52" height="52" viewBox="0 0 52 52" fill="none" xmlns="http://www.w3.org/2000/svg">
<path d="M26 0C20.8577 0 15.8309 1.52487 11.5552 4.38179C7.27951 7.23871 3.94702 11.2993 1.97914 16.0502C0.0112654 20.8011 -0.503621 26.0288 0.499594 31.0723C1.50281 36.1158 3.97907 40.7486 7.61523 44.3848C11.2514 48.0209 15.8842 50.4972 20.9277 51.5004C25.9712 52.5036 31.1989 51.9887 35.9498 50.0209C40.7006 48.053 44.7613 44.7205 47.6182 40.4448C50.4751 36.1691 52 31.1423 52 26C52 19.1044 49.2607 12.4912 44.3848 7.61522C39.5088 2.73928 32.8956 0 26 0ZM14.8572 45.2957C15.1331 42.5469 16.4202 39.9986 18.4689 38.1453C20.5176 36.292 23.1817 35.2657 25.9443 35.2657C28.7069 35.2657 31.371 36.292 33.4197 38.1453C35.4683 39.9986 36.7555 42.5469 37.0314 45.2957C33.6649 47.2547 29.8394 48.2868 25.9443 48.2868C22.0492 48.2868 18.2237 47.2547 14.8572 45.2957ZM40.3743 42.9557C39.5827 39.7262 37.7307 36.8556 35.1145 34.8032C32.4984 32.7509 29.2694 31.6355 25.9443 31.6355C22.6192 31.6355 19.3902 32.7509 16.7741 34.8032C14.1579 36.8556 12.3059 39.7262 11.5143 42.9557C8.03795 40.002 5.55177 36.0526 4.3915 31.6409C3.23123 27.2291 3.45276 22.5676 5.02618 18.2858C6.5996 14.004 9.44911 10.3082 13.1899 7.69746C16.9307 5.08672 21.3826 3.68683 25.9443 3.68683C30.506 3.68683 34.9579 5.08672 38.6987 7.69746C42.4395 10.3082 45.289 14.004 46.8624 18.2858C48.4358 22.5676 48.6574 27.2291 47.4971 31.6409C46.3368 36.0526 43.8506 40.002 40.3743 42.9557ZM26 11.1429C24.1635 11.1429 22.3682 11.6875 20.8411 12.7078C19.3141 13.7281 18.1239 15.1783 17.4211 16.8751C16.7183 18.5718 16.5344 20.4389 16.8927 22.2401C17.251 24.0414 18.1354 25.6959 19.434 26.9946C20.7326 28.2932 22.3872 29.1776 24.1885 29.5359C25.9897 29.8941 27.8568 29.7103 29.5535 29.0074C31.2502 28.3046 32.7005 27.1145 33.7208 25.5874C34.7411 24.0604 35.2857 22.2651 35.2857 20.4286C35.2857 17.9658 34.3074 15.604 32.566 13.8626C30.8246 12.1212 28.4627 11.1429 26 11.1429ZM26 26C24.8981 26 23.8209 25.6732 22.9047 25.061C21.9885 24.4488 21.2744 23.5787 20.8527 22.5607C20.431 21.5426 20.3207 20.4224 20.5356 19.3416C20.7506 18.2609 21.2812 17.2682 22.0604 16.489C22.8396 15.7098 23.8323 15.1792 24.9131 14.9642C25.9938 14.7492 27.1141 14.8596 28.1321 15.2812C29.1501 15.7029 30.0203 16.417 30.6325 17.3332C31.2447 18.2495 31.5714 19.3266 31.5714 20.4286C31.5714 21.9062 30.9844 23.3233 29.9396 24.3682C28.8948 25.413 27.4776 26 26 26Z" fill="#EC7834"/>
</svg>
