<svg width="61" height="52" viewBox="0 0 61 52" fill="none" xmlns="http://www.w3.org/2000/svg">
<path d="M39.4999 19.4425C39.782 19.6076 40.1031 19.6947 40.43 19.6947C40.757 19.6947 41.078 19.6076 41.3602 19.4425L48.7014 15.204C48.9842 15.0407 49.219 14.8059 49.3823 14.523C49.5456 14.2402 49.6315 13.9194 49.6315 13.5929C49.6315 13.2663 49.5456 12.9455 49.3823 12.6627C49.219 12.3798 48.9842 12.145 48.7014 11.9817L41.3602 7.74334C41.0774 7.58008 40.7566 7.49415 40.43 7.49416C40.1035 7.49417 39.7827 7.58013 39.4999 7.7434C39.2171 7.90668 38.9822 8.14151 38.819 8.4243C38.6557 8.70709 38.5697 9.02787 38.5697 9.35442V17.8313C38.5677 18.1583 38.6528 18.4798 38.8163 18.763C38.9798 19.0462 39.2157 19.2807 39.4999 19.4425ZM31.8763 52C33.215 51.9985 34.4984 51.466 35.4451 50.5194C36.3917 49.5728 36.9242 48.2894 36.9257 46.9507V27.1857H55.3904C56.8748 27.1838 58.2978 26.5932 59.3473 25.5435C60.3969 24.4938 60.9873 23.0707 60.989 21.5863V5.59955C60.9872 4.11497 60.3967 2.69169 59.3469 1.64194C58.2972 0.592196 56.8739 0.00170239 55.3893 0H31.3719C29.8873 0.00167093 28.464 0.592154 27.4142 1.64191C26.3645 2.69166 25.7739 4.11496 25.7722 5.59955V15.0753H5.04934C3.71061 15.0769 2.42716 15.6093 1.48055 16.556C0.533936 17.5026 0.00148181 18.7861 0 20.1248L0 46.9504C0.00151334 48.2891 0.533982 49.5726 1.48059 50.5192C2.4272 51.4658 3.71063 51.9982 5.04934 51.9998L31.8763 52ZM26.4802 5.59955C26.4816 4.30225 26.9977 3.05852 27.915 2.14119C28.8323 1.22386 30.076 0.707858 31.3733 0.706376H55.3893C56.6866 0.707858 57.9303 1.22386 58.8477 2.14119C59.765 3.05852 60.281 4.30225 60.2825 5.59955V21.5863C60.281 22.8836 59.765 24.1273 58.8476 25.0446C57.9303 25.9619 56.6866 26.4779 55.3893 26.4793H31.3719C30.0746 26.4779 28.8309 25.9619 27.9136 25.0446C26.9962 24.1273 26.4802 22.8836 26.4787 21.5863L26.4802 5.59955ZM0.706495 20.1248C0.707788 18.9734 1.16575 17.8695 1.9799 17.0553C2.79406 16.2412 3.89793 15.7832 5.04934 15.7818H25.7722V21.5863C25.7739 23.0709 26.3645 24.4941 27.4142 25.5439C28.464 26.5936 29.8873 27.1841 31.3719 27.1857H36.2182V46.9135L28.7301 32.2683C28.454 31.7242 28.0323 31.2675 27.512 30.9491C26.9916 30.6307 26.393 30.463 25.783 30.4648H25.7638C25.1505 30.4664 24.5498 30.6392 24.0294 30.9636C23.509 31.2881 23.0895 31.7514 22.8181 32.3014L17.3795 43.2402C17.3031 43.3938 17.1875 43.5245 17.0444 43.6192C16.9014 43.7139 16.7359 43.7691 16.5646 43.7794C16.3934 43.7896 16.2225 43.7545 16.0691 43.6776C15.9158 43.6006 15.7855 43.4846 15.6913 43.3412L11.9486 37.6409C11.6193 37.1395 11.167 36.7308 10.6348 36.454C10.1027 36.1772 9.50838 36.0415 8.90879 36.0597C8.3092 36.078 7.72431 36.2497 7.20998 36.5584C6.69565 36.8672 6.26906 37.3026 5.97096 37.8232L0.708044 47.0149C0.708044 46.9934 0.706495 46.9721 0.706495 46.9507V20.1248ZM12.7007 29.872C13.4666 29.8721 14.2153 29.6451 14.8521 29.2197C15.4889 28.7943 15.9853 28.1895 16.2784 27.482C16.5716 26.7745 16.6483 25.9959 16.4989 25.2448C16.3495 24.4936 15.9807 23.8036 15.4392 23.2621C14.8977 22.7206 14.2077 22.3518 13.4565 22.2024C12.7054 22.053 11.9268 22.1297 11.2193 22.4229C10.5118 22.716 9.90705 23.2124 9.48164 23.8492C9.05623 24.4861 8.82923 25.2347 8.82934 26.0006C8.83067 27.0269 9.23897 28.0109 9.9647 28.7366C10.6904 29.4623 11.6744 29.8706 12.7007 29.872Z" fill="#FF4F00"/>
</svg>
