<svg width="42" height="46" viewBox="0 0 42 46" fill="none" xmlns="http://www.w3.org/2000/svg">
<path d="M41.848 8.47L36.848 0.47C36.7581 0.326175 36.6331 0.207576 36.4848 0.125357C36.3364 0.0431374 36.1696 -4.00011e-07 36 0H6C5.83039 -4.00011e-07 5.66358 0.0431374 5.51523 0.125357C5.36689 0.207576 5.24189 0.326175 5.152 0.47L0.152 8.47C0.0526681 8.62893 -7.07238e-07 8.81258 0 9V33C0.000794215 33.7954 0.31712 34.558 0.879557 35.1204C1.44199 35.6829 2.20459 35.9992 3 36H17V39C16.9997 39.2651 16.8943 39.5193 16.7068 39.7068C16.5193 39.8943 16.2651 39.9997 16 40H9.586C8.92157 39.9999 8.27592 40.2204 7.75034 40.6269C7.22476 41.0334 6.84899 41.6029 6.682 42.246L6.032 44.749C5.99367 44.8968 5.9897 45.0514 6.0204 45.201C6.0511 45.3506 6.11565 45.4912 6.20911 45.612C6.30256 45.7327 6.42243 45.8305 6.55952 45.8978C6.69662 45.965 6.84729 46 7 46H35C35.1528 46 35.3036 45.9651 35.4408 45.8977C35.578 45.8304 35.6979 45.7326 35.7914 45.6117C35.8849 45.4908 35.9494 45.3501 35.98 45.2003C36.0106 45.0506 36.0065 44.8959 35.968 44.748L35.318 42.246C35.151 41.6029 34.7752 41.0334 34.2497 40.6269C33.7241 40.2204 33.0784 39.9999 32.414 40H26C25.7349 39.9997 25.4807 39.8943 25.2932 39.7068C25.1057 39.5193 25.0003 39.2651 25 39V36H39C39.7954 35.9992 40.558 35.6829 41.1204 35.1204C41.6829 34.558 41.9992 33.7954 42 33V9C42 8.81258 41.9473 8.62893 41.848 8.47ZM35.446 2L39.975 9.247C39.9151 10.0195 39.5578 10.7387 38.9784 11.2531C38.399 11.7675 37.6426 12.0371 36.8684 12.0051C36.0942 11.9731 35.3626 11.642 34.8276 11.0815C34.2926 10.521 33.996 9.77482 34 9C34.0001 8.84487 33.9642 8.69184 33.895 8.553L30.617 2H35.446ZM28.382 2L31.98 9.197C31.9308 9.97351 31.5811 10.7003 31.0051 11.2234C30.4291 11.7465 29.6721 12.0247 28.8944 11.9991C28.1168 11.9735 27.3797 11.6461 26.8394 11.0862C26.2991 10.5263 25.998 9.77807 26 9C25.9998 8.91809 25.9897 8.8365 25.97 8.757L24.28 2H28.382ZM19.78 2H22.218L23.99 9.088C23.9698 9.86787 23.6459 10.609 23.0871 11.1535C22.5284 11.6979 21.7791 12.0027 20.999 12.0027C20.2189 12.0027 19.4696 11.6979 18.9109 11.1535C18.3521 10.609 18.0282 9.86787 18.008 9.088L19.78 2ZM17.718 2L16.028 8.757C16.009 8.83659 15.9996 8.91817 16 9C16.002 9.77807 15.7009 10.5263 15.1606 11.0862C14.6203 11.6461 13.8832 11.9735 13.1056 11.9991C12.3279 12.0247 11.5709 11.7465 10.9949 11.2234C10.4189 10.7003 10.0692 9.97351 10.02 9.197L13.618 2H17.718ZM6.554 2H11.382L8.106 8.553C8.03646 8.69176 8.00017 8.84479 8 9C8.00405 9.77482 7.70735 10.521 7.17236 11.0815C6.63736 11.642 5.9058 11.9731 5.13162 12.0051C4.35745 12.0371 3.60105 11.7675 3.02162 11.2531C2.44219 10.7387 2.08492 10.0195 2.025 9.247L6.554 2ZM26 42H32.414C32.6355 42 32.8508 42.0735 33.026 42.2091C33.2012 42.3447 33.3264 42.5346 33.382 42.749L33.707 44H8.293L8.618 42.748C8.67379 42.5338 8.7991 42.3441 8.97428 42.2087C9.14946 42.0733 9.36461 41.9999 9.586 42H16C16.7954 41.9992 17.558 41.6829 18.1204 41.1204C18.6829 40.558 18.9992 39.7954 19 39V36H23V39C23.0008 39.7954 23.3171 40.558 23.8796 41.1204C24.442 41.6829 25.2046 41.9992 26 42ZM40 33C39.9997 33.2651 39.8943 33.5193 39.7068 33.7068C39.5193 33.8943 39.2651 33.9997 39 34H3C2.73486 33.9997 2.48066 33.8943 2.29319 33.7068C2.10571 33.5193 2.00026 33.2651 2 33V12.983C2.8609 13.6428 3.91535 14.0002 5 14C5.78043 13.9991 6.54977 13.8151 7.2462 13.4629C7.94264 13.1107 8.54675 12.6001 9.01 11.972C9.47032 12.6012 10.0727 13.1129 10.768 13.4653C11.4634 13.8178 12.2322 14.0012 13.0118 14.0005C13.7914 13.9998 14.5598 13.8151 15.2546 13.4614C15.9493 13.1077 16.5508 12.595 17.01 11.965C17.4672 12.595 18.0671 13.1078 18.7607 13.4614C19.4542 13.815 20.2215 13.9993 21 13.9993C21.7785 13.9993 22.5458 13.815 23.2393 13.4614C23.9329 13.1078 24.5328 12.595 24.99 11.965C25.4496 12.5948 26.0513 13.1073 26.7461 13.461C27.4409 13.8148 28.2093 13.9997 28.989 14.0009C29.7686 14.0021 30.5376 13.8194 31.2334 13.4678C31.9293 13.1161 32.5325 12.6054 32.994 11.977C33.384 12.5083 33.876 12.9565 34.4413 13.2953C35.0067 13.6341 35.6339 13.8567 36.2863 13.9501C36.9387 14.0435 37.6032 14.0058 38.2409 13.8393C38.8786 13.6727 39.4766 13.3806 40 12.98V33ZM28.314 16.455L24.045 18.043C23.305 17.556 22.239 16.179 21.364 17.237C21.2837 17.3409 21.2246 17.4597 21.1902 17.5864C21.1557 17.7132 21.1466 17.8455 21.1633 17.9758C21.1801 18.1061 21.2223 18.2318 21.2876 18.3458C21.3529 18.4597 21.44 18.5597 21.544 18.64L22.891 19.679L22.446 24.106C22.4066 24.4792 22.4627 24.8563 22.6089 25.2019C22.7551 25.5475 22.9867 25.8504 23.282 26.082L31.327 32.415C31.4934 32.5459 31.6843 32.6425 31.8884 32.699C32.0924 32.7556 32.3057 32.771 32.5158 32.7444C32.7259 32.7178 32.9286 32.6497 33.1122 32.544C33.2957 32.4384 33.4565 32.2973 33.585 32.129L38.762 25.371C39.0189 25.0336 39.1334 24.609 39.0809 24.1882C39.0283 23.7673 38.813 23.3839 38.481 23.12L30.437 16.789C30.1423 16.5543 29.7917 16.4002 29.4196 16.3416C29.0475 16.2831 28.6665 16.3221 28.314 16.455ZM32.244 30.591L24.519 24.511C24.4891 24.4868 24.4657 24.4554 24.4512 24.4197C24.4367 24.384 24.4315 24.3452 24.436 24.307L24.756 21.118L26.216 22.244C26.3199 22.325 26.4388 22.3846 26.5659 22.4195C26.693 22.4543 26.8256 22.4637 26.9563 22.4472C27.087 22.4306 27.2132 22.3883 27.3275 22.3229C27.4418 22.2574 27.5421 22.17 27.6225 22.0656C27.703 21.9613 27.762 21.842 27.7962 21.7148C27.8304 21.5876 27.8392 21.4549 27.8219 21.3242C27.8047 21.1936 27.7618 21.0677 27.6957 20.9537C27.6297 20.8397 27.5418 20.7399 27.437 20.66L25.911 19.482L29.011 18.329C29.0423 18.3173 29.076 18.3139 29.109 18.3192C29.1419 18.3245 29.1729 18.3382 29.199 18.359L36.944 24.456L32.244 30.591ZM28.192 24.155L29.718 22.139C29.7973 22.0343 29.8964 21.9462 30.0097 21.8797C30.123 21.8133 30.2482 21.7699 30.3783 21.7518C30.5084 21.7338 30.6408 21.7416 30.7679 21.7748C30.895 21.8079 31.0143 21.8657 31.119 21.945C31.2237 22.0243 31.3118 22.1234 31.3783 22.2367C31.4447 22.35 31.4881 22.4752 31.5062 22.6053C31.5242 22.7354 31.5164 22.8678 31.4832 22.9949C31.4501 23.122 31.3923 23.2413 31.313 23.346L29.787 25.362C29.7077 25.4667 29.6086 25.5548 29.4953 25.6213C29.382 25.6877 29.2568 25.7311 29.1267 25.7492C28.9966 25.7672 28.8642 25.7594 28.7371 25.7262C28.61 25.6931 28.4907 25.6353 28.386 25.556C28.2813 25.4767 28.1932 25.3776 28.1267 25.2643C28.0603 25.151 28.0169 25.0258 27.9988 24.8957C27.9808 24.7656 27.9886 24.6332 28.0218 24.5061C28.0549 24.379 28.1127 24.2597 28.192 24.155ZM31.012 26.289L32.538 24.272C32.6173 24.1673 32.7165 24.0793 32.8298 24.013C32.9431 23.9466 33.0684 23.9033 33.1985 23.8853C33.3286 23.8674 33.461 23.8753 33.588 23.9085C33.7151 23.9418 33.8343 23.9997 33.939 24.079C34.0437 24.1583 34.1317 24.2575 34.198 24.3708C34.2644 24.4841 34.3077 24.6094 34.3257 24.7395C34.3436 24.8696 34.3357 25.002 34.3025 25.129C34.2692 25.2561 34.2113 25.3753 34.132 25.48L32.606 27.496C32.4434 27.7003 32.2075 27.8329 31.9485 27.8655C31.6895 27.8981 31.428 27.8281 31.2198 27.6706C31.0117 27.513 30.8735 27.2802 30.8347 27.0221C30.7958 26.7639 30.8595 26.5008 31.012 26.289ZM4 18C4 17.7348 4.10536 17.4804 4.29289 17.2929C4.48043 17.1054 4.73478 17 5 17H13C13.2652 17 13.5196 17.1054 13.7071 17.2929C13.8946 17.4804 14 17.7348 14 18C14 18.2652 13.8946 18.5196 13.7071 18.7071C13.5196 18.8946 13.2652 19 13 19H5C4.73478 19 4.48043 18.8946 4.29289 18.7071C4.10536 18.5196 4 18.2652 4 18ZM4 22C4 21.7348 4.10536 21.4804 4.29289 21.2929C4.48043 21.1054 4.73478 21 5 21H18C18.2652 21 18.5196 21.1054 18.7071 21.2929C18.8946 21.4804 19 21.7348 19 22C19 22.2652 18.8946 22.5196 18.7071 22.7071C18.5196 22.8946 18.2652 23 18 23H5C4.73478 23 4.48043 22.8946 4.29289 22.7071C4.10536 22.5196 4 22.2652 4 22ZM4 26C4 25.7348 4.10536 25.4804 4.29289 25.2929C4.48043 25.1054 4.73478 25 5 25H18C18.2652 25 18.5196 25.1054 18.7071 25.2929C18.8946 25.4804 19 25.7348 19 26C19 26.2652 18.8946 26.5196 18.7071 26.7071C18.5196 26.8946 18.2652 27 18 27H5C4.73478 27 4.48043 26.8946 4.29289 26.7071C4.10536 26.5196 4 26.2652 4 26ZM23 30C23 30.2652 22.8946 30.5196 22.7071 30.7071C22.5196 30.8946 22.2652 31 22 31H5C4.73478 31 4.48043 30.8946 4.29289 30.7071C4.10536 30.5196 4 30.2652 4 30C4 29.7348 4.10536 29.4804 4.29289 29.2929C4.48043 29.1054 4.73478 29 5 29H22C22.2652 29 22.5196 29.1054 22.7071 29.2929C22.8946 29.4804 23 29.7348 23 30Z" fill="#FF4F00"/>
</svg>
