<svg width="41" height="49" viewBox="0 0 41 49" fill="none" xmlns="http://www.w3.org/2000/svg">
<path d="M40.9399 8.81185C40.9046 9.46358 40.0802 24.8375 38.8158 31.3609C37.3786 38.7779 33.2079 41.251 27.9262 44.382C25.6088 45.7054 23.3706 47.163 21.2229 48.7471C21.0068 48.9112 20.7428 49 20.4715 49C20.2001 49 19.9362 48.9112 19.7201 48.7471C17.5724 47.163 15.3342 45.7054 13.0167 44.382C7.73485 41.251 3.56428 38.7779 2.1272 31.3609C1.35724 27.3884 0.749286 20.1197 0.373618 14.7223C0.351114 14.3928 0.460219 14.0678 0.676997 13.8187C0.893775 13.5695 1.20052 13.4165 1.52996 13.3933C1.85795 13.377 2.17952 13.4883 2.42727 13.7038C2.67502 13.9194 2.82971 14.2225 2.85894 14.5496C3.22858 19.8777 3.8256 27.0382 4.57094 30.8865C5.79536 37.2056 9.17316 39.2082 14.286 42.2394C16.1573 43.3483 18.2535 44.591 20.4714 46.2045C22.6892 44.591 24.7854 43.3483 26.6567 42.2394C31.7696 39.2082 35.1473 37.2056 36.3718 30.8865C37.3664 25.7493 38.1069 14.5119 38.3598 10.3085C35.0281 10.9278 31.5899 10.607 28.4303 9.38197C25.2708 8.15698 22.5148 6.07624 20.4714 3.37298C18.2242 6.28915 15.1596 8.47022 11.6683 9.63827C8.17692 10.8063 4.41685 10.9084 0.867246 9.93158C0.55266 9.83146 0.290735 9.61046 0.139091 9.31721C-0.0125527 9.02396 -0.041494 8.68249 0.0586347 8.3679C0.158763 8.05332 0.37976 7.79139 0.673007 7.63975C0.966254 7.4881 1.30773 7.45916 1.62232 7.55929C4.94964 8.4997 8.49371 8.32147 11.7099 7.052C14.9261 5.78252 17.6364 3.49205 19.4244 0.532558C19.5446 0.367579 19.7021 0.233341 19.884 0.140792C20.066 0.048242 20.2672 0 20.4713 0C20.6754 0 20.8767 0.048242 21.0586 0.140792C21.2405 0.233341 21.398 0.367579 21.5182 0.532558C23.3056 3.49264 26.0159 5.78361 29.2323 7.05316C32.4486 8.32271 35.993 8.50054 39.3203 7.55929C39.5121 7.49896 39.7158 7.48593 39.9137 7.5213C40.1117 7.55668 40.2982 7.63942 40.4573 7.76246C40.6164 7.8855 40.7434 8.04519 40.8274 8.22792C40.9114 8.41064 40.95 8.61098 40.9399 8.81185ZM31.7197 25.4151C31.731 23.6575 31.3302 21.9217 30.5496 20.3469C29.769 18.7722 28.6303 17.4023 27.2247 16.347C25.819 15.2918 24.1857 14.5807 22.4557 14.2706C20.7256 13.9605 18.947 14.0602 17.2624 14.5616C15.5778 15.063 14.0342 15.9522 12.7553 17.1578C11.4764 18.3635 10.4978 19.8521 9.89797 21.5042C9.29818 23.1563 9.09389 24.926 9.30147 26.6713C9.50906 28.4166 10.1227 30.089 11.0933 31.5543C12.4304 30.9409 13.8559 30.5419 15.3172 30.3722C15.7803 30.2944 16.3823 30.1935 16.7009 30.1059C16.8694 29.6692 16.9714 29.2097 17.0033 28.7427C16.099 27.8395 15.5285 26.6558 15.3853 25.3857C15.3755 25.2167 15.3512 25.0027 15.3245 24.7559C15.0824 23.68 15.061 22.5661 15.2617 21.4816C15.4623 20.3972 15.8807 19.3647 16.4917 18.4466C17.0041 17.917 17.6252 17.505 18.3123 17.2388C18.9993 16.9726 19.736 16.8587 20.4713 16.9049C21.2067 16.8587 21.9434 16.9727 22.6304 17.2388C23.3175 17.505 23.9386 17.9171 24.451 18.4467C25.062 19.3648 25.4804 20.3973 25.6811 21.4818C25.8817 22.5662 25.8603 23.6801 25.6182 24.756C25.5915 25.0029 25.5672 25.2169 25.5575 25.3859C25.4143 26.6558 24.8439 27.8395 23.9397 28.7426C23.9707 29.2945 24.1119 29.8346 24.3549 30.3311C24.3209 30.252 24.7124 30.4843 26.2517 30.7469C26.559 30.7997 26.8353 30.9657 27.026 31.2124C27.2168 31.459 27.308 31.7682 27.2817 32.0789C27.2554 32.3896 27.1135 32.6791 26.8841 32.8901C26.6546 33.1012 26.3543 33.2185 26.0425 33.2189C25.9716 33.2187 25.9008 33.2126 25.8309 33.2006C23.7334 32.8421 22.6914 32.3872 22.2306 31.6309C21.9758 31.1847 21.7867 30.7042 21.669 30.204C20.8967 30.4917 20.0466 30.4918 19.2742 30.2043C19.1578 30.7005 18.9704 31.1773 18.7178 31.62C18.2387 32.4079 17.294 32.5659 15.7279 32.8286C14.309 32.9164 12.9357 33.3637 11.7373 34.1284C11.7133 34.1561 11.6786 34.166 11.6526 34.191C11.63 34.2216 11.6059 34.251 11.5804 34.2792C11.4626 34.341 11.3447 34.4027 11.2268 34.4643C11.1292 34.4985 11.0277 34.52 10.9247 34.5285C10.8831 34.5395 10.8411 34.5484 10.7987 34.5552C10.7797 34.5552 10.7616 34.5462 10.7426 34.5452C10.6614 34.539 10.5811 34.5248 10.5027 34.5027C10.347 34.473 10.201 34.4055 10.0775 34.3062C10.0463 34.2838 10.0099 34.2744 9.98037 34.2487C9.96105 34.2319 9.9536 34.2082 9.93555 34.1904C9.89814 34.1633 9.86238 34.1341 9.82847 34.1028C7.85611 31.6865 6.76466 28.671 6.73358 25.5521C6.70249 22.4332 7.73361 19.3966 9.65742 16.9415C11.5812 14.4864 14.2832 12.759 17.319 12.0433C20.3549 11.3276 23.5439 11.6662 26.3617 13.0035C29.1795 14.3408 31.4585 16.5971 32.8238 19.4015C34.1891 22.2059 34.5595 25.3914 33.874 28.4342C33.1886 31.477 31.4882 34.196 29.0524 36.1442C26.6166 38.0924 23.5904 39.1537 20.4713 39.1537C18.3606 39.1599 16.2775 38.6745 14.3869 37.736C14.2396 37.6639 14.108 37.5634 13.9997 37.4404C13.8913 37.3173 13.8083 37.1741 13.7555 37.0189C13.7026 36.8636 13.6809 36.6995 13.6917 36.5359C13.7024 36.3723 13.7453 36.2124 13.818 36.0654C13.8907 35.9184 13.9917 35.7873 14.1152 35.6794C14.2388 35.5716 14.3823 35.4892 14.5378 35.437C14.6932 35.3848 14.8574 35.3638 15.021 35.3752C15.1846 35.3866 15.3443 35.4302 15.491 35.5035C17.0386 36.2715 18.7437 36.6686 20.4713 36.6635C23.4536 36.6601 26.3127 35.4739 28.4214 33.3651C30.5302 31.2563 31.7163 28.3973 31.7197 25.4151ZM17.7987 24.4849C17.8316 24.7804 17.8595 25.0381 17.8705 25.24C18.0146 26.0257 18.4312 26.7354 19.0469 27.2444C19.105 27.2863 19.1589 27.3339 19.2077 27.3865C19.558 27.7012 20.002 27.892 20.4713 27.9296C21.1215 27.7871 21.7151 27.4559 22.1778 26.9774C22.6404 26.4989 22.9516 25.8945 23.0721 25.24C23.0831 25.0381 23.111 24.7804 23.1439 24.4849C23.2813 23.2301 23.5111 21.1302 22.5967 20.1088C22.3137 19.8453 21.9777 19.6453 21.6112 19.5222C21.2446 19.3991 20.856 19.3558 20.4713 19.3951C20.0866 19.3558 19.698 19.3991 19.3314 19.5222C18.9649 19.6453 18.6289 19.8453 18.3459 20.1088C17.4315 21.1301 17.6614 23.2301 17.7987 24.4849Z" fill="#FF5000"/>
</svg>
