<svg width="52" height="50" viewBox="0 0 52 50" fill="none" xmlns="http://www.w3.org/2000/svg">
<path d="M44.0371 23.9451C43.7614 23.7759 43.4106 23.7571 43.1224 23.9012L33.2988 28.8193H24.7031C22.8299 28.8193 21.3012 30.3417 21.3012 32.2212V37.321C21.3012 39.1942 22.8236 40.7229 24.7031 40.7229H25.1855L26.3258 48.6858C26.3947 49.1494 26.7894 49.494 27.2593 49.494H32.2713C32.5407 49.494 32.8039 49.375 32.9793 49.1682C33.161 48.9615 33.2361 48.6921 33.1986 48.4227L32.0959 40.7229H33.2988L43.1224 45.6347C43.254 45.7036 43.3981 45.7349 43.5422 45.7349C43.7113 45.7349 43.8867 45.6848 44.0371 45.5971C44.3128 45.4217 44.4819 45.121 44.4819 44.7952V24.747C44.4819 24.4212 44.3128 24.1205 44.0371 23.9451ZM23.1807 37.321V32.2212C23.1807 31.3817 23.8636 30.6988 24.7031 30.6988H32.5783V38.8434H31.012H26H24.7031C23.8636 38.8434 23.1807 38.1605 23.1807 37.321ZM31.1812 47.6145H28.0675L27.0839 40.7229H30.1976L31.1812 47.6145ZM42.6024 43.2728L34.4578 39.2005V30.3417L42.6024 26.2694V43.2728ZM52 34.7711C52 35.2911 51.5802 35.7108 51.0602 35.7108H48.5542C48.0342 35.7108 47.6145 35.2911 47.6145 34.7711C47.6145 34.2511 48.0342 33.8313 48.5542 33.8313H51.0602C51.5802 33.8313 52 34.2511 52 34.7711ZM46.4617 28.9258C46.2299 28.4622 46.4178 27.8983 46.8814 27.6665L49.3875 26.4135C49.8511 26.1817 50.4149 26.3696 50.6467 26.8333C50.8786 27.2969 50.6906 27.8607 50.227 28.0925L47.721 29.3455C47.5831 29.4145 47.4453 29.4458 47.3012 29.4458C46.9566 29.4458 46.6246 29.2578 46.4617 28.9258ZM50.6467 42.7089C50.4839 43.041 50.1518 43.2289 49.8072 43.2289C49.6631 43.2289 49.5253 43.1976 49.3875 43.1287L46.8814 41.8757C46.4178 41.6439 46.2299 41.08 46.4617 40.6164C46.6935 40.1528 47.2573 39.9648 47.721 40.1966L50.227 41.4496C50.6906 41.6815 50.8786 42.2453 50.6467 42.7089ZM52 3.42072V20.988C52 21.508 51.5802 21.9277 51.0602 21.9277C50.5402 21.9277 50.1205 21.508 50.1205 20.988V3.42072C50.1205 2.57494 49.4313 1.87952 48.5793 1.87952H3.42072C2.57494 1.87952 1.87952 2.56867 1.87952 3.42072V37.3084C1.87952 38.1542 2.56867 38.8496 3.42072 38.8496H17.2289C17.7489 38.8496 18.1687 39.2694 18.1687 39.7894C18.1687 40.3094 17.7489 40.7292 17.2289 40.7292H3.42072C1.53494 40.7292 0 39.1942 0 37.3084V3.42072C0 1.53494 1.53494 0 3.42072 0H48.5855C50.4651 0 52 1.53494 52 3.42072ZM32.5407 19.7349C32.5407 19.1523 32.24 18.626 31.7451 18.3253L21.2824 12.054C20.7749 11.747 20.1422 11.7407 19.6284 12.0352C19.1147 12.3234 18.7952 12.8747 18.7952 13.4636V26.0125C18.7952 26.6015 19.1147 27.1528 19.6284 27.441C19.879 27.5851 20.161 27.654 20.4366 27.654C20.7311 27.654 21.0255 27.5788 21.2824 27.4222L31.7388 21.1508C32.24 20.8439 32.5407 20.3176 32.5407 19.7349ZM20.6747 25.5928V13.8771L30.4357 19.7349L20.6747 25.5928ZM5.36289 4.0347C5.53831 4.21012 5.63855 4.44819 5.63855 4.6988C5.63855 4.9494 5.53831 5.18747 5.36289 5.36289C5.27518 5.4506 5.16867 5.51952 5.0559 5.56964C4.94313 5.61349 4.8241 5.63856 4.6988 5.63856C4.44819 5.63856 4.21012 5.53831 4.0347 5.36289C3.85928 5.18121 3.75904 4.9494 3.75904 4.6988C3.75904 4.44819 3.85928 4.21012 4.0347 4.0347C4.07855 3.99084 4.12241 3.95325 4.1788 3.91566C4.22892 3.88434 4.2853 3.85301 4.34169 3.82795C4.39807 3.80916 4.45446 3.79036 4.51711 3.77783C4.81783 3.71518 5.14361 3.81542 5.36289 4.0347ZM9.12193 4.0347C9.29735 4.21012 9.39759 4.44819 9.39759 4.6988C9.39759 4.9494 9.29735 5.18747 9.12193 5.36289C8.94651 5.53831 8.70843 5.63856 8.45783 5.63856C8.20723 5.63856 7.96916 5.53831 7.79374 5.36289C7.61831 5.18121 7.51807 4.9494 7.51807 4.6988C7.51807 4.44819 7.61831 4.21012 7.79374 4.0347C7.83759 3.99084 7.88145 3.95325 7.93783 3.91566C7.98795 3.88434 8.04434 3.85301 8.10072 3.82795C8.15711 3.80916 8.21349 3.79036 8.27614 3.77783C8.57687 3.71518 8.90265 3.81542 9.12193 4.0347ZM12.881 4.0347C13.0564 4.21012 13.1566 4.44819 13.1566 4.6988C13.1566 4.9494 13.0564 5.18747 12.881 5.36289C12.7055 5.53831 12.4675 5.63856 12.2169 5.63856C11.9663 5.63856 11.7282 5.53831 11.5528 5.36289C11.3773 5.18121 11.2771 4.9494 11.2771 4.6988C11.2771 4.45446 11.3773 4.21012 11.5528 4.0347C11.8974 3.68386 12.5301 3.68386 12.881 4.0347Z" fill="#EC7834"/>
</svg>
