<svg width="36" height="36" viewBox="0 0 36 36" fill="none" xmlns="http://www.w3.org/2000/svg">
<path d="M30.5374 19.424C33.544 19.4333 35.9817 21.9142 36 24.9834V30.4235C35.9818 33.4956 33.5467 35.9814 30.5374 36H25.2084C22.2017 35.9813 19.7715 33.4928 19.7624 30.4235V24.9834C19.7624 21.913 22.2006 19.424 25.2084 19.424H30.5374ZM7.65104 19.424C8.21058 19.3628 8.75521 19.6331 9.05372 20.1201C9.35223 20.6071 9.35223 21.2253 9.05372 21.7123C8.75521 22.1992 8.21058 22.4695 7.65104 22.4084H5.46264C4.06678 22.4083 2.93262 23.5585 2.92343 24.9834V30.3553C2.95893 31.7688 4.0778 32.9035 5.46264 32.9304H10.8251C11.497 32.9349 12.1429 32.6656 12.6195 32.1822C13.0962 31.6988 13.3643 31.0412 13.3643 30.3553V22.289L13.3415 22.0883C13.3163 21.5546 13.5722 21.0407 14.0227 20.7491C14.5295 20.4211 15.1807 20.4404 15.6679 20.7979C16.1551 21.1554 16.3806 21.7794 16.2376 22.3743V30.4065C16.2376 33.4863 13.7919 35.983 10.7749 35.983H5.46264C2.47179 35.9196 0.0620524 33.4597 0 30.4065V24.9834C0 23.506 0.576053 22.0894 1.60098 21.0463C2.62591 20.0032 4.0154 19.4195 5.46264 19.424H7.65104ZM30.5374 22.4083H25.2084C23.8152 22.4083 22.6858 23.5612 22.6858 24.9834V30.4235C22.6814 31.1078 22.9457 31.7655 23.4197 32.2494C23.8938 32.7333 24.538 33.0032 25.2084 32.9986H30.5374C31.2077 33.0032 31.8519 32.7333 32.326 32.2494C32.8 31.7655 33.0643 31.1078 33.0599 30.4235V24.9834C33.0599 24.3005 32.7941 23.6455 32.321 23.1626C31.848 22.6796 31.2064 22.4083 30.5374 22.4083ZM30.5374 0C33.5217 0.07234 35.9216 2.52976 35.9833 5.5765V10.9995C36.0011 12.474 35.4444 13.8953 34.4356 14.9508C33.4268 16.0062 32.0486 16.6092 30.6042 16.6272H28.3991C27.652 16.5455 27.0855 15.902 27.0855 15.135C27.0855 14.368 27.652 13.7245 28.3991 13.6428H30.5374C31.2137 13.6383 31.8604 13.3586 32.3339 12.8655C32.8075 12.3725 33.0688 11.707 33.0599 11.0166V5.5765C33.0419 4.162 31.923 3.01979 30.5374 3.00142H25.2084C23.8152 3.00142 22.6858 4.15433 22.6858 5.5765V13.711L22.6684 13.8981C22.5551 14.6322 21.9286 15.1866 21.1824 15.1776C20.7939 15.1688 20.4251 15.0015 20.1583 14.7131C19.8915 14.4247 19.7489 14.0393 19.7624 13.6428V5.5765C19.758 4.09909 20.3298 2.68064 21.3516 1.63435C22.3734 0.58806 23.7611 0 25.2084 0H30.5374ZM10.7916 0C13.8048 0.00936363 16.2451 2.50057 16.2543 5.5765V11.0166C16.2543 12.494 15.6782 13.9107 14.6533 14.9537C13.6284 15.9968 12.2389 16.5806 10.7916 16.5761H5.46265C2.456 16.5667 0.0183196 14.0858 9.18793e-08 11.0166V5.5765C0.0182391 2.50443 2.4533 0.0186191 5.46265 0H10.7916ZM10.7916 3.00142H5.46265C4.78499 2.98767 4.13043 3.2529 3.64648 3.73732C3.16252 4.22174 2.88989 4.88459 2.89002 5.5765V11.0166C2.87624 11.7173 3.14286 12.3935 3.62834 12.8891C4.11382 13.3847 4.77621 13.6569 5.46265 13.6428H10.7916C11.468 13.6383 12.1147 13.3586 12.5882 12.8655C13.0618 12.3725 13.3231 11.707 13.3142 11.0166V5.5765C13.305 4.1582 12.181 3.01072 10.7916 3.00142Z" fill="#FF5000"/>
</svg>
