<svg width="51" height="59" viewBox="0 0 51 59" fill="none" xmlns="http://www.w3.org/2000/svg">
<path d="M24.589 40.0709H6.37491C6.13338 40.0709 5.90174 40.1668 5.73095 40.3376C5.56016 40.5084 5.46421 40.7401 5.46421 40.9816C5.46421 41.2231 5.56016 41.4548 5.73095 41.6256C5.90174 41.7963 6.13338 41.8923 6.37491 41.8923H24.589C24.8305 41.8923 25.0621 41.7963 25.2329 41.6256C25.4037 41.4548 25.4997 41.2231 25.4997 40.9816C25.4997 40.7401 25.4037 40.5084 25.2329 40.3376C25.0621 40.1668 24.8305 40.0709 24.589 40.0709ZM42.3804 43.2256L37.8725 47.7335L35.9399 45.801C35.7682 45.6351 35.5381 45.5433 35.2994 45.5454C35.0606 45.5475 34.8322 45.6433 34.6633 45.8121C34.4945 45.981 34.3987 46.2094 34.3966 46.4482C34.3945 46.687 34.4863 46.917 34.6522 47.0888L37.2277 49.6642C37.3985 49.835 37.6301 49.9309 37.8715 49.9309C38.113 49.9309 38.3446 49.835 38.5154 49.6642L43.6663 44.5133C43.8322 44.3415 43.924 44.1115 43.922 43.8727C43.9199 43.6339 43.8241 43.4055 43.6553 43.2367C43.4864 43.0678 43.258 42.972 43.0192 42.97C42.7804 42.9679 42.5522 43.0597 42.3804 43.2256ZM41.8923 34.9382V15.4819C41.887 15.4426 41.8791 15.4036 41.8686 15.3654C41.864 15.3267 41.8567 15.2883 41.8468 15.2506C41.8113 15.0957 41.7352 14.953 41.6264 14.8372L27.0551 0.265925C26.939 0.156151 26.7956 0.0794308 26.6399 0.0437137C26.6057 0.0348794 26.571 0.0281879 26.536 0.0236783C26.4948 0.0127719 26.4528 0.00485859 26.4104 0L4.55351 0C3.34584 0 2.18764 0.479743 1.33369 1.33369C0.479743 2.18764 0 3.34584 0 4.55351V53.7314C0 54.9391 0.479743 56.0973 1.33369 56.9512C2.18764 57.8052 3.34584 58.2849 4.55351 58.2849H40.8304C41.0423 58.2818 41.2462 58.2037 41.406 58.0645C44.0639 57.5533 46.4661 56.1459 48.2117 54.0773C49.9572 52.0087 50.9405 49.404 50.9974 46.6979C51.0543 43.9919 50.1814 41.3481 48.5243 39.208C46.8673 37.0678 44.5264 35.5607 41.8923 34.9382ZM27.3211 3.10914L38.7832 14.5712H30.0532C29.3286 14.5712 28.6336 14.2834 28.1213 13.771C27.6089 13.2586 27.3211 12.5637 27.3211 11.8391V3.10914ZM4.55351 56.4635C3.82891 56.4635 3.13399 56.1757 2.62162 55.6633C2.10925 55.1509 1.8214 54.456 1.8214 53.7314V4.55351C1.8214 3.82891 2.10925 3.13399 2.62162 2.62162C3.13399 2.10925 3.82891 1.8214 4.55351 1.8214H25.4997V11.8391C25.4997 13.0468 25.9794 14.205 26.8334 15.0589C27.6873 15.9129 28.8455 16.3926 30.0532 16.3926H40.0709V34.6522C39.7685 34.6285 39.468 34.6067 39.1602 34.6067C36.5914 34.6048 34.0917 35.4393 32.0392 36.9839C29.9866 38.5286 28.4927 40.6995 27.7833 43.1684C27.0739 45.6373 27.1876 48.2701 28.1071 50.6688C29.0266 53.0674 30.702 55.1015 32.88 56.4635H4.55351ZM39.1602 56.4635C37.1789 56.4635 35.2421 55.876 33.5946 54.7752C31.9472 53.6745 30.6632 52.1099 29.905 50.2794C29.1468 48.4489 28.9484 46.4347 29.335 44.4914C29.7215 42.5482 30.6756 40.7632 32.0766 39.3622C33.4776 37.9612 35.2626 37.0071 37.2058 36.6206C39.1491 36.234 41.1633 36.4324 42.9938 37.1906C44.8243 37.9489 46.3889 39.2329 47.4896 40.8803C48.5904 42.5277 49.1779 44.4645 49.1779 46.4458C49.1745 49.1016 48.118 51.6477 46.2401 53.5257C44.3621 55.4036 41.816 56.4602 39.1602 56.4635ZM5.46421 30.0532C5.46421 30.2947 5.56016 30.5263 5.73095 30.6971C5.90174 30.8679 6.13338 30.9639 6.37491 30.9639H35.5174C35.7589 30.9639 35.9906 30.8679 36.1613 30.6971C36.3321 30.5263 36.4281 30.2947 36.4281 30.0532C36.4281 29.8116 36.3321 29.58 36.1613 29.4092C35.9906 29.2384 35.7589 29.1425 35.5174 29.1425H6.37491C6.13338 29.1425 5.90174 29.2384 5.73095 29.4092C5.56016 29.58 5.46421 29.8116 5.46421 30.0532ZM28.2318 34.6067H6.37491C6.13338 34.6067 5.90174 34.7026 5.73095 34.8734C5.56016 35.0442 5.46421 35.2758 5.46421 35.5174C5.46421 35.7589 5.56016 35.9906 5.73095 36.1613C5.90174 36.3321 6.13338 36.4281 6.37491 36.4281H28.2318C28.4733 36.4281 28.7049 36.3321 28.8757 36.1613C29.0465 35.9906 29.1425 35.7589 29.1425 35.5174C29.1425 35.2758 29.0465 35.0442 28.8757 34.8734C28.7049 34.7026 28.4733 34.6067 28.2318 34.6067ZM13.6605 16.3926C14.2009 16.3926 14.7291 16.2324 15.1784 15.9322C15.6277 15.632 15.9779 15.2053 16.1847 14.7061C16.3915 14.2068 16.4456 13.6575 16.3401 13.1275C16.2347 12.5975 15.9745 12.1107 15.5924 11.7286C15.2103 11.3465 14.7235 11.0863 14.1935 10.9809C13.6636 10.8755 13.1142 10.9296 12.615 11.1364C12.1158 11.3432 11.6891 11.6934 11.3889 12.1427C11.0887 12.5919 10.9284 13.1202 10.9284 13.6605C10.9284 14.3851 11.2163 15.0801 11.7286 15.5924C12.241 16.1048 12.9359 16.3926 13.6605 16.3926ZM13.6605 12.7498C13.8407 12.7498 14.0167 12.8032 14.1665 12.9033C14.3163 13.0034 14.433 13.1456 14.5019 13.312C14.5708 13.4784 14.5889 13.6615 14.5537 13.8382C14.5186 14.0149 14.4319 14.1771 14.3045 14.3045C14.1771 14.4319 14.0149 14.5186 13.8382 14.5537C13.6615 14.5889 13.4784 14.5708 13.312 14.5019C13.1456 14.433 13.0034 14.3163 12.9033 14.1665C12.8032 14.0167 12.7498 13.8407 12.7498 13.6605C12.7498 13.419 12.8458 13.1874 13.0166 13.0166C13.1874 12.8458 13.419 12.7498 13.6605 12.7498ZM6.37491 47.3565H22.7676C23.0091 47.3565 23.2407 47.2606 23.4115 47.0898C23.5823 46.919 23.6783 46.6873 23.6783 46.4458C23.6783 46.2043 23.5823 45.9726 23.4115 45.8018C23.2407 45.6311 23.0091 45.5351 22.7676 45.5351H6.37491C6.13338 45.5351 5.90174 45.6311 5.73095 45.8018C5.56016 45.9726 5.46421 46.2043 5.46421 46.4458C5.46421 46.6873 5.56016 46.919 5.73095 47.0898C5.90174 47.2606 6.13338 47.3565 6.37491 47.3565ZM24.589 50.9993H6.37491C6.13338 50.9993 5.90174 51.0953 5.73095 51.2661C5.56016 51.4368 5.46421 51.6685 5.46421 51.91C5.46421 52.1516 5.56016 52.3832 5.73095 52.554C5.90174 52.7248 6.13338 52.8207 6.37491 52.8207H24.589C24.8305 52.8207 25.0621 52.7248 25.2329 52.554C25.4037 52.3832 25.4997 52.1516 25.4997 51.91C25.4997 51.6685 25.4037 51.4368 25.2329 51.2661C25.0621 51.0953 24.8305 50.9993 24.589 50.9993ZM6.62445 16.5748C6.71317 16.8992 6.75428 17.2348 6.74648 17.5711C6.67867 18.3996 6.93166 19.2224 7.45319 19.8697C8.10073 20.3907 8.92339 20.6437 9.7518 20.5764L10.0378 20.5928C10.03 20.6228 10.024 20.6532 10.0195 20.6839V26.5124C10.0196 26.6771 10.0644 26.8387 10.1491 26.98C10.2337 27.1213 10.3552 27.237 10.5004 27.3148C10.6456 27.3925 10.8092 27.4294 10.9738 27.4216C11.1383 27.4137 11.2976 27.3613 11.4348 27.2701L13.6605 25.7729L15.8881 27.2573C16.0373 27.3576 16.2129 27.4115 16.3926 27.4121C16.5428 27.4122 16.6906 27.3746 16.8225 27.3028C16.9676 27.2252 17.0889 27.1096 17.1736 26.9685C17.2582 26.8274 17.3031 26.666 17.3033 26.5014V20.5819L17.5693 20.5673C18.3977 20.6344 19.2202 20.3815 19.8679 19.8606C20.3897 19.216 20.6452 18.3962 20.5819 17.5693C20.5736 17.233 20.6147 16.8973 20.7039 16.573C20.8644 16.2991 21.0631 16.0495 21.294 15.8316C21.9427 15.2836 22.3534 14.5053 22.4397 13.6605C22.3515 12.8147 21.9381 12.0362 21.2868 11.4894C21.0558 11.2716 20.8571 11.022 20.6966 10.7481C20.6079 10.4237 20.5668 10.0881 20.5746 9.7518C20.6424 8.92333 20.3894 8.10046 19.8679 7.45319C19.2214 6.92956 18.3986 6.67399 17.5693 6.7392C17.2337 6.74812 16.8986 6.70761 16.5748 6.61898C16.3007 6.45872 16.0511 6.25999 15.8335 6.02885C15.2853 5.37911 14.5062 4.96769 13.6605 4.88136C12.8131 4.9691 12.0331 5.38327 11.4858 6.03613C11.2684 6.26675 11.0194 6.46543 10.7463 6.62627C10.4218 6.71477 10.0862 6.75527 9.74998 6.74648C8.92159 6.67942 8.099 6.93233 7.45136 7.45319C6.92839 8.09992 6.67348 8.92267 6.7392 9.7518C6.74744 10.0881 6.70632 10.4238 6.61716 10.7481C6.45665 11.022 6.25794 11.2716 6.02703 11.4894C5.37838 12.0374 4.96767 12.8158 4.88136 13.6605C4.96955 14.5064 5.38295 15.2849 6.03431 15.8316C6.26537 16.05 6.46408 16.3003 6.62445 16.5748ZM15.4819 24.7984L14.1651 23.9223C14.0154 23.8225 13.8395 23.7692 13.6596 23.7692C13.4797 23.7692 13.3038 23.8225 13.1542 23.9223L11.8373 24.7984V21.6055C12.3192 22.1009 12.9688 22.3984 13.6587 22.4397C14.3486 22.3984 14.9982 22.1009 15.4801 21.6055L15.4819 24.7984ZM7.36394 12.7334C7.75322 12.3636 8.0728 11.9268 8.30742 11.4439C8.48614 10.9219 8.57183 10.3726 8.5606 9.82101C8.53859 9.45242 8.60088 9.08366 8.74274 8.74274C9.08439 8.60122 9.45367 8.53895 9.82283 8.5606C10.3748 8.57061 10.9242 8.48305 11.4457 8.30196C11.9285 8.06726 12.3648 7.74698 12.7334 7.35665C13.0485 7.06158 13.4401 6.69548 13.6624 6.69548C13.8846 6.69548 14.2762 7.05976 14.5913 7.35665C14.9602 7.7474 15.3972 8.06772 15.8808 8.30196C16.4023 8.48335 16.9517 8.57091 17.5037 8.5606C17.8729 8.53889 18.2422 8.60116 18.5838 8.74274C18.7258 9.08425 18.7881 9.45364 18.7659 9.82283C18.7558 10.3754 18.8433 10.9254 19.0246 11.4475C19.2592 11.9305 19.5788 12.3673 19.9681 12.7371C20.2631 13.0504 20.6292 13.442 20.6292 13.6642C20.6292 13.8864 20.2649 14.278 19.9681 14.5913C19.5788 14.9611 19.2592 15.3979 19.0246 15.8808C18.8432 16.4029 18.755 16.9529 18.7641 17.5055C18.7864 17.8747 18.7241 18.2441 18.582 18.5856C18.2403 18.7271 17.871 18.7894 17.5019 18.7677C16.9499 18.7577 16.4005 18.8453 15.879 19.0264C15.3962 19.2611 14.9599 19.5814 14.5913 19.9717C14.2762 20.2668 13.8846 20.6329 13.6624 20.6329C13.4401 20.6329 13.0485 20.2686 12.7334 19.9717C12.3645 19.581 11.9275 19.2606 11.4439 19.0264C10.9224 18.845 10.373 18.7574 9.82101 18.7677C9.45184 18.7895 9.08255 18.7272 8.74092 18.5856C8.59891 18.2441 8.53662 17.8747 8.55878 17.5055C8.56892 16.9529 8.48137 16.4029 8.30014 15.8808C8.06552 15.3979 7.74593 14.9611 7.35665 14.5913C7.06158 14.278 6.69548 13.8864 6.69548 13.6642C6.69548 13.442 7.06887 13.0467 7.36394 12.7334Z" fill="#FF5000"/>
</svg>
