<svg width="52" height="42" viewBox="0 0 52 42" fill="none" xmlns="http://www.w3.org/2000/svg">
<path d="M49.4 26H46.8V7.8C46.8 5.73131 45.9782 3.74735 44.5154 2.28457C43.0527 0.821784 41.0687 0 39 0H13C10.9313 0 8.94735 0.821784 7.48457 2.28457C6.02178 3.74735 5.2 5.73131 5.2 7.8V26H2.6C1.91044 26 1.24912 26.2739 0.761522 26.7615C0.273928 27.2491 0 27.9104 0 28.6V33.8C0 35.8687 0.821784 37.8526 2.28457 39.3154C3.74735 40.7782 5.73131 41.6 7.8 41.6H44.2C46.2687 41.6 48.2526 40.7782 49.7154 39.3154C51.1782 37.8526 52 35.8687 52 33.8V28.6C52 27.9104 51.7261 27.2491 51.2385 26.7615C50.7509 26.2739 50.0896 26 49.4 26ZM10.4 7.8C10.4 7.11044 10.6739 6.44912 11.1615 5.96152C11.6491 5.47393 12.3104 5.2 13 5.2H39C39.6896 5.2 40.3509 5.47393 40.8385 5.96152C41.3261 6.44912 41.6 7.11044 41.6 7.8V26H10.4V7.8ZM46.8 33.8C46.8 34.4896 46.5261 35.1509 46.0385 35.6385C45.5509 36.1261 44.8896 36.4 44.2 36.4H7.8C7.11044 36.4 6.44912 36.1261 5.96152 35.6385C5.47393 35.1509 5.2 34.4896 5.2 33.8V31.2H46.8V33.8Z" fill="#FF4F00"/>
</svg>
