<svg width="34" height="49" viewBox="0 0 34 49" fill="none" xmlns="http://www.w3.org/2000/svg">
<path d="M11.5569 24.1396L19.2989 28.2893C19.4499 28.37 19.6153 28.4098 19.7817 28.4098C19.9481 28.4098 20.1135 28.37 20.2635 28.2893L28.0055 24.1396C30.2248 22.9504 31.604 20.6474 31.604 18.129V8.14625C31.604 7.80325 31.4315 7.48373 31.1456 7.29385L20.3432 0.168438C20.0022 -0.0561458 19.5602 -0.0561458 19.2192 0.168438L8.41779 7.29385C8.13094 7.48373 7.95944 7.80325 7.95944 8.14625V18.129C7.95944 20.6474 9.33756 22.9504 11.5569 24.1396ZM26.558 11.2424C26.9571 11.6416 26.9571 12.2878 26.558 12.6869L20.4442 18.8007C20.2523 18.9916 19.993 19.0998 19.7225 19.0998C19.452 19.0998 19.1917 18.9916 19.0008 18.8007L15.1267 14.9266C14.7276 14.5285 14.7276 13.8813 15.1267 13.4832C15.5259 13.084 16.172 13.084 16.5702 13.4832L19.7225 16.6355L25.1145 11.2424C25.5127 10.8443 26.1589 10.8443 26.558 11.2424ZM33.0883 29.7777C32.2308 29.1101 30.9486 29.206 29.8236 30.0227C28.9171 30.6811 28.0505 31.41 27.2134 32.1134C26.116 33.0362 25.0798 33.908 23.9569 34.6399C22.342 35.6934 20.5616 36.4244 18.7272 36.8041C19.4806 36.26 20.2023 35.6557 20.8893 34.9931C21.7866 34.1275 22.6288 32.6126 22.048 31.1905C21.6947 30.3249 20.7638 29.3571 18.3393 29.6695C15.3268 30.0564 12.4082 30.9721 9.64688 32.3941C9.12319 31.3886 8.07071 30.6995 6.86 30.6995H3.14008C1.40875 30.6995 0 32.1083 0 33.8396V45.8599C0 47.5912 1.40875 49 3.14008 49H6.86C7.9574 49 8.9231 48.4345 9.48558 47.581C10.7953 47.6944 11.9295 47.7495 12.9819 47.7495C13.5036 47.7495 14.0038 47.7362 14.4969 47.7097C18.4301 47.4963 22.2868 45.8946 25.6495 43.0792C28.2118 40.9354 31.8214 37.5728 33.5844 33.1577C34.155 31.7265 33.9703 30.4637 33.0883 29.7777ZM31.6877 32.4002C30.9251 34.3102 29.3347 37.3319 24.3397 41.5142C21.317 44.0439 17.8748 45.4812 14.3856 45.6711C13.083 45.7415 11.7018 45.7119 10.0011 45.5751V34.5185C12.7216 33.028 15.6116 32.0787 18.6006 31.6938C19.1141 31.6285 20.0002 31.5754 20.1584 31.9623C20.3207 32.3614 19.9287 33.0832 19.4724 33.5242C17.836 35.1014 15.9842 36.309 13.967 37.1124C13.5291 37.287 13.2678 37.7392 13.3341 38.2057C13.4005 38.6722 13.7782 39.0326 14.2467 39.0775C17.981 39.4358 21.8264 38.467 25.0727 36.3498C26.2997 35.5495 27.4318 34.5971 28.5272 33.6763C29.3377 32.9954 30.1758 32.291 31.0231 31.6754C31.459 31.359 31.7765 31.3559 31.8316 31.3855C31.8663 31.4284 31.95 31.7438 31.6877 32.4002Z" fill="#FF4F00"/>
</svg>
