<svg width="48" height="48" viewBox="0 0 48 48" fill="none" xmlns="http://www.w3.org/2000/svg">
<path d="M24 0C10.752 0 0 10.752 0 24C0 37.248 10.752 48 24 48C37.248 48 48 37.248 48 24C48 10.752 37.248 0 24 0ZM24 1.14286C36.6309 1.14286 46.8571 11.3691 46.8571 24C46.8571 36.6309 36.6309 46.8571 24 46.8571C11.3691 46.8571 1.14286 36.6309 1.14286 24C1.14286 11.3691 11.3691 1.14286 24 1.14286ZM10.8571 10.2857C9.91772 10.2857 9.14286 11.0606 9.14286 12V29.1429C9.14286 30.0823 9.91772 30.8571 10.8571 30.8571H19.592C19.9886 31.888 19.9154 32.6469 19.5486 33.3486C19.1669 34.0823 18.4194 34.7657 17.5223 35.4286H15.4286C15.2775 35.4328 15.1336 35.494 15.0259 35.6001C14.9181 35.7061 14.8546 35.849 14.848 36C14.8538 36.1513 14.9171 36.2946 15.025 36.4008C15.1329 36.507 15.2772 36.568 15.4286 36.5714H31.4286C31.5797 36.5672 31.7236 36.506 31.8313 36.3999C31.939 36.2939 32.0026 36.151 32.0091 36C32.0034 35.8487 31.9401 35.7054 31.8322 35.5992C31.7243 35.493 31.5799 35.432 31.4286 35.4286H29.3486C28.592 34.8274 27.8834 34.2709 27.4857 33.5943C27.1006 32.936 26.9577 32.1246 27.3063 30.8571H29.7657C30.0286 33.3989 32.2 35.424 34.8571 35.424C37.6903 35.424 40 33.1337 39.9977 30.3817L39.9931 27.4217H37.7143V12C37.7143 11.0606 36.9394 10.2857 36 10.2857H10.8571ZM10.8571 11.424V11.4286H36C36.3269 11.4286 36.5714 11.6731 36.5714 12V25.1429H35.4263L35.4309 23.4686C35.4914 22.4891 34.6571 21.7189 33.7166 21.7189C32.7771 21.7189 32.0023 22.4937 32.0023 23.4331V25.1383H10.2857V11.9954C10.2857 11.6686 10.5303 11.424 10.8571 11.424ZM33.7166 22.8663C34.0423 22.8663 34.3074 23.1177 34.2903 23.4023L34.288 23.4194L34.2743 28.5691H38.8526L38.8549 30.3863C38.8571 32.496 37.0743 34.2857 34.8571 34.2857C32.64 34.2857 30.8571 32.5006 30.8571 30.3589L30.8709 29.1566C30.8687 29.0807 30.8819 29.0052 30.9098 28.9347C30.9377 28.8641 30.9796 28.7999 31.0331 28.7461C31.0865 28.6922 31.1503 28.6497 31.2207 28.6213C31.291 28.5928 31.3664 28.579 31.4423 28.5806H32.0023V30.8617H33.1451V23.4377C33.1451 23.1109 33.3897 22.8663 33.7166 22.8663ZM10.2857 26.2857H32.0023V27.4377H31.4423C30.5017 27.4377 29.736 28.2114 29.728 29.1451L29.7211 29.7143H10.8571C10.7816 29.7162 10.7064 29.7027 10.6363 29.6746C10.5661 29.6466 10.5023 29.6046 10.4489 29.5511C10.3955 29.4977 10.3534 29.4339 10.3254 29.3637C10.2973 29.2936 10.2838 29.2184 10.2857 29.1429V26.2857ZM35.424 26.2857H36.5714V27.4217H35.4217L35.424 26.2857ZM23.4286 27.2766C23.202 27.279 22.9853 27.37 22.8251 27.5303C22.6649 27.6905 22.5738 27.9071 22.5714 28.1337C22.5714 28.6 22.9623 28.9909 23.4286 28.9909C23.8949 28.9909 24.2857 28.6 24.2857 28.1337C24.2833 27.9071 24.1923 27.6905 24.032 27.5303C23.8718 27.37 23.6552 27.279 23.4286 27.2766ZM20.7086 30.8766H26.2034C25.9223 32.2103 26.0137 33.3371 26.5017 34.1691C26.8251 34.72 27.3166 35.0343 27.7634 35.4286H19.0549C19.6011 34.9383 20.2331 34.5086 20.5634 33.8777C21.0034 33.032 21.016 31.992 20.7074 30.8777L20.7086 30.8766Z" fill="#FF4F00"/>
</svg>
