<svg width="46" height="46" viewBox="0 0 46 46" fill="none" xmlns="http://www.w3.org/2000/svg">
<path fill-rule="evenodd" clip-rule="evenodd" d="M8.05 27.669C3.519 28.2325 0 32.108 0 36.8C0 41.883 4.117 46 9.2 46C13.892 46 17.7675 42.481 18.331 37.95H19.55C20.1825 37.95 20.7 37.4325 20.7 36.8C20.7 30.452 15.548 25.3 9.2 25.3C8.5675 25.3 8.05 25.8175 8.05 26.45V27.669ZM8.05 29.992C4.784 30.544 2.3 33.3845 2.3 36.8C2.3 40.6065 5.3935 43.7 9.2 43.7C12.6155 43.7 15.456 41.216 16.008 37.95H9.2C8.5675 37.95 8.05 37.4325 8.05 36.8V29.992ZM42.55 0H3.45C2.53 0 1.656 0.368 1.012 1.012C0.368 1.656 0 2.53 0 3.45V27.6C0 28.2325 0.5175 28.75 1.15 28.75C1.7825 28.75 2.3 28.2325 2.3 27.6V9.2H43.7V34.5C43.7 34.8105 43.5735 35.098 43.3665 35.3165C43.148 35.535 42.8605 35.65 42.55 35.65H24.15C23.5175 35.65 23 36.1675 23 36.8C23 37.4325 23.5175 37.95 24.15 37.95H42.55C43.47 37.95 44.344 37.582 44.988 36.938C45.632 36.294 46 35.4085 46 34.5V3.45C46 2.53 45.632 1.656 44.988 1.012C44.344 0.368 43.47 0 42.55 0ZM10.35 27.669V35.65H18.331C17.8135 31.487 14.513 28.1865 10.35 27.669ZM39.1 31.05H24.15C23.5175 31.05 23 31.5675 23 32.2C23 32.8325 23.5175 33.35 24.15 33.35H39.1C39.7325 33.35 40.25 32.8325 40.25 32.2C40.25 31.5675 39.7325 31.05 39.1 31.05ZM21.85 28.75V19.55C21.85 18.9175 21.3325 18.4 20.7 18.4H16.1C15.4675 18.4 14.95 18.9175 14.95 19.55V24.15C14.95 24.7825 15.4675 25.3 16.1 25.3C16.7325 25.3 17.25 24.7825 17.25 24.15V20.7H19.55V28.75C19.55 29.3825 20.0675 29.9 20.7 29.9C21.3325 29.9 21.85 29.3825 21.85 28.75ZM39.1 24.15C39.1 23.5175 38.5825 23 37.95 23H33.35C32.7175 23 32.2 23.5175 32.2 24.15V28.75C32.2 29.3825 32.7175 29.9 33.35 29.9H37.95C38.5825 29.9 39.1 29.3825 39.1 28.75V24.15ZM31.05 12.65C31.05 12.0175 30.5325 11.5 29.9 11.5H25.3C24.6675 11.5 24.15 12.0175 24.15 12.65V28.75C24.15 29.3825 24.6675 29.9 25.3 29.9H29.9C30.5325 29.9 31.05 29.3825 31.05 28.75V12.65ZM36.8 25.3V27.6H34.5V25.3H36.8ZM28.75 13.8V27.6H26.45V13.8H28.75ZM13.8 23V13.8C13.8 13.1675 13.2825 12.65 12.65 12.65H8.05C7.4175 12.65 6.9 13.1675 6.9 13.8V21.85C6.9 22.4825 7.4175 23 8.05 23C8.6825 23 9.2 22.4825 9.2 21.85V14.95H11.5V23C11.5 23.6325 12.0175 24.15 12.65 24.15C13.2825 24.15 13.8 23.6325 13.8 23ZM24.15 2.3V6.9H43.7V3.45C43.7 3.151 43.5735 2.852 43.3665 2.6335C43.148 2.415 42.8605 2.3 42.55 2.3H24.15ZM21.85 2.3H3.45C3.151 2.3 2.852 2.415 2.6335 2.6335C2.415 2.852 2.3 3.1395 2.3 3.45V6.9H21.85V2.3ZM40.25 3.45C40.8825 3.45 41.4 3.9675 41.4 4.6C41.4 5.2325 40.8825 5.75 40.25 5.75C39.6175 5.75 39.1 5.2325 39.1 4.6C39.1 3.9675 39.6175 3.45 40.25 3.45ZM35.65 3.45C36.2825 3.45 36.8 3.9675 36.8 4.6C36.8 5.2325 36.2825 5.75 35.65 5.75C35.0175 5.75 34.5 5.2325 34.5 4.6C34.5 3.9675 35.0175 3.45 35.65 3.45ZM31.05 3.45C31.6825 3.45 32.2 3.9675 32.2 4.6C32.2 5.2325 31.6825 5.75 31.05 5.75C30.4175 5.75 29.9 5.2325 29.9 4.6C29.9 3.9675 30.4175 3.45 31.05 3.45Z" fill="#FF4F00"/>
</svg>
