<svg width="52" height="51" viewBox="0 0 52 51" fill="none" xmlns="http://www.w3.org/2000/svg">
<path fill-rule="evenodd" clip-rule="evenodd" d="M4.14761 0C2.1503 0 0.505101 1.6452 0.505101 3.64251L0.500244 35.2158C0.500244 36.8367 2.93101 36.8367 2.93101 35.2158L2.93344 3.64251C2.93344 2.94922 3.45432 2.42834 4.14761 2.42834H38.1444C38.8377 2.42834 39.3585 2.94922 39.3585 3.64251V25.4976C39.3343 27.1391 41.8112 27.1391 41.7869 25.4976V3.64251C41.7869 1.6452 40.1417 0 38.1444 0H4.14761ZM11.4326 9.71336C11.1106 9.71336 10.8018 9.84128 10.5741 10.069C10.3464 10.2967 10.2185 10.6055 10.2185 10.9275C10.2185 11.2495 10.3464 11.5584 10.5741 11.7861C10.8018 12.0138 11.1106 12.1417 11.4326 12.1417C11.7547 12.1417 12.0635 12.0138 12.2912 11.7861C12.5189 11.5584 12.6468 11.2495 12.6468 10.9275C12.6468 10.6055 12.5189 10.2967 12.2912 10.069C12.0635 9.84128 11.7547 9.71336 11.4326 9.71336ZM16.1679 9.71579C14.5858 9.82506 14.6988 12.1854 16.2845 12.1441H30.8594C32.4438 12.1101 32.4438 9.74978 30.8594 9.71579H16.2845C16.2456 9.71395 16.2067 9.71395 16.1679 9.71579ZM11.4326 16.9984C11.1106 16.9984 10.8018 17.1263 10.5741 17.354C10.3464 17.5817 10.2185 17.8905 10.2185 18.2125C10.2185 18.5346 10.3464 18.8434 10.5741 19.0711C10.8018 19.2988 11.1106 19.4267 11.4326 19.4267C11.7547 19.4267 12.0635 19.2988 12.2912 19.0711C12.5189 18.8434 12.6468 18.5346 12.6468 18.2125C12.6468 17.8905 12.5189 17.5817 12.2912 17.354C12.0635 17.1263 11.7547 16.9984 11.4326 16.9984ZM30.9929 16.9984C30.948 16.9984 30.9031 16.9984 30.8594 17.0032H16.2845C16.2456 17.0014 16.2067 17.0014 16.1679 17.0032C14.6793 17.1878 14.7837 19.3806 16.2845 19.4219H30.8594C32.5264 19.5688 32.666 17.0336 30.9929 16.9984ZM16.2845 24.281C14.7 24.315 14.7 26.6753 16.2845 26.7093H30.8594C32.5131 26.7457 32.5131 24.2445 30.8594 24.281H16.2845ZM11.4326 24.2834C11.1106 24.2834 10.8018 24.4113 10.5741 24.639C10.3464 24.8667 10.2185 25.1756 10.2185 25.4976C10.2185 25.8196 10.3464 26.1284 10.5741 26.3561C10.8018 26.5838 11.1106 26.7117 11.4326 26.7117C11.7547 26.7117 12.0635 26.5838 12.2912 26.3561C12.5189 26.1284 12.6468 25.8196 12.6468 25.4976C12.6468 25.1756 12.5189 24.8667 12.2912 24.639C12.0635 24.4113 11.7547 24.2834 11.4326 24.2834ZM11.4326 31.5684C11.1106 31.5684 10.8018 31.6963 10.5741 31.924C10.3464 32.1517 10.2185 32.4606 10.2185 32.7826C10.2185 33.1046 10.3464 33.4134 10.5741 33.6411C10.8018 33.8688 11.1106 33.9968 11.4326 33.9968C11.7547 33.9968 12.0635 33.8688 12.2912 33.6411C12.5189 33.4134 12.6468 33.1046 12.6468 32.7826C12.6468 32.4606 12.5189 32.1517 12.2912 31.924C12.0635 31.6963 11.7547 31.5684 11.4326 31.5684ZM16.2845 31.5684C14.6308 31.532 14.6308 34.0332 16.2845 33.9968H28.4286C30.0823 34.0332 30.0823 31.532 28.4286 31.5684H16.2845ZM11.4326 38.8534C11.1106 38.8534 10.8018 38.9814 10.5741 39.2091C10.3464 39.4368 10.2185 39.7456 10.2185 40.0676C10.2185 40.3896 10.3464 40.6985 10.5741 40.9262C10.8018 41.1539 11.1106 41.2818 11.4326 41.2818C11.7547 41.2818 12.0635 41.1539 12.2912 40.9262C12.5189 40.6985 12.6468 40.3896 12.6468 40.0676C12.6468 39.7456 12.5189 39.4368 12.2912 39.2091C12.0635 38.9814 11.7547 38.8534 11.4326 38.8534ZM16.1679 38.8534C14.5482 38.9311 14.6635 41.3619 16.2845 41.2842H26.0002C27.6212 41.2842 27.6212 38.8534 26.0002 38.8534H16.2845C16.2456 38.8516 16.2067 38.8516 16.1679 38.8534ZM1.70227 40.0458C1.54179 40.0473 1.3832 40.0807 1.2357 40.1439C1.08819 40.2072 0.954685 40.2991 0.842905 40.4142C0.731125 40.5294 0.643286 40.6656 0.58447 40.8149C0.525654 40.9642 0.497026 41.1237 0.500244 41.2842L0.505101 47.3526C0.505101 49.3499 2.1503 50.9951 4.14761 50.9951H28.431C30.0726 51.0194 30.0726 48.5425 28.431 48.5668H4.14761C3.45432 48.5668 2.93344 48.0459 2.93344 47.3526L2.93101 41.2842C2.93428 41.1215 2.9048 40.9598 2.84433 40.8087C2.78386 40.6576 2.69363 40.5202 2.57901 40.4047C2.46438 40.2891 2.3277 40.1978 2.17709 40.1362C2.02648 40.0745 1.86501 40.0438 1.70227 40.0458ZM40.5751 29.1376C34.5541 29.1376 29.65 34.0441 29.65 40.0652C29.65 46.0863 34.5553 51 40.5751 51C46.5962 51 51.5002 46.0863 51.5002 40.0652C51.5002 34.0441 46.595 29.1376 40.5751 29.1376ZM40.5751 31.5684C41.6917 31.5659 42.7977 31.7839 43.8297 32.21C44.8618 32.6361 45.7995 33.2618 46.589 34.0513C47.3785 34.8409 48.0043 35.7785 48.4304 36.8106C48.8564 37.8426 49.0745 38.9487 49.0719 40.0652C49.0746 41.1821 48.8568 42.2886 48.4308 43.3211C48.0049 44.3536 47.3792 45.2918 46.5898 46.0819C45.8003 46.8721 44.8626 47.4985 43.8305 47.9253C42.7983 48.3522 41.6921 48.571 40.5751 48.5692C39.4582 48.571 38.352 48.3522 37.3198 47.9253C36.2877 47.4985 35.35 46.8721 34.5605 46.0819C33.7711 45.2918 33.1454 44.3536 32.7195 43.3211C32.2935 42.2886 32.0757 41.1821 32.0784 40.0652C32.0758 38.9487 32.2938 37.8426 32.7199 36.8106C33.146 35.7785 33.7718 34.8409 34.5613 34.0513C35.3508 33.2618 36.2885 32.6361 37.3205 32.21C38.3526 31.7839 39.4586 31.5659 40.5751 31.5684ZM44.4095 36.2733C44.0951 36.2836 43.7969 36.4155 43.5778 36.6412L39.2845 40.9333L37.5725 39.2141C37.4599 39.0996 37.3258 39.0085 37.1779 38.9461C37.03 38.8837 36.8711 38.8512 36.7106 38.8505C36.55 38.8498 36.3909 38.8808 36.2424 38.9419C36.094 39.0029 35.959 39.0928 35.8454 39.2062C35.7318 39.3197 35.6418 39.4545 35.5805 39.6029C35.5193 39.7513 35.488 39.9103 35.4885 40.0709C35.489 40.2314 35.5213 40.3903 35.5834 40.5383C35.6456 40.6863 35.7365 40.8206 35.8508 40.9333L38.4249 43.5061C38.5376 43.619 38.6715 43.7086 38.8189 43.7697C38.9663 43.8308 39.1243 43.8622 39.2839 43.8622C39.4434 43.8622 39.6014 43.8308 39.7488 43.7697C39.8962 43.7086 40.0301 43.619 40.1429 43.5061L45.2995 38.3605C45.4766 38.1897 45.5976 37.9691 45.6465 37.728C45.6954 37.4869 45.6699 37.2366 45.5734 37.0103C45.4769 36.784 45.314 36.5924 45.1061 36.4608C44.8983 36.3292 44.6553 36.2638 44.4095 36.2733Z" fill="#EC7834"/>
</svg>
