<svg width="47" height="50" viewBox="0 0 47 50" fill="none" xmlns="http://www.w3.org/2000/svg">
<path d="M30.8077 35.7519H11.6827C11.3565 35.754 11.0443 35.885 10.8144 36.1164C10.5845 36.3479 10.4555 36.6608 10.4555 36.987V48.7728C10.4554 49.0942 10.5814 49.4028 10.8064 49.6322C11.0314 49.8617 11.3374 49.9937 11.6588 50H30.7838C31.1092 50 31.4214 49.8707 31.6515 49.6406C31.8816 49.4104 32.0109 49.0983 32.0109 48.7728V36.987C32.011 36.6649 31.8853 36.3555 31.6605 36.1247C31.4357 35.894 31.1297 35.7602 30.8077 35.7519ZM31.2539 48.7728C31.2519 48.8905 31.2042 49.0028 31.1209 49.0861C31.0377 49.1693 30.9254 49.217 30.8077 49.2191H11.6827C11.5649 49.217 11.4526 49.1693 11.3694 49.0861C11.2861 49.0028 11.2385 48.8905 11.2364 48.7728V36.987C11.2364 36.8687 11.2834 36.7552 11.3671 36.6715C11.4508 36.5878 11.5643 36.5408 11.6827 36.5408H30.8077C30.926 36.5408 31.0395 36.5878 31.1232 36.6715C31.2069 36.7552 31.2539 36.8687 31.2539 36.987V48.7728ZM24.6797 0.59375V8.78562C28.2709 9.10646 31.6138 10.7534 34.0565 13.4054C36.4992 16.0573 37.8666 19.524 37.8919 23.1294C37.8998 25.9635 37.0679 28.7364 35.5013 31.0981L41.8763 36.1902C44.2188 32.8984 45.634 29.0377 45.9739 25.0118C46.3138 20.9859 45.5659 16.9426 43.8085 13.3047C42.051 9.66675 39.3484 6.56775 35.9834 4.33171C32.6184 2.09566 28.7144 0.804683 24.6797 0.59375ZM3.73782 34.0625L10.6706 29.7514C9.40981 27.2806 8.88948 24.4982 9.17222 21.7387C9.45495 18.9793 10.5287 16.3602 12.2644 14.1964L6.3436 8.61828C3.37874 12.0941 1.54157 16.3896 1.07614 20.9344C0.610701 25.4791 1.53904 30.0579 3.73782 34.0625Z" fill="#FF4F00"/>
</svg>
