<svg width="59" height="59" viewBox="0 0 59 59" fill="none" xmlns="http://www.w3.org/2000/svg">
<path d="M23.3336 20.4169H14.5835C13.8099 20.4169 13.0681 20.7242 12.5211 21.2712C11.9741 21.8182 11.6668 22.56 11.6668 23.3336C11.6668 24.1071 11.9741 24.849 12.5211 25.396C13.0681 25.943 13.8099 26.2503 14.5835 26.2503H16.0419V35.0004C16.0419 35.7739 16.3491 36.5158 16.8961 37.0628C17.4431 37.6098 18.185 37.9171 18.9586 37.9171C19.7321 37.9171 20.474 37.6098 21.021 37.0628C21.568 36.5158 21.8753 35.7739 21.8753 35.0004V26.2503H23.3336C24.1072 26.2503 24.849 25.943 25.396 25.396C25.943 24.849 26.2503 24.1071 26.2503 23.3336C26.2503 22.56 25.943 21.8182 25.396 21.2712C24.849 20.7242 24.1072 20.4169 23.3336 20.4169ZM44.8588 20.6502C44.3277 20.4269 43.7423 20.3658 43.1764 20.4749C42.6106 20.5839 42.0898 20.858 41.6796 21.2627L37.9171 25.0544L34.1546 21.2627C33.7444 20.858 33.2236 20.5839 32.6577 20.4749C32.0919 20.3658 31.5065 20.4269 30.9754 20.6502C30.4427 20.869 29.9868 21.2406 29.6649 21.7181C29.3431 22.1957 29.1699 22.7578 29.167 23.3336V35.0004C29.167 35.7739 29.4743 36.5158 30.0213 37.0628C30.5683 37.6098 31.3101 37.9171 32.0837 37.9171C32.8573 37.9171 33.5991 37.6098 34.1461 37.0628C34.6931 36.5158 35.0004 35.7739 35.0004 35.0004V30.3628L35.8462 31.2378C36.1174 31.5112 36.44 31.7282 36.7954 31.8763C37.1508 32.0244 37.5321 32.1006 37.9171 32.1006C38.3021 32.1006 38.6834 32.0244 39.0388 31.8763C39.3942 31.7282 39.7168 31.5112 39.988 31.2378L40.8338 30.3628V35.0004C40.8338 35.7739 41.1411 36.5158 41.6881 37.0628C42.2351 37.6098 42.9769 37.9171 43.7505 37.9171C44.5241 37.9171 45.2659 37.6098 45.8129 37.0628C46.3599 36.5158 46.6672 35.7739 46.6672 35.0004V23.3336C46.6643 22.7578 46.4911 22.1957 46.1693 21.7181C45.8474 21.2406 45.3915 20.869 44.8588 20.6502ZM29.167 0C23.3983 0 17.7592 1.71061 12.9627 4.91552C8.1662 8.12043 4.4278 12.6757 2.22022 18.0053C0.0126376 23.3348 -0.564966 29.1993 0.560449 34.8572C1.68586 40.515 4.46375 45.7121 8.54283 49.7912C12.6219 53.8702 17.819 56.6481 23.4768 57.7735C29.1346 58.899 34.9992 58.3214 40.3287 56.1138C45.6583 53.9062 50.2136 50.1678 53.4185 45.3713C56.6234 40.5748 58.334 34.9357 58.334 29.167C58.334 25.3367 57.5796 21.544 56.1138 18.0053C54.648 14.4666 52.4996 11.2512 49.7912 8.54281C47.0828 5.83441 43.8674 3.68598 40.3287 2.2202C36.79 0.754427 32.9973 0 29.167 0ZM29.167 52.5006C24.5521 52.5006 20.0407 51.1321 16.2036 48.5682C12.3664 46.0042 9.37564 42.36 7.60957 38.0964C5.84351 33.8327 5.38143 29.1411 6.28176 24.6148C7.18209 20.0886 9.4044 15.9309 12.6677 12.6676C15.9309 9.40439 20.0886 7.18208 24.6148 6.28175C29.1411 5.38141 33.8327 5.8435 38.0964 7.60956C42.36 9.37563 46.0042 12.3664 48.5682 16.2035C51.1321 20.0407 52.5006 24.552 52.5006 29.167C52.5006 35.3554 50.0422 41.2904 45.6663 45.6663C41.2904 50.0422 35.3555 52.5006 29.167 52.5006Z" fill="#FF5000"/>
</svg>
